<?xml version="1.0" encoding="UTF-8" standalone="no"?>
<!DOCTYPE svg PUBLIC "-//W3C//DTD SVG 1.1//EN"
 "http://www.w3.org/Graphics/SVG/1.1/DTD/svg11.dtd">
<!-- Generated by graphviz version 2.40.1 (20161225.0304)
 -->
<!-- Title: GridWorld::prettifyPolicy Pages: 1 -->
<svg width="360pt" height="192pt"
 viewBox="0.00 0.00 360.00 192.00" xmlns="http://www.w3.org/2000/svg" xmlns:xlink="http://www.w3.org/1999/xlink">
<g id="graph0" class="graph" transform="scale(1 1) rotate(0) translate(4 188)">
<title>GridWorld::prettifyPolicy</title>
<!-- Node186 -->
<g id="node1" class="node">
<title>Node186</title>
<polygon fill="#bfbfbf" stroke="#000000" points="0,-82.5 0,-101.5 137,-101.5 137,-82.5 0,-82.5"/>
<text text-anchor="middle" x="68.5" y="-89.5" font-family="Helvetica,sans-Serif" font-size="10.00" fill="#000000">GridWorld::prettifyPolicy</text>
</g>
<!-- Node187 -->
<g id="node2" class="node">
<title>Node187</title>
<g id="a_node2"><a xlink:href="classGridWorld.html#add6d00c0d2eec4d16706a19b0527bba5" target="_top" xlink:title="Policy iteration method. ">
<polygon fill="none" stroke="#000000" points="191.5,-164.5 191.5,-183.5 333.5,-183.5 333.5,-164.5 191.5,-164.5"/>
<text text-anchor="middle" x="262.5" y="-171.5" font-family="Helvetica,sans-Serif" font-size="10.00" fill="#000000">GridWorld::policyIteration</text>
</a>
</g>
</g>
<!-- Node186&#45;&gt;Node187 -->
<g id="edge1" class="edge">
<title>Node186&#45;&gt;Node187</title>
<path fill="none" stroke="#191970" d="M89.4957,-107.5565C109.8513,-121.9165 142.1024,-142.8073 173,-155 182.7519,-158.8483 193.4243,-161.9751 203.8944,-164.4968"/>
<polygon fill="#191970" stroke="#191970" points="91.4477,-104.6493 81.2834,-101.6598 87.365,-110.3354 91.4477,-104.6493"/>
</g>
<!-- Node188 -->
<g id="node3" class="node">
<title>Node188</title>
<g id="a_node3"><a xlink:href="classGridWorld.html#a0d5cada9fc611efc747722223c97e8e5" target="_top" xlink:title="Value iteration method. ">
<polygon fill="none" stroke="#000000" points="192.5,-126.5 192.5,-145.5 332.5,-145.5 332.5,-126.5 192.5,-126.5"/>
<text text-anchor="middle" x="262.5" y="-133.5" font-family="Helvetica,sans-Serif" font-size="10.00" fill="#000000">GridWorld::valueIteration</text>
</a>
</g>
</g>
<!-- Node186&#45;&gt;Node188 -->
<g id="edge2" class="edge">
<title>Node186&#45;&gt;Node188</title>
<path fill="none" stroke="#191970" d="M117.6253,-104.0268C135.0861,-108.2288 154.8987,-112.9141 173,-117 187.1001,-120.1827 202.485,-123.5035 216.4595,-126.4621"/>
<polygon fill="#191970" stroke="#191970" points="118.1894,-100.5624 107.6472,-101.6167 116.5459,-107.3668 118.1894,-100.5624"/>
</g>
<!-- Node189 -->
<g id="node4" class="node">
<title>Node189</title>
<g id="a_node4"><a xlink:href="classGridWorld.html#a03586ebfa410ea0617103c70ce5b08cb" target="_top" xlink:title="Monte Carlo Estimating Starts algorithm for finding an optimal policy. ">
<polygon fill="none" stroke="#000000" points="173,-77 173,-107 352,-107 352,-77 173,-77"/>
<text text-anchor="start" x="181" y="-95" font-family="Helvetica,sans-Serif" font-size="10.00" fill="#000000">GridWorld::MonteCarloEstimating</text>
<text text-anchor="middle" x="262.5" y="-84" font-family="Helvetica,sans-Serif" font-size="10.00" fill="#000000">Starts</text>
</a>
</g>
</g>
<!-- Node186&#45;&gt;Node189 -->
<g id="edge3" class="edge">
<title>Node186&#45;&gt;Node189</title>
<path fill="none" stroke="#191970" d="M147.3191,-92C155.731,-92 164.332,-92 172.8569,-92"/>
<polygon fill="#191970" stroke="#191970" points="147.1702,-88.5001 137.1702,-92 147.1701,-95.5001 147.1702,-88.5001"/>
</g>
<!-- Node190 -->
<g id="node5" class="node">
<title>Node190</title>
<g id="a_node5"><a xlink:href="classGridWorld.html#ad1c7b6d4e864ef8e8aca9163c2d8cd86" target="_top" xlink:title="Temporal difference method for finding the optimal policy using SARSA. ">
<polygon fill="none" stroke="#000000" points="213.5,-38.5 213.5,-57.5 311.5,-57.5 311.5,-38.5 213.5,-38.5"/>
<text text-anchor="middle" x="262.5" y="-45.5" font-family="Helvetica,sans-Serif" font-size="10.00" fill="#000000">GridWorld::Sarsa</text>
</a>
</g>
</g>
<!-- Node186&#45;&gt;Node190 -->
<g id="edge4" class="edge">
<title>Node186&#45;&gt;Node190</title>
<path fill="none" stroke="#191970" d="M119.4411,-80.2373C136.4665,-76.3228 155.5475,-71.9541 173,-68 188.2173,-64.5523 204.8997,-60.8134 219.6954,-57.5114"/>
<polygon fill="#191970" stroke="#191970" points="118.6426,-76.8295 109.6822,-82.4829 120.2124,-83.6512 118.6426,-76.8295"/>
</g>
<!-- Node191 -->
<g id="node6" class="node">
<title>Node191</title>
<g id="a_node6"><a xlink:href="classGridWorld.html#abdbd7b78344fe0db7dbdd4f55d8ace70" target="_top" xlink:title="Temporal difference method for finding the optimal policy using Q&#45;Learning. ">
<polygon fill="none" stroke="#000000" points="202,-.5 202,-19.5 323,-19.5 323,-.5 202,-.5"/>
<text text-anchor="middle" x="262.5" y="-7.5" font-family="Helvetica,sans-Serif" font-size="10.00" fill="#000000">GridWorld::QLearning</text>
</a>
</g>
</g>
<!-- Node186&#45;&gt;Node191 -->
<g id="edge5" class="edge">
<title>Node186&#45;&gt;Node191</title>
<path fill="none" stroke="#191970" d="M89.4957,-76.4435C109.8513,-62.0835 142.1024,-41.1927 173,-29 182.7519,-25.1517 193.4243,-22.0249 203.8944,-19.5032"/>
<polygon fill="#191970" stroke="#191970" points="87.365,-73.6646 81.2834,-82.3402 91.4477,-79.3507 87.365,-73.6646"/>
</g>
</g>
</svg>
