<?xml version="1.0" encoding="UTF-8" standalone="no"?>
<!DOCTYPE svg PUBLIC "-//W3C//DTD SVG 1.1//EN"
 "http://www.w3.org/Graphics/SVG/1.1/DTD/svg11.dtd">
<!-- Generated by graphviz version 2.40.1 (20161225.0304)
 -->
<!-- Title: GridWorld::applyAction Pages: 1 -->
<svg width="296pt" height="66pt"
 viewBox="0.00 0.00 296.00 66.00" xmlns="http://www.w3.org/2000/svg" xmlns:xlink="http://www.w3.org/1999/xlink">
<g id="graph0" class="graph" transform="scale(1 1) rotate(0) translate(4 62)">
<title>GridWorld::applyAction</title>
<!-- Node23 -->
<g id="node1" class="node">
<title>Node23</title>
<polygon fill="#bfbfbf" stroke="#000000" points="0,-19.5 0,-38.5 129,-38.5 129,-19.5 0,-19.5"/>
<text text-anchor="middle" x="64.5" y="-26.5" font-family="Helvetica,sans-Serif" font-size="10.00" fill="#000000">GridWorld::applyAction</text>
</g>
<!-- Node24 -->
<g id="node2" class="node">
<title>Node24</title>
<g id="a_node2"><a xlink:href="classGridWorld.html#a03d2aaf35961c3e190e4b7ab12f76e4d" target="_top" xlink:title="Transforms a raster coordinate from the grid world into its corresponding row x column representation...">
<polygon fill="none" stroke="#000000" points="171.5,-38.5 171.5,-57.5 281.5,-57.5 281.5,-38.5 171.5,-38.5"/>
<text text-anchor="middle" x="226.5" y="-45.5" font-family="Helvetica,sans-Serif" font-size="10.00" fill="#000000">GridWorld::toCoord</text>
</a>
</g>
</g>
<!-- Node23&#45;&gt;Node24 -->
<g id="edge1" class="edge">
<title>Node23&#45;&gt;Node24</title>
<path fill="none" stroke="#191970" d="M129.4582,-36.6185C139.998,-37.8547 150.9153,-39.1351 161.4571,-40.3715"/>
<polygon fill="#191970" stroke="#191970" points="161.085,-43.8518 171.4246,-41.5405 161.9004,-36.8994 161.085,-43.8518"/>
</g>
<!-- Node25 -->
<g id="node3" class="node">
<title>Node25</title>
<g id="a_node3"><a xlink:href="classGridWorld.html#a5241a21b520fc8c9d4c0110de285aec1" target="_top" xlink:title="Transforms row x column coordinates from the grid world into a raster representation. ">
<polygon fill="none" stroke="#000000" points="165,-.5 165,-19.5 288,-19.5 288,-.5 165,-.5"/>
<text text-anchor="middle" x="226.5" y="-7.5" font-family="Helvetica,sans-Serif" font-size="10.00" fill="#000000">GridWorld::fromCoord</text>
</a>
</g>
</g>
<!-- Node23&#45;&gt;Node25 -->
<g id="edge2" class="edge">
<title>Node23&#45;&gt;Node25</title>
<path fill="none" stroke="#191970" d="M129.4582,-21.3815C137.7815,-20.4053 146.3402,-19.4015 154.7636,-18.4135"/>
<polygon fill="#191970" stroke="#191970" points="155.4219,-21.8604 164.9461,-17.2193 154.6065,-14.9081 155.4219,-21.8604"/>
</g>
</g>
</svg>
