<?xml version="1.0" encoding="UTF-8" standalone="no"?>
<!DOCTYPE svg PUBLIC "-//W3C//DTD SVG 1.1//EN"
 "http://www.w3.org/Graphics/SVG/1.1/DTD/svg11.dtd">
<!-- Generated by graphviz version 2.40.1 (20161225.0304)
 -->
<!-- Title: GridWorld::actionValue Pages: 1 -->
<svg width="615pt" height="97pt"
 viewBox="0.00 0.00 615.00 97.24" xmlns="http://www.w3.org/2000/svg" xmlns:xlink="http://www.w3.org/1999/xlink">
<g id="graph0" class="graph" transform="scale(1 1) rotate(0) translate(4 93.2435)">
<title>GridWorld::actionValue</title>
<!-- Node0 -->
<g id="node1" class="node">
<title>Node0</title>
<polygon fill="#bfbfbf" stroke="#000000" points="0,-38.5 0,-57.5 129,-57.5 129,-38.5 0,-38.5"/>
<text text-anchor="middle" x="64.5" y="-45.5" font-family="Helvetica,sans-Serif" font-size="10.00" fill="#000000">GridWorld::actionValue</text>
</g>
<!-- Node1 -->
<g id="node2" class="node">
<title>Node1</title>
<g id="a_node2"><a xlink:href="classGridWorld.html#a03d2aaf35961c3e190e4b7ab12f76e4d" target="_top" xlink:title="Transforms a raster coordinate from the grid world into its corresponding row x column representation...">
<polygon fill="none" stroke="#000000" points="490.5,-57.5 490.5,-76.5 600.5,-76.5 600.5,-57.5 490.5,-57.5"/>
<text text-anchor="middle" x="545.5" y="-64.5" font-family="Helvetica,sans-Serif" font-size="10.00" fill="#000000">GridWorld::toCoord</text>
</a>
</g>
</g>
<!-- Node0&#45;&gt;Node1 -->
<g id="edge1" class="edge">
<title>Node0&#45;&gt;Node1</title>
<path fill="none" stroke="#191970" d="M106.4864,-57.5324C177.0252,-72.3417 323.7978,-97.989 448,-86 463.771,-84.4777 480.78,-81.6008 496.107,-78.5378"/>
<polygon fill="#191970" stroke="#191970" points="496.8228,-81.9639 505.9063,-76.5104 495.4045,-75.1091 496.8228,-81.9639"/>
</g>
<!-- Node2 -->
<g id="node3" class="node">
<title>Node2</title>
<g id="a_node3"><a xlink:href="classGridWorld.html#a5241a21b520fc8c9d4c0110de285aec1" target="_top" xlink:title="Transforms row x column coordinates from the grid world into a raster representation. ">
<polygon fill="none" stroke="#000000" points="484,-.5 484,-19.5 607,-19.5 607,-.5 484,-.5"/>
<text text-anchor="middle" x="545.5" y="-7.5" font-family="Helvetica,sans-Serif" font-size="10.00" fill="#000000">GridWorld::fromCoord</text>
</a>
</g>
</g>
<!-- Node0&#45;&gt;Node2 -->
<g id="edge2" class="edge">
<title>Node0&#45;&gt;Node2</title>
<path fill="none" stroke="#191970" d="M111.4303,-38.4826C128.2824,-35.2359 147.4554,-31.7379 165,-29 233.1387,-18.3669 250.1665,-14.2302 319,-10 370.7058,-6.8224 429.1765,-6.9152 473.7571,-7.754"/>
<polygon fill="#191970" stroke="#191970" points="473.8426,-11.2564 483.9123,-7.9624 473.9863,-4.2578 473.8426,-11.2564"/>
</g>
<!-- Node3 -->
<g id="node4" class="node">
<title>Node3</title>
<g id="a_node4"><a xlink:href="classGridWorld.html#aaf8d964cddf2d838737d0707481ad792" target="_top" xlink:title="Returns the transition probability to nextState, given currentState and action ">
<polygon fill="none" stroke="#000000" points="165,-38.5 165,-57.5 283,-57.5 283,-38.5 165,-38.5"/>
<text text-anchor="middle" x="224" y="-45.5" font-family="Helvetica,sans-Serif" font-size="10.00" fill="#000000">GridWorld::transition</text>
</a>
</g>
</g>
<!-- Node0&#45;&gt;Node3 -->
<g id="edge3" class="edge">
<title>Node0&#45;&gt;Node3</title>
<path fill="none" stroke="#191970" d="M129.3748,-48C137.7138,-48 146.2777,-48 154.6843,-48"/>
<polygon fill="#191970" stroke="#191970" points="154.8348,-51.5001 164.8347,-48 154.8347,-44.5001 154.8348,-51.5001"/>
</g>
<!-- Node4 -->
<g id="node5" class="node">
<title>Node4</title>
<g id="a_node5"><a xlink:href="classGridWorld.html#a202b7bda8938f3c641c2812dcc9b5ac1" target="_top" xlink:title="Informs whether a state is a goal state in the grid world. ">
<polygon fill="none" stroke="#000000" points="332.5,-57.5 332.5,-76.5 434.5,-76.5 434.5,-57.5 332.5,-57.5"/>
<text text-anchor="middle" x="383.5" y="-64.5" font-family="Helvetica,sans-Serif" font-size="10.00" fill="#000000">GridWorld::isGoal</text>
</a>
</g>
</g>
<!-- Node3&#45;&gt;Node4 -->
<g id="edge4" class="edge">
<title>Node3&#45;&gt;Node4</title>
<path fill="none" stroke="#191970" d="M283.3919,-55.0749C296.1115,-56.5901 309.5715,-58.1935 322.3559,-59.7164"/>
<polygon fill="#191970" stroke="#191970" points="322.093,-63.2097 332.4369,-60.9172 322.9211,-56.2589 322.093,-63.2097"/>
</g>
<!-- Node5 -->
<g id="node6" class="node">
<title>Node5</title>
<g id="a_node6"><a xlink:href="classGridWorld.html#aee5066a1ae4ad067c4ac846c6ed15dea" target="_top" xlink:title="Returns the next state that results from applying an action to a state. ">
<polygon fill="none" stroke="#000000" points="319,-19.5 319,-38.5 448,-38.5 448,-19.5 319,-19.5"/>
<text text-anchor="middle" x="383.5" y="-26.5" font-family="Helvetica,sans-Serif" font-size="10.00" fill="#000000">GridWorld::applyAction</text>
</a>
</g>
</g>
<!-- Node3&#45;&gt;Node5 -->
<g id="edge6" class="edge">
<title>Node3&#45;&gt;Node5</title>
<path fill="none" stroke="#191970" d="M283.3919,-40.9251C291.7314,-39.9317 300.3891,-38.9004 308.9661,-37.8786"/>
<polygon fill="#191970" stroke="#191970" points="309.4579,-41.3449 318.9737,-36.6865 308.6299,-34.394 309.4579,-41.3449"/>
</g>
<!-- Node4&#45;&gt;Node1 -->
<g id="edge5" class="edge">
<title>Node4&#45;&gt;Node1</title>
<path fill="none" stroke="#191970" d="M434.7578,-67C449.1433,-67 464.9821,-67 480.0717,-67"/>
<polygon fill="#191970" stroke="#191970" points="480.3716,-70.5001 490.3716,-67 480.3716,-63.5001 480.3716,-70.5001"/>
</g>
<!-- Node5&#45;&gt;Node1 -->
<g id="edge7" class="edge">
<title>Node5&#45;&gt;Node1</title>
<path fill="none" stroke="#191970" d="M424.3794,-38.589C445.8534,-43.6261 472.3605,-49.8438 495.097,-55.1771"/>
<polygon fill="#191970" stroke="#191970" points="494.3795,-58.6037 504.9145,-57.4799 495.9781,-51.7887 494.3795,-58.6037"/>
</g>
<!-- Node5&#45;&gt;Node2 -->
<g id="edge8" class="edge">
<title>Node5&#45;&gt;Node2</title>
<path fill="none" stroke="#191970" d="M448.4582,-21.3815C456.7815,-20.4053 465.3402,-19.4015 473.7636,-18.4135"/>
<polygon fill="#191970" stroke="#191970" points="474.4219,-21.8604 483.9461,-17.2193 473.6065,-14.9081 474.4219,-21.8604"/>
</g>
</g>
</svg>
