<?xml version="1.0" encoding="UTF-8" standalone="no"?>
<!DOCTYPE svg PUBLIC "-//W3C//DTD SVG 1.1//EN"
 "http://www.w3.org/Graphics/SVG/1.1/DTD/svg11.dtd">
<!-- Generated by graphviz version 2.40.1 (20161225.0304)
 -->
<!-- Title: ClassifierUtils::precision Pages: 1 -->
<svg width="523pt" height="118pt"
 viewBox="0.00 0.00 523.00 117.50" xmlns="http://www.w3.org/2000/svg" xmlns:xlink="http://www.w3.org/1999/xlink">
<g id="graph0" class="graph" transform="scale(1 1) rotate(0) translate(4 113.5)">
<title>ClassifierUtils::precision</title>
<!-- Node48 -->
<g id="node1" class="node">
<title>Node48</title>
<polygon fill="#bfbfbf" stroke="#000000" points="0,-59.5 0,-78.5 135,-78.5 135,-59.5 0,-59.5"/>
<text text-anchor="middle" x="67.5" y="-66.5" font-family="Helvetica,sans-Serif" font-size="10.00" fill="#000000">ClassifierUtils::precision</text>
</g>
<!-- Node49 -->
<g id="node2" class="node">
<title>Node49</title>
<g id="a_node2"><a xlink:href="classClassifierUtils.html#ad1ba8941d76b6f251601f60a52321796" target="_top" xlink:title="ClassifierUtils::checkBinary\lLabels">
<polygon fill="none" stroke="#000000" points="171,-79 171,-109 322,-109 322,-79 171,-79"/>
<text text-anchor="start" x="179" y="-97" font-family="Helvetica,sans-Serif" font-size="10.00" fill="#000000">ClassifierUtils::checkBinary</text>
<text text-anchor="middle" x="246.5" y="-86" font-family="Helvetica,sans-Serif" font-size="10.00" fill="#000000">Labels</text>
</a>
</g>
</g>
<!-- Node48&#45;&gt;Node49 -->
<g id="edge1" class="edge">
<title>Node48&#45;&gt;Node49</title>
<path fill="none" stroke="#191970" d="M135.1722,-78.4514C143.5689,-79.6242 152.2386,-80.835 160.8605,-82.0392"/>
<polygon fill="#191970" stroke="#191970" points="160.5525,-85.5301 170.9405,-83.447 161.5208,-78.5973 160.5525,-85.5301"/>
</g>
<!-- Node51 -->
<g id="node4" class="node">
<title>Node51</title>
<g id="a_node4"><a xlink:href="classClassifierUtils.html#abc1fc8d0290671468f3313abf500ba6d" target="_top" xlink:title="ClassifierUtils::confusion\lMatrix">
<polygon fill="none" stroke="#000000" points="177.5,-30 177.5,-60 315.5,-60 315.5,-30 177.5,-30"/>
<text text-anchor="start" x="185.5" y="-48" font-family="Helvetica,sans-Serif" font-size="10.00" fill="#000000">ClassifierUtils::confusion</text>
<text text-anchor="middle" x="246.5" y="-37" font-family="Helvetica,sans-Serif" font-size="10.00" fill="#000000">Matrix</text>
</a>
</g>
</g>
<!-- Node48&#45;&gt;Node51 -->
<g id="edge3" class="edge">
<title>Node48&#45;&gt;Node51</title>
<path fill="none" stroke="#191970" d="M135.1722,-59.9266C145.6008,-58.5284 156.4505,-57.0737 167.1066,-55.6449"/>
<polygon fill="#191970" stroke="#191970" points="167.7977,-59.0837 177.2439,-54.2857 166.8674,-52.1458 167.7977,-59.0837"/>
</g>
<!-- Node50 -->
<g id="node3" class="node">
<title>Node50</title>
<g id="a_node3"><a xlink:href="classClassifierUtils.html#a5d2e296c795dceb1e033fae541bbc4da" target="_top" xlink:title="ClassifierUtils::checkLabels">
<polygon fill="none" stroke="#000000" points="361,-79.5 361,-98.5 512,-98.5 512,-79.5 361,-79.5"/>
<text text-anchor="middle" x="436.5" y="-86.5" font-family="Helvetica,sans-Serif" font-size="10.00" fill="#000000">ClassifierUtils::checkLabels</text>
</a>
</g>
</g>
<!-- Node49&#45;&gt;Node50 -->
<g id="edge2" class="edge">
<title>Node49&#45;&gt;Node50</title>
<path fill="none" stroke="#191970" d="M322.139,-92.0095C331.4867,-91.7635 341.0956,-91.5106 350.5825,-91.261"/>
<polygon fill="#191970" stroke="#191970" points="350.9065,-94.7538 360.8109,-90.9918 350.7222,-87.7562 350.9065,-94.7538"/>
</g>
<!-- Node51&#45;&gt;Node50 -->
<g id="edge4" class="edge">
<title>Node51&#45;&gt;Node50</title>
<path fill="none" stroke="#191970" d="M311.3558,-60.0192C335.6099,-65.636 362.7885,-71.93 385.6047,-77.2137"/>
<polygon fill="#191970" stroke="#191970" points="384.8918,-80.6412 395.4236,-79.4876 386.4711,-73.8217 384.8918,-80.6412"/>
</g>
<!-- Node52 -->
<g id="node5" class="node">
<title>Node52</title>
<g id="a_node5"><a xlink:href="classClassifierUtils.html#a28f096a4fc200737a6b4477965e1e8fa" target="_top" xlink:title="ClassifierUtils::getAllClasses">
<polygon fill="none" stroke="#000000" points="358,-38.5 358,-57.5 515,-57.5 515,-38.5 358,-38.5"/>
<text text-anchor="middle" x="436.5" y="-45.5" font-family="Helvetica,sans-Serif" font-size="10.00" fill="#000000">ClassifierUtils::getAllClasses</text>
</a>
</g>
</g>
<!-- Node51&#45;&gt;Node52 -->
<g id="edge5" class="edge">
<title>Node51&#45;&gt;Node52</title>
<path fill="none" stroke="#191970" d="M315.6318,-46.0916C326.0044,-46.2553 336.8224,-46.4261 347.5375,-46.5953"/>
<polygon fill="#191970" stroke="#191970" points="347.7073,-50.0984 357.7613,-46.7568 347.8179,-43.0992 347.7073,-50.0984"/>
</g>
<!-- Node53 -->
<g id="node6" class="node">
<title>Node53</title>
<g id="a_node6"><a xlink:href="classClassifierUtils.html#aba0abbd24fbd086684b0cf7f1996d55f" target="_top" xlink:title="ClassifierUtils::findLabel">
<polygon fill="none" stroke="#000000" points="368.5,-.5 368.5,-19.5 504.5,-19.5 504.5,-.5 368.5,-.5"/>
<text text-anchor="middle" x="436.5" y="-7.5" font-family="Helvetica,sans-Serif" font-size="10.00" fill="#000000">ClassifierUtils::findLabel</text>
</a>
</g>
</g>
<!-- Node51&#45;&gt;Node53 -->
<g id="edge6" class="edge">
<title>Node51&#45;&gt;Node53</title>
<path fill="none" stroke="#191970" d="M315.6318,-32.2652C334.969,-28.7031 355.8541,-24.8558 374.7351,-21.3777"/>
<polygon fill="#191970" stroke="#191970" points="375.4999,-24.7958 384.7003,-19.542 374.2317,-17.9117 375.4999,-24.7958"/>
</g>
</g>
</svg>
