<?xml version="1.0" encoding="UTF-8" standalone="no"?>
<!DOCTYPE svg PUBLIC "-//W3C//DTD SVG 1.1//EN"
 "http://www.w3.org/Graphics/SVG/1.1/DTD/svg11.dtd">
<!-- Generated by graphviz version 2.40.1 (20161225.0304)
 -->
<!-- Title: GridWorld::initialize Pages: 1 -->
<svg width="336pt" height="192pt"
 viewBox="0.00 0.00 336.00 192.00" xmlns="http://www.w3.org/2000/svg" xmlns:xlink="http://www.w3.org/1999/xlink">
<g id="graph0" class="graph" transform="scale(1 1) rotate(0) translate(4 188)">
<title>GridWorld::initialize</title>
<!-- Node88 -->
<g id="node1" class="node">
<title>Node88</title>
<polygon fill="#bfbfbf" stroke="#000000" points="0,-82.5 0,-101.5 113,-101.5 113,-82.5 0,-82.5"/>
<text text-anchor="middle" x="56.5" y="-89.5" font-family="Helvetica,sans-Serif" font-size="10.00" fill="#000000">GridWorld::initialize</text>
</g>
<!-- Node89 -->
<g id="node2" class="node">
<title>Node89</title>
<g id="a_node2"><a xlink:href="classGridWorld.html#add6d00c0d2eec4d16706a19b0527bba5" target="_top" xlink:title="Policy iteration method. ">
<polygon fill="none" stroke="#000000" points="167.5,-164.5 167.5,-183.5 309.5,-183.5 309.5,-164.5 167.5,-164.5"/>
<text text-anchor="middle" x="238.5" y="-171.5" font-family="Helvetica,sans-Serif" font-size="10.00" fill="#000000">GridWorld::policyIteration</text>
</a>
</g>
</g>
<!-- Node88&#45;&gt;Node89 -->
<g id="edge1" class="edge">
<title>Node88&#45;&gt;Node89</title>
<path fill="none" stroke="#191970" d="M75.5076,-108.2458C93.3486,-122.656 121.3587,-143.1976 149,-155 158.0573,-158.8673 167.977,-161.9758 177.8103,-164.4663"/>
<polygon fill="#191970" stroke="#191970" points="77.5528,-105.3956 67.6124,-101.7294 73.0969,-110.7943 77.5528,-105.3956"/>
</g>
<!-- Node90 -->
<g id="node3" class="node">
<title>Node90</title>
<g id="a_node3"><a xlink:href="classGridWorld.html#a0d5cada9fc611efc747722223c97e8e5" target="_top" xlink:title="Value iteration method. ">
<polygon fill="none" stroke="#000000" points="168.5,-126.5 168.5,-145.5 308.5,-145.5 308.5,-126.5 168.5,-126.5"/>
<text text-anchor="middle" x="238.5" y="-133.5" font-family="Helvetica,sans-Serif" font-size="10.00" fill="#000000">GridWorld::valueIteration</text>
</a>
</g>
</g>
<!-- Node88&#45;&gt;Node90 -->
<g id="edge2" class="edge">
<title>Node88&#45;&gt;Node90</title>
<path fill="none" stroke="#191970" d="M100.0137,-104.2873C115.4381,-108.5028 132.9482,-113.1301 149,-117 162.589,-120.2762 177.4112,-123.5451 191.0131,-126.4246"/>
<polygon fill="#191970" stroke="#191970" points="100.7855,-100.8696 90.2151,-101.5886 98.9268,-107.6183 100.7855,-100.8696"/>
</g>
<!-- Node91 -->
<g id="node4" class="node">
<title>Node91</title>
<g id="a_node4"><a xlink:href="classGridWorld.html#a03586ebfa410ea0617103c70ce5b08cb" target="_top" xlink:title="Monte Carlo Estimating Starts algorithm for finding an optimal policy. ">
<polygon fill="none" stroke="#000000" points="149,-77 149,-107 328,-107 328,-77 149,-77"/>
<text text-anchor="start" x="157" y="-95" font-family="Helvetica,sans-Serif" font-size="10.00" fill="#000000">GridWorld::MonteCarloEstimating</text>
<text text-anchor="middle" x="238.5" y="-84" font-family="Helvetica,sans-Serif" font-size="10.00" fill="#000000">Starts</text>
</a>
</g>
</g>
<!-- Node88&#45;&gt;Node91 -->
<g id="edge3" class="edge">
<title>Node88&#45;&gt;Node91</title>
<path fill="none" stroke="#191970" d="M123.1414,-92C131.5214,-92 140.199,-92 148.86,-92"/>
<polygon fill="#191970" stroke="#191970" points="123.0883,-88.5001 113.0883,-92 123.0883,-95.5001 123.0883,-88.5001"/>
</g>
<!-- Node92 -->
<g id="node5" class="node">
<title>Node92</title>
<g id="a_node5"><a xlink:href="classGridWorld.html#ad1c7b6d4e864ef8e8aca9163c2d8cd86" target="_top" xlink:title="Temporal difference method for finding the optimal policy using SARSA. ">
<polygon fill="none" stroke="#000000" points="189.5,-38.5 189.5,-57.5 287.5,-57.5 287.5,-38.5 189.5,-38.5"/>
<text text-anchor="middle" x="238.5" y="-45.5" font-family="Helvetica,sans-Serif" font-size="10.00" fill="#000000">GridWorld::Sarsa</text>
</a>
</g>
</g>
<!-- Node88&#45;&gt;Node92 -->
<g id="edge4" class="edge">
<title>Node88&#45;&gt;Node92</title>
<path fill="none" stroke="#191970" d="M102.0304,-79.8582C116.9686,-75.9625 133.6687,-71.7008 149,-68 163.7031,-64.4509 179.8188,-60.7816 194.274,-57.5702"/>
<polygon fill="#191970" stroke="#191970" points="100.794,-76.564 92.0084,-82.4854 102.5691,-83.3352 100.794,-76.564"/>
</g>
<!-- Node93 -->
<g id="node6" class="node">
<title>Node93</title>
<g id="a_node6"><a xlink:href="classGridWorld.html#abdbd7b78344fe0db7dbdd4f55d8ace70" target="_top" xlink:title="Temporal difference method for finding the optimal policy using Q&#45;Learning. ">
<polygon fill="none" stroke="#000000" points="178,-.5 178,-19.5 299,-19.5 299,-.5 178,-.5"/>
<text text-anchor="middle" x="238.5" y="-7.5" font-family="Helvetica,sans-Serif" font-size="10.00" fill="#000000">GridWorld::QLearning</text>
</a>
</g>
</g>
<!-- Node88&#45;&gt;Node93 -->
<g id="edge5" class="edge">
<title>Node88&#45;&gt;Node93</title>
<path fill="none" stroke="#191970" d="M75.5076,-75.7542C93.3486,-61.344 121.3587,-40.8024 149,-29 158.0573,-25.1327 167.977,-22.0242 177.8103,-19.5337"/>
<polygon fill="#191970" stroke="#191970" points="73.0969,-73.2057 67.6124,-82.2706 77.5528,-78.6044 73.0969,-73.2057"/>
</g>
</g>
</svg>
