<?xml version="1.0" encoding="UTF-8" standalone="no"?>
<!DOCTYPE svg PUBLIC "-//W3C//DTD SVG 1.1//EN"
 "http://www.w3.org/Graphics/SVG/1.1/DTD/svg11.dtd">
<!-- Generated by graphviz version 2.40.1 (20161225.0304)
 -->
<!-- Title: ClassifierUtils::findLabel Pages: 1 -->
<svg width="620pt" height="66pt"
 viewBox="0.00 0.00 620.00 66.00" xmlns="http://www.w3.org/2000/svg" xmlns:xlink="http://www.w3.org/1999/xlink">
<g id="graph0" class="graph" transform="scale(1 1) rotate(0) translate(4 62)">
<title>ClassifierUtils::findLabel</title>
<!-- Node37 -->
<g id="node1" class="node">
<title>Node37</title>
<polygon fill="#bfbfbf" stroke="#000000" points="0,-19.5 0,-38.5 136,-38.5 136,-19.5 0,-19.5"/>
<text text-anchor="middle" x="68" y="-26.5" font-family="Helvetica,sans-Serif" font-size="10.00" fill="#000000">ClassifierUtils::findLabel</text>
</g>
<!-- Node38 -->
<g id="node2" class="node">
<title>Node38</title>
<g id="a_node2"><a xlink:href="classClassifierUtils.html#abc1fc8d0290671468f3313abf500ba6d" target="_top" xlink:title="ClassifierUtils::confusion\lMatrix">
<polygon fill="none" stroke="#000000" points="172,-14 172,-44 310,-44 310,-14 172,-14"/>
<text text-anchor="start" x="180" y="-32" font-family="Helvetica,sans-Serif" font-size="10.00" fill="#000000">ClassifierUtils::confusion</text>
<text text-anchor="middle" x="241" y="-21" font-family="Helvetica,sans-Serif" font-size="10.00" fill="#000000">Matrix</text>
</a>
</g>
</g>
<!-- Node37&#45;&gt;Node38 -->
<g id="edge1" class="edge">
<title>Node37&#45;&gt;Node38</title>
<path fill="none" stroke="#191970" d="M146.6244,-29C155.0871,-29 163.6511,-29 171.9888,-29"/>
<polygon fill="#191970" stroke="#191970" points="146.3742,-25.5001 136.3742,-29 146.3741,-32.5001 146.3742,-25.5001"/>
</g>
<!-- Node39 -->
<g id="node3" class="node">
<title>Node39</title>
<g id="a_node3"><a xlink:href="classClassifierUtils.html#a18942f9191e113a018041a5ab1f306a7" target="_top" xlink:title="ClassifierUtils::precision">
<polygon fill="none" stroke="#000000" points="346,-38.5 346,-57.5 481,-57.5 481,-38.5 346,-38.5"/>
<text text-anchor="middle" x="413.5" y="-45.5" font-family="Helvetica,sans-Serif" font-size="10.00" fill="#000000">ClassifierUtils::precision</text>
</a>
</g>
</g>
<!-- Node38&#45;&gt;Node39 -->
<g id="edge2" class="edge">
<title>Node38&#45;&gt;Node39</title>
<path fill="none" stroke="#191970" d="M320.1379,-37.7166C328.6844,-38.658 337.3246,-39.6097 345.7199,-40.5344"/>
<polygon fill="#191970" stroke="#191970" points="320.4915,-34.2345 310.1684,-36.6185 319.7251,-41.1924 320.4915,-34.2345"/>
</g>
<!-- Node41 -->
<g id="node5" class="node">
<title>Node41</title>
<g id="a_node5"><a xlink:href="classClassifierUtils.html#a08212d9c1e83aa241ae83a317c3dd2a0" target="_top" xlink:title="ClassifierUtils::recall">
<polygon fill="none" stroke="#000000" points="354.5,-.5 354.5,-19.5 472.5,-19.5 472.5,-.5 354.5,-.5"/>
<text text-anchor="middle" x="413.5" y="-7.5" font-family="Helvetica,sans-Serif" font-size="10.00" fill="#000000">ClassifierUtils::recall</text>
</a>
</g>
</g>
<!-- Node38&#45;&gt;Node41 -->
<g id="edge4" class="edge">
<title>Node38&#45;&gt;Node41</title>
<path fill="none" stroke="#191970" d="M320.1914,-20.2775C331.6695,-19.0132 343.3154,-17.7305 354.3088,-16.5196"/>
<polygon fill="#191970" stroke="#191970" points="319.7251,-16.8076 310.1684,-21.3815 320.4915,-23.7655 319.7251,-16.8076"/>
</g>
<!-- Node40 -->
<g id="node4" class="node">
<title>Node40</title>
<g id="a_node4"><a xlink:href="classClassifierUtils.html#a2eab9f9b399a27a65f7d6ac7dd29210e" target="_top" xlink:title="ClassifierUtils::f\l_score">
<polygon fill="none" stroke="#000000" points="517,-14 517,-44 612,-44 612,-14 517,-14"/>
<text text-anchor="start" x="525" y="-32" font-family="Helvetica,sans-Serif" font-size="10.00" fill="#000000">ClassifierUtils::f</text>
<text text-anchor="middle" x="564.5" y="-21" font-family="Helvetica,sans-Serif" font-size="10.00" fill="#000000">_score</text>
</a>
</g>
</g>
<!-- Node39&#45;&gt;Node40 -->
<g id="edge3" class="edge">
<title>Node39&#45;&gt;Node40</title>
<path fill="none" stroke="#191970" d="M491.006,-38.2476C499.8331,-37.1369 508.6235,-36.0308 516.8943,-34.9901"/>
<polygon fill="#191970" stroke="#191970" points="490.535,-34.7792 481.0502,-39.5003 491.409,-41.7244 490.535,-34.7792"/>
</g>
<!-- Node41&#45;&gt;Node40 -->
<g id="edge5" class="edge">
<title>Node41&#45;&gt;Node40</title>
<path fill="none" stroke="#191970" d="M482.733,-18.7114C494.1849,-20.1524 505.8305,-21.6177 516.606,-22.9736"/>
<polygon fill="#191970" stroke="#191970" points="483.1046,-15.2307 472.7458,-17.4548 482.2306,-22.1759 483.1046,-15.2307"/>
</g>
</g>
</svg>
