<?xml version="1.0" encoding="UTF-8" standalone="no"?>
<!DOCTYPE svg PUBLIC "-//W3C//DTD SVG 1.1//EN"
 "http://www.w3.org/Graphics/SVG/1.1/DTD/svg11.dtd">
<!-- Generated by graphviz version 2.40.1 (20161225.0304)
 -->
<!-- Title: ClassifierUtils::getAllClasses Pages: 1 -->
<svg width="641pt" height="66pt"
 viewBox="0.00 0.00 641.00 66.00" xmlns="http://www.w3.org/2000/svg" xmlns:xlink="http://www.w3.org/1999/xlink">
<g id="graph0" class="graph" transform="scale(1 1) rotate(0) translate(4 62)">
<title>ClassifierUtils::getAllClasses</title>
<!-- Node43 -->
<g id="node1" class="node">
<title>Node43</title>
<polygon fill="#bfbfbf" stroke="#000000" points="0,-19.5 0,-38.5 157,-38.5 157,-19.5 0,-19.5"/>
<text text-anchor="middle" x="78.5" y="-26.5" font-family="Helvetica,sans-Serif" font-size="10.00" fill="#000000">ClassifierUtils::getAllClasses</text>
</g>
<!-- Node44 -->
<g id="node2" class="node">
<title>Node44</title>
<g id="a_node2"><a xlink:href="classClassifierUtils.html#abc1fc8d0290671468f3313abf500ba6d" target="_top" xlink:title="ClassifierUtils::confusion\lMatrix">
<polygon fill="none" stroke="#000000" points="193,-14 193,-44 331,-44 331,-14 193,-14"/>
<text text-anchor="start" x="201" y="-32" font-family="Helvetica,sans-Serif" font-size="10.00" fill="#000000">ClassifierUtils::confusion</text>
<text text-anchor="middle" x="262" y="-21" font-family="Helvetica,sans-Serif" font-size="10.00" fill="#000000">Matrix</text>
</a>
</g>
</g>
<!-- Node43&#45;&gt;Node44 -->
<g id="edge1" class="edge">
<title>Node43&#45;&gt;Node44</title>
<path fill="none" stroke="#191970" d="M167.1852,-29C175.7896,-29 184.43,-29 192.8032,-29"/>
<polygon fill="#191970" stroke="#191970" points="167.1191,-25.5001 157.1191,-29 167.119,-32.5001 167.1191,-25.5001"/>
</g>
<!-- Node45 -->
<g id="node3" class="node">
<title>Node45</title>
<g id="a_node3"><a xlink:href="classClassifierUtils.html#a18942f9191e113a018041a5ab1f306a7" target="_top" xlink:title="ClassifierUtils::precision">
<polygon fill="none" stroke="#000000" points="367,-38.5 367,-57.5 502,-57.5 502,-38.5 367,-38.5"/>
<text text-anchor="middle" x="434.5" y="-45.5" font-family="Helvetica,sans-Serif" font-size="10.00" fill="#000000">ClassifierUtils::precision</text>
</a>
</g>
</g>
<!-- Node44&#45;&gt;Node45 -->
<g id="edge2" class="edge">
<title>Node44&#45;&gt;Node45</title>
<path fill="none" stroke="#191970" d="M341.1379,-37.7166C349.6844,-38.658 358.3246,-39.6097 366.7199,-40.5344"/>
<polygon fill="#191970" stroke="#191970" points="341.4915,-34.2345 331.1684,-36.6185 340.7251,-41.1924 341.4915,-34.2345"/>
</g>
<!-- Node47 -->
<g id="node5" class="node">
<title>Node47</title>
<g id="a_node5"><a xlink:href="classClassifierUtils.html#a08212d9c1e83aa241ae83a317c3dd2a0" target="_top" xlink:title="ClassifierUtils::recall">
<polygon fill="none" stroke="#000000" points="375.5,-.5 375.5,-19.5 493.5,-19.5 493.5,-.5 375.5,-.5"/>
<text text-anchor="middle" x="434.5" y="-7.5" font-family="Helvetica,sans-Serif" font-size="10.00" fill="#000000">ClassifierUtils::recall</text>
</a>
</g>
</g>
<!-- Node44&#45;&gt;Node47 -->
<g id="edge4" class="edge">
<title>Node44&#45;&gt;Node47</title>
<path fill="none" stroke="#191970" d="M341.1914,-20.2775C352.6695,-19.0132 364.3154,-17.7305 375.3088,-16.5196"/>
<polygon fill="#191970" stroke="#191970" points="340.7251,-16.8076 331.1684,-21.3815 341.4915,-23.7655 340.7251,-16.8076"/>
</g>
<!-- Node46 -->
<g id="node4" class="node">
<title>Node46</title>
<g id="a_node4"><a xlink:href="classClassifierUtils.html#a2eab9f9b399a27a65f7d6ac7dd29210e" target="_top" xlink:title="ClassifierUtils::f\l_score">
<polygon fill="none" stroke="#000000" points="538,-14 538,-44 633,-44 633,-14 538,-14"/>
<text text-anchor="start" x="546" y="-32" font-family="Helvetica,sans-Serif" font-size="10.00" fill="#000000">ClassifierUtils::f</text>
<text text-anchor="middle" x="585.5" y="-21" font-family="Helvetica,sans-Serif" font-size="10.00" fill="#000000">_score</text>
</a>
</g>
</g>
<!-- Node45&#45;&gt;Node46 -->
<g id="edge3" class="edge">
<title>Node45&#45;&gt;Node46</title>
<path fill="none" stroke="#191970" d="M512.006,-38.2476C520.8331,-37.1369 529.6235,-36.0308 537.8943,-34.9901"/>
<polygon fill="#191970" stroke="#191970" points="511.535,-34.7792 502.0502,-39.5003 512.409,-41.7244 511.535,-34.7792"/>
</g>
<!-- Node47&#45;&gt;Node46 -->
<g id="edge5" class="edge">
<title>Node47&#45;&gt;Node46</title>
<path fill="none" stroke="#191970" d="M503.733,-18.7114C515.1849,-20.1524 526.8305,-21.6177 537.606,-22.9736"/>
<polygon fill="#191970" stroke="#191970" points="504.1046,-15.2307 493.7458,-17.4548 503.2306,-22.1759 504.1046,-15.2307"/>
</g>
</g>
</svg>
