<?xml version="1.0" encoding="UTF-8" standalone="no"?>
<!DOCTYPE svg PUBLIC "-//W3C//DTD SVG 1.1//EN"
 "http://www.w3.org/Graphics/SVG/1.1/DTD/svg11.dtd">
<!-- Generated by graphviz version 2.40.1 (20161225.0304)
 -->
<!-- Title: MLP::predict Pages: 1 -->
<svg width="217pt" height="104pt"
 viewBox="0.00 0.00 217.00 104.00" xmlns="http://www.w3.org/2000/svg" xmlns:xlink="http://www.w3.org/1999/xlink">
<g id="graph0" class="graph" transform="scale(1 1) rotate(0) translate(4 100)">
<title>MLP::predict</title>
<!-- Node23 -->
<g id="node1" class="node">
<title>Node23</title>
<polygon fill="#bfbfbf" stroke="#000000" points="0,-38.5 0,-57.5 76,-57.5 76,-38.5 0,-38.5"/>
<text text-anchor="middle" x="38" y="-45.5" font-family="Helvetica,sans-Serif" font-size="10.00" fill="#000000">MLP::predict</text>
</g>
<!-- Node24 -->
<g id="node2" class="node">
<title>Node24</title>
<g id="a_node2"><a xlink:href="classMLP.html#af0add0da45ada6eb24bc0ddfbfd210f2" target="_top" xlink:title="MLP::softmax">
<polygon fill="none" stroke="#000000" points="119,-76.5 119,-95.5 202,-95.5 202,-76.5 119,-76.5"/>
<text text-anchor="middle" x="160.5" y="-83.5" font-family="Helvetica,sans-Serif" font-size="10.00" fill="#000000">MLP::softmax</text>
</a>
</g>
</g>
<!-- Node23&#45;&gt;Node24 -->
<g id="edge1" class="edge">
<title>Node23&#45;&gt;Node24</title>
<path fill="none" stroke="#191970" d="M68.9119,-57.589C84.2903,-62.3594 103.0822,-68.1888 119.633,-73.3229"/>
<polygon fill="#191970" stroke="#191970" points="119.0099,-76.7941 129.598,-76.4141 121.0839,-70.1084 119.0099,-76.7941"/>
</g>
<!-- Node25 -->
<g id="node3" class="node">
<title>Node25</title>
<g id="a_node3"><a xlink:href="classMLP.html#adfe65a83e7c44b17ad9021ab8994095b" target="_top" xlink:title="MLP::binarize">
<polygon fill="none" stroke="#000000" points="120,-38.5 120,-57.5 201,-57.5 201,-38.5 120,-38.5"/>
<text text-anchor="middle" x="160.5" y="-45.5" font-family="Helvetica,sans-Serif" font-size="10.00" fill="#000000">MLP::binarize</text>
</a>
</g>
</g>
<!-- Node23&#45;&gt;Node25 -->
<g id="edge2" class="edge">
<title>Node23&#45;&gt;Node25</title>
<path fill="none" stroke="#191970" d="M76.0883,-48C86.7354,-48 98.4776,-48 109.733,-48"/>
<polygon fill="#191970" stroke="#191970" points="109.8874,-51.5001 119.8874,-48 109.8874,-44.5001 109.8874,-51.5001"/>
</g>
<!-- Node26 -->
<g id="node4" class="node">
<title>Node26</title>
<g id="a_node4"><a xlink:href="classMLP.html#ab2ac56e76a803e3cc2f0238da3d4d1d0" target="_top" xlink:title="MLP::summarize">
<polygon fill="none" stroke="#000000" points="112,-.5 112,-19.5 209,-19.5 209,-.5 112,-.5"/>
<text text-anchor="middle" x="160.5" y="-7.5" font-family="Helvetica,sans-Serif" font-size="10.00" fill="#000000">MLP::summarize</text>
</a>
</g>
</g>
<!-- Node23&#45;&gt;Node26 -->
<g id="edge3" class="edge">
<title>Node23&#45;&gt;Node26</title>
<path fill="none" stroke="#191970" d="M68.9119,-38.411C84.2903,-33.6406 103.0822,-27.8112 119.633,-22.6771"/>
<polygon fill="#191970" stroke="#191970" points="121.0839,-25.8916 129.598,-19.5859 119.0099,-19.2059 121.0839,-25.8916"/>
</g>
</g>
</svg>
