<?xml version="1.0" encoding="UTF-8" standalone="no"?>
<!DOCTYPE svg PUBLIC "-//W3C//DTD SVG 1.1//EN"
 "http://www.w3.org/Graphics/SVG/1.1/DTD/svg11.dtd">
<!-- Generated by graphviz version 2.40.1 (20161225.0304)
 -->
<!-- Title: ClassifierUtils::checkBinaryLabels Pages: 1 -->
<svg width="461pt" height="104pt"
 viewBox="0.00 0.00 461.00 104.00" xmlns="http://www.w3.org/2000/svg" xmlns:xlink="http://www.w3.org/1999/xlink">
<g id="graph0" class="graph" transform="scale(1 1) rotate(0) translate(4 100)">
<title>ClassifierUtils::checkBinaryLabels</title>
<!-- Node7 -->
<g id="node1" class="node">
<title>Node7</title>
<polygon fill="#bfbfbf" stroke="#000000" points="0,-33 0,-63 151,-63 151,-33 0,-33"/>
<text text-anchor="start" x="8" y="-51" font-family="Helvetica,sans-Serif" font-size="10.00" fill="#000000">ClassifierUtils::checkBinary</text>
<text text-anchor="middle" x="75.5" y="-40" font-family="Helvetica,sans-Serif" font-size="10.00" fill="#000000">Labels</text>
</g>
<!-- Node8 -->
<g id="node2" class="node">
<title>Node8</title>
<g id="a_node2"><a xlink:href="classClassifierUtils.html#a18942f9191e113a018041a5ab1f306a7" target="_top" xlink:title="ClassifierUtils::precision">
<polygon fill="none" stroke="#000000" points="187,-76.5 187,-95.5 322,-95.5 322,-76.5 187,-76.5"/>
<text text-anchor="middle" x="254.5" y="-83.5" font-family="Helvetica,sans-Serif" font-size="10.00" fill="#000000">ClassifierUtils::precision</text>
</a>
</g>
</g>
<!-- Node7&#45;&gt;Node8 -->
<g id="edge1" class="edge">
<title>Node7&#45;&gt;Node8</title>
<path fill="none" stroke="#191970" d="M156.1124,-65.1133C174.5378,-69.0248 193.4706,-73.044 209.7457,-76.4991"/>
<polygon fill="#191970" stroke="#191970" points="156.7544,-61.6716 146.2455,-63.0186 155.3007,-68.519 156.7544,-61.6716"/>
</g>
<!-- Node9 -->
<g id="node3" class="node">
<title>Node9</title>
<g id="a_node3"><a xlink:href="classClassifierUtils.html#a2eab9f9b399a27a65f7d6ac7dd29210e" target="_top" xlink:title="ClassifierUtils::f\l_score">
<polygon fill="none" stroke="#000000" points="358,-33 358,-63 453,-63 453,-33 358,-33"/>
<text text-anchor="start" x="366" y="-51" font-family="Helvetica,sans-Serif" font-size="10.00" fill="#000000">ClassifierUtils::f</text>
<text text-anchor="middle" x="405.5" y="-40" font-family="Helvetica,sans-Serif" font-size="10.00" fill="#000000">_score</text>
</a>
</g>
</g>
<!-- Node7&#45;&gt;Node9 -->
<g id="edge5" class="edge">
<title>Node7&#45;&gt;Node9</title>
<path fill="none" stroke="#191970" d="M161.4656,-48C224.0389,-48 306.467,-48 357.7108,-48"/>
<polygon fill="#191970" stroke="#191970" points="161.2087,-44.5001 151.2087,-48 161.2086,-51.5001 161.2087,-44.5001"/>
</g>
<!-- Node10 -->
<g id="node4" class="node">
<title>Node10</title>
<g id="a_node4"><a xlink:href="classClassifierUtils.html#a08212d9c1e83aa241ae83a317c3dd2a0" target="_top" xlink:title="ClassifierUtils::recall">
<polygon fill="none" stroke="#000000" points="195.5,-.5 195.5,-19.5 313.5,-19.5 313.5,-.5 195.5,-.5"/>
<text text-anchor="middle" x="254.5" y="-7.5" font-family="Helvetica,sans-Serif" font-size="10.00" fill="#000000">ClassifierUtils::recall</text>
</a>
</g>
</g>
<!-- Node7&#45;&gt;Node10 -->
<g id="edge3" class="edge">
<title>Node7&#45;&gt;Node10</title>
<path fill="none" stroke="#191970" d="M156.1124,-30.8867C174.5378,-26.9752 193.4706,-22.956 209.7457,-19.5009"/>
<polygon fill="#191970" stroke="#191970" points="155.3007,-27.481 146.2455,-32.9814 156.7544,-34.3284 155.3007,-27.481"/>
</g>
<!-- Node8&#45;&gt;Node9 -->
<g id="edge2" class="edge">
<title>Node8&#45;&gt;Node9</title>
<path fill="none" stroke="#191970" d="M302.7017,-73.8698C320.3642,-69.4249 340.3301,-64.4004 357.9364,-59.9697"/>
<polygon fill="#191970" stroke="#191970" points="301.4471,-70.5763 292.6037,-76.411 303.1555,-77.3646 301.4471,-70.5763"/>
</g>
<!-- Node10&#45;&gt;Node9 -->
<g id="edge4" class="edge">
<title>Node10&#45;&gt;Node9</title>
<path fill="none" stroke="#191970" d="M302.7017,-22.1302C320.3642,-26.5751 340.3301,-31.5996 357.9364,-36.0303"/>
<polygon fill="#191970" stroke="#191970" points="303.1555,-18.6354 292.6037,-19.589 301.4471,-25.4237 303.1555,-18.6354"/>
</g>
</g>
</svg>
