<?xml version="1.0" encoding="UTF-8" standalone="no"?>
<!DOCTYPE svg PUBLIC "-//W3C//DTD SVG 1.1//EN"
 "http://www.w3.org/Graphics/SVG/1.1/DTD/svg11.dtd">
<!-- Generated by graphviz version 2.40.1 (20161225.0304)
 -->
<!-- Title: GridWorld::getNonGoalState Pages: 1 -->
<svg width="378pt" height="116pt"
 viewBox="0.00 0.00 378.00 115.50" xmlns="http://www.w3.org/2000/svg" xmlns:xlink="http://www.w3.org/1999/xlink">
<g id="graph0" class="graph" transform="scale(1 1) rotate(0) translate(4 111.5)">
<title>GridWorld::getNonGoalState</title>
<!-- Node67 -->
<g id="node1" class="node">
<title>Node67</title>
<polygon fill="#bfbfbf" stroke="#000000" points="0,-38.5 0,-57.5 155,-57.5 155,-38.5 0,-38.5"/>
<text text-anchor="middle" x="77.5" y="-45.5" font-family="Helvetica,sans-Serif" font-size="10.00" fill="#000000">GridWorld::getNonGoalState</text>
</g>
<!-- Node68 -->
<g id="node2" class="node">
<title>Node68</title>
<g id="a_node2"><a xlink:href="classGridWorld.html#a03586ebfa410ea0617103c70ce5b08cb" target="_top" xlink:title="Monte Carlo Estimating Starts algorithm for finding an optimal policy. ">
<polygon fill="none" stroke="#000000" points="191,-77 191,-107 370,-107 370,-77 191,-77"/>
<text text-anchor="start" x="199" y="-95" font-family="Helvetica,sans-Serif" font-size="10.00" fill="#000000">GridWorld::MonteCarloEstimating</text>
<text text-anchor="middle" x="280.5" y="-84" font-family="Helvetica,sans-Serif" font-size="10.00" fill="#000000">Starts</text>
</a>
</g>
</g>
<!-- Node67&#45;&gt;Node68 -->
<g id="edge1" class="edge">
<title>Node67&#45;&gt;Node68</title>
<path fill="none" stroke="#191970" d="M131.3494,-59.6718C155.7682,-64.9645 184.9466,-71.2889 210.9939,-76.9346"/>
<polygon fill="#191970" stroke="#191970" points="132.0625,-56.2451 121.548,-57.5473 130.5796,-63.0863 132.0625,-56.2451"/>
</g>
<!-- Node69 -->
<g id="node3" class="node">
<title>Node69</title>
<g id="a_node3"><a xlink:href="classGridWorld.html#ad1c7b6d4e864ef8e8aca9163c2d8cd86" target="_top" xlink:title="Temporal difference method for finding the optimal policy using SARSA. ">
<polygon fill="none" stroke="#000000" points="231.5,-38.5 231.5,-57.5 329.5,-57.5 329.5,-38.5 231.5,-38.5"/>
<text text-anchor="middle" x="280.5" y="-45.5" font-family="Helvetica,sans-Serif" font-size="10.00" fill="#000000">GridWorld::Sarsa</text>
</a>
</g>
</g>
<!-- Node67&#45;&gt;Node69 -->
<g id="edge2" class="edge">
<title>Node67&#45;&gt;Node69</title>
<path fill="none" stroke="#191970" d="M165.1191,-48C187.8285,-48 211.4827,-48 231.4185,-48"/>
<polygon fill="#191970" stroke="#191970" points="165.1146,-44.5001 155.1145,-48 165.1145,-51.5001 165.1146,-44.5001"/>
</g>
<!-- Node70 -->
<g id="node4" class="node">
<title>Node70</title>
<g id="a_node4"><a xlink:href="classGridWorld.html#abdbd7b78344fe0db7dbdd4f55d8ace70" target="_top" xlink:title="Temporal difference method for finding the optimal policy using Q&#45;Learning. ">
<polygon fill="none" stroke="#000000" points="220,-.5 220,-19.5 341,-19.5 341,-.5 220,-.5"/>
<text text-anchor="middle" x="280.5" y="-7.5" font-family="Helvetica,sans-Serif" font-size="10.00" fill="#000000">GridWorld::QLearning</text>
</a>
</g>
</g>
<!-- Node67&#45;&gt;Node70 -->
<g id="edge3" class="edge">
<title>Node67&#45;&gt;Node70</title>
<path fill="none" stroke="#191970" d="M138.4968,-36.5819C167.5425,-31.1448 201.8816,-24.7168 229.5156,-19.5439"/>
<polygon fill="#191970" stroke="#191970" points="137.6487,-33.1798 128.4634,-38.46 138.9367,-40.0602 137.6487,-33.1798"/>
</g>
</g>
</svg>
