<?xml version="1.0" encoding="UTF-8" standalone="no"?>
<!DOCTYPE svg PUBLIC "-//W3C//DTD SVG 1.1//EN"
 "http://www.w3.org/Graphics/SVG/1.1/DTD/svg11.dtd">
<!-- Generated by graphviz version 2.40.1 (20161225.0304)
 -->
<!-- Title: KMeans::fit Pages: 1 -->
<svg width="482pt" height="66pt"
 viewBox="0.00 0.00 482.00 66.00" xmlns="http://www.w3.org/2000/svg" xmlns:xlink="http://www.w3.org/1999/xlink">
<g id="graph0" class="graph" transform="scale(1 1) rotate(0) translate(4 62)">
<title>KMeans::fit</title>
<!-- Node2 -->
<g id="node1" class="node">
<title>Node2</title>
<polygon fill="#bfbfbf" stroke="#000000" points="0,-19.5 0,-38.5 71,-38.5 71,-19.5 0,-19.5"/>
<text text-anchor="middle" x="35.5" y="-26.5" font-family="Helvetica,sans-Serif" font-size="10.00" fill="#000000">KMeans::fit</text>
</g>
<!-- Node3 -->
<g id="node2" class="node">
<title>Node3</title>
<g id="a_node2"><a xlink:href="classKMeans.html#afa3dcc65e5f8a708fc9d7d28fe23baf7" target="_top" xlink:title="KMeans::SSE">
<polygon fill="none" stroke="#000000" points="107,-38.5 107,-57.5 186,-57.5 186,-38.5 107,-38.5"/>
<text text-anchor="middle" x="146.5" y="-45.5" font-family="Helvetica,sans-Serif" font-size="10.00" fill="#000000">KMeans::SSE</text>
</a>
</g>
</g>
<!-- Node2&#45;&gt;Node3 -->
<g id="edge1" class="edge">
<title>Node2&#45;&gt;Node3</title>
<path fill="none" stroke="#191970" d="M71.2321,-35.1163C79.4314,-36.5198 88.2929,-38.0366 96.9584,-39.5199"/>
<polygon fill="#191970" stroke="#191970" points="96.5423,-42.9995 106.9895,-41.2369 97.7234,-36.0999 96.5423,-42.9995"/>
</g>
<!-- Node6 -->
<g id="node5" class="node">
<title>Node6</title>
<g id="a_node5"><a xlink:href="classKMeans.html#a833e7824ae04358e7ea0d97e61e87040" target="_top" xlink:title="Assigns elements of a data set to clusters. ">
<polygon fill="none" stroke="#000000" points="227,-.5 227,-19.5 322,-19.5 322,-.5 227,-.5"/>
<text text-anchor="middle" x="274.5" y="-7.5" font-family="Helvetica,sans-Serif" font-size="10.00" fill="#000000">KMeans::predict</text>
</a>
</g>
</g>
<!-- Node2&#45;&gt;Node6 -->
<g id="edge4" class="edge">
<title>Node2&#45;&gt;Node6</title>
<path fill="none" stroke="#191970" d="M71.0226,-26.176C109.4663,-23.1198 171.3564,-18.1997 216.798,-14.5872"/>
<polygon fill="#191970" stroke="#191970" points="217.1177,-18.0729 226.8088,-13.7913 216.5629,-11.0949 217.1177,-18.0729"/>
</g>
<!-- Node4 -->
<g id="node3" class="node">
<title>Node4</title>
<g id="a_node3"><a xlink:href="classMetrics.html#a886c6a038b62c72c66096b1215dee6b1" target="_top" xlink:title="Calculates the Euclidean distances between elements in a matrix. ">
<polygon fill="none" stroke="#000000" points="222,-38.5 222,-57.5 327,-57.5 327,-38.5 222,-38.5"/>
<text text-anchor="middle" x="274.5" y="-45.5" font-family="Helvetica,sans-Serif" font-size="10.00" fill="#000000">Metrics::euclidean</text>
</a>
</g>
</g>
<!-- Node3&#45;&gt;Node4 -->
<g id="edge2" class="edge">
<title>Node3&#45;&gt;Node4</title>
<path fill="none" stroke="#191970" d="M186.2984,-48C194.316,-48 202.9279,-48 211.5155,-48"/>
<polygon fill="#191970" stroke="#191970" points="211.5483,-51.5001 221.5482,-48 211.5482,-44.5001 211.5483,-51.5001"/>
</g>
<!-- Node5 -->
<g id="node4" class="node">
<title>Node5</title>
<g id="a_node4"><a xlink:href="classMetrics.html#aa69f2a116d371fd7f7fae507d70174a5" target="_top" xlink:title="Calculates the Minkowski distances between elements in a matrix. ">
<polygon fill="none" stroke="#000000" points="363,-19.5 363,-38.5 474,-38.5 474,-19.5 363,-19.5"/>
<text text-anchor="middle" x="418.5" y="-26.5" font-family="Helvetica,sans-Serif" font-size="10.00" fill="#000000">Metrics::minkowski</text>
</a>
</g>
</g>
<!-- Node4&#45;&gt;Node5 -->
<g id="edge3" class="edge">
<title>Node4&#45;&gt;Node5</title>
<path fill="none" stroke="#191970" d="M327.3026,-41.033C335.6104,-39.9368 344.2861,-38.7921 352.8414,-37.6633"/>
<polygon fill="#191970" stroke="#191970" points="353.3439,-41.1274 362.8001,-36.3493 352.4281,-34.1876 353.3439,-41.1274"/>
</g>
<!-- Node6&#45;&gt;Node5 -->
<g id="edge5" class="edge">
<title>Node6&#45;&gt;Node5</title>
<path fill="none" stroke="#191970" d="M322.0501,-16.274C331.8193,-17.563 342.2699,-18.9419 352.5546,-20.2989"/>
<polygon fill="#191970" stroke="#191970" points="352.3806,-23.8062 362.7526,-21.6444 353.2964,-16.8663 352.3806,-23.8062"/>
</g>
</g>
</svg>
