<?xml version="1.0" encoding="UTF-8" standalone="no"?>
<!DOCTYPE svg PUBLIC "-//W3C//DTD SVG 1.1//EN"
 "http://www.w3.org/Graphics/SVG/1.1/DTD/svg11.dtd">
<!-- Generated by graphviz version 2.40.1 (20161225.0304)
 -->
<!-- Title: GridWorld::policyIncrement Pages: 1 -->
<svg width="336pt" height="66pt"
 viewBox="0.00 0.00 336.00 66.00" xmlns="http://www.w3.org/2000/svg" xmlns:xlink="http://www.w3.org/1999/xlink">
<g id="graph0" class="graph" transform="scale(1 1) rotate(0) translate(4 62)">
<title>GridWorld::policyIncrement</title>
<!-- Node162 -->
<g id="node1" class="node">
<title>Node162</title>
<polygon fill="#bfbfbf" stroke="#000000" points="0,-19.5 0,-38.5 150,-38.5 150,-19.5 0,-19.5"/>
<text text-anchor="middle" x="75" y="-26.5" font-family="Helvetica,sans-Serif" font-size="10.00" fill="#000000">GridWorld::policyIncrement</text>
</g>
<!-- Node163 -->
<g id="node2" class="node">
<title>Node163</title>
<g id="a_node2"><a xlink:href="classGridWorld.html#add6d00c0d2eec4d16706a19b0527bba5" target="_top" xlink:title="Policy iteration method. ">
<polygon fill="none" stroke="#000000" points="186,-38.5 186,-57.5 328,-57.5 328,-38.5 186,-38.5"/>
<text text-anchor="middle" x="257" y="-45.5" font-family="Helvetica,sans-Serif" font-size="10.00" fill="#000000">GridWorld::policyIteration</text>
</a>
</g>
</g>
<!-- Node162&#45;&gt;Node163 -->
<g id="edge1" class="edge">
<title>Node162&#45;&gt;Node163</title>
<path fill="none" stroke="#191970" d="M160.1435,-37.8886C168.762,-38.7883 177.4508,-39.6954 185.899,-40.5774"/>
<polygon fill="#191970" stroke="#191970" points="160.3865,-34.395 150.0771,-36.8377 159.6596,-41.3572 160.3865,-34.395"/>
</g>
<!-- Node164 -->
<g id="node3" class="node">
<title>Node164</title>
<g id="a_node3"><a xlink:href="classGridWorld.html#a0d5cada9fc611efc747722223c97e8e5" target="_top" xlink:title="Value iteration method. ">
<polygon fill="none" stroke="#000000" points="187,-.5 187,-19.5 327,-19.5 327,-.5 187,-.5"/>
<text text-anchor="middle" x="257" y="-7.5" font-family="Helvetica,sans-Serif" font-size="10.00" fill="#000000">GridWorld::valueIteration</text>
</a>
</g>
</g>
<!-- Node162&#45;&gt;Node164 -->
<g id="edge2" class="edge">
<title>Node162&#45;&gt;Node164</title>
<path fill="none" stroke="#191970" d="M160.1063,-20.1153C169.0343,-19.1832 178.0382,-18.2433 186.7724,-17.3315"/>
<polygon fill="#191970" stroke="#191970" points="159.6596,-16.6428 150.0771,-21.1623 160.3865,-23.605 159.6596,-16.6428"/>
</g>
</g>
</svg>
