<?xml version="1.0" encoding="UTF-8" standalone="no"?>
<!DOCTYPE svg PUBLIC "-//W3C//DTD SVG 1.1//EN"
 "http://www.w3.org/Graphics/SVG/1.1/DTD/svg11.dtd">
<!-- Generated by graphviz version 2.40.1 (20161225.0304)
 -->
<!-- Title: ClassifierUtils::checkLabels Pages: 1 -->
<svg width="648pt" height="127pt"
 viewBox="0.00 0.00 648.00 126.50" xmlns="http://www.w3.org/2000/svg" xmlns:xlink="http://www.w3.org/1999/xlink">
<g id="graph0" class="graph" transform="scale(1 1) rotate(0) translate(4 122.5)">
<title>ClassifierUtils::checkLabels</title>
<!-- Node12 -->
<g id="node1" class="node">
<title>Node12</title>
<polygon fill="#bfbfbf" stroke="#000000" points="0,-44.5 0,-63.5 151,-63.5 151,-44.5 0,-44.5"/>
<text text-anchor="middle" x="75.5" y="-51.5" font-family="Helvetica,sans-Serif" font-size="10.00" fill="#000000">ClassifierUtils::checkLabels</text>
</g>
<!-- Node13 -->
<g id="node2" class="node">
<title>Node13</title>
<g id="a_node2"><a xlink:href="classClassifierUtils.html#ad1ba8941d76b6f251601f60a52321796" target="_top" xlink:title="ClassifierUtils::checkBinary\lLabels">
<polygon fill="none" stroke="#000000" points="187,-88 187,-118 338,-118 338,-88 187,-88"/>
<text text-anchor="start" x="195" y="-106" font-family="Helvetica,sans-Serif" font-size="10.00" fill="#000000">ClassifierUtils::checkBinary</text>
<text text-anchor="middle" x="262.5" y="-95" font-family="Helvetica,sans-Serif" font-size="10.00" fill="#000000">Labels</text>
</a>
</g>
</g>
<!-- Node12&#45;&gt;Node13 -->
<g id="edge1" class="edge">
<title>Node12&#45;&gt;Node13</title>
<path fill="none" stroke="#191970" d="M121.6844,-66.1018C146.8957,-72.708 178.3391,-80.9471 205.114,-87.963"/>
<polygon fill="#191970" stroke="#191970" points="122.56,-62.7131 111.9994,-63.564 120.7856,-69.4845 122.56,-62.7131"/>
</g>
<!-- Node17 -->
<g id="node6" class="node">
<title>Node17</title>
<g id="a_node6"><a xlink:href="classClassifierUtils.html#abc1fc8d0290671468f3313abf500ba6d" target="_top" xlink:title="ClassifierUtils::confusion\lMatrix">
<polygon fill="none" stroke="#000000" points="193.5,-39 193.5,-69 331.5,-69 331.5,-39 193.5,-39"/>
<text text-anchor="start" x="201.5" y="-57" font-family="Helvetica,sans-Serif" font-size="10.00" fill="#000000">ClassifierUtils::confusion</text>
<text text-anchor="middle" x="262.5" y="-46" font-family="Helvetica,sans-Serif" font-size="10.00" fill="#000000">Matrix</text>
</a>
</g>
</g>
<!-- Node12&#45;&gt;Node17 -->
<g id="edge7" class="edge">
<title>Node12&#45;&gt;Node17</title>
<path fill="none" stroke="#191970" d="M161.264,-54C172.011,-54 182.8951,-54 193.3434,-54"/>
<polygon fill="#191970" stroke="#191970" points="161.0211,-50.5001 151.021,-54 161.021,-57.5001 161.0211,-50.5001"/>
</g>
<!-- Node18 -->
<g id="node7" class="node">
<title>Node18</title>
<g id="a_node7"><a xlink:href="classClassifierUtils.html#a4eef325154505298749746b56df5c30d" target="_top" xlink:title="ClassifierUtils::accuracy">
<polygon fill="none" stroke="#000000" points="195.5,-.5 195.5,-19.5 329.5,-19.5 329.5,-.5 195.5,-.5"/>
<text text-anchor="middle" x="262.5" y="-7.5" font-family="Helvetica,sans-Serif" font-size="10.00" fill="#000000">ClassifierUtils::accuracy</text>
</a>
</g>
</g>
<!-- Node12&#45;&gt;Node18 -->
<g id="edge10" class="edge">
<title>Node12&#45;&gt;Node18</title>
<path fill="none" stroke="#191970" d="M125.9749,-42.1236C156.0979,-35.0358 193.8404,-26.1552 222.003,-19.5287"/>
<polygon fill="#191970" stroke="#191970" points="125.0087,-38.7552 116.0762,-44.4527 126.6121,-45.5691 125.0087,-38.7552"/>
</g>
<!-- Node14 -->
<g id="node3" class="node">
<title>Node14</title>
<g id="a_node3"><a xlink:href="classClassifierUtils.html#a18942f9191e113a018041a5ab1f306a7" target="_top" xlink:title="ClassifierUtils::precision">
<polygon fill="none" stroke="#000000" points="374,-44.5 374,-63.5 509,-63.5 509,-44.5 374,-44.5"/>
<text text-anchor="middle" x="441.5" y="-51.5" font-family="Helvetica,sans-Serif" font-size="10.00" fill="#000000">ClassifierUtils::precision</text>
</a>
</g>
</g>
<!-- Node13&#45;&gt;Node14 -->
<g id="edge2" class="edge">
<title>Node13&#45;&gt;Node14</title>
<path fill="none" stroke="#191970" d="M327.3899,-85.2368C354.2291,-77.8898 384.2697,-69.6664 406.7889,-63.5019"/>
<polygon fill="#191970" stroke="#191970" points="326.3875,-81.8824 317.6665,-87.8986 328.2358,-88.634 326.3875,-81.8824"/>
</g>
<!-- Node15 -->
<g id="node4" class="node">
<title>Node15</title>
<g id="a_node4"><a xlink:href="classClassifierUtils.html#a2eab9f9b399a27a65f7d6ac7dd29210e" target="_top" xlink:title="ClassifierUtils::f\l_score">
<polygon fill="none" stroke="#000000" points="545,-77 545,-107 640,-107 640,-77 545,-77"/>
<text text-anchor="start" x="553" y="-95" font-family="Helvetica,sans-Serif" font-size="10.00" fill="#000000">ClassifierUtils::f</text>
<text text-anchor="middle" x="592.5" y="-84" font-family="Helvetica,sans-Serif" font-size="10.00" fill="#000000">_score</text>
</a>
</g>
</g>
<!-- Node13&#45;&gt;Node15 -->
<g id="edge6" class="edge">
<title>Node13&#45;&gt;Node15</title>
<path fill="none" stroke="#191970" d="M348.4824,-111.8473C395.9495,-115.2121 455.8806,-116.9673 509,-111 520.6716,-109.6889 533.0913,-107.3776 544.686,-104.8083"/>
<polygon fill="#191970" stroke="#191970" points="348.4754,-108.3371 338.2426,-111.083 347.9543,-115.3177 348.4754,-108.3371"/>
</g>
<!-- Node16 -->
<g id="node5" class="node">
<title>Node16</title>
<g id="a_node5"><a xlink:href="classClassifierUtils.html#a08212d9c1e83aa241ae83a317c3dd2a0" target="_top" xlink:title="ClassifierUtils::recall">
<polygon fill="none" stroke="#000000" points="382.5,-82.5 382.5,-101.5 500.5,-101.5 500.5,-82.5 382.5,-82.5"/>
<text text-anchor="middle" x="441.5" y="-89.5" font-family="Helvetica,sans-Serif" font-size="10.00" fill="#000000">ClassifierUtils::recall</text>
</a>
</g>
</g>
<!-- Node13&#45;&gt;Node16 -->
<g id="edge4" class="edge">
<title>Node13&#45;&gt;Node16</title>
<path fill="none" stroke="#191970" d="M348.2651,-97.7295C359.8189,-97.0195 371.4557,-96.3044 382.4038,-95.6316"/>
<polygon fill="#191970" stroke="#191970" points="347.9191,-94.2441 338.1527,-98.351 348.3485,-101.2309 347.9191,-94.2441"/>
</g>
<!-- Node14&#45;&gt;Node15 -->
<g id="edge3" class="edge">
<title>Node14&#45;&gt;Node15</title>
<path fill="none" stroke="#191970" d="M489.7017,-66.1302C507.3642,-70.5751 527.3301,-75.5996 544.9364,-80.0303"/>
<polygon fill="#191970" stroke="#191970" points="490.1555,-62.6354 479.6037,-63.589 488.4471,-69.4237 490.1555,-62.6354"/>
</g>
<!-- Node16&#45;&gt;Node15 -->
<g id="edge5" class="edge">
<title>Node16&#45;&gt;Node15</title>
<path fill="none" stroke="#191970" d="M511.0801,-92C522.4201,-92 533.9393,-92 544.606,-92"/>
<polygon fill="#191970" stroke="#191970" points="510.7458,-88.5001 500.7458,-92 510.7458,-95.5001 510.7458,-88.5001"/>
</g>
<!-- Node17&#45;&gt;Node14 -->
<g id="edge8" class="edge">
<title>Node17&#45;&gt;Node14</title>
<path fill="none" stroke="#191970" d="M341.8851,-54C352.5856,-54 363.4815,-54 373.9503,-54"/>
<polygon fill="#191970" stroke="#191970" points="341.7061,-50.5001 331.7061,-54 341.706,-57.5001 341.7061,-50.5001"/>
</g>
<!-- Node17&#45;&gt;Node16 -->
<g id="edge9" class="edge">
<title>Node17&#45;&gt;Node16</title>
<path fill="none" stroke="#191970" d="M341.7408,-70.8221C360.4978,-74.804 379.8639,-78.9152 396.4851,-82.4438"/>
<polygon fill="#191970" stroke="#191970" points="342.2149,-67.3448 331.7061,-68.6918 340.7612,-74.1922 342.2149,-67.3448"/>
</g>
</g>
</svg>
