<?xml version="1.0" encoding="UTF-8" standalone="no"?>
<!DOCTYPE svg PUBLIC "-//W3C//DTD SVG 1.1//EN"
 "http://www.w3.org/Graphics/SVG/1.1/DTD/svg11.dtd">
<!-- Generated by graphviz version 2.40.1 (20161225.0304)
 -->
<!-- Title: Timer::start Pages: 1 -->
<svg width="297pt" height="154pt"
 viewBox="0.00 0.00 297.00 153.50" xmlns="http://www.w3.org/2000/svg" xmlns:xlink="http://www.w3.org/1999/xlink">
<g id="graph0" class="graph" transform="scale(1 1) rotate(0) translate(4 149.5)">
<title>Timer::start</title>
<!-- Node20 -->
<g id="node1" class="node">
<title>Node20</title>
<polygon fill="#bfbfbf" stroke="#000000" points="0,-57.5 0,-76.5 74,-76.5 74,-57.5 0,-57.5"/>
<text text-anchor="middle" x="37" y="-64.5" font-family="Helvetica,sans-Serif" font-size="10.00" fill="#000000">Timer::start</text>
</g>
<!-- Node21 -->
<g id="node2" class="node">
<title>Node21</title>
<g id="a_node2"><a xlink:href="classGridWorld.html#a03586ebfa410ea0617103c70ce5b08cb" target="_top" xlink:title="Monte Carlo Estimating Starts algorithm for finding an optimal policy. ">
<polygon fill="none" stroke="#000000" points="110,-115 110,-145 289,-145 289,-115 110,-115"/>
<text text-anchor="start" x="118" y="-133" font-family="Helvetica,sans-Serif" font-size="10.00" fill="#000000">GridWorld::MonteCarloEstimating</text>
<text text-anchor="middle" x="199.5" y="-122" font-family="Helvetica,sans-Serif" font-size="10.00" fill="#000000">Starts</text>
</a>
</g>
</g>
<!-- Node20&#45;&gt;Node21 -->
<g id="edge1" class="edge">
<title>Node20&#45;&gt;Node21</title>
<path fill="none" stroke="#191970" d="M61.9629,-81.6411C75.7907,-89.3266 93.4803,-98.4751 110,-105 119.153,-108.6152 129.0257,-111.927 138.7553,-114.8747"/>
<polygon fill="#191970" stroke="#191970" points="63.4949,-78.4865 53.0686,-76.6044 60.0455,-84.5776 63.4949,-78.4865"/>
</g>
<!-- Node22 -->
<g id="node3" class="node">
<title>Node22</title>
<g id="a_node3"><a xlink:href="classGridWorld.html#ad1c7b6d4e864ef8e8aca9163c2d8cd86" target="_top" xlink:title="Temporal difference method for finding the optimal policy using SARSA. ">
<polygon fill="none" stroke="#000000" points="150.5,-76.5 150.5,-95.5 248.5,-95.5 248.5,-76.5 150.5,-76.5"/>
<text text-anchor="middle" x="199.5" y="-83.5" font-family="Helvetica,sans-Serif" font-size="10.00" fill="#000000">GridWorld::Sarsa</text>
</a>
</g>
</g>
<!-- Node20&#45;&gt;Node22 -->
<g id="edge2" class="edge">
<title>Node20&#45;&gt;Node22</title>
<path fill="none" stroke="#191970" d="M84.4451,-72.5474C105.1686,-74.9705 129.4628,-77.811 150.3735,-80.256"/>
<polygon fill="#191970" stroke="#191970" points="84.6196,-69.0441 74.2808,-71.359 83.8066,-75.9967 84.6196,-69.0441"/>
</g>
<!-- Node23 -->
<g id="node4" class="node">
<title>Node23</title>
<g id="a_node4"><a xlink:href="classGridWorld.html#abdbd7b78344fe0db7dbdd4f55d8ace70" target="_top" xlink:title="Temporal difference method for finding the optimal policy using Q&#45;Learning. ">
<polygon fill="none" stroke="#000000" points="139,-38.5 139,-57.5 260,-57.5 260,-38.5 139,-38.5"/>
<text text-anchor="middle" x="199.5" y="-45.5" font-family="Helvetica,sans-Serif" font-size="10.00" fill="#000000">GridWorld::QLearning</text>
</a>
</g>
</g>
<!-- Node20&#45;&gt;Node23 -->
<g id="edge3" class="edge">
<title>Node20&#45;&gt;Node23</title>
<path fill="none" stroke="#191970" d="M84.5147,-61.4444C101.5023,-59.4582 120.8824,-57.1922 138.8285,-55.0939"/>
<polygon fill="#191970" stroke="#191970" points="83.8066,-58.0033 74.2808,-62.641 84.6196,-64.9559 83.8066,-58.0033"/>
</g>
<!-- Node24 -->
<g id="node5" class="node">
<title>Node24</title>
<g id="a_node5"><a xlink:href="classMLP.html#a585e98d5b6ed65bf1bf2f8dbde6cb745" target="_top" xlink:title="Train a multiplayer perceptron. ">
<polygon fill="none" stroke="#000000" points="173,-.5 173,-19.5 226,-19.5 226,-.5 173,-.5"/>
<text text-anchor="middle" x="199.5" y="-7.5" font-family="Helvetica,sans-Serif" font-size="10.00" fill="#000000">MLP::fit</text>
</a>
</g>
</g>
<!-- Node20&#45;&gt;Node24 -->
<g id="edge4" class="edge">
<title>Node20&#45;&gt;Node24</title>
<path fill="none" stroke="#191970" d="M61.2674,-52.2475C75.1243,-44.3724 93.0638,-35.0781 110,-29 130.4826,-21.6491 154.6745,-16.7245 172.7396,-13.7346"/>
<polygon fill="#191970" stroke="#191970" points="59.2704,-49.3601 52.3888,-57.4158 62.792,-55.4098 59.2704,-49.3601"/>
</g>
</g>
</svg>
