<?xml version="1.0" encoding="UTF-8" standalone="no"?>
<!DOCTYPE svg PUBLIC "-//W3C//DTD SVG 1.1//EN"
 "http://www.w3.org/Graphics/SVG/1.1/DTD/svg11.dtd">
<!-- Generated by graphviz version 2.40.1 (20161225.0304)
 -->
<!-- Title: ClassifierUtils::confusionMatrix Pages: 1 -->
<svg width="448pt" height="66pt"
 viewBox="0.00 0.00 448.00 66.00" xmlns="http://www.w3.org/2000/svg" xmlns:xlink="http://www.w3.org/1999/xlink">
<g id="graph0" class="graph" transform="scale(1 1) rotate(0) translate(4 62)">
<title>ClassifierUtils::confusionMatrix</title>
<!-- Node23 -->
<g id="node1" class="node">
<title>Node23</title>
<polygon fill="#bfbfbf" stroke="#000000" points="0,-14 0,-44 138,-44 138,-14 0,-14"/>
<text text-anchor="start" x="8" y="-32" font-family="Helvetica,sans-Serif" font-size="10.00" fill="#000000">ClassifierUtils::confusion</text>
<text text-anchor="middle" x="69" y="-21" font-family="Helvetica,sans-Serif" font-size="10.00" fill="#000000">Matrix</text>
</g>
<!-- Node24 -->
<g id="node2" class="node">
<title>Node24</title>
<g id="a_node2"><a xlink:href="classClassifierUtils.html#a18942f9191e113a018041a5ab1f306a7" target="_top" xlink:title="ClassifierUtils::precision">
<polygon fill="none" stroke="#000000" points="174,-38.5 174,-57.5 309,-57.5 309,-38.5 174,-38.5"/>
<text text-anchor="middle" x="241.5" y="-45.5" font-family="Helvetica,sans-Serif" font-size="10.00" fill="#000000">ClassifierUtils::precision</text>
</a>
</g>
</g>
<!-- Node23&#45;&gt;Node24 -->
<g id="edge1" class="edge">
<title>Node23&#45;&gt;Node24</title>
<path fill="none" stroke="#191970" d="M148.1379,-37.7166C156.6844,-38.658 165.3246,-39.6097 173.7199,-40.5344"/>
<polygon fill="#191970" stroke="#191970" points="148.4915,-34.2345 138.1684,-36.6185 147.7251,-41.1924 148.4915,-34.2345"/>
</g>
<!-- Node26 -->
<g id="node4" class="node">
<title>Node26</title>
<g id="a_node4"><a xlink:href="classClassifierUtils.html#a08212d9c1e83aa241ae83a317c3dd2a0" target="_top" xlink:title="ClassifierUtils::recall">
<polygon fill="none" stroke="#000000" points="182.5,-.5 182.5,-19.5 300.5,-19.5 300.5,-.5 182.5,-.5"/>
<text text-anchor="middle" x="241.5" y="-7.5" font-family="Helvetica,sans-Serif" font-size="10.00" fill="#000000">ClassifierUtils::recall</text>
</a>
</g>
</g>
<!-- Node23&#45;&gt;Node26 -->
<g id="edge3" class="edge">
<title>Node23&#45;&gt;Node26</title>
<path fill="none" stroke="#191970" d="M148.1914,-20.2775C159.6695,-19.0132 171.3154,-17.7305 182.3088,-16.5196"/>
<polygon fill="#191970" stroke="#191970" points="147.7251,-16.8076 138.1684,-21.3815 148.4915,-23.7655 147.7251,-16.8076"/>
</g>
<!-- Node25 -->
<g id="node3" class="node">
<title>Node25</title>
<g id="a_node3"><a xlink:href="classClassifierUtils.html#a2eab9f9b399a27a65f7d6ac7dd29210e" target="_top" xlink:title="ClassifierUtils::f\l_score">
<polygon fill="none" stroke="#000000" points="345,-14 345,-44 440,-44 440,-14 345,-14"/>
<text text-anchor="start" x="353" y="-32" font-family="Helvetica,sans-Serif" font-size="10.00" fill="#000000">ClassifierUtils::f</text>
<text text-anchor="middle" x="392.5" y="-21" font-family="Helvetica,sans-Serif" font-size="10.00" fill="#000000">_score</text>
</a>
</g>
</g>
<!-- Node24&#45;&gt;Node25 -->
<g id="edge2" class="edge">
<title>Node24&#45;&gt;Node25</title>
<path fill="none" stroke="#191970" d="M319.006,-38.2476C327.8331,-37.1369 336.6235,-36.0308 344.8943,-34.9901"/>
<polygon fill="#191970" stroke="#191970" points="318.535,-34.7792 309.0502,-39.5003 319.409,-41.7244 318.535,-34.7792"/>
</g>
<!-- Node26&#45;&gt;Node25 -->
<g id="edge4" class="edge">
<title>Node26&#45;&gt;Node25</title>
<path fill="none" stroke="#191970" d="M310.733,-18.7114C322.1849,-20.1524 333.8305,-21.6177 344.606,-22.9736"/>
<polygon fill="#191970" stroke="#191970" points="311.1046,-15.2307 300.7458,-17.4548 310.2306,-22.1759 311.1046,-15.2307"/>
</g>
</g>
</svg>
