<?xml version="1.0" encoding="UTF-8" standalone="no"?>
<!DOCTYPE svg PUBLIC "-//W3C//DTD SVG 1.1//EN"
 "http://www.w3.org/Graphics/SVG/1.1/DTD/svg11.dtd">
<!-- Generated by graphviz version 2.40.1 (20161225.0304)
 -->
<!-- Title: Metrics::euclidean Pages: 1 -->
<svg width="335pt" height="28pt"
 viewBox="0.00 0.00 335.00 28.00" xmlns="http://www.w3.org/2000/svg" xmlns:xlink="http://www.w3.org/1999/xlink">
<g id="graph0" class="graph" transform="scale(1 1) rotate(0) translate(4 24)">
<title>Metrics::euclidean</title>
<!-- Node6 -->
<g id="node1" class="node">
<title>Node6</title>
<polygon fill="#bfbfbf" stroke="#000000" points="0,-.5 0,-19.5 105,-19.5 105,-.5 0,-.5"/>
<text text-anchor="middle" x="52.5" y="-7.5" font-family="Helvetica,sans-Serif" font-size="10.00" fill="#000000">Metrics::euclidean</text>
</g>
<!-- Node7 -->
<g id="node2" class="node">
<title>Node7</title>
<g id="a_node2"><a xlink:href="classKMeans.html#afa3dcc65e5f8a708fc9d7d28fe23baf7" target="_top" xlink:title="KMeans::SSE">
<polygon fill="none" stroke="#000000" points="141,-.5 141,-19.5 220,-19.5 220,-.5 141,-.5"/>
<text text-anchor="middle" x="180.5" y="-7.5" font-family="Helvetica,sans-Serif" font-size="10.00" fill="#000000">KMeans::SSE</text>
</a>
</g>
</g>
<!-- Node6&#45;&gt;Node7 -->
<g id="edge1" class="edge">
<title>Node6&#45;&gt;Node7</title>
<path fill="none" stroke="#191970" d="M115.3833,-10C124.0141,-10 132.6721,-10 140.729,-10"/>
<polygon fill="#191970" stroke="#191970" points="115.3015,-6.5001 105.3015,-10 115.3015,-13.5001 115.3015,-6.5001"/>
</g>
<!-- Node8 -->
<g id="node3" class="node">
<title>Node8</title>
<g id="a_node3"><a xlink:href="classKMeans.html#aa1583b7f07ebb766f20e52c63a2f8d45" target="_top" xlink:title="Find the k centroids that best fit the data. ">
<polygon fill="none" stroke="#000000" points="256,-.5 256,-19.5 327,-19.5 327,-.5 256,-.5"/>
<text text-anchor="middle" x="291.5" y="-7.5" font-family="Helvetica,sans-Serif" font-size="10.00" fill="#000000">KMeans::fit</text>
</a>
</g>
</g>
<!-- Node7&#45;&gt;Node8 -->
<g id="edge2" class="edge">
<title>Node7&#45;&gt;Node8</title>
<path fill="none" stroke="#191970" d="M230.489,-10C238.9903,-10 247.6657,-10 255.7069,-10"/>
<polygon fill="#191970" stroke="#191970" points="230.2601,-6.5001 220.26,-10 230.26,-13.5001 230.2601,-6.5001"/>
</g>
</g>
</svg>
