<?xml version="1.0" encoding="UTF-8" standalone="no"?>
<!DOCTYPE svg PUBLIC "-//W3C//DTD SVG 1.1//EN"
 "http://www.w3.org/Graphics/SVG/1.1/DTD/svg11.dtd">
<!-- Generated by graphviz version 2.40.1 (20161225.0304)
 -->
<!-- Title: GridWorld::MonteCarloEstimatingStarts Pages: 1 -->
<svg width="757pt" height="306pt"
 viewBox="0.00 0.00 757.00 305.50" xmlns="http://www.w3.org/2000/svg" xmlns:xlink="http://www.w3.org/1999/xlink">
<g id="graph0" class="graph" transform="scale(1 1) rotate(0) translate(4 301.5)">
<title>GridWorld::MonteCarloEstimatingStarts</title>
<!-- Node118 -->
<g id="node1" class="node">
<title>Node118</title>
<polygon fill="#bfbfbf" stroke="#000000" points="0,-139.5 0,-169.5 179,-169.5 179,-139.5 0,-139.5"/>
<text text-anchor="start" x="8" y="-157.5" font-family="Helvetica,sans-Serif" font-size="10.00" fill="#000000">GridWorld::MonteCarloEstimating</text>
<text text-anchor="middle" x="89.5" y="-146.5" font-family="Helvetica,sans-Serif" font-size="10.00" fill="#000000">Starts</text>
</g>
<!-- Node119 -->
<g id="node2" class="node">
<title>Node119</title>
<g id="a_node2"><a xlink:href="classGridWorld.html#af510ea48d57d45874a0dfeb2b7ffd518" target="_top" xlink:title="GridWorld::initialize">
<polygon fill="none" stroke="#000000" points="236,-278 236,-297 349,-297 349,-278 236,-278"/>
<text text-anchor="middle" x="292.5" y="-285" font-family="Helvetica,sans-Serif" font-size="10.00" fill="#000000">GridWorld::initialize</text>
</a>
</g>
</g>
<!-- Node118&#45;&gt;Node119 -->
<g id="edge1" class="edge">
<title>Node118&#45;&gt;Node119</title>
<path fill="none" stroke="#191970" d="M101.6768,-169.6415C122.3161,-194.2577 166.6648,-242.7857 215,-268.5 219.2844,-270.7793 223.8475,-272.7906 228.5327,-274.5645"/>
<polygon fill="#191970" stroke="#191970" points="227.6768,-277.9704 238.2712,-277.8823 229.9342,-271.3444 227.6768,-277.9704"/>
</g>
<!-- Node120 -->
<g id="node3" class="node">
<title>Node120</title>
<g id="a_node3"><a xlink:href="classTimer.html#a3a8b5272198d029779dc9302a54305a8" target="_top" xlink:title="Start the timer. ">
<polygon fill="none" stroke="#000000" points="255.5,-240 255.5,-259 329.5,-259 329.5,-240 255.5,-240"/>
<text text-anchor="middle" x="292.5" y="-247" font-family="Helvetica,sans-Serif" font-size="10.00" fill="#000000">Timer::start</text>
</a>
</g>
</g>
<!-- Node118&#45;&gt;Node120 -->
<g id="edge2" class="edge">
<title>Node118&#45;&gt;Node120</title>
<path fill="none" stroke="#191970" d="M112.7765,-169.6861C137.4012,-185.2628 177.7681,-209.425 215,-225.5 224.8976,-229.7733 235.8045,-233.6367 246.2324,-236.9533"/>
<polygon fill="#191970" stroke="#191970" points="245.4482,-240.3737 256.035,-239.9611 247.5017,-233.6816 245.4482,-240.3737"/>
</g>
<!-- Node121 -->
<g id="node4" class="node">
<title>Node121</title>
<g id="a_node4"><a xlink:href="classGridWorld.html#a32bc48e56c9a7163d2fbf917df9d35c0" target="_top" xlink:title="Selects a random non&#45;goal state. ">
<polygon fill="none" stroke="#000000" points="215,-126 215,-145 370,-145 370,-126 215,-126"/>
<text text-anchor="middle" x="292.5" y="-133" font-family="Helvetica,sans-Serif" font-size="10.00" fill="#000000">GridWorld::getNonGoalState</text>
</a>
</g>
</g>
<!-- Node118&#45;&gt;Node121 -->
<g id="edge3" class="edge">
<title>Node118&#45;&gt;Node121</title>
<path fill="none" stroke="#191970" d="M179.1297,-146.111C187.5869,-145.3195 196.1555,-144.5175 204.5964,-143.7274"/>
<polygon fill="#191970" stroke="#191970" points="205.1827,-147.1879 214.813,-142.7712 204.5303,-140.2184 205.1827,-147.1879"/>
</g>
<!-- Node122 -->
<g id="node5" class="node">
<title>Node122</title>
<g id="a_node5"><a xlink:href="classGridWorld.html#a202b7bda8938f3c641c2812dcc9b5ac1" target="_top" xlink:title="Informs whether a state is a goal state in the grid world. ">
<polygon fill="none" stroke="#000000" points="432.5,-164 432.5,-183 534.5,-183 534.5,-164 432.5,-164"/>
<text text-anchor="middle" x="483.5" y="-171" font-family="Helvetica,sans-Serif" font-size="10.00" fill="#000000">GridWorld::isGoal</text>
</a>
</g>
</g>
<!-- Node118&#45;&gt;Node122 -->
<g id="edge9" class="edge">
<title>Node118&#45;&gt;Node122</title>
<path fill="none" stroke="#191970" d="M179.3977,-158.8352C253.6671,-162.4167 357.1156,-167.4053 422.175,-170.5427"/>
<polygon fill="#191970" stroke="#191970" points="422.1197,-174.044 432.2767,-171.0298 422.4569,-167.0521 422.1197,-174.044"/>
</g>
<!-- Node123 -->
<g id="node6" class="node">
<title>Node123</title>
<g id="a_node6"><a xlink:href="classGridWorld.html#a03d2aaf35961c3e190e4b7ab12f76e4d" target="_top" xlink:title="Transforms a raster coordinate from the grid world into its corresponding row x column representation...">
<polygon fill="none" stroke="#000000" points="618,-164 618,-183 728,-183 728,-164 618,-164"/>
<text text-anchor="middle" x="673" y="-171" font-family="Helvetica,sans-Serif" font-size="10.00" fill="#000000">GridWorld::toCoord</text>
</a>
</g>
</g>
<!-- Node118&#45;&gt;Node123 -->
<g id="edge10" class="edge">
<title>Node118&#45;&gt;Node123</title>
<path fill="none" stroke="#191970" d="M164.2913,-169.5092C180.9337,-172.4848 198.5265,-175.3494 215,-177.5 367.6271,-197.4252 407.6208,-205.4176 561,-192.5 579.4858,-190.9431 599.5077,-187.9652 617.4413,-184.8208"/>
<polygon fill="#191970" stroke="#191970" points="618.2298,-188.235 627.4479,-183.0123 616.9849,-181.3466 618.2298,-188.235"/>
</g>
<!-- Node124 -->
<g id="node7" class="node">
<title>Node124</title>
<g id="a_node7"><a xlink:href="classGridWorld.html#aee5066a1ae4ad067c4ac846c6ed15dea" target="_top" xlink:title="Returns the next state that results from applying an action to a state. ">
<polygon fill="none" stroke="#000000" points="228,-88 228,-107 357,-107 357,-88 228,-88"/>
<text text-anchor="middle" x="292.5" y="-95" font-family="Helvetica,sans-Serif" font-size="10.00" fill="#000000">GridWorld::applyAction</text>
</a>
</g>
</g>
<!-- Node118&#45;&gt;Node124 -->
<g id="edge6" class="edge">
<title>Node118&#45;&gt;Node124</title>
<path fill="none" stroke="#191970" d="M137.0016,-139.4614C160.4023,-132.2208 189.0906,-123.5931 215,-116.5 223.6402,-114.1346 232.8602,-111.7519 241.8159,-109.5116"/>
<polygon fill="#191970" stroke="#191970" points="242.9019,-112.8486 251.7699,-107.0512 241.2222,-106.0531 242.9019,-112.8486"/>
</g>
<!-- Node126 -->
<g id="node9" class="node">
<title>Node126</title>
<g id="a_node9"><a xlink:href="classGridWorld.html#a4b12faf8f8641b38927715622a2852c2" target="_top" xlink:title="Updates the policy matrix according to the action values from the Q matrix. ">
<polygon fill="none" stroke="#000000" points="406,-.5 406,-30.5 561,-30.5 561,-.5 406,-.5"/>
<text text-anchor="start" x="414" y="-18.5" font-family="Helvetica,sans-Serif" font-size="10.00" fill="#000000">GridWorld::getOptimalPolicy</text>
<text text-anchor="middle" x="483.5" y="-7.5" font-family="Helvetica,sans-Serif" font-size="10.00" fill="#000000">FromQ</text>
</a>
</g>
</g>
<!-- Node118&#45;&gt;Node126 -->
<g id="edge11" class="edge">
<title>Node118&#45;&gt;Node126</title>
<path fill="none" stroke="#191970" d="M100.6419,-139.3669C120.4155,-113.8376 164.3619,-62.8184 215,-40.5 271.6462,-15.5335 341.4078,-9.6885 395.6237,-9.8726"/>
<polygon fill="#191970" stroke="#191970" points="395.8688,-13.3752 405.9048,-9.9798 395.9418,-6.3756 395.8688,-13.3752"/>
</g>
<!-- Node128 -->
<g id="node11" class="node">
<title>Node128</title>
<g id="a_node11"><a xlink:href="classGridWorld.html#a9dfe466eee829e7d1b8315b789078be9" target="_top" xlink:title="GridWorld::prettifyPolicy">
<polygon fill="none" stroke="#000000" points="224,-50 224,-69 361,-69 361,-50 224,-50"/>
<text text-anchor="middle" x="292.5" y="-57" font-family="Helvetica,sans-Serif" font-size="10.00" fill="#000000">GridWorld::prettifyPolicy</text>
</a>
</g>
</g>
<!-- Node118&#45;&gt;Node128 -->
<g id="edge13" class="edge">
<title>Node118&#45;&gt;Node128</title>
<path fill="none" stroke="#191970" d="M110.2074,-139.229C134.2647,-122.1543 175.6961,-94.7694 215,-78.5 220.964,-76.0313 227.3243,-73.8318 233.7392,-71.8853"/>
<polygon fill="#191970" stroke="#191970" points="235.147,-75.1244 243.8153,-69.0325 233.24,-68.3891 235.147,-75.1244"/>
</g>
<!-- Node121&#45;&gt;Node122 -->
<g id="edge4" class="edge">
<title>Node121&#45;&gt;Node122</title>
<path fill="none" stroke="#191970" d="M340.6974,-145.089C366.4696,-150.2165 398.3906,-156.5672 425.5124,-161.9632"/>
<polygon fill="#191970" stroke="#191970" points="425.1585,-165.4613 435.6492,-163.9799 426.5244,-158.5959 425.1585,-165.4613"/>
</g>
<!-- Node122&#45;&gt;Node123 -->
<g id="edge5" class="edge">
<title>Node122&#45;&gt;Node123</title>
<path fill="none" stroke="#191970" d="M534.7814,-173.5C557.2244,-173.5 583.8216,-173.5 607.6613,-173.5"/>
<polygon fill="#191970" stroke="#191970" points="607.6893,-177.0001 617.6893,-173.5 607.6893,-170.0001 607.6893,-177.0001"/>
</g>
<!-- Node124&#45;&gt;Node123 -->
<g id="edge7" class="edge">
<title>Node124&#45;&gt;Node123</title>
<path fill="none" stroke="#191970" d="M340.3053,-107.0485C410.172,-121.0035 540.0084,-146.9366 615.1608,-161.9474"/>
<polygon fill="#191970" stroke="#191970" points="614.8984,-165.464 625.3902,-163.9906 616.2695,-158.5996 614.8984,-165.464"/>
</g>
<!-- Node125 -->
<g id="node8" class="node">
<title>Node125</title>
<g id="a_node8"><a xlink:href="classGridWorld.html#a5241a21b520fc8c9d4c0110de285aec1" target="_top" xlink:title="Transforms row x column coordinates from the grid world into a raster representation. ">
<polygon fill="none" stroke="#000000" points="422,-88 422,-107 545,-107 545,-88 422,-88"/>
<text text-anchor="middle" x="483.5" y="-95" font-family="Helvetica,sans-Serif" font-size="10.00" fill="#000000">GridWorld::fromCoord</text>
</a>
</g>
</g>
<!-- Node124&#45;&gt;Node125 -->
<g id="edge8" class="edge">
<title>Node124&#45;&gt;Node125</title>
<path fill="none" stroke="#191970" d="M357.1639,-97.5C374.7059,-97.5 393.8028,-97.5 411.7121,-97.5"/>
<polygon fill="#191970" stroke="#191970" points="411.8092,-101.0001 421.8092,-97.5 411.8092,-94.0001 411.8092,-101.0001"/>
</g>
<!-- Node127 -->
<g id="node10" class="node">
<title>Node127</title>
<g id="a_node10"><a xlink:href="classGridWorld.html#adf34e6f50b2369c06afdfc8c1ff70caf" target="_top" xlink:title="Normalizes a matriz so its sum equals 1. ">
<polygon fill="none" stroke="#000000" points="597,-28 597,-47 749,-47 749,-28 597,-28"/>
<text text-anchor="middle" x="673" y="-35" font-family="Helvetica,sans-Serif" font-size="10.00" fill="#000000">GridWorld::normalizeToOne</text>
</a>
</g>
</g>
<!-- Node126&#45;&gt;Node127 -->
<g id="edge12" class="edge">
<title>Node126&#45;&gt;Node127</title>
<path fill="none" stroke="#191970" d="M561.1237,-24.5117C569.5722,-25.4926 578.2087,-26.4952 586.7522,-27.4871"/>
<polygon fill="#191970" stroke="#191970" points="586.385,-30.9679 596.722,-28.6445 587.1923,-24.0146 586.385,-30.9679"/>
</g>
<!-- Node128&#45;&gt;Node122 -->
<g id="edge15" class="edge">
<title>Node128&#45;&gt;Node122</title>
<path fill="none" stroke="#191970" d="M348.2151,-69.033C355.811,-71.5004 363.2925,-74.6021 370,-78.5 390.1147,-90.189 388.5601,-101.1025 406,-116.5 423.2695,-131.7471 444.4275,-147.111 460.2706,-158.0397"/>
<polygon fill="#191970" stroke="#191970" points="458.6797,-161.1908 468.915,-163.9274 462.6203,-155.4053 458.6797,-161.1908"/>
</g>
<!-- Node128&#45;&gt;Node125 -->
<g id="edge14" class="edge">
<title>Node128&#45;&gt;Node125</title>
<path fill="none" stroke="#191970" d="M340.6974,-69.089C366.4696,-74.2165 398.3906,-80.5672 425.5124,-85.9632"/>
<polygon fill="#191970" stroke="#191970" points="425.1585,-89.4613 435.6492,-87.9799 426.5244,-82.5959 425.1585,-89.4613"/>
</g>
<!-- Node129 -->
<g id="node12" class="node">
<title>Node129</title>
<g id="a_node12"><a xlink:href="classGridWorld.html#a483bf6d05d61a8e14f0fab04273d8593" target="_top" xlink:title="Gets the policy for state s ">
<polygon fill="none" stroke="#000000" points="413,-50 413,-69 554,-69 554,-50 413,-50"/>
<text text-anchor="middle" x="483.5" y="-57" font-family="Helvetica,sans-Serif" font-size="10.00" fill="#000000">GridWorld::policyForState</text>
</a>
</g>
</g>
<!-- Node128&#45;&gt;Node129 -->
<g id="edge16" class="edge">
<title>Node128&#45;&gt;Node129</title>
<path fill="none" stroke="#191970" d="M361.1855,-59.5C374.697,-59.5 388.9878,-59.5 402.8506,-59.5"/>
<polygon fill="#191970" stroke="#191970" points="402.852,-63.0001 412.8519,-59.5 402.8519,-56.0001 402.852,-63.0001"/>
</g>
<!-- Node129&#45;&gt;Node127 -->
<g id="edge17" class="edge">
<title>Node129&#45;&gt;Node127</title>
<path fill="none" stroke="#191970" d="M554.0628,-51.308C564.7781,-50.064 575.9358,-48.7687 586.9359,-47.4916"/>
<polygon fill="#191970" stroke="#191970" points="587.447,-50.9559 596.9766,-46.3259 586.6397,-44.0026 587.447,-50.9559"/>
</g>
</g>
</svg>
