<?xml version="1.0" encoding="UTF-8" standalone="no"?>
<!DOCTYPE svg PUBLIC "-//W3C//DTD SVG 1.1//EN"
 "http://www.w3.org/Graphics/SVG/1.1/DTD/svg11.dtd">
<!-- Generated by graphviz version 2.40.1 (20161225.0304)
 -->
<!-- Title: KMeans::SSE Pages: 1 -->
<svg width="375pt" height="28pt"
 viewBox="0.00 0.00 375.00 28.00" xmlns="http://www.w3.org/2000/svg" xmlns:xlink="http://www.w3.org/1999/xlink">
<g id="graph0" class="graph" transform="scale(1 1) rotate(0) translate(4 24)">
<title>KMeans::SSE</title>
<!-- Node24 -->
<g id="node1" class="node">
<title>Node24</title>
<polygon fill="#bfbfbf" stroke="#000000" points="0,-.5 0,-19.5 79,-19.5 79,-.5 0,-.5"/>
<text text-anchor="middle" x="39.5" y="-7.5" font-family="Helvetica,sans-Serif" font-size="10.00" fill="#000000">KMeans::SSE</text>
</g>
<!-- Node25 -->
<g id="node2" class="node">
<title>Node25</title>
<g id="a_node2"><a xlink:href="classMetrics.html#a886c6a038b62c72c66096b1215dee6b1" target="_top" xlink:title="Calculates the Euclidean distances between elements in a matrix. ">
<polygon fill="none" stroke="#000000" points="115,-.5 115,-19.5 220,-19.5 220,-.5 115,-.5"/>
<text text-anchor="middle" x="167.5" y="-7.5" font-family="Helvetica,sans-Serif" font-size="10.00" fill="#000000">Metrics::euclidean</text>
</a>
</g>
</g>
<!-- Node24&#45;&gt;Node25 -->
<g id="edge1" class="edge">
<title>Node24&#45;&gt;Node25</title>
<path fill="none" stroke="#191970" d="M79.2984,-10C87.316,-10 95.9279,-10 104.5155,-10"/>
<polygon fill="#191970" stroke="#191970" points="104.5483,-13.5001 114.5482,-10 104.5482,-6.5001 104.5483,-13.5001"/>
</g>
<!-- Node26 -->
<g id="node3" class="node">
<title>Node26</title>
<g id="a_node3"><a xlink:href="classMetrics.html#aa69f2a116d371fd7f7fae507d70174a5" target="_top" xlink:title="Calculates the Minkowski distances between elements in a matrix. ">
<polygon fill="none" stroke="#000000" points="256,-.5 256,-19.5 367,-19.5 367,-.5 256,-.5"/>
<text text-anchor="middle" x="311.5" y="-7.5" font-family="Helvetica,sans-Serif" font-size="10.00" fill="#000000">Metrics::minkowski</text>
</a>
</g>
</g>
<!-- Node25&#45;&gt;Node26 -->
<g id="edge2" class="edge">
<title>Node25&#45;&gt;Node26</title>
<path fill="none" stroke="#191970" d="M220.3026,-10C228.5201,-10 237.0975,-10 245.5624,-10"/>
<polygon fill="#191970" stroke="#191970" points="245.8001,-13.5001 255.8001,-10 245.8,-6.5001 245.8001,-13.5001"/>
</g>
</g>
</svg>
