<?xml version="1.0" encoding="UTF-8" standalone="no"?>
<!DOCTYPE svg PUBLIC "-//W3C//DTD SVG 1.1//EN"
 "http://www.w3.org/Graphics/SVG/1.1/DTD/svg11.dtd">
<!-- Generated by graphviz version 2.40.1 (20161225.0304)
 -->
<!-- Title: GridWorld::isGoal Pages: 1 -->
<svg width="1065pt" height="388pt"
 viewBox="0.00 0.00 1065.00 388.43" xmlns="http://www.w3.org/2000/svg" xmlns:xlink="http://www.w3.org/1999/xlink">
<g id="graph0" class="graph" transform="scale(1 1) rotate(0) translate(4 384.426)">
<title>GridWorld::isGoal</title>
<!-- Node96 -->
<g id="node1" class="node">
<title>Node96</title>
<polygon fill="#bfbfbf" stroke="#000000" points="0,-122.6833 0,-141.6833 102,-141.6833 102,-122.6833 0,-122.6833"/>
<text text-anchor="middle" x="51" y="-129.6833" font-family="Helvetica,sans-Serif" font-size="10.00" fill="#000000">GridWorld::isGoal</text>
</g>
<!-- Node97 -->
<g id="node2" class="node">
<title>Node97</title>
<g id="a_node2"><a xlink:href="classGridWorld.html#a9dfe466eee829e7d1b8315b789078be9" target="_top" xlink:title="GridWorld::prettifyPolicy">
<polygon fill="none" stroke="#000000" points="147,-141.6833 147,-160.6833 284,-160.6833 284,-141.6833 147,-141.6833"/>
<text text-anchor="middle" x="215.5" y="-148.6833" font-family="Helvetica,sans-Serif" font-size="10.00" fill="#000000">GridWorld::prettifyPolicy</text>
</a>
</g>
</g>
<!-- Node96&#45;&gt;Node97 -->
<g id="edge1" class="edge">
<title>Node96&#45;&gt;Node97</title>
<path fill="none" stroke="#191970" d="M112.3052,-139.2641C123.5668,-140.5649 135.3897,-141.9304 146.8503,-143.2542"/>
<polygon fill="#191970" stroke="#191970" points="112.4827,-135.7615 102.1471,-138.0909 111.6794,-142.7152 112.4827,-135.7615"/>
</g>
<!-- Node98 -->
<g id="node3" class="node">
<title>Node98</title>
<g id="a_node3"><a xlink:href="classGridWorld.html#add6d00c0d2eec4d16706a19b0527bba5" target="_top" xlink:title="Policy iteration method. ">
<polygon fill="none" stroke="#000000" points="915,-302.6833 915,-321.6833 1057,-321.6833 1057,-302.6833 915,-302.6833"/>
<text text-anchor="middle" x="986" y="-309.6833" font-family="Helvetica,sans-Serif" font-size="10.00" fill="#000000">GridWorld::policyIteration</text>
</a>
</g>
</g>
<!-- Node96&#45;&gt;Node98 -->
<g id="edge20" class="edge">
<title>Node96&#45;&gt;Node98</title>
<path fill="none" stroke="#191970" d="M58.2768,-151.3474C70.4502,-180.996 97.6496,-238.017 138,-271.1833 241.0774,-355.9085 285.071,-378.1833 418.5,-378.1833 418.5,-378.1833 418.5,-378.1833 618.5,-378.1833 734.5853,-378.1833 766.3348,-387.154 879,-359.1833 912.4759,-350.8724 948.6764,-332.8734 969.2207,-321.7183"/>
<polygon fill="#191970" stroke="#191970" points="61.4141,-149.764 54.4751,-141.7576 54.9068,-152.3437 61.4141,-149.764"/>
</g>
<!-- Node99 -->
<g id="node4" class="node">
<title>Node99</title>
<g id="a_node4"><a xlink:href="classGridWorld.html#a0d5cada9fc611efc747722223c97e8e5" target="_top" xlink:title="Value iteration method. ">
<polygon fill="none" stroke="#000000" points="916,-185.6833 916,-204.6833 1056,-204.6833 1056,-185.6833 916,-185.6833"/>
<text text-anchor="middle" x="986" y="-192.6833" font-family="Helvetica,sans-Serif" font-size="10.00" fill="#000000">GridWorld::valueIteration</text>
</a>
</g>
</g>
<!-- Node96&#45;&gt;Node99 -->
<g id="edge21" class="edge">
<title>Node96&#45;&gt;Node99</title>
<path fill="none" stroke="#191970" d="M76.8549,-146.6032C93.7079,-155.2028 116.4896,-165.3587 138,-170.1833 285.3085,-203.2233 740.4738,-199.379 915.9823,-196.5359"/>
<polygon fill="#191970" stroke="#191970" points="78.1512,-143.3304 67.6716,-141.7719 74.892,-149.5254 78.1512,-143.3304"/>
</g>
<!-- Node100 -->
<g id="node5" class="node">
<title>Node100</title>
<g id="a_node5"><a xlink:href="classGridWorld.html#a03586ebfa410ea0617103c70ce5b08cb" target="_top" xlink:title="Monte Carlo Estimating Starts algorithm for finding an optimal policy. ">
<polygon fill="none" stroke="#000000" points="329,-79.1833 329,-109.1833 508,-109.1833 508,-79.1833 329,-79.1833"/>
<text text-anchor="start" x="337" y="-97.1833" font-family="Helvetica,sans-Serif" font-size="10.00" fill="#000000">GridWorld::MonteCarloEstimating</text>
<text text-anchor="middle" x="418.5" y="-86.1833" font-family="Helvetica,sans-Serif" font-size="10.00" fill="#000000">Starts</text>
</a>
</g>
</g>
<!-- Node96&#45;&gt;Node100 -->
<g id="edge22" class="edge">
<title>Node96&#45;&gt;Node100</title>
<path fill="none" stroke="#191970" d="M112.4115,-125.8333C171.5898,-119.7142 261.7928,-110.387 328.9666,-103.4412"/>
<polygon fill="#191970" stroke="#191970" points="111.6863,-122.3895 102.0993,-126.8996 112.4063,-129.3524 111.6863,-122.3895"/>
</g>
<!-- Node101 -->
<g id="node6" class="node">
<title>Node101</title>
<g id="a_node6"><a xlink:href="classGridWorld.html#ad1c7b6d4e864ef8e8aca9163c2d8cd86" target="_top" xlink:title="Temporal difference method for finding the optimal policy using SARSA. ">
<polygon fill="none" stroke="#000000" points="369.5,-40.6833 369.5,-59.6833 467.5,-59.6833 467.5,-40.6833 369.5,-40.6833"/>
<text text-anchor="middle" x="418.5" y="-47.6833" font-family="Helvetica,sans-Serif" font-size="10.00" fill="#000000">GridWorld::Sarsa</text>
</a>
</g>
</g>
<!-- Node96&#45;&gt;Node101 -->
<g id="edge23" class="edge">
<title>Node96&#45;&gt;Node101</title>
<path fill="none" stroke="#191970" d="M64.4991,-114.6956C79.9591,-96.2176 107.1652,-68.1324 138,-56.1833 214.5294,-26.5267 311.8364,-33.3108 369.4143,-41.4131"/>
<polygon fill="#191970" stroke="#191970" points="61.6342,-112.6723 58.07,-122.6496 67.0782,-117.0726 61.6342,-112.6723"/>
</g>
<!-- Node102 -->
<g id="node7" class="node">
<title>Node102</title>
<g id="a_node7"><a xlink:href="classGridWorld.html#abdbd7b78344fe0db7dbdd4f55d8ace70" target="_top" xlink:title="Temporal difference method for finding the optimal policy using Q&#45;Learning. ">
<polygon fill="none" stroke="#000000" points="358,-2.6833 358,-21.6833 479,-21.6833 479,-2.6833 358,-2.6833"/>
<text text-anchor="middle" x="418.5" y="-9.6833" font-family="Helvetica,sans-Serif" font-size="10.00" fill="#000000">GridWorld::QLearning</text>
</a>
</g>
</g>
<!-- Node96&#45;&gt;Node102 -->
<g id="edge24" class="edge">
<title>Node96&#45;&gt;Node102</title>
<path fill="none" stroke="#191970" d="M60.7612,-113.648C74.4524,-89.7979 101.7962,-49.2867 138,-31.1833 207.3036,3.4714 298.5195,2.4525 357.8209,-3.3227"/>
<polygon fill="#191970" stroke="#191970" points="57.6676,-112.01 55.8922,-122.455 63.7937,-115.3968 57.6676,-112.01"/>
</g>
<!-- Node103 -->
<g id="node8" class="node">
<title>Node103</title>
<g id="a_node8"><a xlink:href="classGridWorld.html#aaf8d964cddf2d838737d0707481ad792" target="_top" xlink:title="Returns the transition probability to nextState, given currentState and action ">
<polygon fill="none" stroke="#000000" points="156.5,-242.6833 156.5,-261.6833 274.5,-261.6833 274.5,-242.6833 156.5,-242.6833"/>
<text text-anchor="middle" x="215.5" y="-249.6833" font-family="Helvetica,sans-Serif" font-size="10.00" fill="#000000">GridWorld::transition</text>
</a>
</g>
</g>
<!-- Node96&#45;&gt;Node103 -->
<g id="edge7" class="edge">
<title>Node96&#45;&gt;Node103</title>
<path fill="none" stroke="#191970" d="M62.776,-150.2108C77.766,-171.7796 105.6364,-207.5566 138,-228.1833 147.7399,-234.3909 159.1917,-239.0842 170.2594,-242.5964"/>
<polygon fill="#191970" stroke="#191970" points="65.6693,-148.2411 57.1648,-141.9224 59.8727,-152.1654 65.6693,-148.2411"/>
</g>
<!-- Node108 -->
<g id="node13" class="node">
<title>Node108</title>
<g id="a_node13"><a xlink:href="classGridWorld.html#a32bc48e56c9a7163d2fbf917df9d35c0" target="_top" xlink:title="Selects a random non&#45;goal state. ">
<polygon fill="none" stroke="#000000" points="138,-65.6833 138,-84.6833 293,-84.6833 293,-65.6833 138,-65.6833"/>
<text text-anchor="middle" x="215.5" y="-72.6833" font-family="Helvetica,sans-Serif" font-size="10.00" fill="#000000">GridWorld::getNonGoalState</text>
</a>
</g>
</g>
<!-- Node96&#45;&gt;Node108 -->
<g id="edge16" class="edge">
<title>Node96&#45;&gt;Node108</title>
<path fill="none" stroke="#191970" d="M84.3839,-118.9634C100.4989,-112.7251 120.1639,-105.3211 138,-99.1833 152.6506,-94.1417 169.0198,-89.0016 182.9256,-84.7785"/>
<polygon fill="#191970" stroke="#191970" points="82.9041,-115.7837 74.857,-122.6753 85.4454,-122.3061 82.9041,-115.7837"/>
</g>
<!-- Node97&#45;&gt;Node98 -->
<g id="edge2" class="edge">
<title>Node97&#45;&gt;Node98</title>
<path fill="none" stroke="#191970" d="M294.1403,-161.4816C355.7903,-172.2269 441.9121,-193.3098 508,-233.1833 527.9197,-245.2017 523.0765,-261.0126 544,-271.1833 576.4895,-286.9761 798.4942,-301.629 914.9753,-308.3399"/>
<polygon fill="#191970" stroke="#191970" points="294.5227,-157.9966 284.0793,-159.7816 293.3564,-164.8988 294.5227,-157.9966"/>
</g>
<!-- Node97&#45;&gt;Node99 -->
<g id="edge3" class="edge">
<title>Node97&#45;&gt;Node99</title>
<path fill="none" stroke="#191970" d="M294.589,-145.3446C419.6008,-137.7154 670.1232,-128.932 879,-162.1833 908.181,-166.8287 940.4313,-177.5915 961.8186,-185.5695"/>
<polygon fill="#191970" stroke="#191970" points="294.1095,-141.8677 284.3471,-145.9844 294.5459,-148.854 294.1095,-141.8677"/>
</g>
<!-- Node97&#45;&gt;Node100 -->
<g id="edge4" class="edge">
<title>Node97&#45;&gt;Node100</title>
<path fill="none" stroke="#191970" d="M259.1326,-138.9318C290.1155,-130.2322 331.9011,-118.4993 364.9121,-109.2302"/>
<polygon fill="#191970" stroke="#191970" points="258.1591,-135.5697 249.4776,-141.6428 260.0515,-142.3091 258.1591,-135.5697"/>
</g>
<!-- Node97&#45;&gt;Node101 -->
<g id="edge5" class="edge">
<title>Node97&#45;&gt;Node101</title>
<path fill="none" stroke="#191970" d="M236.3815,-135.5944C266.3307,-113.3427 318.9904,-74.6514 329,-70.1833 341.5033,-64.602 355.7064,-60.5136 369.0561,-57.5449"/>
<polygon fill="#191970" stroke="#191970" points="234.1714,-132.8763 228.2392,-141.6547 238.3509,-138.4917 234.1714,-132.8763"/>
</g>
<!-- Node97&#45;&gt;Node102 -->
<g id="edge6" class="edge">
<title>Node97&#45;&gt;Node102</title>
<path fill="none" stroke="#191970" d="M241.473,-136.0122C257.6506,-125.6709 278.1378,-110.8611 293,-94.1833 314.4553,-70.107 302.9498,-50.1935 329,-31.1833 337.4686,-25.0033 347.5194,-20.747 357.7737,-17.8333"/>
<polygon fill="#191970" stroke="#191970" points="239.174,-133.3195 232.5209,-141.565 242.8638,-139.2681 239.174,-133.3195"/>
</g>
<!-- Node104 -->
<g id="node9" class="node">
<title>Node104</title>
<g id="a_node9"><a xlink:href="classGridWorld.html#afb39acf3fcb5c3f62adea9668a035445" target="_top" xlink:title="Gets the q value of action a on state s ">
<polygon fill="none" stroke="#000000" points="354,-242.6833 354,-261.6833 483,-261.6833 483,-242.6833 354,-242.6833"/>
<text text-anchor="middle" x="418.5" y="-249.6833" font-family="Helvetica,sans-Serif" font-size="10.00" fill="#000000">GridWorld::actionValue</text>
</a>
</g>
</g>
<!-- Node103&#45;&gt;Node104 -->
<g id="edge8" class="edge">
<title>Node103&#45;&gt;Node104</title>
<path fill="none" stroke="#191970" d="M284.8458,-252.1833C307.1876,-252.1833 331.8473,-252.1833 353.838,-252.1833"/>
<polygon fill="#191970" stroke="#191970" points="284.7617,-248.6834 274.7617,-252.1833 284.7617,-255.6834 284.7617,-248.6834"/>
</g>
<!-- Node105 -->
<g id="node10" class="node">
<title>Node105</title>
<g id="a_node10"><a xlink:href="classGridWorld.html#ab2473dfcba808923e74ef5e41c815293" target="_top" xlink:title="Gets the q values of all actions for a given state. ">
<polygon fill="none" stroke="#000000" points="544,-231.1833 544,-261.1833 693,-261.1833 693,-231.1833 544,-231.1833"/>
<text text-anchor="start" x="552" y="-249.1833" font-family="Helvetica,sans-Serif" font-size="10.00" fill="#000000">GridWorld::actionValuesFor</text>
<text text-anchor="middle" x="618.5" y="-238.1833" font-family="Helvetica,sans-Serif" font-size="10.00" fill="#000000">State</text>
</a>
</g>
</g>
<!-- Node104&#45;&gt;Node105 -->
<g id="edge9" class="edge">
<title>Node104&#45;&gt;Node105</title>
<path fill="none" stroke="#191970" d="M493.3248,-249.9386C509.8861,-249.4417 527.4328,-248.9153 543.9818,-248.4189"/>
<polygon fill="#191970" stroke="#191970" points="493.0486,-246.4452 483.1581,-250.2436 493.2586,-253.442 493.0486,-246.4452"/>
</g>
<!-- Node107 -->
<g id="node12" class="node">
<title>Node107</title>
<g id="a_node12"><a xlink:href="classGridWorld.html#a5ee28286d5b619b0cf046b83f7d8ee7c" target="_top" xlink:title="Iterative policy evaluation implemented as decribed in Sutton and Barto, 2017. ">
<polygon fill="none" stroke="#000000" points="733,-319.1833 733,-349.1833 875,-349.1833 875,-319.1833 733,-319.1833"/>
<text text-anchor="start" x="741" y="-337.1833" font-family="Helvetica,sans-Serif" font-size="10.00" fill="#000000">GridWorld::iterativePolicy</text>
<text text-anchor="middle" x="804" y="-326.1833" font-family="Helvetica,sans-Serif" font-size="10.00" fill="#000000">Evaluation</text>
</a>
</g>
</g>
<!-- Node104&#45;&gt;Node107 -->
<g id="edge14" class="edge">
<title>Node104&#45;&gt;Node107</title>
<path fill="none" stroke="#191970" d="M446.2713,-266.3269C471.2021,-278.3775 509.1346,-295.1378 544,-304.1833 606.6748,-320.4436 680.1356,-327.8971 732.9548,-331.31"/>
<polygon fill="#191970" stroke="#191970" points="447.5868,-263.0737 437.068,-261.8061 444.5004,-269.3566 447.5868,-263.0737"/>
</g>
<!-- Node105&#45;&gt;Node99 -->
<g id="edge13" class="edge">
<title>Node105&#45;&gt;Node99</title>
<path fill="none" stroke="#191970" d="M703.5363,-234.3824C768.5441,-225.3609 856.9949,-213.0861 917.4946,-204.6902"/>
<polygon fill="#191970" stroke="#191970" points="702.736,-230.9598 693.3121,-235.8012 703.6983,-237.8933 702.736,-230.9598"/>
</g>
<!-- Node106 -->
<g id="node11" class="node">
<title>Node106</title>
<g id="a_node11"><a xlink:href="classGridWorld.html#a5b720f7017beff840503f77c25da2586" target="_top" xlink:title="Creates a new policy for a given state giving preference to the actions with maximum value...">
<polygon fill="none" stroke="#000000" points="729,-242.6833 729,-261.6833 879,-261.6833 879,-242.6833 729,-242.6833"/>
<text text-anchor="middle" x="804" y="-249.6833" font-family="Helvetica,sans-Serif" font-size="10.00" fill="#000000">GridWorld::policyIncrement</text>
</a>
</g>
</g>
<!-- Node105&#45;&gt;Node106 -->
<g id="edge10" class="edge">
<title>Node105&#45;&gt;Node106</title>
<path fill="none" stroke="#191970" d="M703.165,-248.9218C711.7495,-249.1995 720.427,-249.4801 728.9005,-249.7542"/>
<polygon fill="#191970" stroke="#191970" points="703.2561,-245.423 693.1481,-248.5978 703.0297,-252.4193 703.2561,-245.423"/>
</g>
<!-- Node106&#45;&gt;Node98 -->
<g id="edge11" class="edge">
<title>Node106&#45;&gt;Node98</title>
<path fill="none" stroke="#191970" d="M843.9713,-264.8529C855.3047,-268.4781 867.6473,-272.4573 879,-276.1833 905.8161,-284.9845 936.3195,-295.2749 957.8773,-302.5945"/>
<polygon fill="#191970" stroke="#191970" points="844.9124,-261.4794 834.3217,-261.7735 842.7842,-268.1481 844.9124,-261.4794"/>
</g>
<!-- Node106&#45;&gt;Node99 -->
<g id="edge12" class="edge">
<title>Node106&#45;&gt;Node99</title>
<path fill="none" stroke="#191970" d="M844.4097,-239.5275C877.959,-229.0203 924.9554,-214.3017 955.4379,-204.7549"/>
<polygon fill="#191970" stroke="#191970" points="842.9596,-236.314 834.4627,-242.6428 845.0517,-242.994 842.9596,-236.314"/>
</g>
<!-- Node107&#45;&gt;Node98 -->
<g id="edge15" class="edge">
<title>Node107&#45;&gt;Node98</title>
<path fill="none" stroke="#191970" d="M885.3441,-324.3505C895.2003,-323.1591 905.2092,-321.9492 914.9015,-320.7776"/>
<polygon fill="#191970" stroke="#191970" points="884.6556,-320.9082 875.1479,-325.583 885.4957,-327.8576 884.6556,-320.9082"/>
</g>
<!-- Node108&#45;&gt;Node100 -->
<g id="edge17" class="edge">
<title>Node108&#45;&gt;Node100</title>
<path fill="none" stroke="#191970" d="M303.3046,-83.4015C311.7237,-84.1895 320.2709,-84.9894 328.7087,-85.7792"/>
<polygon fill="#191970" stroke="#191970" points="303.3972,-79.8949 293.1145,-82.4477 302.7448,-86.8645 303.3972,-79.8949"/>
</g>
<!-- Node108&#45;&gt;Node101 -->
<g id="edge18" class="edge">
<title>Node108&#45;&gt;Node101</title>
<path fill="none" stroke="#191970" d="M302.8413,-64.427C325.5812,-61.6265 349.2881,-58.7069 369.2754,-56.2455"/>
<polygon fill="#191970" stroke="#191970" points="302.3219,-60.9644 292.8247,-65.6606 303.1775,-67.9119 302.3219,-60.9644"/>
</g>
<!-- Node108&#45;&gt;Node102 -->
<g id="edge19" class="edge">
<title>Node108&#45;&gt;Node102</title>
<path fill="none" stroke="#191970" d="M246.7079,-61.5207C269.2477,-52.0406 300.5942,-39.6447 329,-31.1833 341.0265,-27.6009 354.1535,-24.4201 366.5565,-21.7343"/>
<polygon fill="#191970" stroke="#191970" points="245.1496,-58.38 237.318,-65.5156 247.8901,-64.8213 245.1496,-58.38"/>
</g>
</g>
</svg>
