<?xml version="1.0" encoding="UTF-8" standalone="no"?>
<!DOCTYPE svg PUBLIC "-//W3C//DTD SVG 1.1//EN"
 "http://www.w3.org/Graphics/SVG/1.1/DTD/svg11.dtd">
<!-- Generated by graphviz version 2.40.1 (20161225.0304)
 -->
<!-- Title: GridWorld::transition Pages: 1 -->
<svg width="450pt" height="66pt"
 viewBox="0.00 0.00 450.00 66.00" xmlns="http://www.w3.org/2000/svg" xmlns:xlink="http://www.w3.org/1999/xlink">
<g id="graph0" class="graph" transform="scale(1 1) rotate(0) translate(4 62)">
<title>GridWorld::transition</title>
<!-- Node237 -->
<g id="node1" class="node">
<title>Node237</title>
<polygon fill="#bfbfbf" stroke="#000000" points="0,-19.5 0,-38.5 118,-38.5 118,-19.5 0,-19.5"/>
<text text-anchor="middle" x="59" y="-26.5" font-family="Helvetica,sans-Serif" font-size="10.00" fill="#000000">GridWorld::transition</text>
</g>
<!-- Node238 -->
<g id="node2" class="node">
<title>Node238</title>
<g id="a_node2"><a xlink:href="classGridWorld.html#a202b7bda8938f3c641c2812dcc9b5ac1" target="_top" xlink:title="Informs whether a state is a goal state in the grid world. ">
<polygon fill="none" stroke="#000000" points="167.5,-38.5 167.5,-57.5 269.5,-57.5 269.5,-38.5 167.5,-38.5"/>
<text text-anchor="middle" x="218.5" y="-45.5" font-family="Helvetica,sans-Serif" font-size="10.00" fill="#000000">GridWorld::isGoal</text>
</a>
</g>
</g>
<!-- Node237&#45;&gt;Node238 -->
<g id="edge1" class="edge">
<title>Node237&#45;&gt;Node238</title>
<path fill="none" stroke="#191970" d="M118.3919,-36.0749C131.1115,-37.5901 144.5715,-39.1935 157.3559,-40.7164"/>
<polygon fill="#191970" stroke="#191970" points="157.093,-44.2097 167.4369,-41.9172 157.9211,-37.2589 157.093,-44.2097"/>
</g>
<!-- Node240 -->
<g id="node4" class="node">
<title>Node240</title>
<g id="a_node4"><a xlink:href="classGridWorld.html#aee5066a1ae4ad067c4ac846c6ed15dea" target="_top" xlink:title="Returns the next state that results from applying an action to a state. ">
<polygon fill="none" stroke="#000000" points="154,-.5 154,-19.5 283,-19.5 283,-.5 154,-.5"/>
<text text-anchor="middle" x="218.5" y="-7.5" font-family="Helvetica,sans-Serif" font-size="10.00" fill="#000000">GridWorld::applyAction</text>
</a>
</g>
</g>
<!-- Node237&#45;&gt;Node240 -->
<g id="edge3" class="edge">
<title>Node237&#45;&gt;Node240</title>
<path fill="none" stroke="#191970" d="M118.3919,-21.9251C126.7314,-20.9317 135.3891,-19.9004 143.9661,-18.8786"/>
<polygon fill="#191970" stroke="#191970" points="144.4579,-22.3449 153.9737,-17.6865 143.6299,-15.394 144.4579,-22.3449"/>
</g>
<!-- Node239 -->
<g id="node3" class="node">
<title>Node239</title>
<g id="a_node3"><a xlink:href="classGridWorld.html#a03d2aaf35961c3e190e4b7ab12f76e4d" target="_top" xlink:title="Transforms a raster coordinate from the grid world into its corresponding row x column representation...">
<polygon fill="none" stroke="#000000" points="325.5,-38.5 325.5,-57.5 435.5,-57.5 435.5,-38.5 325.5,-38.5"/>
<text text-anchor="middle" x="380.5" y="-45.5" font-family="Helvetica,sans-Serif" font-size="10.00" fill="#000000">GridWorld::toCoord</text>
</a>
</g>
</g>
<!-- Node238&#45;&gt;Node239 -->
<g id="edge2" class="edge">
<title>Node238&#45;&gt;Node239</title>
<path fill="none" stroke="#191970" d="M269.7578,-48C284.1433,-48 299.9821,-48 315.0717,-48"/>
<polygon fill="#191970" stroke="#191970" points="315.3716,-51.5001 325.3716,-48 315.3716,-44.5001 315.3716,-51.5001"/>
</g>
<!-- Node240&#45;&gt;Node239 -->
<g id="edge4" class="edge">
<title>Node240&#45;&gt;Node239</title>
<path fill="none" stroke="#191970" d="M259.3794,-19.589C280.8534,-24.6261 307.3605,-30.8438 330.097,-36.1771"/>
<polygon fill="#191970" stroke="#191970" points="329.3795,-39.6037 339.9145,-38.4799 330.9781,-32.7887 329.3795,-39.6037"/>
</g>
<!-- Node241 -->
<g id="node5" class="node">
<title>Node241</title>
<g id="a_node5"><a xlink:href="classGridWorld.html#a5241a21b520fc8c9d4c0110de285aec1" target="_top" xlink:title="Transforms row x column coordinates from the grid world into a raster representation. ">
<polygon fill="none" stroke="#000000" points="319,-.5 319,-19.5 442,-19.5 442,-.5 319,-.5"/>
<text text-anchor="middle" x="380.5" y="-7.5" font-family="Helvetica,sans-Serif" font-size="10.00" fill="#000000">GridWorld::fromCoord</text>
</a>
</g>
</g>
<!-- Node240&#45;&gt;Node241 -->
<g id="edge5" class="edge">
<title>Node240&#45;&gt;Node241</title>
<path fill="none" stroke="#191970" d="M283.4582,-10C291.7815,-10 300.3402,-10 308.7636,-10"/>
<polygon fill="#191970" stroke="#191970" points="308.9462,-13.5001 318.9461,-10 308.9461,-6.5001 308.9462,-13.5001"/>
</g>
</g>
</svg>
