<?xml version="1.0" encoding="UTF-8" standalone="no"?>
<!DOCTYPE svg PUBLIC "-//W3C//DTD SVG 1.1//EN"
 "http://www.w3.org/Graphics/SVG/1.1/DTD/svg11.dtd">
<!-- Generated by graphviz version 2.40.1 (20161225.0304)
 -->
<!-- Title: KMeans Pages: 1 -->
<svg width="353pt" height="292pt"
 viewBox="0.00 0.00 353.00 292.00" xmlns="http://www.w3.org/2000/svg" xmlns:xlink="http://www.w3.org/1999/xlink">
<g id="graph0" class="graph" transform="scale(1 1) rotate(0) translate(4 288)">
<title>KMeans</title>
<!-- Node1 -->
<g id="node1" class="node">
<title>Node1</title>
<polygon fill="#bfbfbf" stroke="#000000" points="106,-.5 106,-156.5 228,-156.5 228,-.5 106,-.5"/>
<text text-anchor="middle" x="167" y="-144.5" font-family="Helvetica,sans-Serif" font-size="10.00" fill="#000000">KMeans</text>
<polyline fill="none" stroke="#000000" points="106,-137.5 228,-137.5 "/>
<text text-anchor="middle" x="167" y="-125.5" font-family="Helvetica,sans-Serif" font-size="10.00" fill="#000000"> </text>
<polyline fill="none" stroke="#000000" points="106,-118.5 228,-118.5 "/>
<text text-anchor="start" x="114" y="-106.5" font-family="Helvetica,sans-Serif" font-size="10.00" fill="#000000">+ KMeans()</text>
<text text-anchor="start" x="114" y="-95.5" font-family="Helvetica,sans-Serif" font-size="10.00" fill="#000000">+ predict()</text>
<text text-anchor="start" x="114" y="-84.5" font-family="Helvetica,sans-Serif" font-size="10.00" fill="#000000">+ fit()</text>
<text text-anchor="start" x="114" y="-73.5" font-family="Helvetica,sans-Serif" font-size="10.00" fill="#000000">+ getY()</text>
<text text-anchor="start" x="114" y="-62.5" font-family="Helvetica,sans-Serif" font-size="10.00" fill="#000000">+ getCentroids()</text>
<text text-anchor="start" x="114" y="-51.5" font-family="Helvetica,sans-Serif" font-size="10.00" fill="#000000">+ getK()</text>
<text text-anchor="start" x="114" y="-40.5" font-family="Helvetica,sans-Serif" font-size="10.00" fill="#000000">+ getTotalIterations()</text>
<text text-anchor="start" x="114" y="-29.5" font-family="Helvetica,sans-Serif" font-size="10.00" fill="#000000">+ getDistance()</text>
<text text-anchor="start" x="114" y="-18.5" font-family="Helvetica,sans-Serif" font-size="10.00" fill="#000000">+ getSse()</text>
<text text-anchor="start" x="114" y="-7.5" font-family="Helvetica,sans-Serif" font-size="10.00" fill="#000000">&#45; SSE()</text>
</g>
<!-- Node2 -->
<g id="node2" class="node">
<title>Node2</title>
<polygon fill="none" stroke="#bfbfbf" points="0,-226.5 0,-283.5 50,-283.5 50,-226.5 0,-226.5"/>
<text text-anchor="middle" x="25" y="-271.5" font-family="Helvetica,sans-Serif" font-size="10.00" fill="#000000">double</text>
<polyline fill="none" stroke="#bfbfbf" points="0,-264.5 50,-264.5 "/>
<text text-anchor="middle" x="25" y="-252.5" font-family="Helvetica,sans-Serif" font-size="10.00" fill="#000000"> </text>
<polyline fill="none" stroke="#bfbfbf" points="0,-245.5 50,-245.5 "/>
<text text-anchor="middle" x="25" y="-233.5" font-family="Helvetica,sans-Serif" font-size="10.00" fill="#000000"> </text>
</g>
<!-- Node2&#45;&gt;Node1 -->
<g id="edge1" class="edge">
<title>Node2&#45;&gt;Node1</title>
<path fill="none" stroke="#404040" d="M40.5776,-226.2458C49.5715,-210.5562 61.5459,-191.1052 74,-175 81.259,-165.6129 89.3167,-156.1361 97.5668,-146.9779"/>
<polygon fill="none" stroke="#404040" points="97.7457,-146.783 98.8548,-139.6577 105.8586,-137.941 104.7495,-145.0663 97.7457,-146.783"/>
<text text-anchor="middle" x="97" y="-194.5" font-family="Helvetica,sans-Serif" font-size="10.00" fill="#000000"> &#45;sse</text>
<text text-anchor="middle" x="97" y="-183.5" font-family="Helvetica,sans-Serif" font-size="10.00" fill="#000000">&#45;distance</text>
</g>
<!-- Node3 -->
<g id="node3" class="node">
<title>Node3</title>
<polygon fill="none" stroke="#bfbfbf" points="68.5,-226.5 68.5,-283.5 181.5,-283.5 181.5,-226.5 68.5,-226.5"/>
<text text-anchor="middle" x="125" y="-271.5" font-family="Helvetica,sans-Serif" font-size="10.00" fill="#000000">InitializationMethod</text>
<polyline fill="none" stroke="#bfbfbf" points="68.5,-264.5 181.5,-264.5 "/>
<text text-anchor="middle" x="125" y="-252.5" font-family="Helvetica,sans-Serif" font-size="10.00" fill="#000000"> </text>
<polyline fill="none" stroke="#bfbfbf" points="68.5,-245.5 181.5,-245.5 "/>
<text text-anchor="middle" x="125" y="-233.5" font-family="Helvetica,sans-Serif" font-size="10.00" fill="#000000"> </text>
</g>
<!-- Node3&#45;&gt;Node1 -->
<g id="edge2" class="edge">
<title>Node3&#45;&gt;Node1</title>
<path fill="none" stroke="#404040" d="M124.1954,-226.1961C124.3274,-210.8409 125.3918,-191.7198 129,-175 129.4709,-172.8178 129.9854,-170.6207 130.538,-168.4151"/>
<polygon fill="none" stroke="#404040" points="130.6146,-168.1391 128.3671,-161.2872 133.8275,-156.5772 136.075,-163.4291 130.6146,-168.1391"/>
<text text-anchor="middle" x="158.5" y="-189" font-family="Helvetica,sans-Serif" font-size="10.00" fill="#000000"> &#45;initMethod</text>
</g>
<!-- Node4 -->
<g id="node4" class="node">
<title>Node4</title>
<polygon fill="none" stroke="#bfbfbf" points="199.5,-226.5 199.5,-283.5 228.5,-283.5 228.5,-226.5 199.5,-226.5"/>
<text text-anchor="middle" x="214" y="-271.5" font-family="Helvetica,sans-Serif" font-size="10.00" fill="#000000">int</text>
<polyline fill="none" stroke="#bfbfbf" points="199.5,-264.5 228.5,-264.5 "/>
<text text-anchor="middle" x="214" y="-252.5" font-family="Helvetica,sans-Serif" font-size="10.00" fill="#000000"> </text>
<polyline fill="none" stroke="#bfbfbf" points="199.5,-245.5 228.5,-245.5 "/>
<text text-anchor="middle" x="214" y="-233.5" font-family="Helvetica,sans-Serif" font-size="10.00" fill="#000000"> </text>
</g>
<!-- Node4&#45;&gt;Node1 -->
<g id="edge3" class="edge">
<title>Node4&#45;&gt;Node1</title>
<path fill="none" stroke="#404040" d="M206.344,-226.2494C202.0862,-210.26 196.5296,-189.3929 190.9397,-168.4012"/>
<polygon fill="none" stroke="#404040" points="190.9268,-168.3525 185.5175,-163.5838 187.8389,-156.7565 193.2481,-161.5252 190.9268,-168.3525"/>
<text text-anchor="middle" x="237.5" y="-194.5" font-family="Helvetica,sans-Serif" font-size="10.00" fill="#000000"> &#45;k</text>
<text text-anchor="middle" x="237.5" y="-183.5" font-family="Helvetica,sans-Serif" font-size="10.00" fill="#000000">&#45;totalIterations</text>
</g>
<!-- Node5 -->
<g id="node5" class="node">
<title>Node5</title>
<polygon fill="none" stroke="#bfbfbf" points="278.5,-226.5 278.5,-283.5 333.5,-283.5 333.5,-226.5 278.5,-226.5"/>
<text text-anchor="middle" x="306" y="-271.5" font-family="Helvetica,sans-Serif" font-size="10.00" fill="#000000">MatrixD</text>
<polyline fill="none" stroke="#bfbfbf" points="278.5,-264.5 333.5,-264.5 "/>
<text text-anchor="middle" x="306" y="-252.5" font-family="Helvetica,sans-Serif" font-size="10.00" fill="#000000"> </text>
<polyline fill="none" stroke="#bfbfbf" points="278.5,-245.5 333.5,-245.5 "/>
<text text-anchor="middle" x="306" y="-233.5" font-family="Helvetica,sans-Serif" font-size="10.00" fill="#000000"> </text>
</g>
<!-- Node5&#45;&gt;Node1 -->
<g id="edge4" class="edge">
<title>Node5&#45;&gt;Node1</title>
<path fill="none" stroke="#404040" d="M299.8261,-226.3134C295.4621,-210.2764 288.4891,-190.4669 278,-175 266.9027,-158.6362 252.3639,-143.3432 237.4806,-129.9702"/>
<polygon fill="none" stroke="#404040" points="237.253,-129.7724 230.1006,-128.8547 228.1968,-121.8994 235.3493,-122.8171 237.253,-129.7724"/>
<text text-anchor="middle" x="319" y="-200" font-family="Helvetica,sans-Serif" font-size="10.00" fill="#000000"> &#45;centroids</text>
<text text-anchor="middle" x="319" y="-189" font-family="Helvetica,sans-Serif" font-size="10.00" fill="#000000">&#45;y</text>
<text text-anchor="middle" x="319" y="-178" font-family="Helvetica,sans-Serif" font-size="10.00" fill="#000000">&#45;X</text>
</g>
</g>
</svg>
