<?xml version="1.0" encoding="UTF-8" standalone="no"?>
<!DOCTYPE svg PUBLIC "-//W3C//DTD SVG 1.1//EN"
 "http://www.w3.org/Graphics/SVG/1.1/DTD/svg11.dtd">
<!-- Generated by graphviz version 2.40.1 (20161225.0304)
 -->
<!-- Title: KNN Pages: 1 -->
<svg width="305pt" height="325pt"
 viewBox="0.00 0.00 305.00 325.00" xmlns="http://www.w3.org/2000/svg" xmlns:xlink="http://www.w3.org/1999/xlink">
<g id="graph0" class="graph" transform="scale(1 1) rotate(0) translate(4 321)">
<title>KNN</title>
<!-- Node1 -->
<g id="node1" class="node">
<title>Node1</title>
<polygon fill="#bfbfbf" stroke="#000000" points="141.5,-.5 141.5,-200.5 236.5,-200.5 236.5,-.5 141.5,-.5"/>
<text text-anchor="middle" x="189" y="-188.5" font-family="Helvetica,sans-Serif" font-size="10.00" fill="#000000">KNN</text>
<polyline fill="none" stroke="#000000" points="141.5,-181.5 236.5,-181.5 "/>
<text text-anchor="middle" x="189" y="-169.5" font-family="Helvetica,sans-Serif" font-size="10.00" fill="#000000"> </text>
<polyline fill="none" stroke="#000000" points="141.5,-162.5 236.5,-162.5 "/>
<text text-anchor="start" x="149.5" y="-150.5" font-family="Helvetica,sans-Serif" font-size="10.00" fill="#000000">+ getK()</text>
<text text-anchor="start" x="149.5" y="-139.5" font-family="Helvetica,sans-Serif" font-size="10.00" fill="#000000">+ setK()</text>
<text text-anchor="start" x="149.5" y="-128.5" font-family="Helvetica,sans-Serif" font-size="10.00" fill="#000000">+ getData()</text>
<text text-anchor="start" x="149.5" y="-117.5" font-family="Helvetica,sans-Serif" font-size="10.00" fill="#000000">+ getYColumn()</text>
<text text-anchor="start" x="149.5" y="-106.5" font-family="Helvetica,sans-Serif" font-size="10.00" fill="#000000">+ KNN()</text>
<text text-anchor="start" x="149.5" y="-95.5" font-family="Helvetica,sans-Serif" font-size="10.00" fill="#000000">+ euclidean()</text>
<text text-anchor="start" x="149.5" y="-84.5" font-family="Helvetica,sans-Serif" font-size="10.00" fill="#000000">+ hamming()</text>
<text text-anchor="start" x="149.5" y="-73.5" font-family="Helvetica,sans-Serif" font-size="10.00" fill="#000000">+ regression()</text>
<text text-anchor="start" x="149.5" y="-62.5" font-family="Helvetica,sans-Serif" font-size="10.00" fill="#000000">+ classify()</text>
<text text-anchor="start" x="149.5" y="-51.5" font-family="Helvetica,sans-Serif" font-size="10.00" fill="#000000">+ classify()</text>
<text text-anchor="start" x="149.5" y="-40.5" font-family="Helvetica,sans-Serif" font-size="10.00" fill="#000000">+ regression()</text>
<text text-anchor="start" x="149.5" y="-29.5" font-family="Helvetica,sans-Serif" font-size="10.00" fill="#000000">+ getDistance()</text>
<text text-anchor="start" x="149.5" y="-18.5" font-family="Helvetica,sans-Serif" font-size="10.00" fill="#000000">+ setDistance()</text>
<text text-anchor="start" x="149.5" y="-7.5" font-family="Helvetica,sans-Serif" font-size="10.00" fill="#000000">&#45; getKNN()</text>
</g>
<!-- Node2 -->
<g id="node2" class="node">
<title>Node2</title>
<polygon fill="none" stroke="#bfbfbf" points="0,-259.5 0,-316.5 156,-316.5 156,-259.5 0,-259.5"/>
<text text-anchor="middle" x="78" y="-304.5" font-family="Helvetica,sans-Serif" font-size="10.00" fill="#000000">vector&lt; vector&lt; double &gt; &gt;</text>
<polyline fill="none" stroke="#bfbfbf" points="0,-297.5 156,-297.5 "/>
<text text-anchor="middle" x="78" y="-285.5" font-family="Helvetica,sans-Serif" font-size="10.00" fill="#000000"> </text>
<polyline fill="none" stroke="#bfbfbf" points="0,-278.5 156,-278.5 "/>
<text text-anchor="middle" x="78" y="-266.5" font-family="Helvetica,sans-Serif" font-size="10.00" fill="#000000"> </text>
</g>
<!-- Node2&#45;&gt;Node1 -->
<g id="edge1" class="edge">
<title>Node2&#45;&gt;Node1</title>
<path fill="none" stroke="#404040" d="M95.1005,-259.114C105.9557,-240.7776 120.6549,-215.9478 135.1985,-191.381"/>
<polygon fill="none" stroke="#404040" points="135.2971,-191.2143 134.9116,-184.0135 141.4102,-180.8881 141.7957,-188.0889 135.2971,-191.2143"/>
<text text-anchor="middle" x="132.5" y="-227.5" font-family="Helvetica,sans-Serif" font-size="10.00" fill="#000000"> &#45;data</text>
</g>
<!-- Node3 -->
<g id="node3" class="node">
<title>Node3</title>
<polygon fill="none" stroke="#bfbfbf" points="174.5,-259.5 174.5,-316.5 203.5,-316.5 203.5,-259.5 174.5,-259.5"/>
<text text-anchor="middle" x="189" y="-304.5" font-family="Helvetica,sans-Serif" font-size="10.00" fill="#000000">int</text>
<polyline fill="none" stroke="#bfbfbf" points="174.5,-297.5 203.5,-297.5 "/>
<text text-anchor="middle" x="189" y="-285.5" font-family="Helvetica,sans-Serif" font-size="10.00" fill="#000000"> </text>
<polyline fill="none" stroke="#bfbfbf" points="174.5,-278.5 203.5,-278.5 "/>
<text text-anchor="middle" x="189" y="-266.5" font-family="Helvetica,sans-Serif" font-size="10.00" fill="#000000"> </text>
</g>
<!-- Node3&#45;&gt;Node1 -->
<g id="edge2" class="edge">
<title>Node3&#45;&gt;Node1</title>
<path fill="none" stroke="#404040" d="M189,-259.114C189,-246.2188 189,-230.1122 189,-213.1441"/>
<polygon fill="none" stroke="#404040" points="189.0001,-212.67 185,-206.67 189,-200.67 193,-206.6699 189.0001,-212.67"/>
<text text-anchor="middle" x="214.5" y="-233" font-family="Helvetica,sans-Serif" font-size="10.00" fill="#000000"> &#45;yColumn</text>
<text text-anchor="middle" x="214.5" y="-222" font-family="Helvetica,sans-Serif" font-size="10.00" fill="#000000">&#45;k</text>
</g>
<!-- Node4 -->
<g id="node4" class="node">
<title>Node4</title>
<polygon fill="none" stroke="#bfbfbf" points="233.5,-259.5 233.5,-316.5 292.5,-316.5 292.5,-259.5 233.5,-259.5"/>
<text text-anchor="middle" x="263" y="-304.5" font-family="Helvetica,sans-Serif" font-size="10.00" fill="#000000">Distance</text>
<polyline fill="none" stroke="#bfbfbf" points="233.5,-297.5 292.5,-297.5 "/>
<text text-anchor="middle" x="263" y="-285.5" font-family="Helvetica,sans-Serif" font-size="10.00" fill="#000000"> </text>
<polyline fill="none" stroke="#bfbfbf" points="233.5,-278.5 292.5,-278.5 "/>
<text text-anchor="middle" x="263" y="-266.5" font-family="Helvetica,sans-Serif" font-size="10.00" fill="#000000"> </text>
</g>
<!-- Node4&#45;&gt;Node1 -->
<g id="edge3" class="edge">
<title>Node4&#45;&gt;Node1</title>
<path fill="none" stroke="#404040" d="M254.567,-259.2335C250.7216,-246.7627 245.9306,-232.0564 241,-219 240.1164,-216.6601 239.2113,-214.2997 238.2882,-211.9248"/>
<polygon fill="none" stroke="#404040" points="238.2724,-211.8849 232.343,-207.781 233.8507,-200.7292 239.7801,-204.8331 238.2724,-211.8849"/>
<text text-anchor="middle" x="272.5" y="-227.5" font-family="Helvetica,sans-Serif" font-size="10.00" fill="#000000"> &#45;distance</text>
</g>
</g>
</svg>
