<?xml version="1.0" encoding="UTF-8" standalone="no"?>
<!DOCTYPE svg PUBLIC "-//W3C//DTD SVG 1.1//EN"
 "http://www.w3.org/Graphics/SVG/1.1/DTD/svg11.dtd">
<!-- Generated by graphviz version 2.40.1 (20161225.0304)
 -->
<!-- Title: GridWorld::actionValuesForState Pages: 1 -->
<svg width="521pt" height="66pt"
 viewBox="0.00 0.00 521.00 66.00" xmlns="http://www.w3.org/2000/svg" xmlns:xlink="http://www.w3.org/1999/xlink">
<g id="graph0" class="graph" transform="scale(1 1) rotate(0) translate(4 62)">
<title>GridWorld::actionValuesForState</title>
<!-- Node19 -->
<g id="node1" class="node">
<title>Node19</title>
<polygon fill="#bfbfbf" stroke="#000000" points="0,-14 0,-44 149,-44 149,-14 0,-14"/>
<text text-anchor="start" x="8" y="-32" font-family="Helvetica,sans-Serif" font-size="10.00" fill="#000000">GridWorld::actionValuesFor</text>
<text text-anchor="middle" x="74.5" y="-21" font-family="Helvetica,sans-Serif" font-size="10.00" fill="#000000">State</text>
</g>
<!-- Node20 -->
<g id="node2" class="node">
<title>Node20</title>
<g id="a_node2"><a xlink:href="classGridWorld.html#a5b720f7017beff840503f77c25da2586" target="_top" xlink:title="Creates a new policy for a given state giving preference to the actions with maximum value...">
<polygon fill="none" stroke="#000000" points="185,-38.5 185,-57.5 335,-57.5 335,-38.5 185,-38.5"/>
<text text-anchor="middle" x="260" y="-45.5" font-family="Helvetica,sans-Serif" font-size="10.00" fill="#000000">GridWorld::policyIncrement</text>
</a>
</g>
</g>
<!-- Node19&#45;&gt;Node20 -->
<g id="edge1" class="edge">
<title>Node19&#45;&gt;Node20</title>
<path fill="none" stroke="#191970" d="M159.165,-37.6719C167.7495,-38.5512 176.427,-39.44 184.9005,-40.3079"/>
<polygon fill="#191970" stroke="#191970" points="159.4527,-34.1831 149.1481,-36.6459 158.7394,-41.1467 159.4527,-34.1831"/>
</g>
<!-- Node22 -->
<g id="node4" class="node">
<title>Node22</title>
<g id="a_node4"><a xlink:href="classGridWorld.html#a0d5cada9fc611efc747722223c97e8e5" target="_top" xlink:title="Value iteration method. ">
<polygon fill="none" stroke="#000000" points="372,-.5 372,-19.5 512,-19.5 512,-.5 372,-.5"/>
<text text-anchor="middle" x="442" y="-7.5" font-family="Helvetica,sans-Serif" font-size="10.00" fill="#000000">GridWorld::valueIteration</text>
</a>
</g>
</g>
<!-- Node19&#45;&gt;Node22 -->
<g id="edge4" class="edge">
<title>Node19&#45;&gt;Node22</title>
<path fill="none" stroke="#191970" d="M159.453,-24.6079C223.9217,-21.2748 311.482,-16.7479 371.9615,-13.621"/>
<polygon fill="#191970" stroke="#191970" points="159.118,-21.1204 149.3121,-25.1322 159.4795,-28.1111 159.118,-21.1204"/>
</g>
<!-- Node21 -->
<g id="node3" class="node">
<title>Node21</title>
<g id="a_node3"><a xlink:href="classGridWorld.html#add6d00c0d2eec4d16706a19b0527bba5" target="_top" xlink:title="Policy iteration method. ">
<polygon fill="none" stroke="#000000" points="371,-38.5 371,-57.5 513,-57.5 513,-38.5 371,-38.5"/>
<text text-anchor="middle" x="442" y="-45.5" font-family="Helvetica,sans-Serif" font-size="10.00" fill="#000000">GridWorld::policyIteration</text>
</a>
</g>
</g>
<!-- Node20&#45;&gt;Node21 -->
<g id="edge2" class="edge">
<title>Node20&#45;&gt;Node21</title>
<path fill="none" stroke="#191970" d="M345.1435,-48C353.762,-48 362.4508,-48 370.899,-48"/>
<polygon fill="#191970" stroke="#191970" points="345.0772,-44.5001 335.0771,-48 345.0771,-51.5001 345.0772,-44.5001"/>
</g>
<!-- Node20&#45;&gt;Node22 -->
<g id="edge3" class="edge">
<title>Node20&#45;&gt;Node22</title>
<path fill="none" stroke="#191970" d="M315.9458,-36.319C341.7558,-30.9301 372.0069,-24.6139 396.404,-19.5201"/>
<polygon fill="#191970" stroke="#191970" points="314.9998,-32.941 305.9263,-38.411 316.4306,-39.7932 314.9998,-32.941"/>
</g>
</g>
</svg>
