<?xml version="1.0" encoding="UTF-8" standalone="no"?>
<!DOCTYPE svg PUBLIC "-//W3C//DTD SVG 1.1//EN"
 "http://www.w3.org/Graphics/SVG/1.1/DTD/svg11.dtd">
<!-- Generated by graphviz version 2.40.1 (20161225.0304)
 -->
<!-- Title: LeastSquares Pages: 1 -->
<svg width="199pt" height="270pt"
 viewBox="0.00 0.00 198.50 270.00" xmlns="http://www.w3.org/2000/svg" xmlns:xlink="http://www.w3.org/1999/xlink">
<g id="graph0" class="graph" transform="scale(1 1) rotate(0) translate(4 266)">
<title>LeastSquares</title>
<!-- Node1 -->
<g id="node1" class="node">
<title>Node1</title>
<polygon fill="#bfbfbf" stroke="#000000" points="35,-.5 35,-123.5 164,-123.5 164,-.5 35,-.5"/>
<text text-anchor="middle" x="99.5" y="-111.5" font-family="Helvetica,sans-Serif" font-size="10.00" fill="#000000">LeastSquares</text>
<polyline fill="none" stroke="#000000" points="35,-104.5 164,-104.5 "/>
<text text-anchor="middle" x="99.5" y="-92.5" font-family="Helvetica,sans-Serif" font-size="10.00" fill="#000000"> </text>
<polyline fill="none" stroke="#000000" points="35,-85.5 164,-85.5 "/>
<text text-anchor="start" x="43" y="-73.5" font-family="Helvetica,sans-Serif" font-size="10.00" fill="#000000">+ LeastSquares()</text>
<text text-anchor="start" x="43" y="-62.5" font-family="Helvetica,sans-Serif" font-size="10.00" fill="#000000">+ getRegressionType()</text>
<text text-anchor="start" x="43" y="-51.5" font-family="Helvetica,sans-Serif" font-size="10.00" fill="#000000">+ setRegressionType()</text>
<text text-anchor="start" x="43" y="-40.5" font-family="Helvetica,sans-Serif" font-size="10.00" fill="#000000">+ fit()</text>
<text text-anchor="start" x="43" y="-29.5" font-family="Helvetica,sans-Serif" font-size="10.00" fill="#000000">+ predict()</text>
<text text-anchor="start" x="43" y="-18.5" font-family="Helvetica,sans-Serif" font-size="10.00" fill="#000000">+ getCoefs()</text>
<text text-anchor="start" x="43" y="-7.5" font-family="Helvetica,sans-Serif" font-size="10.00" fill="#000000">+ getResiduals()</text>
</g>
<!-- Node2 -->
<g id="node2" class="node">
<title>Node2</title>
<polygon fill="none" stroke="#bfbfbf" points="0,-204.5 0,-261.5 95,-261.5 95,-204.5 0,-204.5"/>
<text text-anchor="middle" x="47.5" y="-249.5" font-family="Helvetica,sans-Serif" font-size="10.00" fill="#000000">RegressionType</text>
<polyline fill="none" stroke="#bfbfbf" points="0,-242.5 95,-242.5 "/>
<text text-anchor="middle" x="47.5" y="-230.5" font-family="Helvetica,sans-Serif" font-size="10.00" fill="#000000"> </text>
<polyline fill="none" stroke="#bfbfbf" points="0,-223.5 95,-223.5 "/>
<text text-anchor="middle" x="47.5" y="-211.5" font-family="Helvetica,sans-Serif" font-size="10.00" fill="#000000"> </text>
</g>
<!-- Node2&#45;&gt;Node1 -->
<g id="edge1" class="edge">
<title>Node2&#45;&gt;Node1</title>
<path fill="none" stroke="#404040" d="M43.8196,-204.1129C42.4702,-185.9157 42.506,-162.1404 48.5,-142 49.2158,-139.595 50.0269,-137.1929 50.9196,-134.8019"/>
<polygon fill="none" stroke="#404040" points="50.9359,-134.7637 49.6081,-127.6759 55.64,-123.7242 56.9678,-130.812 50.9359,-134.7637"/>
<text text-anchor="middle" x="89.5" y="-161.5" font-family="Helvetica,sans-Serif" font-size="10.00" fill="#000000"> &#45;regressionType</text>
</g>
<!-- Node3 -->
<g id="node3" class="node">
<title>Node3</title>
<polygon fill="none" stroke="#bfbfbf" points="125,-204.5 125,-261.5 180,-261.5 180,-204.5 125,-204.5"/>
<text text-anchor="middle" x="152.5" y="-249.5" font-family="Helvetica,sans-Serif" font-size="10.00" fill="#000000">MatrixD</text>
<polyline fill="none" stroke="#bfbfbf" points="125,-242.5 180,-242.5 "/>
<text text-anchor="middle" x="152.5" y="-230.5" font-family="Helvetica,sans-Serif" font-size="10.00" fill="#000000"> </text>
<polyline fill="none" stroke="#bfbfbf" points="125,-223.5 180,-223.5 "/>
<text text-anchor="middle" x="152.5" y="-211.5" font-family="Helvetica,sans-Serif" font-size="10.00" fill="#000000"> </text>
</g>
<!-- Node3&#45;&gt;Node1 -->
<g id="edge2" class="edge">
<title>Node3&#45;&gt;Node1</title>
<path fill="none" stroke="#404040" d="M146.6177,-204.4519C142.6453,-186.386 136.9595,-162.6298 130.5,-142 129.799,-139.7612 129.0669,-137.495 128.3102,-135.2134"/>
<polygon fill="none" stroke="#404040" points="128.2628,-135.0757 122.5257,-130.707 124.3517,-123.7309 130.0888,-128.0996 128.2628,-135.0757"/>
<text text-anchor="middle" x="166" y="-178" font-family="Helvetica,sans-Serif" font-size="10.00" fill="#000000"> &#45;coefs</text>
<text text-anchor="middle" x="166" y="-167" font-family="Helvetica,sans-Serif" font-size="10.00" fill="#000000">&#45;residuals</text>
<text text-anchor="middle" x="166" y="-156" font-family="Helvetica,sans-Serif" font-size="10.00" fill="#000000">&#45;y</text>
<text text-anchor="middle" x="166" y="-145" font-family="Helvetica,sans-Serif" font-size="10.00" fill="#000000">&#45;X</text>
</g>
</g>
</svg>
