<?xml version="1.0" encoding="UTF-8" standalone="no"?>
<!DOCTYPE svg PUBLIC "-//W3C//DTD SVG 1.1//EN"
 "http://www.w3.org/Graphics/SVG/1.1/DTD/svg11.dtd">
<!-- Generated by graphviz version 2.40.1 (20161225.0304)
 -->
<!-- Title: GridWorld::actionValue Pages: 1 -->
<svg width="686pt" height="97pt"
 viewBox="0.00 0.00 686.00 96.50" xmlns="http://www.w3.org/2000/svg" xmlns:xlink="http://www.w3.org/1999/xlink">
<g id="graph0" class="graph" transform="scale(1 1) rotate(0) translate(4 92.5)">
<title>GridWorld::actionValue</title>
<!-- Node6 -->
<g id="node1" class="node">
<title>Node6</title>
<polygon fill="#bfbfbf" stroke="#000000" points="0,-28 0,-47 129,-47 129,-28 0,-28"/>
<text text-anchor="middle" x="64.5" y="-35" font-family="Helvetica,sans-Serif" font-size="10.00" fill="#000000">GridWorld::actionValue</text>
</g>
<!-- Node7 -->
<g id="node2" class="node">
<title>Node7</title>
<g id="a_node2"><a xlink:href="classGridWorld.html#ab2473dfcba808923e74ef5e41c815293" target="_top" xlink:title="Gets the q values of all actions for a given state. ">
<polygon fill="none" stroke="#000000" points="165,-44.5 165,-74.5 314,-74.5 314,-44.5 165,-44.5"/>
<text text-anchor="start" x="173" y="-62.5" font-family="Helvetica,sans-Serif" font-size="10.00" fill="#000000">GridWorld::actionValuesFor</text>
<text text-anchor="middle" x="239.5" y="-51.5" font-family="Helvetica,sans-Serif" font-size="10.00" fill="#000000">State</text>
</a>
</g>
</g>
<!-- Node6&#45;&gt;Node7 -->
<g id="edge1" class="edge">
<title>Node6&#45;&gt;Node7</title>
<path fill="none" stroke="#191970" d="M139.3364,-46.908C147.7566,-47.9665 156.3367,-49.0452 164.7558,-50.1036"/>
<polygon fill="#191970" stroke="#191970" points="139.5248,-43.4042 129.1663,-45.6295 138.6516,-50.3496 139.5248,-43.4042"/>
</g>
<!-- Node11 -->
<g id="node6" class="node">
<title>Node11</title>
<g id="a_node6"><a xlink:href="classGridWorld.html#a5ee28286d5b619b0cf046b83f7d8ee7c" target="_top" xlink:title="Iterative policy evaluation implemented as decribed in Sutton and Barto, 2017. ">
<polygon fill="none" stroke="#000000" points="354,-.5 354,-30.5 496,-30.5 496,-.5 354,-.5"/>
<text text-anchor="start" x="362" y="-18.5" font-family="Helvetica,sans-Serif" font-size="10.00" fill="#000000">GridWorld::iterativePolicy</text>
<text text-anchor="middle" x="425" y="-7.5" font-family="Helvetica,sans-Serif" font-size="10.00" fill="#000000">Evaluation</text>
</a>
</g>
</g>
<!-- Node6&#45;&gt;Node11 -->
<g id="edge6" class="edge">
<title>Node6&#45;&gt;Node11</title>
<path fill="none" stroke="#191970" d="M139.6359,-32.9147C202.6476,-29.0694 292.0021,-23.6164 353.8642,-19.8412"/>
<polygon fill="#191970" stroke="#191970" points="139.1347,-29.4387 129.3665,-33.5414 139.5612,-36.4257 139.1347,-29.4387"/>
</g>
<!-- Node8 -->
<g id="node3" class="node">
<title>Node8</title>
<g id="a_node3"><a xlink:href="classGridWorld.html#a5b720f7017beff840503f77c25da2586" target="_top" xlink:title="Creates a new policy for a given state giving preference to the actions with maximum value...">
<polygon fill="none" stroke="#000000" points="350,-50 350,-69 500,-69 500,-50 350,-50"/>
<text text-anchor="middle" x="425" y="-57" font-family="Helvetica,sans-Serif" font-size="10.00" fill="#000000">GridWorld::policyIncrement</text>
</a>
</g>
</g>
<!-- Node7&#45;&gt;Node8 -->
<g id="edge2" class="edge">
<title>Node7&#45;&gt;Node8</title>
<path fill="none" stroke="#191970" d="M324.165,-59.5C332.7495,-59.5 341.427,-59.5 349.9005,-59.5"/>
<polygon fill="#191970" stroke="#191970" points="324.1481,-56.0001 314.1481,-59.5 324.1481,-63.0001 324.1481,-56.0001"/>
</g>
<!-- Node10 -->
<g id="node5" class="node">
<title>Node10</title>
<g id="a_node5"><a xlink:href="classGridWorld.html#a0d5cada9fc611efc747722223c97e8e5" target="_top" xlink:title="Value iteration method. ">
<polygon fill="none" stroke="#000000" points="537,-69 537,-88 677,-88 677,-69 537,-69"/>
<text text-anchor="middle" x="607" y="-76" font-family="Helvetica,sans-Serif" font-size="10.00" fill="#000000">GridWorld::valueIteration</text>
</a>
</g>
</g>
<!-- Node7&#45;&gt;Node10 -->
<g id="edge5" class="edge">
<title>Node7&#45;&gt;Node10</title>
<path fill="none" stroke="#191970" d="M324.2988,-75.5833C332.954,-76.7736 341.6359,-77.7862 350,-78.5 413.017,-83.8783 485.0427,-83.3005 536.78,-81.7136"/>
<polygon fill="#191970" stroke="#191970" points="324.5706,-72.0861 314.1712,-74.1116 323.5639,-79.0134 324.5706,-72.0861"/>
</g>
<!-- Node9 -->
<g id="node4" class="node">
<title>Node9</title>
<g id="a_node4"><a xlink:href="classGridWorld.html#add6d00c0d2eec4d16706a19b0527bba5" target="_top" xlink:title="Policy iteration method. ">
<polygon fill="none" stroke="#000000" points="536,-28 536,-47 678,-47 678,-28 536,-28"/>
<text text-anchor="middle" x="607" y="-35" font-family="Helvetica,sans-Serif" font-size="10.00" fill="#000000">GridWorld::policyIteration</text>
</a>
</g>
</g>
<!-- Node8&#45;&gt;Node9 -->
<g id="edge3" class="edge">
<title>Node8&#45;&gt;Node9</title>
<path fill="none" stroke="#191970" d="M510.1435,-49.2079C518.762,-48.1661 527.4508,-47.1158 535.899,-46.0946"/>
<polygon fill="#191970" stroke="#191970" points="509.5848,-45.7499 500.0771,-50.4247 510.4249,-52.6993 509.5848,-45.7499"/>
</g>
<!-- Node8&#45;&gt;Node10 -->
<g id="edge4" class="edge">
<title>Node8&#45;&gt;Node10</title>
<path fill="none" stroke="#191970" d="M510.1063,-68.3847C519.0343,-69.3168 528.0382,-70.2567 536.7724,-71.1685"/>
<polygon fill="#191970" stroke="#191970" points="510.3865,-64.895 500.0771,-67.3377 509.6596,-71.8572 510.3865,-64.895"/>
</g>
<!-- Node11&#45;&gt;Node9 -->
<g id="edge7" class="edge">
<title>Node11&#45;&gt;Node9</title>
<path fill="none" stroke="#191970" d="M506.3441,-25.3328C516.2003,-26.5242 526.2092,-27.7341 535.9015,-28.9057"/>
<polygon fill="#191970" stroke="#191970" points="506.4957,-21.8257 496.1479,-24.1003 505.6556,-28.7751 506.4957,-21.8257"/>
</g>
</g>
</svg>
