<?xml version="1.0" encoding="UTF-8" standalone="no"?>
<!DOCTYPE svg PUBLIC "-//W3C//DTD SVG 1.1//EN"
 "http://www.w3.org/Graphics/SVG/1.1/DTD/svg11.dtd">
<!-- Generated by graphviz version 2.40.1 (20161225.0304)
 -->
<!-- Title: GridWorld::policyIncrement Pages: 1 -->
<svg width="1009pt" height="141pt"
 viewBox="0.00 0.00 1009.00 141.38" xmlns="http://www.w3.org/2000/svg" xmlns:xlink="http://www.w3.org/1999/xlink">
<g id="graph0" class="graph" transform="scale(1 1) rotate(0) translate(4 137.3843)">
<title>GridWorld::policyIncrement</title>
<!-- Node152 -->
<g id="node1" class="node">
<title>Node152</title>
<polygon fill="#bfbfbf" stroke="#000000" points="0,-38.5 0,-57.5 150,-57.5 150,-38.5 0,-38.5"/>
<text text-anchor="middle" x="75" y="-45.5" font-family="Helvetica,sans-Serif" font-size="10.00" fill="#000000">GridWorld::policyIncrement</text>
</g>
<!-- Node153 -->
<g id="node2" class="node">
<title>Node153</title>
<g id="a_node2"><a xlink:href="classGridWorld.html#ab2473dfcba808923e74ef5e41c815293" target="_top" xlink:title="Gets the q values of all actions for a given state. ">
<polygon fill="none" stroke="#000000" points="186,-77 186,-107 335,-107 335,-77 186,-77"/>
<text text-anchor="start" x="194" y="-95" font-family="Helvetica,sans-Serif" font-size="10.00" fill="#000000">GridWorld::actionValuesFor</text>
<text text-anchor="middle" x="260.5" y="-84" font-family="Helvetica,sans-Serif" font-size="10.00" fill="#000000">State</text>
</a>
</g>
</g>
<!-- Node152&#45;&gt;Node153 -->
<g id="edge1" class="edge">
<title>Node152&#45;&gt;Node153</title>
<path fill="none" stroke="#191970" d="M115.2507,-57.5473C136.2291,-62.5233 162.5503,-68.7666 187.0036,-74.5669"/>
<polygon fill="#191970" stroke="#191970" points="186.448,-78.0321 196.9858,-76.9346 188.0636,-71.2211 186.448,-78.0321"/>
</g>
<!-- Node160 -->
<g id="node9" class="node">
<title>Node160</title>
<g id="a_node9"><a xlink:href="classGridWorld.html#a483bf6d05d61a8e14f0fab04273d8593" target="_top" xlink:title="Gets the policy for state s ">
<polygon fill="none" stroke="#000000" points="190,-.5 190,-19.5 331,-19.5 331,-.5 190,-.5"/>
<text text-anchor="middle" x="260.5" y="-7.5" font-family="Helvetica,sans-Serif" font-size="10.00" fill="#000000">GridWorld::policyForState</text>
</a>
</g>
</g>
<!-- Node152&#45;&gt;Node160 -->
<g id="edge11" class="edge">
<title>Node152&#45;&gt;Node160</title>
<path fill="none" stroke="#191970" d="M121.8095,-38.411C146.8395,-33.2835 177.8414,-26.9328 204.1822,-21.5368"/>
<polygon fill="#191970" stroke="#191970" points="204.933,-24.9558 214.0271,-19.5201 203.5281,-18.0982 204.933,-24.9558"/>
</g>
<!-- Node161 -->
<g id="node10" class="node">
<title>Node161</title>
<g id="a_node10"><a xlink:href="classGridWorld.html#adf34e6f50b2369c06afdfc8c1ff70caf" target="_top" xlink:title="Normalizes a matriz so its sum equals 1. ">
<polygon fill="none" stroke="#000000" points="371,-19.5 371,-38.5 523,-38.5 523,-19.5 371,-19.5"/>
<text text-anchor="middle" x="447" y="-26.5" font-family="Helvetica,sans-Serif" font-size="10.00" fill="#000000">GridWorld::normalizeToOne</text>
</a>
</g>
</g>
<!-- Node152&#45;&gt;Node161 -->
<g id="edge13" class="edge">
<title>Node152&#45;&gt;Node161</title>
<path fill="none" stroke="#191970" d="M150.2798,-44.1551C211.2404,-41.0415 297.1488,-36.6537 360.8496,-33.4002"/>
<polygon fill="#191970" stroke="#191970" points="361.0669,-36.8937 370.8753,-32.8881 360.7097,-29.9028 361.0669,-36.8937"/>
</g>
<!-- Node154 -->
<g id="node3" class="node">
<title>Node154</title>
<g id="a_node3"><a xlink:href="classGridWorld.html#afb39acf3fcb5c3f62adea9668a035445" target="_top" xlink:title="Gets the q value of action a on state s ">
<polygon fill="none" stroke="#000000" points="382.5,-82.5 382.5,-101.5 511.5,-101.5 511.5,-82.5 382.5,-82.5"/>
<text text-anchor="middle" x="447" y="-89.5" font-family="Helvetica,sans-Serif" font-size="10.00" fill="#000000">GridWorld::actionValue</text>
</a>
</g>
</g>
<!-- Node153&#45;&gt;Node154 -->
<g id="edge2" class="edge">
<title>Node153&#45;&gt;Node154</title>
<path fill="none" stroke="#191970" d="M335.0138,-92C347.2207,-92 359.8744,-92 372.0908,-92"/>
<polygon fill="#191970" stroke="#191970" points="372.2304,-95.5001 382.2304,-92 372.2304,-88.5001 372.2304,-95.5001"/>
</g>
<!-- Node155 -->
<g id="node4" class="node">
<title>Node155</title>
<g id="a_node4"><a xlink:href="classGridWorld.html#a03d2aaf35961c3e190e4b7ab12f76e4d" target="_top" xlink:title="Transforms a raster coordinate from the grid world into its corresponding row x column representation...">
<polygon fill="none" stroke="#000000" points="884.5,-101.5 884.5,-120.5 994.5,-120.5 994.5,-101.5 884.5,-101.5"/>
<text text-anchor="middle" x="939.5" y="-108.5" font-family="Helvetica,sans-Serif" font-size="10.00" fill="#000000">GridWorld::toCoord</text>
</a>
</g>
</g>
<!-- Node154&#45;&gt;Node155 -->
<g id="edge3" class="edge">
<title>Node154&#45;&gt;Node155</title>
<path fill="none" stroke="#191970" d="M489.9616,-101.5512C562.5135,-116.4658 713.9376,-142.3616 842,-130 857.771,-128.4777 874.78,-125.6008 890.107,-122.5378"/>
<polygon fill="#191970" stroke="#191970" points="890.8228,-125.9639 899.9063,-120.5104 889.4045,-119.1091 890.8228,-125.9639"/>
</g>
<!-- Node156 -->
<g id="node5" class="node">
<title>Node156</title>
<g id="a_node5"><a xlink:href="classGridWorld.html#a5241a21b520fc8c9d4c0110de285aec1" target="_top" xlink:title="Transforms row x column coordinates from the grid world into a raster representation. ">
<polygon fill="none" stroke="#000000" points="878,-44.5 878,-63.5 1001,-63.5 1001,-44.5 878,-44.5"/>
<text text-anchor="middle" x="939.5" y="-51.5" font-family="Helvetica,sans-Serif" font-size="10.00" fill="#000000">GridWorld::fromCoord</text>
</a>
</g>
</g>
<!-- Node154&#45;&gt;Node156 -->
<g id="edge4" class="edge">
<title>Node154&#45;&gt;Node156</title>
<path fill="none" stroke="#191970" d="M500.1899,-82.4701C518.7676,-79.2762 539.7786,-75.8147 559,-73 627.2357,-63.008 644.1665,-58.2302 713,-54 764.7058,-50.8224 823.1765,-50.9152 867.7571,-51.754"/>
<polygon fill="#191970" stroke="#191970" points="867.8426,-55.2564 877.9123,-51.9624 867.9863,-48.2578 867.8426,-55.2564"/>
</g>
<!-- Node157 -->
<g id="node6" class="node">
<title>Node157</title>
<g id="a_node6"><a xlink:href="classGridWorld.html#aaf8d964cddf2d838737d0707481ad792" target="_top" xlink:title="Returns the transition probability to nextState, given currentState and action ">
<polygon fill="none" stroke="#000000" points="559,-82.5 559,-101.5 677,-101.5 677,-82.5 559,-82.5"/>
<text text-anchor="middle" x="618" y="-89.5" font-family="Helvetica,sans-Serif" font-size="10.00" fill="#000000">GridWorld::transition</text>
</a>
</g>
</g>
<!-- Node154&#45;&gt;Node157 -->
<g id="edge5" class="edge">
<title>Node154&#45;&gt;Node157</title>
<path fill="none" stroke="#191970" d="M511.6478,-92C523.7656,-92 536.4787,-92 548.7301,-92"/>
<polygon fill="#191970" stroke="#191970" points="548.8896,-95.5001 558.8896,-92 548.8896,-88.5001 548.8896,-95.5001"/>
</g>
<!-- Node158 -->
<g id="node7" class="node">
<title>Node158</title>
<g id="a_node7"><a xlink:href="classGridWorld.html#a202b7bda8938f3c641c2812dcc9b5ac1" target="_top" xlink:title="Informs whether a state is a goal state in the grid world. ">
<polygon fill="none" stroke="#000000" points="726.5,-101.5 726.5,-120.5 828.5,-120.5 828.5,-101.5 726.5,-101.5"/>
<text text-anchor="middle" x="777.5" y="-108.5" font-family="Helvetica,sans-Serif" font-size="10.00" fill="#000000">GridWorld::isGoal</text>
</a>
</g>
</g>
<!-- Node157&#45;&gt;Node158 -->
<g id="edge6" class="edge">
<title>Node157&#45;&gt;Node158</title>
<path fill="none" stroke="#191970" d="M677.3919,-99.0749C690.1115,-100.5901 703.5715,-102.1935 716.3559,-103.7164"/>
<polygon fill="#191970" stroke="#191970" points="716.093,-107.2097 726.4369,-104.9172 716.9211,-100.2589 716.093,-107.2097"/>
</g>
<!-- Node159 -->
<g id="node8" class="node">
<title>Node159</title>
<g id="a_node8"><a xlink:href="classGridWorld.html#aee5066a1ae4ad067c4ac846c6ed15dea" target="_top" xlink:title="Returns the next state that results from applying an action to a state. ">
<polygon fill="none" stroke="#000000" points="713,-63.5 713,-82.5 842,-82.5 842,-63.5 713,-63.5"/>
<text text-anchor="middle" x="777.5" y="-70.5" font-family="Helvetica,sans-Serif" font-size="10.00" fill="#000000">GridWorld::applyAction</text>
</a>
</g>
</g>
<!-- Node157&#45;&gt;Node159 -->
<g id="edge8" class="edge">
<title>Node157&#45;&gt;Node159</title>
<path fill="none" stroke="#191970" d="M677.3919,-84.9251C685.7314,-83.9317 694.3891,-82.9004 702.9661,-81.8786"/>
<polygon fill="#191970" stroke="#191970" points="703.4579,-85.3449 712.9737,-80.6865 702.6299,-78.394 703.4579,-85.3449"/>
</g>
<!-- Node158&#45;&gt;Node155 -->
<g id="edge7" class="edge">
<title>Node158&#45;&gt;Node155</title>
<path fill="none" stroke="#191970" d="M828.7578,-111C843.1433,-111 858.9821,-111 874.0717,-111"/>
<polygon fill="#191970" stroke="#191970" points="874.3716,-114.5001 884.3716,-111 874.3716,-107.5001 874.3716,-114.5001"/>
</g>
<!-- Node159&#45;&gt;Node155 -->
<g id="edge9" class="edge">
<title>Node159&#45;&gt;Node155</title>
<path fill="none" stroke="#191970" d="M818.3794,-82.589C839.8534,-87.6261 866.3605,-93.8438 889.097,-99.1771"/>
<polygon fill="#191970" stroke="#191970" points="888.3795,-102.6037 898.9145,-101.4799 889.9781,-95.7887 888.3795,-102.6037"/>
</g>
<!-- Node159&#45;&gt;Node156 -->
<g id="edge10" class="edge">
<title>Node159&#45;&gt;Node156</title>
<path fill="none" stroke="#191970" d="M842.4582,-65.3815C850.7815,-64.4053 859.3402,-63.4015 867.7636,-62.4135"/>
<polygon fill="#191970" stroke="#191970" points="868.4219,-65.8604 877.9461,-61.2193 867.6065,-58.9081 868.4219,-65.8604"/>
</g>
<!-- Node160&#45;&gt;Node161 -->
<g id="edge12" class="edge">
<title>Node160&#45;&gt;Node161</title>
<path fill="none" stroke="#191970" d="M331.0077,-17.1831C340.6539,-18.1658 350.646,-19.1838 360.5357,-20.1913"/>
<polygon fill="#191970" stroke="#191970" points="360.4828,-23.7039 370.786,-21.2356 361.1923,-16.74 360.4828,-23.7039"/>
</g>
</g>
</svg>
