<?xml version="1.0" encoding="UTF-8" standalone="no"?>
<!DOCTYPE svg PUBLIC "-//W3C//DTD SVG 1.1//EN"
 "http://www.w3.org/Graphics/SVG/1.1/DTD/svg11.dtd">
<!-- Generated by graphviz version 2.40.1 (20161225.0304)
 -->
<!-- Title: GridWorld::toCoord Pages: 1 -->
<svg width="1238pt" height="386pt"
 viewBox="0.00 0.00 1238.00 385.74" xmlns="http://www.w3.org/2000/svg" xmlns:xlink="http://www.w3.org/1999/xlink">
<g id="graph0" class="graph" transform="scale(1 1) rotate(0) translate(4 381.7398)">
<title>GridWorld::toCoord</title>
<!-- Node222 -->
<g id="node1" class="node">
<title>Node222</title>
<polygon fill="#bfbfbf" stroke="#000000" points="0,-162.2703 0,-181.2703 110,-181.2703 110,-162.2703 0,-162.2703"/>
<text text-anchor="middle" x="55" y="-169.2703" font-family="Helvetica,sans-Serif" font-size="10.00" fill="#000000">GridWorld::toCoord</text>
</g>
<!-- Node223 -->
<g id="node2" class="node">
<title>Node223</title>
<g id="a_node2"><a xlink:href="classGridWorld.html#afb39acf3fcb5c3f62adea9668a035445" target="_top" xlink:title="Gets the q value of action a on state s ">
<polygon fill="none" stroke="#000000" points="527,-295.2703 527,-314.2703 656,-314.2703 656,-295.2703 527,-295.2703"/>
<text text-anchor="middle" x="591.5" y="-302.2703" font-family="Helvetica,sans-Serif" font-size="10.00" fill="#000000">GridWorld::actionValue</text>
</a>
</g>
</g>
<!-- Node222&#45;&gt;Node223 -->
<g id="edge1" class="edge">
<title>Node222&#45;&gt;Node223</title>
<path fill="none" stroke="#191970" d="M64.433,-190.2004C78.6755,-216.2596 108.0815,-263.7085 146,-290.7703 208.9196,-335.675 234.698,-333.3882 311,-345.7703 378.9994,-356.8051 397.9679,-356.6014 466,-345.7703 503.35,-339.8239 544.6888,-324.5106 569.3586,-314.3751"/>
<polygon fill="#191970" stroke="#191970" points="67.5127,-188.537 59.7307,-181.3473 61.3306,-191.8207 67.5127,-188.537"/>
</g>
<!-- Node229 -->
<g id="node8" class="node">
<title>Node229</title>
<g id="a_node8"><a xlink:href="classGridWorld.html#a202b7bda8938f3c641c2812dcc9b5ac1" target="_top" xlink:title="Informs whether a state is a goal state in the grid world. ">
<polygon fill="none" stroke="#000000" points="159.5,-181.2703 159.5,-200.2703 261.5,-200.2703 261.5,-181.2703 159.5,-181.2703"/>
<text text-anchor="middle" x="210.5" y="-188.2703" font-family="Helvetica,sans-Serif" font-size="10.00" fill="#000000">GridWorld::isGoal</text>
</a>
</g>
</g>
<!-- Node222&#45;&gt;Node229 -->
<g id="edge9" class="edge">
<title>Node222&#45;&gt;Node229</title>
<path fill="none" stroke="#191970" d="M120.5271,-179.7768C133.4873,-181.3604 146.9122,-183.0007 159.3125,-184.5159"/>
<polygon fill="#191970" stroke="#191970" points="120.612,-176.2613 110.2613,-178.5225 119.763,-183.2096 120.612,-176.2613"/>
</g>
<!-- Node231 -->
<g id="node10" class="node">
<title>Node231</title>
<g id="a_node10"><a xlink:href="classGridWorld.html#a03586ebfa410ea0617103c70ce5b08cb" target="_top" xlink:title="Monte Carlo Estimating Starts algorithm for finding an optimal policy. ">
<polygon fill="none" stroke="#000000" points="502,-207.7703 502,-237.7703 681,-237.7703 681,-207.7703 502,-207.7703"/>
<text text-anchor="start" x="510" y="-225.7703" font-family="Helvetica,sans-Serif" font-size="10.00" fill="#000000">GridWorld::MonteCarloEstimating</text>
<text text-anchor="middle" x="591.5" y="-214.7703" font-family="Helvetica,sans-Serif" font-size="10.00" fill="#000000">Starts</text>
</a>
</g>
</g>
<!-- Node222&#45;&gt;Node231 -->
<g id="edge32" class="edge">
<title>Node222&#45;&gt;Node231</title>
<path fill="none" stroke="#191970" d="M73.8856,-187.9805C114.153,-221.3438 212.8123,-296.8173 311,-323.7703 377.4314,-342.006 402.7169,-350.9904 466,-323.7703 487.3713,-314.5778 484.4009,-300.9856 502,-285.7703 522.8429,-267.7505 548.7877,-249.9324 567.3682,-237.8685"/>
<polygon fill="#191970" stroke="#191970" points="76.111,-185.2789 66.2004,-181.5329 71.6118,-190.6416 76.111,-185.2789"/>
</g>
<!-- Node232 -->
<g id="node11" class="node">
<title>Node232</title>
<g id="a_node11"><a xlink:href="classGridWorld.html#ad1c7b6d4e864ef8e8aca9163c2d8cd86" target="_top" xlink:title="Temporal difference method for finding the optimal policy using SARSA. ">
<polygon fill="none" stroke="#000000" points="542.5,-23.2703 542.5,-42.2703 640.5,-42.2703 640.5,-23.2703 542.5,-23.2703"/>
<text text-anchor="middle" x="591.5" y="-30.2703" font-family="Helvetica,sans-Serif" font-size="10.00" fill="#000000">GridWorld::Sarsa</text>
</a>
</g>
</g>
<!-- Node222&#45;&gt;Node232 -->
<g id="edge33" class="edge">
<title>Node222&#45;&gt;Node232</title>
<path fill="none" stroke="#191970" d="M64.1378,-153.0015C78.0203,-126.5591 106.9906,-78.7804 146,-53.7703 276.0407,29.6027 473.9545,-4.2156 554.9807,-23.2042"/>
<polygon fill="#191970" stroke="#191970" points="60.9757,-151.4984 59.5665,-161.9991 67.2165,-154.6691 60.9757,-151.4984"/>
</g>
<!-- Node233 -->
<g id="node12" class="node">
<title>Node233</title>
<g id="a_node12"><a xlink:href="classGridWorld.html#abdbd7b78344fe0db7dbdd4f55d8ace70" target="_top" xlink:title="Temporal difference method for finding the optimal policy using Q&#45;Learning. ">
<polygon fill="none" stroke="#000000" points="531,-61.2703 531,-80.2703 652,-80.2703 652,-61.2703 531,-61.2703"/>
<text text-anchor="middle" x="591.5" y="-68.2703" font-family="Helvetica,sans-Serif" font-size="10.00" fill="#000000">GridWorld::QLearning</text>
</a>
</g>
</g>
<!-- Node222&#45;&gt;Node233 -->
<g id="edge34" class="edge">
<title>Node222&#45;&gt;Node233</title>
<path fill="none" stroke="#191970" d="M77.394,-156.4186C120.3473,-128.0125 218.2911,-68.1955 311,-46.7703 378.1198,-31.2588 397.4183,-40.2716 466,-46.7703 481.3484,-48.2247 517.0287,-55.1753 546.4368,-61.2247"/>
<polygon fill="#191970" stroke="#191970" points="75.2145,-153.6658 68.8509,-162.1366 79.1081,-159.483 75.2145,-153.6658"/>
</g>
<!-- Node236 -->
<g id="node15" class="node">
<title>Node236</title>
<g id="a_node15"><a xlink:href="classGridWorld.html#aee5066a1ae4ad067c4ac846c6ed15dea" target="_top" xlink:title="Returns the next state that results from applying an action to a state. ">
<polygon fill="none" stroke="#000000" points="146,-143.2703 146,-162.2703 275,-162.2703 275,-143.2703 146,-143.2703"/>
<text text-anchor="middle" x="210.5" y="-150.2703" font-family="Helvetica,sans-Serif" font-size="10.00" fill="#000000">GridWorld::applyAction</text>
</a>
</g>
</g>
<!-- Node222&#45;&gt;Node236 -->
<g id="edge27" class="edge">
<title>Node222&#45;&gt;Node236</title>
<path fill="none" stroke="#191970" d="M120.4072,-163.7784C128.8281,-162.7495 137.4472,-161.6964 145.8557,-160.669"/>
<polygon fill="#191970" stroke="#191970" points="119.763,-160.331 110.2613,-165.0181 120.612,-167.2793 119.763,-160.331"/>
</g>
<!-- Node224 -->
<g id="node3" class="node">
<title>Node224</title>
<g id="a_node3"><a xlink:href="classGridWorld.html#ab2473dfcba808923e74ef5e41c815293" target="_top" xlink:title="Gets the q values of all actions for a given state. ">
<polygon fill="none" stroke="#000000" points="717,-201.7703 717,-231.7703 866,-231.7703 866,-201.7703 717,-201.7703"/>
<text text-anchor="start" x="725" y="-219.7703" font-family="Helvetica,sans-Serif" font-size="10.00" fill="#000000">GridWorld::actionValuesFor</text>
<text text-anchor="middle" x="791.5" y="-208.7703" font-family="Helvetica,sans-Serif" font-size="10.00" fill="#000000">State</text>
</a>
</g>
</g>
<!-- Node223&#45;&gt;Node224 -->
<g id="edge2" class="edge">
<title>Node223&#45;&gt;Node224</title>
<path fill="none" stroke="#191970" d="M646.1136,-292.5769C657.8168,-289.2887 669.9728,-285.3481 681,-280.7703 713.3509,-267.3404 747.8603,-246.1091 769.5408,-231.822"/>
<polygon fill="#191970" stroke="#191970" points="645.1704,-289.2062 636.424,-295.1853 646.99,-295.9655 645.1704,-289.2062"/>
</g>
<!-- Node228 -->
<g id="node7" class="node">
<title>Node228</title>
<g id="a_node7"><a xlink:href="classGridWorld.html#a5ee28286d5b619b0cf046b83f7d8ee7c" target="_top" xlink:title="Iterative policy evaluation implemented as decribed in Sutton and Barto, 2017. ">
<polygon fill="none" stroke="#000000" points="906,-289.7703 906,-319.7703 1048,-319.7703 1048,-289.7703 906,-289.7703"/>
<text text-anchor="start" x="914" y="-307.7703" font-family="Helvetica,sans-Serif" font-size="10.00" fill="#000000">GridWorld::iterativePolicy</text>
<text text-anchor="middle" x="977" y="-296.7703" font-family="Helvetica,sans-Serif" font-size="10.00" fill="#000000">Evaluation</text>
</a>
</g>
</g>
<!-- Node223&#45;&gt;Node228 -->
<g id="edge7" class="edge">
<title>Node223&#45;&gt;Node228</title>
<path fill="none" stroke="#191970" d="M666.4121,-304.7703C735.6121,-304.7703 837.6933,-304.7703 905.7141,-304.7703"/>
<polygon fill="#191970" stroke="#191970" points="666.0241,-301.2704 656.024,-304.7703 666.024,-308.2704 666.0241,-301.2704"/>
</g>
<!-- Node225 -->
<g id="node4" class="node">
<title>Node225</title>
<g id="a_node4"><a xlink:href="classGridWorld.html#a5b720f7017beff840503f77c25da2586" target="_top" xlink:title="Creates a new policy for a given state giving preference to the actions with maximum value...">
<polygon fill="none" stroke="#000000" points="902,-213.2703 902,-232.2703 1052,-232.2703 1052,-213.2703 902,-213.2703"/>
<text text-anchor="middle" x="977" y="-220.2703" font-family="Helvetica,sans-Serif" font-size="10.00" fill="#000000">GridWorld::policyIncrement</text>
</a>
</g>
</g>
<!-- Node224&#45;&gt;Node225 -->
<g id="edge3" class="edge">
<title>Node224&#45;&gt;Node225</title>
<path fill="none" stroke="#191970" d="M876.165,-219.5088C884.7495,-219.7865 893.427,-220.0671 901.9005,-220.3412"/>
<polygon fill="#191970" stroke="#191970" points="876.2561,-216.01 866.1481,-219.1848 876.0297,-223.0063 876.2561,-216.01"/>
</g>
<!-- Node227 -->
<g id="node6" class="node">
<title>Node227</title>
<g id="a_node6"><a xlink:href="classGridWorld.html#a0d5cada9fc611efc747722223c97e8e5" target="_top" xlink:title="Value iteration method. ">
<polygon fill="none" stroke="#000000" points="1089,-156.2703 1089,-175.2703 1229,-175.2703 1229,-156.2703 1089,-156.2703"/>
<text text-anchor="middle" x="1159" y="-163.2703" font-family="Helvetica,sans-Serif" font-size="10.00" fill="#000000">GridWorld::valueIteration</text>
</a>
</g>
</g>
<!-- Node224&#45;&gt;Node227 -->
<g id="edge6" class="edge">
<title>Node224&#45;&gt;Node227</title>
<path fill="none" stroke="#191970" d="M876.5363,-204.9693C941.5441,-195.9479 1029.9949,-183.673 1090.4946,-175.2772"/>
<polygon fill="#191970" stroke="#191970" points="875.736,-201.5468 866.3121,-206.3882 876.6983,-208.4803 875.736,-201.5468"/>
</g>
<!-- Node226 -->
<g id="node5" class="node">
<title>Node226</title>
<g id="a_node5"><a xlink:href="classGridWorld.html#add6d00c0d2eec4d16706a19b0527bba5" target="_top" xlink:title="Policy iteration method. ">
<polygon fill="none" stroke="#000000" points="1088,-273.2703 1088,-292.2703 1230,-292.2703 1230,-273.2703 1088,-273.2703"/>
<text text-anchor="middle" x="1159" y="-280.2703" font-family="Helvetica,sans-Serif" font-size="10.00" fill="#000000">GridWorld::policyIteration</text>
</a>
</g>
</g>
<!-- Node225&#45;&gt;Node226 -->
<g id="edge4" class="edge">
<title>Node225&#45;&gt;Node226</title>
<path fill="none" stroke="#191970" d="M1016.9713,-235.4399C1028.3047,-239.0651 1040.6473,-243.0443 1052,-246.7703 1078.8161,-255.5715 1109.3195,-265.8619 1130.8773,-273.1815"/>
<polygon fill="#191970" stroke="#191970" points="1017.9124,-232.0664 1007.3217,-232.3605 1015.7842,-238.7351 1017.9124,-232.0664"/>
</g>
<!-- Node225&#45;&gt;Node227 -->
<g id="edge5" class="edge">
<title>Node225&#45;&gt;Node227</title>
<path fill="none" stroke="#191970" d="M1017.4097,-210.1145C1050.959,-199.6073 1097.9554,-184.8887 1128.4379,-175.3419"/>
<polygon fill="#191970" stroke="#191970" points="1015.9596,-206.901 1007.4627,-213.2298 1018.0517,-213.581 1015.9596,-206.901"/>
</g>
<!-- Node228&#45;&gt;Node226 -->
<g id="edge8" class="edge">
<title>Node228&#45;&gt;Node226</title>
<path fill="none" stroke="#191970" d="M1058.3441,-294.9375C1068.2003,-293.7461 1078.2092,-292.5362 1087.9015,-291.3646"/>
<polygon fill="#191970" stroke="#191970" points="1057.6556,-291.4952 1048.1479,-296.17 1058.4957,-298.4446 1057.6556,-291.4952"/>
</g>
<!-- Node229&#45;&gt;Node226 -->
<g id="edge22" class="edge">
<title>Node229&#45;&gt;Node226</title>
<path fill="none" stroke="#191970" d="M218.3337,-210.1414C231.9395,-240.8382 263.1466,-299.6473 311,-323.7703 545.5622,-442.0136 639.3232,-328.437 902,-329.7703 968.6658,-330.1087 986.7557,-343.4681 1052,-329.7703 1086.1533,-322.6 1122.7146,-303.8482 1143.0308,-292.3144"/>
<polygon fill="#191970" stroke="#191970" points="221.3924,-208.3905 214.2567,-200.559 214.9511,-211.131 221.3924,-208.3905"/>
</g>
<!-- Node229&#45;&gt;Node227 -->
<g id="edge23" class="edge">
<title>Node229&#45;&gt;Node227</title>
<path fill="none" stroke="#191970" d="M244.8395,-203.8654C264.047,-210.7266 288.5712,-218.7281 311,-223.7703 394.4731,-242.5358 416.6106,-242.4265 502,-247.7703 581.4002,-252.7393 611.0169,-285.6048 681,-247.7703 706.7,-233.8763 691.9231,-207.7596 717,-192.7703 787.8389,-150.4275 819.6426,-182.0917 902,-176.7703 965.1723,-172.6885 1037.1813,-169.7544 1088.8727,-167.9485"/>
<polygon fill="#191970" stroke="#191970" points="245.9131,-200.5317 235.3191,-200.4031 243.5207,-207.1101 245.9131,-200.5317"/>
</g>
<!-- Node230 -->
<g id="node9" class="node">
<title>Node230</title>
<g id="a_node9"><a xlink:href="classGridWorld.html#a9dfe466eee829e7d1b8315b789078be9" target="_top" xlink:title="GridWorld::prettifyPolicy">
<polygon fill="none" stroke="#000000" points="320,-143.2703 320,-162.2703 457,-162.2703 457,-143.2703 320,-143.2703"/>
<text text-anchor="middle" x="388.5" y="-150.2703" font-family="Helvetica,sans-Serif" font-size="10.00" fill="#000000">GridWorld::prettifyPolicy</text>
</a>
</g>
</g>
<!-- Node229&#45;&gt;Node230 -->
<g id="edge10" class="edge">
<title>Node229&#45;&gt;Node230</title>
<path fill="none" stroke="#191970" d="M265.2162,-179.0893C290.459,-173.7004 320.0452,-167.3842 343.9061,-162.2904"/>
<polygon fill="#191970" stroke="#191970" points="264.4658,-175.6706 255.4169,-181.1813 265.9273,-182.5163 264.4658,-175.6706"/>
</g>
<!-- Node229&#45;&gt;Node231 -->
<g id="edge24" class="edge">
<title>Node229&#45;&gt;Node231</title>
<path fill="none" stroke="#191970" d="M271.7482,-200.0411C284.6885,-201.7924 298.2771,-203.4777 311,-204.7703 374.7195,-211.2439 446.8328,-215.811 501.984,-218.7248"/>
<polygon fill="#191970" stroke="#191970" points="271.9236,-196.5321 261.5383,-198.6287 270.9643,-203.4661 271.9236,-196.5321"/>
</g>
<!-- Node229&#45;&gt;Node232 -->
<g id="edge25" class="edge">
<title>Node229&#45;&gt;Node232</title>
<path fill="none" stroke="#191970" d="M270.3041,-175.7755C271.9587,-174.5433 273.5311,-173.211 275,-171.7703 312.9335,-134.566 269.582,-91.0519 311,-57.7703 345.4907,-30.0552 471.4294,-29.0336 542.2613,-30.8139"/>
<polygon fill="#191970" stroke="#191970" points="268.1863,-172.966 261.4436,-181.1383 271.811,-178.9546 268.1863,-172.966"/>
</g>
<!-- Node229&#45;&gt;Node233 -->
<g id="edge26" class="edge">
<title>Node229&#45;&gt;Node233</title>
<path fill="none" stroke="#191970" d="M264.1031,-177.4292C267.895,-175.7497 271.57,-173.8706 275,-171.7703 294.8403,-159.6213 290.7723,-145.2628 311,-133.7703 321.2387,-127.9531 468.8642,-96.4661 545.7187,-80.3245"/>
<polygon fill="#191970" stroke="#191970" points="262.533,-174.2857 254.5094,-181.2046 265.0965,-180.7994 262.533,-174.2857"/>
</g>
<!-- Node234 -->
<g id="node13" class="node">
<title>Node234</title>
<g id="a_node13"><a xlink:href="classGridWorld.html#aaf8d964cddf2d838737d0707481ad792" target="_top" xlink:title="Returns the transition probability to nextState, given currentState and action ">
<polygon fill="none" stroke="#000000" points="329.5,-295.2703 329.5,-314.2703 447.5,-314.2703 447.5,-295.2703 329.5,-295.2703"/>
<text text-anchor="middle" x="388.5" y="-302.2703" font-family="Helvetica,sans-Serif" font-size="10.00" fill="#000000">GridWorld::transition</text>
</a>
</g>
</g>
<!-- Node229&#45;&gt;Node234 -->
<g id="edge16" class="edge">
<title>Node229&#45;&gt;Node234</title>
<path fill="none" stroke="#191970" d="M225.295,-207.9054C243.5478,-228.0435 276.4298,-261.1908 311,-280.7703 321.7853,-286.8788 334.3135,-291.6236 346.1118,-295.2205"/>
<polygon fill="#191970" stroke="#191970" points="227.8767,-205.5415 218.6175,-200.3919 222.6444,-210.1916 227.8767,-205.5415"/>
</g>
<!-- Node235 -->
<g id="node14" class="node">
<title>Node235</title>
<g id="a_node14"><a xlink:href="classGridWorld.html#a32bc48e56c9a7163d2fbf917df9d35c0" target="_top" xlink:title="Selects a random non&#45;goal state. ">
<polygon fill="none" stroke="#000000" points="311,-67.2703 311,-86.2703 466,-86.2703 466,-67.2703 311,-67.2703"/>
<text text-anchor="middle" x="388.5" y="-74.2703" font-family="Helvetica,sans-Serif" font-size="10.00" fill="#000000">GridWorld::getNonGoalState</text>
</a>
</g>
</g>
<!-- Node229&#45;&gt;Node235 -->
<g id="edge18" class="edge">
<title>Node229&#45;&gt;Node235</title>
<path fill="none" stroke="#191970" d="M268.4782,-176.4243C270.7705,-175.0158 272.9585,-173.469 275,-171.7703 302.1965,-149.1405 283.9608,-123.5877 311,-100.7703 318.5352,-94.4116 327.7442,-89.7358 337.1481,-86.2982"/>
<polygon fill="#191970" stroke="#191970" points="266.4947,-173.5089 259.2081,-181.2002 269.7007,-179.7316 266.4947,-173.5089"/>
</g>
<!-- Node230&#45;&gt;Node226 -->
<g id="edge11" class="edge">
<title>Node230&#45;&gt;Node226</title>
<path fill="none" stroke="#191970" d="M467.1753,-150.4614C529.0326,-151.9694 615.4148,-161.6632 681,-198.7703 702.6931,-211.0439 694.9282,-230.1914 717,-241.7703 748.9898,-258.5522 971.2268,-272.7454 1087.8679,-279.1394"/>
<polygon fill="#191970" stroke="#191970" points="467.1409,-146.9603 457.0803,-150.2823 467.0166,-153.9592 467.1409,-146.9603"/>
</g>
<!-- Node230&#45;&gt;Node227 -->
<g id="edge12" class="edge">
<title>Node230&#45;&gt;Node227</title>
<path fill="none" stroke="#191970" d="M463.0957,-141.8793C586.4364,-125.7995 840.2946,-100.8656 1052,-132.7703 1081.4108,-137.2026 1113.8861,-148.1243 1135.2576,-156.1953"/>
<polygon fill="#191970" stroke="#191970" points="462.4618,-138.4325 453.0068,-143.213 463.3793,-145.3722 462.4618,-138.4325"/>
</g>
<!-- Node230&#45;&gt;Node231 -->
<g id="edge13" class="edge">
<title>Node230&#45;&gt;Node231</title>
<path fill="none" stroke="#191970" d="M431.9466,-165.2369C443.1314,-168.7152 455.0876,-172.672 466,-176.7703 482.3912,-182.9263 485.681,-186.4253 502,-192.7703 515.4411,-197.9964 530.2171,-203.1744 543.822,-207.72"/>
<polygon fill="#191970" stroke="#191970" points="432.948,-161.8832 422.3619,-162.3118 430.9047,-168.5784 432.948,-161.8832"/>
</g>
<!-- Node230&#45;&gt;Node232 -->
<g id="edge14" class="edge">
<title>Node230&#45;&gt;Node232</title>
<path fill="none" stroke="#191970" d="M412.6743,-137.3107C428.6071,-126.5791 449.4981,-111.4422 466,-95.7703 484.3213,-78.3706 480.4214,-64.9151 502,-51.7703 514.0735,-44.4157 528.5695,-39.8783 542.3444,-37.0884"/>
<polygon fill="#191970" stroke="#191970" points="410.3459,-134.6545 403.9368,-143.091 414.2081,-140.4926 410.3459,-134.6545"/>
</g>
<!-- Node230&#45;&gt;Node233 -->
<g id="edge15" class="edge">
<title>Node230&#45;&gt;Node233</title>
<path fill="none" stroke="#191970" d="M441.3745,-139.9702C449.893,-136.9103 458.4,-133.2087 466,-128.7703 485.0044,-117.6717 482.7865,-105.5028 502,-94.7703 513.2357,-88.4942 526.1893,-83.7969 538.6899,-80.3046"/>
<polygon fill="#191970" stroke="#191970" points="440.1823,-136.6782 431.7996,-143.1575 442.3932,-143.3199 440.1823,-136.6782"/>
</g>
<!-- Node234&#45;&gt;Node223 -->
<g id="edge17" class="edge">
<title>Node234&#45;&gt;Node223</title>
<path fill="none" stroke="#191970" d="M457.8458,-304.7703C480.1876,-304.7703 504.8473,-304.7703 526.838,-304.7703"/>
<polygon fill="#191970" stroke="#191970" points="457.7617,-301.2704 447.7617,-304.7703 457.7617,-308.2704 457.7617,-301.2704"/>
</g>
<!-- Node235&#45;&gt;Node231 -->
<g id="edge19" class="edge">
<title>Node235&#45;&gt;Node231</title>
<path fill="none" stroke="#191970" d="M410.4117,-92.5295C449.7498,-120.8219 531.8411,-179.863 570.5044,-207.67"/>
<polygon fill="#191970" stroke="#191970" points="411.9814,-89.3472 401.8194,-86.3498 407.8942,-95.0301 411.9814,-89.3472"/>
</g>
<!-- Node235&#45;&gt;Node232 -->
<g id="edge20" class="edge">
<title>Node235&#45;&gt;Node232</title>
<path fill="none" stroke="#191970" d="M441.349,-65.042C460.4525,-60.8257 482.1905,-56.0546 502,-51.7703 516.4387,-48.6476 532.1984,-45.2862 546.4138,-42.2717"/>
<polygon fill="#191970" stroke="#191970" points="440.3401,-61.6804 431.3308,-67.2555 441.8504,-68.5156 440.3401,-61.6804"/>
</g>
<!-- Node235&#45;&gt;Node233 -->
<g id="edge21" class="edge">
<title>Node235&#45;&gt;Node233</title>
<path fill="none" stroke="#191970" d="M476.2832,-74.1757C494.7294,-73.6305 513.7913,-73.0671 530.9713,-72.5593"/>
<polygon fill="#191970" stroke="#191970" points="476.0067,-70.6823 466.1145,-74.4763 476.2136,-77.6792 476.0067,-70.6823"/>
</g>
<!-- Node236&#45;&gt;Node231 -->
<g id="edge29" class="edge">
<title>Node236&#45;&gt;Node231</title>
<path fill="none" stroke="#191970" d="M270.5887,-164.2014C283.8927,-166.7125 297.9219,-169.3452 311,-171.7703 377.1866,-184.0436 452.2145,-197.67 508.0102,-207.7481"/>
<polygon fill="#191970" stroke="#191970" points="271.0603,-160.7287 260.5842,-162.3103 269.7601,-167.6069 271.0603,-160.7287"/>
</g>
<!-- Node236&#45;&gt;Node232 -->
<g id="edge30" class="edge">
<title>Node236&#45;&gt;Node232</title>
<path fill="none" stroke="#191970" d="M221.3199,-134.594C237.3361,-109.6212 269.9345,-65.6509 311,-46.7703 385.8679,-12.3484 484.1305,-17.2729 542.2715,-24.5955"/>
<polygon fill="#191970" stroke="#191970" points="218.3132,-132.8014 216.0104,-143.1429 224.2596,-136.4946 218.3132,-132.8014"/>
</g>
<!-- Node236&#45;&gt;Node233 -->
<g id="edge31" class="edge">
<title>Node236&#45;&gt;Node233</title>
<path fill="none" stroke="#191970" d="M222.6501,-134.8414C239.4068,-111.9026 272.0049,-73.2838 311,-57.7703 349.5026,-42.4527 460.5636,-53.2115 530.8374,-62.1688"/>
<polygon fill="#191970" stroke="#191970" points="219.756,-132.8721 216.8366,-143.0568 225.4701,-136.9156 219.756,-132.8721"/>
</g>
<!-- Node236&#45;&gt;Node234 -->
<g id="edge28" class="edge">
<title>Node236&#45;&gt;Node234</title>
<path fill="none" stroke="#191970" d="M264.8975,-166.2228C268.4223,-167.8698 271.8262,-169.7117 275,-171.7703 301.7406,-189.1148 360.9855,-267.5009 381.4132,-295.1108"/>
<polygon fill="#191970" stroke="#191970" points="265.9395,-162.867 255.3597,-162.303 263.2786,-169.3415 265.9395,-162.867"/>
</g>
</g>
</svg>
