<?xml version="1.0" encoding="UTF-8" standalone="no"?>
<!DOCTYPE svg PUBLIC "-//W3C//DTD SVG 1.1//EN"
 "http://www.w3.org/Graphics/SVG/1.1/DTD/svg11.dtd">
<!-- Generated by graphviz version 2.40.1 (20161225.0304)
 -->
<!-- Title: GridWorld::transition Pages: 1 -->
<svg width="840pt" height="97pt"
 viewBox="0.00 0.00 840.00 96.50" xmlns="http://www.w3.org/2000/svg" xmlns:xlink="http://www.w3.org/1999/xlink">
<g id="graph0" class="graph" transform="scale(1 1) rotate(0) translate(4 92.5)">
<title>GridWorld::transition</title>
<!-- Node242 -->
<g id="node1" class="node">
<title>Node242</title>
<polygon fill="#bfbfbf" stroke="#000000" points="0,-28 0,-47 118,-47 118,-28 0,-28"/>
<text text-anchor="middle" x="59" y="-35" font-family="Helvetica,sans-Serif" font-size="10.00" fill="#000000">GridWorld::transition</text>
</g>
<!-- Node243 -->
<g id="node2" class="node">
<title>Node243</title>
<g id="a_node2"><a xlink:href="classGridWorld.html#afb39acf3fcb5c3f62adea9668a035445" target="_top" xlink:title="Gets the q value of action a on state s ">
<polygon fill="none" stroke="#000000" points="154,-28 154,-47 283,-47 283,-28 154,-28"/>
<text text-anchor="middle" x="218.5" y="-35" font-family="Helvetica,sans-Serif" font-size="10.00" fill="#000000">GridWorld::actionValue</text>
</a>
</g>
</g>
<!-- Node242&#45;&gt;Node243 -->
<g id="edge1" class="edge">
<title>Node242&#45;&gt;Node243</title>
<path fill="none" stroke="#191970" d="M128.5822,-37.5C137.0204,-37.5 145.613,-37.5 153.9737,-37.5"/>
<polygon fill="#191970" stroke="#191970" points="128.3919,-34.0001 118.3919,-37.5 128.3919,-41.0001 128.3919,-34.0001"/>
</g>
<!-- Node244 -->
<g id="node3" class="node">
<title>Node244</title>
<g id="a_node3"><a xlink:href="classGridWorld.html#ab2473dfcba808923e74ef5e41c815293" target="_top" xlink:title="Gets the q values of all actions for a given state. ">
<polygon fill="none" stroke="#000000" points="319,-44.5 319,-74.5 468,-74.5 468,-44.5 319,-44.5"/>
<text text-anchor="start" x="327" y="-62.5" font-family="Helvetica,sans-Serif" font-size="10.00" fill="#000000">GridWorld::actionValuesFor</text>
<text text-anchor="middle" x="393.5" y="-51.5" font-family="Helvetica,sans-Serif" font-size="10.00" fill="#000000">State</text>
</a>
</g>
</g>
<!-- Node243&#45;&gt;Node244 -->
<g id="edge2" class="edge">
<title>Node243&#45;&gt;Node244</title>
<path fill="none" stroke="#191970" d="M293.3364,-46.908C301.7566,-47.9665 310.3367,-49.0452 318.7558,-50.1036"/>
<polygon fill="#191970" stroke="#191970" points="293.5248,-43.4042 283.1663,-45.6295 292.6516,-50.3496 293.5248,-43.4042"/>
</g>
<!-- Node248 -->
<g id="node7" class="node">
<title>Node248</title>
<g id="a_node7"><a xlink:href="classGridWorld.html#a5ee28286d5b619b0cf046b83f7d8ee7c" target="_top" xlink:title="Iterative policy evaluation implemented as decribed in Sutton and Barto, 2017. ">
<polygon fill="none" stroke="#000000" points="508,-.5 508,-30.5 650,-30.5 650,-.5 508,-.5"/>
<text text-anchor="start" x="516" y="-18.5" font-family="Helvetica,sans-Serif" font-size="10.00" fill="#000000">GridWorld::iterativePolicy</text>
<text text-anchor="middle" x="579" y="-7.5" font-family="Helvetica,sans-Serif" font-size="10.00" fill="#000000">Evaluation</text>
</a>
</g>
</g>
<!-- Node243&#45;&gt;Node248 -->
<g id="edge7" class="edge">
<title>Node243&#45;&gt;Node248</title>
<path fill="none" stroke="#191970" d="M293.6359,-32.9147C356.6476,-29.0694 446.0021,-23.6164 507.8642,-19.8412"/>
<polygon fill="#191970" stroke="#191970" points="293.1347,-29.4387 283.3665,-33.5414 293.5612,-36.4257 293.1347,-29.4387"/>
</g>
<!-- Node245 -->
<g id="node4" class="node">
<title>Node245</title>
<g id="a_node4"><a xlink:href="classGridWorld.html#a5b720f7017beff840503f77c25da2586" target="_top" xlink:title="Creates a new policy for a given state giving preference to the actions with maximum value...">
<polygon fill="none" stroke="#000000" points="504,-50 504,-69 654,-69 654,-50 504,-50"/>
<text text-anchor="middle" x="579" y="-57" font-family="Helvetica,sans-Serif" font-size="10.00" fill="#000000">GridWorld::policyIncrement</text>
</a>
</g>
</g>
<!-- Node244&#45;&gt;Node245 -->
<g id="edge3" class="edge">
<title>Node244&#45;&gt;Node245</title>
<path fill="none" stroke="#191970" d="M478.165,-59.5C486.7495,-59.5 495.427,-59.5 503.9005,-59.5"/>
<polygon fill="#191970" stroke="#191970" points="478.1481,-56.0001 468.1481,-59.5 478.1481,-63.0001 478.1481,-56.0001"/>
</g>
<!-- Node247 -->
<g id="node6" class="node">
<title>Node247</title>
<g id="a_node6"><a xlink:href="classGridWorld.html#a0d5cada9fc611efc747722223c97e8e5" target="_top" xlink:title="Value iteration method. ">
<polygon fill="none" stroke="#000000" points="691,-69 691,-88 831,-88 831,-69 691,-69"/>
<text text-anchor="middle" x="761" y="-76" font-family="Helvetica,sans-Serif" font-size="10.00" fill="#000000">GridWorld::valueIteration</text>
</a>
</g>
</g>
<!-- Node244&#45;&gt;Node247 -->
<g id="edge6" class="edge">
<title>Node244&#45;&gt;Node247</title>
<path fill="none" stroke="#191970" d="M478.2988,-75.5833C486.954,-76.7736 495.6359,-77.7862 504,-78.5 567.017,-83.8783 639.0427,-83.3005 690.78,-81.7136"/>
<polygon fill="#191970" stroke="#191970" points="478.5706,-72.0861 468.1712,-74.1116 477.5639,-79.0134 478.5706,-72.0861"/>
</g>
<!-- Node246 -->
<g id="node5" class="node">
<title>Node246</title>
<g id="a_node5"><a xlink:href="classGridWorld.html#add6d00c0d2eec4d16706a19b0527bba5" target="_top" xlink:title="Policy iteration method. ">
<polygon fill="none" stroke="#000000" points="690,-28 690,-47 832,-47 832,-28 690,-28"/>
<text text-anchor="middle" x="761" y="-35" font-family="Helvetica,sans-Serif" font-size="10.00" fill="#000000">GridWorld::policyIteration</text>
</a>
</g>
</g>
<!-- Node245&#45;&gt;Node246 -->
<g id="edge4" class="edge">
<title>Node245&#45;&gt;Node246</title>
<path fill="none" stroke="#191970" d="M664.1435,-49.2079C672.762,-48.1661 681.4508,-47.1158 689.899,-46.0946"/>
<polygon fill="#191970" stroke="#191970" points="663.5848,-45.7499 654.0771,-50.4247 664.4249,-52.6993 663.5848,-45.7499"/>
</g>
<!-- Node245&#45;&gt;Node247 -->
<g id="edge5" class="edge">
<title>Node245&#45;&gt;Node247</title>
<path fill="none" stroke="#191970" d="M664.1063,-68.3847C673.0343,-69.3168 682.0382,-70.2567 690.7724,-71.1685"/>
<polygon fill="#191970" stroke="#191970" points="664.3865,-64.895 654.0771,-67.3377 663.6596,-71.8572 664.3865,-64.895"/>
</g>
<!-- Node248&#45;&gt;Node246 -->
<g id="edge8" class="edge">
<title>Node248&#45;&gt;Node246</title>
<path fill="none" stroke="#191970" d="M660.3441,-25.3328C670.2003,-26.5242 680.2092,-27.7341 689.9015,-28.9057"/>
<polygon fill="#191970" stroke="#191970" points="660.4957,-21.8257 650.1479,-24.1003 659.6556,-28.7751 660.4957,-21.8257"/>
</g>
</g>
</svg>
