<?xml version="1.0" encoding="UTF-8" standalone="no"?>
<!DOCTYPE svg PUBLIC "-//W3C//DTD SVG 1.1//EN"
 "http://www.w3.org/Graphics/SVG/1.1/DTD/svg11.dtd">
<!-- Generated by graphviz version 2.40.1 (20161225.0304)
 -->
<!-- Title: GridWorld::policyForState Pages: 1 -->
<svg width="550pt" height="192pt"
 viewBox="0.00 0.00 550.00 192.00" xmlns="http://www.w3.org/2000/svg" xmlns:xlink="http://www.w3.org/1999/xlink">
<g id="graph0" class="graph" transform="scale(1 1) rotate(0) translate(4 188)">
<title>GridWorld::policyForState</title>
<!-- Node144 -->
<g id="node1" class="node">
<title>Node144</title>
<polygon fill="#bfbfbf" stroke="#000000" points="0,-126.5 0,-145.5 141,-145.5 141,-126.5 0,-126.5"/>
<text text-anchor="middle" x="70.5" y="-133.5" font-family="Helvetica,sans-Serif" font-size="10.00" fill="#000000">GridWorld::policyForState</text>
</g>
<!-- Node145 -->
<g id="node2" class="node">
<title>Node145</title>
<g id="a_node2"><a xlink:href="classGridWorld.html#a5b720f7017beff840503f77c25da2586" target="_top" xlink:title="Creates a new policy for a given state giving preference to the actions with maximum value...">
<polygon fill="none" stroke="#000000" points="177,-126.5 177,-145.5 327,-145.5 327,-126.5 177,-126.5"/>
<text text-anchor="middle" x="252" y="-133.5" font-family="Helvetica,sans-Serif" font-size="10.00" fill="#000000">GridWorld::policyIncrement</text>
</a>
</g>
</g>
<!-- Node144&#45;&gt;Node145 -->
<g id="edge1" class="edge">
<title>Node144&#45;&gt;Node145</title>
<path fill="none" stroke="#191970" d="M151.3878,-136C159.8091,-136 168.345,-136 176.7008,-136"/>
<polygon fill="#191970" stroke="#191970" points="151.1924,-132.5001 141.1923,-136 151.1923,-139.5001 151.1924,-132.5001"/>
</g>
<!-- Node146 -->
<g id="node3" class="node">
<title>Node146</title>
<g id="a_node3"><a xlink:href="classGridWorld.html#add6d00c0d2eec4d16706a19b0527bba5" target="_top" xlink:title="Policy iteration method. ">
<polygon fill="none" stroke="#000000" points="381.5,-164.5 381.5,-183.5 523.5,-183.5 523.5,-164.5 381.5,-164.5"/>
<text text-anchor="middle" x="452.5" y="-171.5" font-family="Helvetica,sans-Serif" font-size="10.00" fill="#000000">GridWorld::policyIteration</text>
</a>
</g>
</g>
<!-- Node144&#45;&gt;Node146 -->
<g id="edge10" class="edge">
<title>Node144&#45;&gt;Node146</title>
<path fill="none" stroke="#191970" d="M127.7373,-147.3795C143.6369,-150.2216 160.9446,-153.02 177,-155 246.1143,-163.5232 325.4899,-168.4911 381.2332,-171.1944"/>
<polygon fill="#191970" stroke="#191970" points="127.9856,-143.867 117.5195,-145.5137 126.7281,-150.7532 127.9856,-143.867"/>
</g>
<!-- Node148 -->
<g id="node5" class="node">
<title>Node148</title>
<g id="a_node5"><a xlink:href="classGridWorld.html#a9dfe466eee829e7d1b8315b789078be9" target="_top" xlink:title="GridWorld::prettifyPolicy">
<polygon fill="none" stroke="#000000" points="183.5,-85.5 183.5,-104.5 320.5,-104.5 320.5,-85.5 183.5,-85.5"/>
<text text-anchor="middle" x="252" y="-92.5" font-family="Helvetica,sans-Serif" font-size="10.00" fill="#000000">GridWorld::prettifyPolicy</text>
</a>
</g>
</g>
<!-- Node144&#45;&gt;Node148 -->
<g id="edge4" class="edge">
<title>Node144&#45;&gt;Node148</title>
<path fill="none" stroke="#191970" d="M122.5006,-124.2533C150.1798,-118.0007 183.7803,-110.4105 209.8183,-104.5286"/>
<polygon fill="#191970" stroke="#191970" points="121.5789,-120.8732 112.5959,-126.4907 123.1214,-127.7012 121.5789,-120.8732"/>
</g>
<!-- Node145&#45;&gt;Node146 -->
<g id="edge2" class="edge">
<title>Node145&#45;&gt;Node146</title>
<path fill="none" stroke="#191970" d="M312.2456,-147.4181C340.9336,-152.8552 374.8498,-159.2832 402.1435,-164.4561"/>
<polygon fill="#191970" stroke="#191970" points="312.8127,-143.9634 302.3358,-145.54 311.5091,-150.8409 312.8127,-143.9634"/>
</g>
<!-- Node147 -->
<g id="node4" class="node">
<title>Node147</title>
<g id="a_node4"><a xlink:href="classGridWorld.html#a0d5cada9fc611efc747722223c97e8e5" target="_top" xlink:title="Value iteration method. ">
<polygon fill="none" stroke="#000000" points="382.5,-126.5 382.5,-145.5 522.5,-145.5 522.5,-126.5 382.5,-126.5"/>
<text text-anchor="middle" x="452.5" y="-133.5" font-family="Helvetica,sans-Serif" font-size="10.00" fill="#000000">GridWorld::valueIteration</text>
</a>
</g>
</g>
<!-- Node145&#45;&gt;Node147 -->
<g id="edge3" class="edge">
<title>Node145&#45;&gt;Node147</title>
<path fill="none" stroke="#191970" d="M337.5232,-136C352.5205,-136 367.9674,-136 382.4815,-136"/>
<polygon fill="#191970" stroke="#191970" points="337.2293,-132.5001 327.2292,-136 337.2292,-139.5001 337.2293,-132.5001"/>
</g>
<!-- Node148&#45;&gt;Node146 -->
<g id="edge5" class="edge">
<title>Node148&#45;&gt;Node146</title>
<path fill="none" stroke="#191970" d="M308.4009,-107.9766C314.8955,-110.4977 321.2444,-113.4801 327,-117 346.8472,-129.1377 342.7052,-143.6266 363,-155 369.9284,-158.8828 377.5646,-161.9736 385.3677,-164.4338"/>
<polygon fill="#191970" stroke="#191970" points="309.4282,-104.6277 298.8334,-104.6043 307.1011,-111.2296 309.4282,-104.6277"/>
</g>
<!-- Node148&#45;&gt;Node147 -->
<g id="edge6" class="edge">
<title>Node148&#45;&gt;Node147</title>
<path fill="none" stroke="#191970" d="M308.6411,-106.5825C339.3691,-112.866 376.8865,-120.5379 405.9026,-126.4714"/>
<polygon fill="#191970" stroke="#191970" points="309.0012,-103.0837 298.5027,-104.5093 307.5987,-109.9418 309.0012,-103.0837"/>
</g>
<!-- Node149 -->
<g id="node6" class="node">
<title>Node149</title>
<g id="a_node6"><a xlink:href="classGridWorld.html#a03586ebfa410ea0617103c70ce5b08cb" target="_top" xlink:title="Monte Carlo Estimating Starts algorithm for finding an optimal policy. ">
<polygon fill="none" stroke="#000000" points="363,-77 363,-107 542,-107 542,-77 363,-77"/>
<text text-anchor="start" x="371" y="-95" font-family="Helvetica,sans-Serif" font-size="10.00" fill="#000000">GridWorld::MonteCarloEstimating</text>
<text text-anchor="middle" x="452.5" y="-84" font-family="Helvetica,sans-Serif" font-size="10.00" fill="#000000">Starts</text>
</a>
</g>
</g>
<!-- Node148&#45;&gt;Node149 -->
<g id="edge7" class="edge">
<title>Node148&#45;&gt;Node149</title>
<path fill="none" stroke="#191970" d="M330.7392,-93.8219C341.3133,-93.6636 352.2225,-93.5004 362.9656,-93.3397"/>
<polygon fill="#191970" stroke="#191970" points="330.6667,-90.3225 320.7202,-93.9718 330.7715,-97.3217 330.6667,-90.3225"/>
</g>
<!-- Node150 -->
<g id="node7" class="node">
<title>Node150</title>
<g id="a_node7"><a xlink:href="classGridWorld.html#ad1c7b6d4e864ef8e8aca9163c2d8cd86" target="_top" xlink:title="Temporal difference method for finding the optimal policy using SARSA. ">
<polygon fill="none" stroke="#000000" points="403.5,-38.5 403.5,-57.5 501.5,-57.5 501.5,-38.5 403.5,-38.5"/>
<text text-anchor="middle" x="452.5" y="-45.5" font-family="Helvetica,sans-Serif" font-size="10.00" fill="#000000">GridWorld::Sarsa</text>
</a>
</g>
</g>
<!-- Node148&#45;&gt;Node150 -->
<g id="edge8" class="edge">
<title>Node148&#45;&gt;Node150</title>
<path fill="none" stroke="#191970" d="M298.1579,-82.9402C318.0639,-77.8474 341.6357,-71.9604 363,-67 376.9256,-63.7667 392.1216,-60.4585 405.9736,-57.5277"/>
<polygon fill="#191970" stroke="#191970" points="297.2249,-79.5662 288.4108,-85.4452 298.9673,-86.3459 297.2249,-79.5662"/>
</g>
<!-- Node151 -->
<g id="node8" class="node">
<title>Node151</title>
<g id="a_node8"><a xlink:href="classGridWorld.html#abdbd7b78344fe0db7dbdd4f55d8ace70" target="_top" xlink:title="Temporal difference method for finding the optimal policy using Q&#45;Learning. ">
<polygon fill="none" stroke="#000000" points="392,-.5 392,-19.5 513,-19.5 513,-.5 392,-.5"/>
<text text-anchor="middle" x="452.5" y="-7.5" font-family="Helvetica,sans-Serif" font-size="10.00" fill="#000000">GridWorld::QLearning</text>
</a>
</g>
</g>
<!-- Node148&#45;&gt;Node151 -->
<g id="edge9" class="edge">
<title>Node148&#45;&gt;Node151</title>
<path fill="none" stroke="#191970" d="M273.3312,-79.4172C294.9128,-64.3698 329.7487,-42.0046 363,-29 372.7636,-25.1815 383.4417,-22.069 393.9137,-19.5523"/>
<polygon fill="#191970" stroke="#191970" points="271.0696,-76.7302 264.9366,-85.3695 275.1185,-82.4404 271.0696,-76.7302"/>
</g>
</g>
</svg>
