<?xml version="1.0" encoding="UTF-8" standalone="no"?>
<!DOCTYPE svg PUBLIC "-//W3C//DTD SVG 1.1//EN"
 "http://www.w3.org/Graphics/SVG/1.1/DTD/svg11.dtd">
<!-- Generated by graphviz version 2.40.1 (20161225.0304)
 -->
<!-- Title: Timer::prettyTime Pages: 1 -->
<svg width="351pt" height="66pt"
 viewBox="0.00 0.00 351.00 66.00" xmlns="http://www.w3.org/2000/svg" xmlns:xlink="http://www.w3.org/1999/xlink">
<g id="graph0" class="graph" transform="scale(1 1) rotate(0) translate(4 62)">
<title>Timer::prettyTime</title>
<!-- Node11 -->
<g id="node1" class="node">
<title>Node11</title>
<polygon fill="#bfbfbf" stroke="#000000" points="0,-19.5 0,-38.5 105,-38.5 105,-19.5 0,-19.5"/>
<text text-anchor="middle" x="52.5" y="-26.5" font-family="Helvetica,sans-Serif" font-size="10.00" fill="#000000">Timer::prettyTime</text>
</g>
<!-- Node12 -->
<g id="node2" class="node">
<title>Node12</title>
<g id="a_node2"><a xlink:href="classTimer.html#a39c1c8047b50133aea46341f898da32f" target="_top" xlink:title="Checks if the time interval passed in the constructor has passed. ">
<polygon fill="none" stroke="#000000" points="152,-38.5 152,-57.5 243,-57.5 243,-38.5 152,-38.5"/>
<text text-anchor="middle" x="197.5" y="-45.5" font-family="Helvetica,sans-Serif" font-size="10.00" fill="#000000">Timer::activate</text>
</a>
</g>
</g>
<!-- Node11&#45;&gt;Node12 -->
<g id="edge1" class="edge">
<title>Node11&#45;&gt;Node12</title>
<path fill="none" stroke="#191970" d="M115.3981,-37.2418C127.6097,-38.842 140.1912,-40.4906 151.7237,-42.0017"/>
<polygon fill="#191970" stroke="#191970" points="115.6285,-33.7422 105.2585,-35.9132 114.719,-40.6828 115.6285,-33.7422"/>
</g>
<!-- Node14 -->
<g id="node4" class="node">
<title>Node14</title>
<g id="a_node4"><a xlink:href="classTimer.html#a7f5fac9e0cce578f93a6925c31d58c75" target="_top" xlink:title="Timer::runningTime">
<polygon fill="none" stroke="#000000" points="141,-.5 141,-19.5 254,-19.5 254,-.5 141,-.5"/>
<text text-anchor="middle" x="197.5" y="-7.5" font-family="Helvetica,sans-Serif" font-size="10.00" fill="#000000">Timer::runningTime</text>
</a>
</g>
</g>
<!-- Node11&#45;&gt;Node14 -->
<g id="edge3" class="edge">
<title>Node11&#45;&gt;Node14</title>
<path fill="none" stroke="#191970" d="M115.3786,-20.7607C123.7718,-19.6609 132.3402,-18.5382 140.623,-17.4529"/>
<polygon fill="#191970" stroke="#191970" points="114.719,-17.3172 105.2585,-22.0868 115.6285,-24.2578 114.719,-17.3172"/>
</g>
<!-- Node13 -->
<g id="node3" class="node">
<title>Node13</title>
<g id="a_node3"><a xlink:href="classMLP.html#a585e98d5b6ed65bf1bf2f8dbde6cb745" target="_top" xlink:title="Train a multiplayer perceptron. ">
<polygon fill="none" stroke="#000000" points="290,-19.5 290,-38.5 343,-38.5 343,-19.5 290,-19.5"/>
<text text-anchor="middle" x="316.5" y="-26.5" font-family="Helvetica,sans-Serif" font-size="10.00" fill="#000000">MLP::fit</text>
</a>
</g>
</g>
<!-- Node12&#45;&gt;Node13 -->
<g id="edge2" class="edge">
<title>Node12&#45;&gt;Node13</title>
<path fill="none" stroke="#191970" d="M253.2605,-39.0971C265.9612,-37.0692 278.89,-35.005 289.7199,-33.2758"/>
<polygon fill="#191970" stroke="#191970" points="252.4912,-35.6755 243.1682,-40.7084 253.595,-42.5879 252.4912,-35.6755"/>
</g>
<!-- Node14&#45;&gt;Node13 -->
<g id="edge4" class="edge">
<title>Node14&#45;&gt;Node13</title>
<path fill="none" stroke="#191970" d="M264.1276,-20.638C273.222,-22.0901 282.091,-23.5061 289.8682,-24.7479"/>
<polygon fill="#191970" stroke="#191970" points="264.6386,-17.1754 254.2118,-19.0548 263.5349,-24.0878 264.6386,-17.1754"/>
</g>
</g>
</svg>
