<?xml version="1.0" encoding="UTF-8" standalone="no"?>
<!DOCTYPE svg PUBLIC "-//W3C//DTD SVG 1.1//EN"
 "http://www.w3.org/Graphics/SVG/1.1/DTD/svg11.dtd">
<!-- Generated by graphviz version 2.40.1 (20161225.0304)
 -->
<!-- Title: MLP Pages: 1 -->
<svg width="230pt" height="380pt"
 viewBox="0.00 0.00 230.00 380.00" xmlns="http://www.w3.org/2000/svg" xmlns:xlink="http://www.w3.org/1999/xlink">
<g id="graph0" class="graph" transform="scale(1 1) rotate(0) translate(4 376)">
<title>MLP</title>
<!-- Node1 -->
<g id="node1" class="node">
<title>Node1</title>
<polygon fill="#bfbfbf" stroke="#000000" points="43.5,-.5 43.5,-222.5 164.5,-222.5 164.5,-.5 43.5,-.5"/>
<text text-anchor="middle" x="104" y="-210.5" font-family="Helvetica,sans-Serif" font-size="10.00" fill="#000000">MLP</text>
<polyline fill="none" stroke="#000000" points="43.5,-203.5 164.5,-203.5 "/>
<text text-anchor="middle" x="104" y="-191.5" font-family="Helvetica,sans-Serif" font-size="10.00" fill="#000000"> </text>
<polyline fill="none" stroke="#000000" points="43.5,-184.5 164.5,-184.5 "/>
<text text-anchor="start" x="51.5" y="-172.5" font-family="Helvetica,sans-Serif" font-size="10.00" fill="#000000">+ MLP()</text>
<text text-anchor="start" x="51.5" y="-161.5" font-family="Helvetica,sans-Serif" font-size="10.00" fill="#000000">+ fit()</text>
<text text-anchor="start" x="51.5" y="-150.5" font-family="Helvetica,sans-Serif" font-size="10.00" fill="#000000">+ fit()</text>
<text text-anchor="start" x="51.5" y="-139.5" font-family="Helvetica,sans-Serif" font-size="10.00" fill="#000000">+ predict()</text>
<text text-anchor="start" x="51.5" y="-128.5" font-family="Helvetica,sans-Serif" font-size="10.00" fill="#000000">&#45; summarize()</text>
<text text-anchor="start" x="51.5" y="-117.5" font-family="Helvetica,sans-Serif" font-size="10.00" fill="#000000">&#45; pow2()</text>
<text text-anchor="start" x="51.5" y="-106.5" font-family="Helvetica,sans-Serif" font-size="10.00" fill="#000000">&#45; sigmoid()</text>
<text text-anchor="start" x="51.5" y="-95.5" font-family="Helvetica,sans-Serif" font-size="10.00" fill="#000000">&#45; sigmoidDerivative()</text>
<text text-anchor="start" x="51.5" y="-84.5" font-family="Helvetica,sans-Serif" font-size="10.00" fill="#000000">&#45; tanh()</text>
<text text-anchor="start" x="51.5" y="-73.5" font-family="Helvetica,sans-Serif" font-size="10.00" fill="#000000">&#45; tanhDerivative()</text>
<text text-anchor="start" x="51.5" y="-62.5" font-family="Helvetica,sans-Serif" font-size="10.00" fill="#000000">&#45; initNormal()</text>
<text text-anchor="start" x="51.5" y="-51.5" font-family="Helvetica,sans-Serif" font-size="10.00" fill="#000000">&#45; initNormal()</text>
<text text-anchor="start" x="51.5" y="-40.5" font-family="Helvetica,sans-Serif" font-size="10.00" fill="#000000">&#45; initUniform()</text>
<text text-anchor="start" x="51.5" y="-29.5" font-family="Helvetica,sans-Serif" font-size="10.00" fill="#000000">&#45; initUniform()</text>
<text text-anchor="start" x="51.5" y="-18.5" font-family="Helvetica,sans-Serif" font-size="10.00" fill="#000000">&#45; binarize()</text>
<text text-anchor="start" x="51.5" y="-7.5" font-family="Helvetica,sans-Serif" font-size="10.00" fill="#000000">&#45; softmax()</text>
</g>
<!-- Node2 -->
<g id="node2" class="node">
<title>Node2</title>
<polygon fill="none" stroke="#bfbfbf" points="0,-314.5 0,-371.5 108,-371.5 108,-314.5 0,-314.5"/>
<text text-anchor="middle" x="54" y="-359.5" font-family="Helvetica,sans-Serif" font-size="10.00" fill="#000000">vector&lt; MatrixD &gt;</text>
<polyline fill="none" stroke="#bfbfbf" points="0,-352.5 108,-352.5 "/>
<text text-anchor="middle" x="54" y="-340.5" font-family="Helvetica,sans-Serif" font-size="10.00" fill="#000000"> </text>
<polyline fill="none" stroke="#bfbfbf" points="0,-333.5 108,-333.5 "/>
<text text-anchor="middle" x="54" y="-321.5" font-family="Helvetica,sans-Serif" font-size="10.00" fill="#000000"> </text>
</g>
<!-- Node2&#45;&gt;Node1 -->
<g id="edge1" class="edge">
<title>Node2&#45;&gt;Node1</title>
<path fill="none" stroke="#404040" d="M60.2314,-314.1484C64.6687,-293.604 70.9649,-264.4525 77.4029,-234.6444"/>
<polygon fill="none" stroke="#404040" points="77.4368,-234.4873 74.7937,-227.7781 79.9702,-222.7578 82.6134,-229.467 77.4368,-234.4873"/>
<text text-anchor="middle" x="85.5" y="-266" font-family="Helvetica,sans-Serif" font-size="10.00" fill="#000000"> &#45;W</text>
</g>
<!-- Node3 -->
<g id="node3" class="node">
<title>Node3</title>
<polygon fill="none" stroke="#bfbfbf" points="126.5,-314.5 126.5,-371.5 181.5,-371.5 181.5,-314.5 126.5,-314.5"/>
<text text-anchor="middle" x="154" y="-359.5" font-family="Helvetica,sans-Serif" font-size="10.00" fill="#000000">MatrixD</text>
<polyline fill="none" stroke="#bfbfbf" points="126.5,-352.5 181.5,-352.5 "/>
<text text-anchor="middle" x="154" y="-340.5" font-family="Helvetica,sans-Serif" font-size="10.00" fill="#000000"> </text>
<polyline fill="none" stroke="#bfbfbf" points="126.5,-333.5 181.5,-333.5 "/>
<text text-anchor="middle" x="154" y="-321.5" font-family="Helvetica,sans-Serif" font-size="10.00" fill="#000000"> </text>
</g>
<!-- Node3&#45;&gt;Node1 -->
<g id="edge2" class="edge">
<title>Node3&#45;&gt;Node1</title>
<path fill="none" stroke="#404040" d="M147.7686,-314.1484C143.3313,-293.604 137.0351,-264.4525 130.5971,-234.6444"/>
<polygon fill="none" stroke="#404040" points="130.5632,-234.4873 125.3866,-229.467 128.0298,-222.7578 133.2063,-227.7781 130.5632,-234.4873"/>
<text text-anchor="middle" x="182.5" y="-288" font-family="Helvetica,sans-Serif" font-size="10.00" fill="#000000"> &#45;classes</text>
<text text-anchor="middle" x="182.5" y="-277" font-family="Helvetica,sans-Serif" font-size="10.00" fill="#000000">&#45;data</text>
<text text-anchor="middle" x="182.5" y="-266" font-family="Helvetica,sans-Serif" font-size="10.00" fill="#000000">&#45;dataDev</text>
<text text-anchor="middle" x="182.5" y="-255" font-family="Helvetica,sans-Serif" font-size="10.00" fill="#000000">&#45;dataMean</text>
<text text-anchor="middle" x="182.5" y="-244" font-family="Helvetica,sans-Serif" font-size="10.00" fill="#000000">&#45;originalClasses</text>
</g>
</g>
</svg>
