<?xml version="1.0" encoding="UTF-8" standalone="no"?>
<!DOCTYPE svg PUBLIC "-//W3C//DTD SVG 1.1//EN"
 "http://www.w3.org/Graphics/SVG/1.1/DTD/svg11.dtd">
<!-- Generated by graphviz version 2.40.1 (20161225.0304)
 -->
<!-- Title: GridWorld::actionValuesForState Pages: 1 -->
<svg width="800pt" height="97pt"
 viewBox="0.00 0.00 800.00 97.24" xmlns="http://www.w3.org/2000/svg" xmlns:xlink="http://www.w3.org/1999/xlink">
<g id="graph0" class="graph" transform="scale(1 1) rotate(0) translate(4 93.2435)">
<title>GridWorld::actionValuesForState</title>
<!-- Node12 -->
<g id="node1" class="node">
<title>Node12</title>
<polygon fill="#bfbfbf" stroke="#000000" points="0,-33 0,-63 149,-63 149,-33 0,-33"/>
<text text-anchor="start" x="8" y="-51" font-family="Helvetica,sans-Serif" font-size="10.00" fill="#000000">GridWorld::actionValuesFor</text>
<text text-anchor="middle" x="74.5" y="-40" font-family="Helvetica,sans-Serif" font-size="10.00" fill="#000000">State</text>
</g>
<!-- Node13 -->
<g id="node2" class="node">
<title>Node13</title>
<g id="a_node2"><a xlink:href="classGridWorld.html#afb39acf3fcb5c3f62adea9668a035445" target="_top" xlink:title="Gets the q value of action a on state s ">
<polygon fill="none" stroke="#000000" points="185,-38.5 185,-57.5 314,-57.5 314,-38.5 185,-38.5"/>
<text text-anchor="middle" x="249.5" y="-45.5" font-family="Helvetica,sans-Serif" font-size="10.00" fill="#000000">GridWorld::actionValue</text>
</a>
</g>
</g>
<!-- Node12&#45;&gt;Node13 -->
<g id="edge1" class="edge">
<title>Node12&#45;&gt;Node13</title>
<path fill="none" stroke="#191970" d="M149.2234,-48C157.6772,-48 166.2937,-48 174.7479,-48"/>
<polygon fill="#191970" stroke="#191970" points="174.9579,-51.5001 184.9579,-48 174.9578,-44.5001 174.9579,-51.5001"/>
</g>
<!-- Node14 -->
<g id="node3" class="node">
<title>Node14</title>
<g id="a_node3"><a xlink:href="classGridWorld.html#a03d2aaf35961c3e190e4b7ab12f76e4d" target="_top" xlink:title="Transforms a raster coordinate from the grid world into its corresponding row x column representation...">
<polygon fill="none" stroke="#000000" points="675.5,-57.5 675.5,-76.5 785.5,-76.5 785.5,-57.5 675.5,-57.5"/>
<text text-anchor="middle" x="730.5" y="-64.5" font-family="Helvetica,sans-Serif" font-size="10.00" fill="#000000">GridWorld::toCoord</text>
</a>
</g>
</g>
<!-- Node13&#45;&gt;Node14 -->
<g id="edge2" class="edge">
<title>Node13&#45;&gt;Node14</title>
<path fill="none" stroke="#191970" d="M291.4864,-57.5324C362.0252,-72.3417 508.7978,-97.989 633,-86 648.771,-84.4777 665.78,-81.6008 681.107,-78.5378"/>
<polygon fill="#191970" stroke="#191970" points="681.8228,-81.9639 690.9063,-76.5104 680.4045,-75.1091 681.8228,-81.9639"/>
</g>
<!-- Node15 -->
<g id="node4" class="node">
<title>Node15</title>
<g id="a_node4"><a xlink:href="classGridWorld.html#a5241a21b520fc8c9d4c0110de285aec1" target="_top" xlink:title="Transforms row x column coordinates from the grid world into a raster representation. ">
<polygon fill="none" stroke="#000000" points="669,-.5 669,-19.5 792,-19.5 792,-.5 669,-.5"/>
<text text-anchor="middle" x="730.5" y="-7.5" font-family="Helvetica,sans-Serif" font-size="10.00" fill="#000000">GridWorld::fromCoord</text>
</a>
</g>
</g>
<!-- Node13&#45;&gt;Node15 -->
<g id="edge3" class="edge">
<title>Node13&#45;&gt;Node15</title>
<path fill="none" stroke="#191970" d="M296.4303,-38.4826C313.2824,-35.2359 332.4554,-31.7379 350,-29 418.1387,-18.3669 435.1665,-14.2302 504,-10 555.7058,-6.8224 614.1765,-6.9152 658.7571,-7.754"/>
<polygon fill="#191970" stroke="#191970" points="658.8426,-11.2564 668.9123,-7.9624 658.9863,-4.2578 658.8426,-11.2564"/>
</g>
<!-- Node16 -->
<g id="node5" class="node">
<title>Node16</title>
<g id="a_node5"><a xlink:href="classGridWorld.html#aaf8d964cddf2d838737d0707481ad792" target="_top" xlink:title="Returns the transition probability to nextState, given currentState and action ">
<polygon fill="none" stroke="#000000" points="350,-38.5 350,-57.5 468,-57.5 468,-38.5 350,-38.5"/>
<text text-anchor="middle" x="409" y="-45.5" font-family="Helvetica,sans-Serif" font-size="10.00" fill="#000000">GridWorld::transition</text>
</a>
</g>
</g>
<!-- Node13&#45;&gt;Node16 -->
<g id="edge4" class="edge">
<title>Node13&#45;&gt;Node16</title>
<path fill="none" stroke="#191970" d="M314.3748,-48C322.7138,-48 331.2777,-48 339.6843,-48"/>
<polygon fill="#191970" stroke="#191970" points="339.8348,-51.5001 349.8347,-48 339.8347,-44.5001 339.8348,-51.5001"/>
</g>
<!-- Node17 -->
<g id="node6" class="node">
<title>Node17</title>
<g id="a_node6"><a xlink:href="classGridWorld.html#a202b7bda8938f3c641c2812dcc9b5ac1" target="_top" xlink:title="Informs whether a state is a goal state in the grid world. ">
<polygon fill="none" stroke="#000000" points="517.5,-57.5 517.5,-76.5 619.5,-76.5 619.5,-57.5 517.5,-57.5"/>
<text text-anchor="middle" x="568.5" y="-64.5" font-family="Helvetica,sans-Serif" font-size="10.00" fill="#000000">GridWorld::isGoal</text>
</a>
</g>
</g>
<!-- Node16&#45;&gt;Node17 -->
<g id="edge5" class="edge">
<title>Node16&#45;&gt;Node17</title>
<path fill="none" stroke="#191970" d="M468.3919,-55.0749C481.1115,-56.5901 494.5715,-58.1935 507.3559,-59.7164"/>
<polygon fill="#191970" stroke="#191970" points="507.093,-63.2097 517.4369,-60.9172 507.9211,-56.2589 507.093,-63.2097"/>
</g>
<!-- Node18 -->
<g id="node7" class="node">
<title>Node18</title>
<g id="a_node7"><a xlink:href="classGridWorld.html#aee5066a1ae4ad067c4ac846c6ed15dea" target="_top" xlink:title="Returns the next state that results from applying an action to a state. ">
<polygon fill="none" stroke="#000000" points="504,-19.5 504,-38.5 633,-38.5 633,-19.5 504,-19.5"/>
<text text-anchor="middle" x="568.5" y="-26.5" font-family="Helvetica,sans-Serif" font-size="10.00" fill="#000000">GridWorld::applyAction</text>
</a>
</g>
</g>
<!-- Node16&#45;&gt;Node18 -->
<g id="edge7" class="edge">
<title>Node16&#45;&gt;Node18</title>
<path fill="none" stroke="#191970" d="M468.3919,-40.9251C476.7314,-39.9317 485.3891,-38.9004 493.9661,-37.8786"/>
<polygon fill="#191970" stroke="#191970" points="494.4579,-41.3449 503.9737,-36.6865 493.6299,-34.394 494.4579,-41.3449"/>
</g>
<!-- Node17&#45;&gt;Node14 -->
<g id="edge6" class="edge">
<title>Node17&#45;&gt;Node14</title>
<path fill="none" stroke="#191970" d="M619.7578,-67C634.1433,-67 649.9821,-67 665.0717,-67"/>
<polygon fill="#191970" stroke="#191970" points="665.3716,-70.5001 675.3716,-67 665.3716,-63.5001 665.3716,-70.5001"/>
</g>
<!-- Node18&#45;&gt;Node14 -->
<g id="edge8" class="edge">
<title>Node18&#45;&gt;Node14</title>
<path fill="none" stroke="#191970" d="M609.3794,-38.589C630.8534,-43.6261 657.3605,-49.8438 680.097,-55.1771"/>
<polygon fill="#191970" stroke="#191970" points="679.3795,-58.6037 689.9145,-57.4799 680.9781,-51.7887 679.3795,-58.6037"/>
</g>
<!-- Node18&#45;&gt;Node15 -->
<g id="edge9" class="edge">
<title>Node18&#45;&gt;Node15</title>
<path fill="none" stroke="#191970" d="M633.4582,-21.3815C641.7815,-20.4053 650.3402,-19.4015 658.7636,-18.4135"/>
<polygon fill="#191970" stroke="#191970" points="659.4219,-21.8604 668.9461,-17.2193 658.6065,-14.9081 659.4219,-21.8604"/>
</g>
</g>
</svg>
