<?xml version="1.0" encoding="UTF-8" standalone="no"?>
<!DOCTYPE svg PUBLIC "-//W3C//DTD SVG 1.1//EN"
 "http://www.w3.org/Graphics/SVG/1.1/DTD/svg11.dtd">
<!-- Generated by graphviz version 2.40.1 (20161225.0304)
 -->
<!-- Title: GridWorld::applyAction Pages: 1 -->
<svg width="1066pt" height="195pt"
 viewBox="0.00 0.00 1066.00 195.00" xmlns="http://www.w3.org/2000/svg" xmlns:xlink="http://www.w3.org/1999/xlink">
<g id="graph0" class="graph" transform="scale(1 1) rotate(0) translate(4 191)">
<title>GridWorld::applyAction</title>
<!-- Node26 -->
<g id="node1" class="node">
<title>Node26</title>
<polygon fill="#bfbfbf" stroke="#000000" points="0,-60.5 0,-79.5 129,-79.5 129,-60.5 0,-60.5"/>
<text text-anchor="middle" x="64.5" y="-67.5" font-family="Helvetica,sans-Serif" font-size="10.00" fill="#000000">GridWorld::applyAction</text>
</g>
<!-- Node27 -->
<g id="node2" class="node">
<title>Node27</title>
<g id="a_node2"><a xlink:href="classGridWorld.html#aaf8d964cddf2d838737d0707481ad792" target="_top" xlink:title="Returns the transition probability to nextState, given currentState and action ">
<polygon fill="none" stroke="#000000" points="195.5,-126.5 195.5,-145.5 313.5,-145.5 313.5,-126.5 195.5,-126.5"/>
<text text-anchor="middle" x="254.5" y="-133.5" font-family="Helvetica,sans-Serif" font-size="10.00" fill="#000000">GridWorld::transition</text>
</a>
</g>
</g>
<!-- Node26&#45;&gt;Node27 -->
<g id="edge1" class="edge">
<title>Node26&#45;&gt;Node27</title>
<path fill="none" stroke="#191970" d="M91.623,-84.2983C111.4978,-94.3056 139.3677,-107.3761 165,-116 177.0722,-120.0616 190.3395,-123.5379 202.876,-126.398"/>
<polygon fill="#191970" stroke="#191970" points="93.0509,-81.0975 82.5534,-79.6646 89.8661,-87.3311 93.0509,-81.0975"/>
</g>
<!-- Node34 -->
<g id="node9" class="node">
<title>Node34</title>
<g id="a_node9"><a xlink:href="classGridWorld.html#a03586ebfa410ea0617103c70ce5b08cb" target="_top" xlink:title="Monte Carlo Estimating Starts algorithm for finding an optimal policy. ">
<polygon fill="none" stroke="#000000" points="165,-77 165,-107 344,-107 344,-77 165,-77"/>
<text text-anchor="start" x="173" y="-95" font-family="Helvetica,sans-Serif" font-size="10.00" fill="#000000">GridWorld::MonteCarloEstimating</text>
<text text-anchor="middle" x="254.5" y="-84" font-family="Helvetica,sans-Serif" font-size="10.00" fill="#000000">Starts</text>
</a>
</g>
</g>
<!-- Node26&#45;&gt;Node34 -->
<g id="edge10" class="edge">
<title>Node26&#45;&gt;Node34</title>
<path fill="none" stroke="#191970" d="M139.2208,-78.6519C147.6318,-79.6258 156.2653,-80.6255 164.8405,-81.6184"/>
<polygon fill="#191970" stroke="#191970" points="139.4267,-75.1524 129.0905,-77.4789 138.6215,-82.106 139.4267,-75.1524"/>
</g>
<!-- Node35 -->
<g id="node10" class="node">
<title>Node35</title>
<g id="a_node10"><a xlink:href="classGridWorld.html#ad1c7b6d4e864ef8e8aca9163c2d8cd86" target="_top" xlink:title="Temporal difference method for finding the optimal policy using SARSA. ">
<polygon fill="none" stroke="#000000" points="205.5,-38.5 205.5,-57.5 303.5,-57.5 303.5,-38.5 205.5,-38.5"/>
<text text-anchor="middle" x="254.5" y="-45.5" font-family="Helvetica,sans-Serif" font-size="10.00" fill="#000000">GridWorld::Sarsa</text>
</a>
</g>
</g>
<!-- Node26&#45;&gt;Node35 -->
<g id="edge11" class="edge">
<title>Node26&#45;&gt;Node35</title>
<path fill="none" stroke="#191970" d="M139.1819,-61.3526C161.4252,-58.7771 185.2274,-56.021 205.3966,-53.6857"/>
<polygon fill="#191970" stroke="#191970" points="138.6215,-57.894 129.0905,-62.5211 139.4267,-64.8476 138.6215,-57.894"/>
</g>
<!-- Node36 -->
<g id="node11" class="node">
<title>Node36</title>
<g id="a_node11"><a xlink:href="classGridWorld.html#abdbd7b78344fe0db7dbdd4f55d8ace70" target="_top" xlink:title="Temporal difference method for finding the optimal policy using Q&#45;Learning. ">
<polygon fill="none" stroke="#000000" points="194,-.5 194,-19.5 315,-19.5 315,-.5 194,-.5"/>
<text text-anchor="middle" x="254.5" y="-7.5" font-family="Helvetica,sans-Serif" font-size="10.00" fill="#000000">GridWorld::QLearning</text>
</a>
</g>
</g>
<!-- Node26&#45;&gt;Node36 -->
<g id="edge12" class="edge">
<title>Node26&#45;&gt;Node36</title>
<path fill="none" stroke="#191970" d="M94.2631,-56.2221C114.0007,-47.4954 140.6543,-36.4848 165,-29 176.8428,-25.3591 189.7776,-22.173 202.0395,-19.5025"/>
<polygon fill="#191970" stroke="#191970" points="92.589,-53.1369 84.8959,-60.4216 95.4527,-59.5244 92.589,-53.1369"/>
</g>
<!-- Node28 -->
<g id="node3" class="node">
<title>Node28</title>
<g id="a_node3"><a xlink:href="classGridWorld.html#afb39acf3fcb5c3f62adea9668a035445" target="_top" xlink:title="Gets the q value of action a on state s ">
<polygon fill="none" stroke="#000000" points="380,-126.5 380,-145.5 509,-145.5 509,-126.5 380,-126.5"/>
<text text-anchor="middle" x="444.5" y="-133.5" font-family="Helvetica,sans-Serif" font-size="10.00" fill="#000000">GridWorld::actionValue</text>
</a>
</g>
</g>
<!-- Node27&#45;&gt;Node28 -->
<g id="edge2" class="edge">
<title>Node27&#45;&gt;Node28</title>
<path fill="none" stroke="#191970" d="M323.6133,-136C341.9743,-136 361.732,-136 379.8453,-136"/>
<polygon fill="#191970" stroke="#191970" points="323.5757,-132.5001 313.5757,-136 323.5756,-139.5001 323.5757,-132.5001"/>
</g>
<!-- Node29 -->
<g id="node4" class="node">
<title>Node29</title>
<g id="a_node4"><a xlink:href="classGridWorld.html#ab2473dfcba808923e74ef5e41c815293" target="_top" xlink:title="Gets the q values of all actions for a given state. ">
<polygon fill="none" stroke="#000000" points="545,-143 545,-173 694,-173 694,-143 545,-143"/>
<text text-anchor="start" x="553" y="-161" font-family="Helvetica,sans-Serif" font-size="10.00" fill="#000000">GridWorld::actionValuesFor</text>
<text text-anchor="middle" x="619.5" y="-150" font-family="Helvetica,sans-Serif" font-size="10.00" fill="#000000">State</text>
</a>
</g>
</g>
<!-- Node28&#45;&gt;Node29 -->
<g id="edge3" class="edge">
<title>Node28&#45;&gt;Node29</title>
<path fill="none" stroke="#191970" d="M519.3364,-145.408C527.7566,-146.4665 536.3367,-147.5452 544.7558,-148.6036"/>
<polygon fill="#191970" stroke="#191970" points="519.5248,-141.9042 509.1663,-144.1295 518.6516,-148.8496 519.5248,-141.9042"/>
</g>
<!-- Node33 -->
<g id="node8" class="node">
<title>Node33</title>
<g id="a_node8"><a xlink:href="classGridWorld.html#a5ee28286d5b619b0cf046b83f7d8ee7c" target="_top" xlink:title="Iterative policy evaluation implemented as decribed in Sutton and Barto, 2017. ">
<polygon fill="none" stroke="#000000" points="734,-99 734,-129 876,-129 876,-99 734,-99"/>
<text text-anchor="start" x="742" y="-117" font-family="Helvetica,sans-Serif" font-size="10.00" fill="#000000">GridWorld::iterativePolicy</text>
<text text-anchor="middle" x="805" y="-106" font-family="Helvetica,sans-Serif" font-size="10.00" fill="#000000">Evaluation</text>
</a>
</g>
</g>
<!-- Node28&#45;&gt;Node33 -->
<g id="edge8" class="edge">
<title>Node28&#45;&gt;Node33</title>
<path fill="none" stroke="#191970" d="M519.6359,-131.4147C582.6476,-127.5694 672.0021,-122.1164 733.8642,-118.3412"/>
<polygon fill="#191970" stroke="#191970" points="519.1347,-127.9387 509.3665,-132.0414 519.5612,-134.9257 519.1347,-127.9387"/>
</g>
<!-- Node30 -->
<g id="node5" class="node">
<title>Node30</title>
<g id="a_node5"><a xlink:href="classGridWorld.html#a5b720f7017beff840503f77c25da2586" target="_top" xlink:title="Creates a new policy for a given state giving preference to the actions with maximum value...">
<polygon fill="none" stroke="#000000" points="730,-148.5 730,-167.5 880,-167.5 880,-148.5 730,-148.5"/>
<text text-anchor="middle" x="805" y="-155.5" font-family="Helvetica,sans-Serif" font-size="10.00" fill="#000000">GridWorld::policyIncrement</text>
</a>
</g>
</g>
<!-- Node29&#45;&gt;Node30 -->
<g id="edge4" class="edge">
<title>Node29&#45;&gt;Node30</title>
<path fill="none" stroke="#191970" d="M704.165,-158C712.7495,-158 721.427,-158 729.9005,-158"/>
<polygon fill="#191970" stroke="#191970" points="704.1481,-154.5001 694.1481,-158 704.1481,-161.5001 704.1481,-154.5001"/>
</g>
<!-- Node32 -->
<g id="node7" class="node">
<title>Node32</title>
<g id="a_node7"><a xlink:href="classGridWorld.html#a0d5cada9fc611efc747722223c97e8e5" target="_top" xlink:title="Value iteration method. ">
<polygon fill="none" stroke="#000000" points="917,-167.5 917,-186.5 1057,-186.5 1057,-167.5 917,-167.5"/>
<text text-anchor="middle" x="987" y="-174.5" font-family="Helvetica,sans-Serif" font-size="10.00" fill="#000000">GridWorld::valueIteration</text>
</a>
</g>
</g>
<!-- Node29&#45;&gt;Node32 -->
<g id="edge7" class="edge">
<title>Node29&#45;&gt;Node32</title>
<path fill="none" stroke="#191970" d="M704.2988,-174.0833C712.954,-175.2736 721.6359,-176.2862 730,-177 793.017,-182.3783 865.0427,-181.8005 916.78,-180.2136"/>
<polygon fill="#191970" stroke="#191970" points="704.5706,-170.5861 694.1712,-172.6116 703.5639,-177.5134 704.5706,-170.5861"/>
</g>
<!-- Node31 -->
<g id="node6" class="node">
<title>Node31</title>
<g id="a_node6"><a xlink:href="classGridWorld.html#add6d00c0d2eec4d16706a19b0527bba5" target="_top" xlink:title="Policy iteration method. ">
<polygon fill="none" stroke="#000000" points="916,-126.5 916,-145.5 1058,-145.5 1058,-126.5 916,-126.5"/>
<text text-anchor="middle" x="987" y="-133.5" font-family="Helvetica,sans-Serif" font-size="10.00" fill="#000000">GridWorld::policyIteration</text>
</a>
</g>
</g>
<!-- Node30&#45;&gt;Node31 -->
<g id="edge5" class="edge">
<title>Node30&#45;&gt;Node31</title>
<path fill="none" stroke="#191970" d="M890.1435,-147.7079C898.762,-146.6661 907.4508,-145.6158 915.899,-144.5946"/>
<polygon fill="#191970" stroke="#191970" points="889.5848,-144.2499 880.0771,-148.9247 890.4249,-151.1993 889.5848,-144.2499"/>
</g>
<!-- Node30&#45;&gt;Node32 -->
<g id="edge6" class="edge">
<title>Node30&#45;&gt;Node32</title>
<path fill="none" stroke="#191970" d="M890.1063,-166.8847C899.0343,-167.8168 908.0382,-168.7567 916.7724,-169.6685"/>
<polygon fill="#191970" stroke="#191970" points="890.3865,-163.395 880.0771,-165.8377 889.6596,-170.3572 890.3865,-163.395"/>
</g>
<!-- Node33&#45;&gt;Node31 -->
<g id="edge9" class="edge">
<title>Node33&#45;&gt;Node31</title>
<path fill="none" stroke="#191970" d="M886.3441,-123.8328C896.2003,-125.0242 906.2092,-126.2341 915.9015,-127.4057"/>
<polygon fill="#191970" stroke="#191970" points="886.4957,-120.3257 876.1479,-122.6003 885.6556,-127.2751 886.4957,-120.3257"/>
</g>
</g>
</svg>
