<?xml version="1.0" encoding="UTF-8" standalone="no"?>
<!DOCTYPE svg PUBLIC "-//W3C//DTD SVG 1.1//EN"
 "http://www.w3.org/Graphics/SVG/1.1/DTD/svg11.dtd">
<!-- Generated by graphviz version 2.40.1 (20161225.0304)
 -->
<!-- Title: Timer Pages: 1 -->
<svg width="266pt" height="270pt"
 viewBox="0.00 0.00 265.50 270.00" xmlns="http://www.w3.org/2000/svg" xmlns:xlink="http://www.w3.org/1999/xlink">
<g id="graph0" class="graph" transform="scale(1 1) rotate(0) translate(4 266)">
<title>Timer</title>
<!-- Node1 -->
<g id="node1" class="node">
<title>Node1</title>
<polygon fill="#bfbfbf" stroke="#000000" points="65,-.5 65,-134.5 162,-134.5 162,-.5 65,-.5"/>
<text text-anchor="middle" x="113.5" y="-122.5" font-family="Helvetica,sans-Serif" font-size="10.00" fill="#000000">Timer</text>
<polyline fill="none" stroke="#000000" points="65,-115.5 162,-115.5 "/>
<text text-anchor="middle" x="113.5" y="-103.5" font-family="Helvetica,sans-Serif" font-size="10.00" fill="#000000"> </text>
<polyline fill="none" stroke="#000000" points="65,-96.5 162,-96.5 "/>
<text text-anchor="start" x="73" y="-84.5" font-family="Helvetica,sans-Serif" font-size="10.00" fill="#000000">+ Timer()</text>
<text text-anchor="start" x="73" y="-73.5" font-family="Helvetica,sans-Serif" font-size="10.00" fill="#000000">+ start()</text>
<text text-anchor="start" x="73" y="-62.5" font-family="Helvetica,sans-Serif" font-size="10.00" fill="#000000">+ activate()</text>
<text text-anchor="start" x="73" y="-51.5" font-family="Helvetica,sans-Serif" font-size="10.00" fill="#000000">+ runningTime()</text>
<text text-anchor="start" x="73" y="-40.5" font-family="Helvetica,sans-Serif" font-size="10.00" fill="#000000">+ prettyTime()</text>
<text text-anchor="start" x="73" y="-29.5" font-family="Helvetica,sans-Serif" font-size="10.00" fill="#000000">&#45; numDigits()</text>
<text text-anchor="start" x="73" y="-18.5" font-family="Helvetica,sans-Serif" font-size="10.00" fill="#000000">&#45; numDigits()</text>
<text text-anchor="start" x="73" y="-7.5" font-family="Helvetica,sans-Serif" font-size="10.00" fill="#000000">&#45; zeroPad()</text>
</g>
<!-- Node2 -->
<g id="node2" class="node">
<title>Node2</title>
<polygon fill="none" stroke="#bfbfbf" points="0,-199 0,-256 39,-256 39,-199 0,-199"/>
<text text-anchor="middle" x="19.5" y="-244" font-family="Helvetica,sans-Serif" font-size="10.00" fill="#000000">float</text>
<polyline fill="none" stroke="#bfbfbf" points="0,-237 39,-237 "/>
<text text-anchor="middle" x="19.5" y="-225" font-family="Helvetica,sans-Serif" font-size="10.00" fill="#000000"> </text>
<polyline fill="none" stroke="#bfbfbf" points="0,-218 39,-218 "/>
<text text-anchor="middle" x="19.5" y="-206" font-family="Helvetica,sans-Serif" font-size="10.00" fill="#000000"> </text>
</g>
<!-- Node2&#45;&gt;Node1 -->
<g id="edge1" class="edge">
<title>Node2&#45;&gt;Node1</title>
<path fill="none" stroke="#404040" d="M28.5916,-198.7082C33.5943,-184.5208 40.4281,-167.4097 48.5,-153 51.4431,-147.746 54.6782,-142.4569 58.0847,-137.2251"/>
<polygon fill="none" stroke="#404040" points="58.0992,-137.2036 58.1424,-129.9926 64.8153,-127.2589 64.7721,-134.4699 58.0992,-137.2036"/>
<text text-anchor="middle" x="79" y="-161.5" font-family="Helvetica,sans-Serif" font-size="10.00" fill="#000000"> &#45;lastUpdate</text>
</g>
<!-- Node3 -->
<g id="node3" class="node">
<title>Node3</title>
<polygon fill="none" stroke="#bfbfbf" points="57,-193.5 57,-261.5 170,-261.5 170,-193.5 57,-193.5"/>
<text text-anchor="start" x="65" y="-249.5" font-family="Helvetica,sans-Serif" font-size="10.00" fill="#000000">time_point&lt; chrono</text>
<text text-anchor="middle" x="113.5" y="-238.5" font-family="Helvetica,sans-Serif" font-size="10.00" fill="#000000">::system_clock &gt;</text>
<polyline fill="none" stroke="#bfbfbf" points="57,-231.5 170,-231.5 "/>
<text text-anchor="middle" x="113.5" y="-219.5" font-family="Helvetica,sans-Serif" font-size="10.00" fill="#000000"> </text>
<polyline fill="none" stroke="#bfbfbf" points="57,-212.5 170,-212.5 "/>
<text text-anchor="middle" x="113.5" y="-200.5" font-family="Helvetica,sans-Serif" font-size="10.00" fill="#000000"> </text>
</g>
<!-- Node3&#45;&gt;Node1 -->
<g id="edge2" class="edge">
<title>Node3&#45;&gt;Node1</title>
<path fill="none" stroke="#404040" d="M113.5,-193.176C113.5,-179.5661 113.5,-163.3039 113.5,-147.0656"/>
<polygon fill="none" stroke="#404040" points="113.5001,-146.697 109.5,-140.697 113.5,-134.697 117.5,-140.6969 113.5001,-146.697"/>
<text text-anchor="middle" x="141" y="-161.5" font-family="Helvetica,sans-Serif" font-size="10.00" fill="#000000"> &#45;startTime</text>
</g>
<!-- Node4 -->
<g id="node4" class="node">
<title>Node4</title>
<polygon fill="none" stroke="#bfbfbf" points="188,-199 188,-256 217,-256 217,-199 188,-199"/>
<text text-anchor="middle" x="202.5" y="-244" font-family="Helvetica,sans-Serif" font-size="10.00" fill="#000000">int</text>
<polyline fill="none" stroke="#bfbfbf" points="188,-237 217,-237 "/>
<text text-anchor="middle" x="202.5" y="-225" font-family="Helvetica,sans-Serif" font-size="10.00" fill="#000000"> </text>
<polyline fill="none" stroke="#bfbfbf" points="188,-218 217,-218 "/>
<text text-anchor="middle" x="202.5" y="-206" font-family="Helvetica,sans-Serif" font-size="10.00" fill="#000000"> </text>
</g>
<!-- Node4&#45;&gt;Node1 -->
<g id="edge3" class="edge">
<title>Node4&#45;&gt;Node1</title>
<path fill="none" stroke="#404040" d="M192.6728,-198.8832C187.3939,-184.7388 180.3589,-167.6133 172.5,-153 171.1306,-150.4537 169.7013,-147.8909 168.2251,-145.3239"/>
<polygon fill="none" stroke="#404040" points="168.0787,-145.0787 161.5676,-141.9792 161.9244,-134.7769 168.4354,-137.8764 168.0787,-145.0787"/>
<text text-anchor="middle" x="220" y="-167" font-family="Helvetica,sans-Serif" font-size="10.00" fill="#000000"> &#45;predictedIters</text>
<text text-anchor="middle" x="220" y="-156" font-family="Helvetica,sans-Serif" font-size="10.00" fill="#000000">&#45;interval</text>
</g>
</g>
</svg>
