<?xml version="1.0" encoding="UTF-8" standalone="no"?>
<!DOCTYPE svg PUBLIC "-//W3C//DTD SVG 1.1//EN"
 "http://www.w3.org/Graphics/SVG/1.1/DTD/svg11.dtd">
<!-- Generated by graphviz version 2.40.1 (20161225.0304)
 -->
<!-- Title: PCA Pages: 1 -->
<svg width="160pt" height="292pt"
 viewBox="0.00 0.00 160.00 292.00" xmlns="http://www.w3.org/2000/svg" xmlns:xlink="http://www.w3.org/1999/xlink">
<g id="graph0" class="graph" transform="scale(1 1) rotate(0) translate(4 288)">
<title>PCA</title>
<!-- Node1 -->
<g id="node1" class="node">
<title>Node1</title>
<polygon fill="#bfbfbf" stroke="#000000" points="0,-.5 0,-134.5 134,-134.5 134,-.5 0,-.5"/>
<text text-anchor="middle" x="67" y="-122.5" font-family="Helvetica,sans-Serif" font-size="10.00" fill="#000000">PCA</text>
<polyline fill="none" stroke="#000000" points="0,-115.5 134,-115.5 "/>
<text text-anchor="middle" x="67" y="-103.5" font-family="Helvetica,sans-Serif" font-size="10.00" fill="#000000"> </text>
<polyline fill="none" stroke="#000000" points="0,-96.5 134,-96.5 "/>
<text text-anchor="start" x="8" y="-84.5" font-family="Helvetica,sans-Serif" font-size="10.00" fill="#000000">+ PCA()</text>
<text text-anchor="start" x="8" y="-73.5" font-family="Helvetica,sans-Serif" font-size="10.00" fill="#000000">+ fit()</text>
<text text-anchor="start" x="8" y="-62.5" font-family="Helvetica,sans-Serif" font-size="10.00" fill="#000000">+ transform()</text>
<text text-anchor="start" x="8" y="-51.5" font-family="Helvetica,sans-Serif" font-size="10.00" fill="#000000">+ transform()</text>
<text text-anchor="start" x="8" y="-40.5" font-family="Helvetica,sans-Serif" font-size="10.00" fill="#000000">+ getEigenvalues()</text>
<text text-anchor="start" x="8" y="-29.5" font-family="Helvetica,sans-Serif" font-size="10.00" fill="#000000">+ getEigenvectors()</text>
<text text-anchor="start" x="8" y="-18.5" font-family="Helvetica,sans-Serif" font-size="10.00" fill="#000000">+ getPercentages()</text>
<text text-anchor="start" x="8" y="-7.5" font-family="Helvetica,sans-Serif" font-size="10.00" fill="#000000">+ getCumPercentages()</text>
</g>
<!-- Node2 -->
<g id="node2" class="node">
<title>Node2</title>
<polygon fill="none" stroke="#bfbfbf" points="39.5,-226.5 39.5,-283.5 94.5,-283.5 94.5,-226.5 39.5,-226.5"/>
<text text-anchor="middle" x="67" y="-271.5" font-family="Helvetica,sans-Serif" font-size="10.00" fill="#000000">MatrixD</text>
<polyline fill="none" stroke="#bfbfbf" points="39.5,-264.5 94.5,-264.5 "/>
<text text-anchor="middle" x="67" y="-252.5" font-family="Helvetica,sans-Serif" font-size="10.00" fill="#000000"> </text>
<polyline fill="none" stroke="#bfbfbf" points="39.5,-245.5 94.5,-245.5 "/>
<text text-anchor="middle" x="67" y="-233.5" font-family="Helvetica,sans-Serif" font-size="10.00" fill="#000000"> </text>
</g>
<!-- Node2&#45;&gt;Node1 -->
<g id="edge1" class="edge">
<title>Node2&#45;&gt;Node1</title>
<path fill="none" stroke="#404040" d="M67,-226.114C67,-204.9065 67,-175.013 67,-146.8863"/>
<polygon fill="none" stroke="#404040" points="67.0001,-146.5496 63,-140.5496 67,-134.5496 71,-140.5495 67.0001,-146.5496"/>
<text text-anchor="middle" x="109.5" y="-200" font-family="Helvetica,sans-Serif" font-size="10.00" fill="#000000"> &#45;eigenvalues</text>
<text text-anchor="middle" x="109.5" y="-189" font-family="Helvetica,sans-Serif" font-size="10.00" fill="#000000">&#45;X</text>
<text text-anchor="middle" x="109.5" y="-178" font-family="Helvetica,sans-Serif" font-size="10.00" fill="#000000">&#45;eigenvectors</text>
<text text-anchor="middle" x="109.5" y="-167" font-family="Helvetica,sans-Serif" font-size="10.00" fill="#000000">&#45;percentages</text>
<text text-anchor="middle" x="109.5" y="-156" font-family="Helvetica,sans-Serif" font-size="10.00" fill="#000000">&#45;cumPercentages</text>
</g>
</g>
</svg>
