<?xml version="1.0" encoding="UTF-8" standalone="no"?>
<!DOCTYPE svg PUBLIC "-//W3C//DTD SVG 1.1//EN"
 "http://www.w3.org/Graphics/SVG/1.1/DTD/svg11.dtd">
<!-- Generated by graphviz version 2.40.1 (20161225.0304)
 -->
<!-- Title: GridWorld::fromCoord Pages: 1 -->
<svg width="1233pt" height="362pt"
 viewBox="0.00 0.00 1233.00 362.00" xmlns="http://www.w3.org/2000/svg" xmlns:xlink="http://www.w3.org/1999/xlink">
<g id="graph0" class="graph" transform="scale(1 1) rotate(0) translate(4 358)">
<title>GridWorld::fromCoord</title>
<!-- Node45 -->
<g id="node1" class="node">
<title>Node45</title>
<polygon fill="#bfbfbf" stroke="#000000" points="0,-227.5 0,-246.5 123,-246.5 123,-227.5 0,-227.5"/>
<text text-anchor="middle" x="61.5" y="-234.5" font-family="Helvetica,sans-Serif" font-size="10.00" fill="#000000">GridWorld::fromCoord</text>
</g>
<!-- Node46 -->
<g id="node2" class="node">
<title>Node46</title>
<g id="a_node2"><a xlink:href="classGridWorld.html#afb39acf3fcb5c3f62adea9668a035445" target="_top" xlink:title="Gets the q value of action a on state s ">
<polygon fill="none" stroke="#000000" points="547,-230.5 547,-249.5 676,-249.5 676,-230.5 547,-230.5"/>
<text text-anchor="middle" x="611.5" y="-237.5" font-family="Helvetica,sans-Serif" font-size="10.00" fill="#000000">GridWorld::actionValue</text>
</a>
</g>
</g>
<!-- Node45&#45;&gt;Node46 -->
<g id="edge1" class="edge">
<title>Node45&#45;&gt;Node46</title>
<path fill="none" stroke="#191970" d="M133.0228,-246.759C221.8255,-257.4356 377.8579,-271.4751 511,-259 530.8011,-257.1447 552.5126,-253.2761 570.6728,-249.5109"/>
<polygon fill="#191970" stroke="#191970" points="133.4111,-243.2805 123.0603,-245.5413 132.5617,-250.2288 133.4111,-243.2805"/>
</g>
<!-- Node49 -->
<g id="node5" class="node">
<title>Node49</title>
<g id="a_node5"><a xlink:href="classGridWorld.html#add6d00c0d2eec4d16706a19b0527bba5" target="_top" xlink:title="Policy iteration method. ">
<polygon fill="none" stroke="#000000" points="1083,-173.5 1083,-192.5 1225,-192.5 1225,-173.5 1083,-173.5"/>
<text text-anchor="middle" x="1154" y="-180.5" font-family="Helvetica,sans-Serif" font-size="10.00" fill="#000000">GridWorld::policyIteration</text>
</a>
</g>
</g>
<!-- Node45&#45;&gt;Node49 -->
<g id="edge22" class="edge">
<title>Node45&#45;&gt;Node49</title>
<path fill="none" stroke="#191970" d="M84.0214,-252.1347C103.2227,-264.4315 131.9351,-281.4161 159,-292 270.6437,-335.659 301.6233,-354 421.5,-354 421.5,-354 421.5,-354 786.5,-354 940.6121,-354 1099.9944,-228.8576 1142.8465,-192.6837"/>
<polygon fill="#191970" stroke="#191970" points="85.6975,-249.0494 75.4083,-246.5232 81.8764,-254.9145 85.6975,-249.0494"/>
</g>
<!-- Node50 -->
<g id="node6" class="node">
<title>Node50</title>
<g id="a_node6"><a xlink:href="classGridWorld.html#a0d5cada9fc611efc747722223c97e8e5" target="_top" xlink:title="Value iteration method. ">
<polygon fill="none" stroke="#000000" points="1084,-47.5 1084,-66.5 1224,-66.5 1224,-47.5 1084,-47.5"/>
<text text-anchor="middle" x="1154" y="-54.5" font-family="Helvetica,sans-Serif" font-size="10.00" fill="#000000">GridWorld::valueIteration</text>
</a>
</g>
</g>
<!-- Node45&#45;&gt;Node50 -->
<g id="edge23" class="edge">
<title>Node45&#45;&gt;Node50</title>
<path fill="none" stroke="#191970" d="M72.1442,-218.4501C88.0596,-192.1245 120.3591,-143.8182 159,-114 259.6977,-36.2941 294.3064,0 421.5,0 421.5,0 421.5,0 786.5,0 908.8506,0 1051.4355,-31.233 1117.2567,-47.4595"/>
<polygon fill="#191970" stroke="#191970" points="68.942,-216.9893 66.8676,-227.3791 74.9684,-220.5506 68.942,-216.9893"/>
</g>
<!-- Node51 -->
<g id="node7" class="node">
<title>Node51</title>
<g id="a_node7"><a xlink:href="classGridWorld.html#a5ee28286d5b619b0cf046b83f7d8ee7c" target="_top" xlink:title="Iterative policy evaluation implemented as decribed in Sutton and Barto, 2017. ">
<polygon fill="none" stroke="#000000" points="715.5,-225 715.5,-255 857.5,-255 857.5,-225 715.5,-225"/>
<text text-anchor="start" x="723.5" y="-243" font-family="Helvetica,sans-Serif" font-size="10.00" fill="#000000">GridWorld::iterativePolicy</text>
<text text-anchor="middle" x="786.5" y="-232" font-family="Helvetica,sans-Serif" font-size="10.00" fill="#000000">Evaluation</text>
</a>
</g>
</g>
<!-- Node45&#45;&gt;Node51 -->
<g id="edge15" class="edge">
<title>Node45&#45;&gt;Node51</title>
<path fill="none" stroke="#191970" d="M93.7863,-250.147C112.4973,-257.1158 136.6975,-265.0361 159,-269 385.2746,-309.2169 448.2234,-289.5841 676,-259 688.733,-257.2903 702.2452,-255.1993 715.2884,-253.0372"/>
<polygon fill="#191970" stroke="#191970" points="94.8632,-246.8117 84.2726,-246.5104 92.3637,-253.3503 94.8632,-246.8117"/>
</g>
<!-- Node52 -->
<g id="node8" class="node">
<title>Node52</title>
<g id="a_node8"><a xlink:href="classGridWorld.html#a9dfe466eee829e7d1b8315b789078be9" target="_top" xlink:title="GridWorld::prettifyPolicy">
<polygon fill="none" stroke="#000000" points="159,-123.5 159,-142.5 296,-142.5 296,-123.5 159,-123.5"/>
<text text-anchor="middle" x="227.5" y="-130.5" font-family="Helvetica,sans-Serif" font-size="10.00" fill="#000000">GridWorld::prettifyPolicy</text>
</a>
</g>
</g>
<!-- Node45&#45;&gt;Node52 -->
<g id="edge9" class="edge">
<title>Node45&#45;&gt;Node52</title>
<path fill="none" stroke="#191970" d="M85.3757,-222.0417C120.0123,-200.3417 183.2172,-160.7434 212.2177,-142.5745"/>
<polygon fill="#191970" stroke="#191970" points="83.4354,-219.1271 76.8193,-227.4023 87.1518,-225.0591 83.4354,-219.1271"/>
</g>
<!-- Node56 -->
<g id="node12" class="node">
<title>Node56</title>
<g id="a_node12"><a xlink:href="classGridWorld.html#aee5066a1ae4ad067c4ac846c6ed15dea" target="_top" xlink:title="Returns the next state that results from applying an action to a state. ">
<polygon fill="none" stroke="#000000" points="163,-186.5 163,-205.5 292,-205.5 292,-186.5 163,-186.5"/>
<text text-anchor="middle" x="227.5" y="-193.5" font-family="Helvetica,sans-Serif" font-size="10.00" fill="#000000">GridWorld::applyAction</text>
</a>
</g>
</g>
<!-- Node45&#45;&gt;Node56 -->
<g id="edge16" class="edge">
<title>Node45&#45;&gt;Node56</title>
<path fill="none" stroke="#191970" d="M109.7273,-225.0884C134.9138,-218.8677 165.3151,-211.3589 188.9206,-205.5286"/>
<polygon fill="#191970" stroke="#191970" points="108.87,-221.6949 100.001,-227.4907 110.5485,-228.4907 108.87,-221.6949"/>
</g>
<!-- Node47 -->
<g id="node3" class="node">
<title>Node47</title>
<g id="a_node3"><a xlink:href="classGridWorld.html#ab2473dfcba808923e74ef5e41c815293" target="_top" xlink:title="Gets the q values of all actions for a given state. ">
<polygon fill="none" stroke="#000000" points="712,-93 712,-123 861,-123 861,-93 712,-93"/>
<text text-anchor="start" x="720" y="-111" font-family="Helvetica,sans-Serif" font-size="10.00" fill="#000000">GridWorld::actionValuesFor</text>
<text text-anchor="middle" x="786.5" y="-100" font-family="Helvetica,sans-Serif" font-size="10.00" fill="#000000">State</text>
</a>
</g>
</g>
<!-- Node46&#45;&gt;Node47 -->
<g id="edge2" class="edge">
<title>Node46&#45;&gt;Node47</title>
<path fill="none" stroke="#191970" d="M632.6795,-224.0246C666.7581,-198.3196 733.2997,-148.1282 766.5671,-123.0351"/>
<polygon fill="#191970" stroke="#191970" points="630.2441,-221.4776 624.3682,-230.2937 634.4594,-227.0661 630.2441,-221.4776"/>
</g>
<!-- Node46&#45;&gt;Node51 -->
<g id="edge7" class="edge">
<title>Node46&#45;&gt;Node51</title>
<path fill="none" stroke="#191970" d="M686.4553,-240C696.032,-240 705.8134,-240 715.3277,-240"/>
<polygon fill="#191970" stroke="#191970" points="686.1664,-236.5001 676.1663,-240 686.1663,-243.5001 686.1664,-236.5001"/>
</g>
<!-- Node48 -->
<g id="node4" class="node">
<title>Node48</title>
<g id="a_node4"><a xlink:href="classGridWorld.html#a5b720f7017beff840503f77c25da2586" target="_top" xlink:title="Creates a new policy for a given state giving preference to the actions with maximum value...">
<polygon fill="none" stroke="#000000" points="897,-104.5 897,-123.5 1047,-123.5 1047,-104.5 897,-104.5"/>
<text text-anchor="middle" x="972" y="-111.5" font-family="Helvetica,sans-Serif" font-size="10.00" fill="#000000">GridWorld::policyIncrement</text>
</a>
</g>
</g>
<!-- Node47&#45;&gt;Node48 -->
<g id="edge3" class="edge">
<title>Node47&#45;&gt;Node48</title>
<path fill="none" stroke="#191970" d="M871.165,-110.7385C879.7495,-111.0162 888.427,-111.2968 896.9005,-111.5709"/>
<polygon fill="#191970" stroke="#191970" points="871.2561,-107.2397 861.1481,-110.4145 871.0297,-114.236 871.2561,-107.2397"/>
</g>
<!-- Node47&#45;&gt;Node50 -->
<g id="edge6" class="edge">
<title>Node47&#45;&gt;Node50</title>
<path fill="none" stroke="#191970" d="M871.5363,-96.199C936.5441,-87.1776 1024.9949,-74.9027 1085.4946,-66.5069"/>
<polygon fill="#191970" stroke="#191970" points="870.736,-92.7765 861.3121,-97.6179 871.6983,-99.71 870.736,-92.7765"/>
</g>
<!-- Node48&#45;&gt;Node49 -->
<g id="edge4" class="edge">
<title>Node48&#45;&gt;Node49</title>
<path fill="none" stroke="#191970" d="M1013.7004,-126.6227C1024.6033,-130.1195 1036.298,-134.046 1047,-138 1077.2455,-149.1745 1111.481,-163.959 1132.9044,-173.4759"/>
<polygon fill="#191970" stroke="#191970" points="1014.5513,-123.2211 1003.9613,-123.5438 1012.4411,-129.8955 1014.5513,-123.2211"/>
</g>
<!-- Node48&#45;&gt;Node50 -->
<g id="edge5" class="edge">
<title>Node48&#45;&gt;Node50</title>
<path fill="none" stroke="#191970" d="M1012.4097,-101.3442C1045.959,-90.837 1092.9554,-76.1184 1123.4379,-66.5716"/>
<polygon fill="#191970" stroke="#191970" points="1010.9596,-98.1307 1002.4627,-104.4595 1013.0517,-104.8107 1010.9596,-98.1307"/>
</g>
<!-- Node51&#45;&gt;Node49 -->
<g id="edge8" class="edge">
<title>Node51&#45;&gt;Node49</title>
<path fill="none" stroke="#191970" d="M868.0242,-227.3554C935.9108,-216.8261 1031.1022,-202.0617 1092.6642,-192.5133"/>
<polygon fill="#191970" stroke="#191970" points="867.1388,-223.9508 857.7934,-228.9422 868.2118,-230.8681 867.1388,-223.9508"/>
</g>
<!-- Node52&#45;&gt;Node49 -->
<g id="edge10" class="edge">
<title>Node52&#45;&gt;Node49</title>
<path fill="none" stroke="#191970" d="M256.7564,-119.2374C277.2994,-110.3591 305.6953,-99.6342 332,-95 410.349,-81.1969 431.7738,-87.7688 511,-95 601.4583,-103.2564 622.1649,-118.5643 712,-132 842.4454,-151.5094 995.515,-167.6823 1082.9961,-176.2903"/>
<polygon fill="#191970" stroke="#191970" points="255.0672,-116.1578 247.3461,-123.4127 257.9062,-122.5562 255.0672,-116.1578"/>
</g>
<!-- Node52&#45;&gt;Node50 -->
<g id="edge11" class="edge">
<title>Node52&#45;&gt;Node50</title>
<path fill="none" stroke="#191970" d="M252.6769,-118.4201C273.34,-107.0846 303.7006,-91.8457 332,-83 452.092,-45.4622 485.6781,-38 611.5,-38 611.5,-38 611.5,-38 786.5,-38 890.1571,-38 1010.0413,-45.6321 1083.9456,-51.222"/>
<polygon fill="#191970" stroke="#191970" points="250.9324,-115.3854 243.9077,-123.3166 254.3451,-121.4972 250.9324,-115.3854"/>
</g>
<!-- Node53 -->
<g id="node9" class="node">
<title>Node53</title>
<g id="a_node9"><a xlink:href="classGridWorld.html#a03586ebfa410ea0617103c70ce5b08cb" target="_top" xlink:title="Monte Carlo Estimating Starts algorithm for finding an optimal policy. ">
<polygon fill="none" stroke="#000000" points="332,-181 332,-211 511,-211 511,-181 332,-181"/>
<text text-anchor="start" x="340" y="-199" font-family="Helvetica,sans-Serif" font-size="10.00" fill="#000000">GridWorld::MonteCarloEstimating</text>
<text text-anchor="middle" x="421.5" y="-188" font-family="Helvetica,sans-Serif" font-size="10.00" fill="#000000">Starts</text>
</a>
</g>
</g>
<!-- Node52&#45;&gt;Node53 -->
<g id="edge12" class="edge">
<title>Node52&#45;&gt;Node53</title>
<path fill="none" stroke="#191970" d="M261.6751,-146.1749C281.9772,-153.8138 308.3057,-163.3949 332,-171 342.5992,-174.402 353.9867,-177.7863 364.9675,-180.9152"/>
<polygon fill="#191970" stroke="#191970" points="262.8221,-142.8668 252.2307,-142.5981 260.3429,-149.413 262.8221,-142.8668"/>
</g>
<!-- Node54 -->
<g id="node10" class="node">
<title>Node54</title>
<g id="a_node10"><a xlink:href="classGridWorld.html#ad1c7b6d4e864ef8e8aca9163c2d8cd86" target="_top" xlink:title="Temporal difference method for finding the optimal policy using SARSA. ">
<polygon fill="none" stroke="#000000" points="372.5,-142.5 372.5,-161.5 470.5,-161.5 470.5,-142.5 372.5,-142.5"/>
<text text-anchor="middle" x="421.5" y="-149.5" font-family="Helvetica,sans-Serif" font-size="10.00" fill="#000000">GridWorld::Sarsa</text>
</a>
</g>
</g>
<!-- Node52&#45;&gt;Node54 -->
<g id="edge13" class="edge">
<title>Node52&#45;&gt;Node54</title>
<path fill="none" stroke="#191970" d="M306.3322,-140.7207C328.6931,-142.9107 352.3899,-145.2315 372.4374,-147.1949"/>
<polygon fill="#191970" stroke="#191970" points="306.4637,-137.2169 296.1702,-139.7254 305.7814,-144.1836 306.4637,-137.2169"/>
</g>
<!-- Node55 -->
<g id="node11" class="node">
<title>Node55</title>
<g id="a_node11"><a xlink:href="classGridWorld.html#abdbd7b78344fe0db7dbdd4f55d8ace70" target="_top" xlink:title="Temporal difference method for finding the optimal policy using Q&#45;Learning. ">
<polygon fill="none" stroke="#000000" points="361,-104.5 361,-123.5 482,-123.5 482,-104.5 361,-104.5"/>
<text text-anchor="middle" x="421.5" y="-111.5" font-family="Helvetica,sans-Serif" font-size="10.00" fill="#000000">GridWorld::QLearning</text>
</a>
</g>
</g>
<!-- Node52&#45;&gt;Node55 -->
<g id="edge14" class="edge">
<title>Node52&#45;&gt;Node55</title>
<path fill="none" stroke="#191970" d="M306.2092,-125.2914C324.477,-123.5023 343.6428,-121.6252 360.9868,-119.9266"/>
<polygon fill="#191970" stroke="#191970" points="305.7814,-121.8164 296.1702,-126.2746 306.4637,-128.7831 305.7814,-121.8164"/>
</g>
<!-- Node56&#45;&gt;Node53 -->
<g id="edge19" class="edge">
<title>Node56&#45;&gt;Node53</title>
<path fill="none" stroke="#191970" d="M302.1397,-196C311.9027,-196 321.9853,-196 331.962,-196"/>
<polygon fill="#191970" stroke="#191970" points="302.0992,-192.5001 292.0992,-196 302.0992,-199.5001 302.0992,-192.5001"/>
</g>
<!-- Node56&#45;&gt;Node54 -->
<g id="edge20" class="edge">
<title>Node56&#45;&gt;Node54</title>
<path fill="none" stroke="#191970" d="M276.6253,-183.9732C294.0861,-179.7712 313.8987,-175.0859 332,-171 346.1001,-167.8173 361.485,-164.4965 375.4595,-161.5379"/>
<polygon fill="#191970" stroke="#191970" points="275.5459,-180.6332 266.6472,-186.3833 277.1894,-187.4376 275.5459,-180.6332"/>
</g>
<!-- Node56&#45;&gt;Node55 -->
<g id="edge21" class="edge">
<title>Node56&#45;&gt;Node55</title>
<path fill="none" stroke="#191970" d="M250.8504,-180.671C276.303,-164.1899 315.5906,-139.4754 332,-133 341.7519,-129.1517 352.4243,-126.0249 362.8944,-123.5032"/>
<polygon fill="#191970" stroke="#191970" points="248.6397,-177.9337 242.167,-186.3214 252.4577,-183.8008 248.6397,-177.9337"/>
</g>
<!-- Node57 -->
<g id="node13" class="node">
<title>Node57</title>
<g id="a_node13"><a xlink:href="classGridWorld.html#aaf8d964cddf2d838737d0707481ad792" target="_top" xlink:title="Returns the transition probability to nextState, given currentState and action ">
<polygon fill="none" stroke="#000000" points="362.5,-230.5 362.5,-249.5 480.5,-249.5 480.5,-230.5 362.5,-230.5"/>
<text text-anchor="middle" x="421.5" y="-237.5" font-family="Helvetica,sans-Serif" font-size="10.00" fill="#000000">GridWorld::transition</text>
</a>
</g>
</g>
<!-- Node56&#45;&gt;Node57 -->
<g id="edge17" class="edge">
<title>Node56&#45;&gt;Node57</title>
<path fill="none" stroke="#191970" d="M276.6253,-208.0268C294.0861,-212.2288 313.8987,-216.9141 332,-221 346.1001,-224.1827 361.485,-227.5035 375.4595,-230.4621"/>
<polygon fill="#191970" stroke="#191970" points="277.1894,-204.5624 266.6472,-205.6167 275.5459,-211.3668 277.1894,-204.5624"/>
</g>
<!-- Node57&#45;&gt;Node46 -->
<g id="edge18" class="edge">
<title>Node57&#45;&gt;Node46</title>
<path fill="none" stroke="#191970" d="M490.6133,-240C508.9743,-240 528.732,-240 546.8453,-240"/>
<polygon fill="#191970" stroke="#191970" points="490.5757,-236.5001 480.5757,-240 490.5756,-243.5001 490.5757,-236.5001"/>
</g>
</g>
</svg>
