<?xml version="1.0" encoding="UTF-8" standalone="no"?>
<!DOCTYPE svg PUBLIC "-//W3C//DTD SVG 1.1//EN"
 "http://www.w3.org/Graphics/SVG/1.1/DTD/svg11.dtd">
<!-- Generated by graphviz version 2.40.1 (20161225.0304)
 -->
<!-- Title: LDA Pages: 1 -->
<svg width="138pt" height="237pt"
 viewBox="0.00 0.00 137.50 237.00" xmlns="http://www.w3.org/2000/svg" xmlns:xlink="http://www.w3.org/1999/xlink">
<g id="graph0" class="graph" transform="scale(1 1) rotate(0) translate(4 233)">
<title>LDA</title>
<!-- Node1 -->
<g id="node1" class="node">
<title>Node1</title>
<polygon fill="#bfbfbf" stroke="#000000" points="0,-.5 0,-79.5 83,-79.5 83,-.5 0,-.5"/>
<text text-anchor="middle" x="41.5" y="-67.5" font-family="Helvetica,sans-Serif" font-size="10.00" fill="#000000">LDA</text>
<polyline fill="none" stroke="#000000" points="0,-60.5 83,-60.5 "/>
<text text-anchor="middle" x="41.5" y="-48.5" font-family="Helvetica,sans-Serif" font-size="10.00" fill="#000000"> </text>
<polyline fill="none" stroke="#000000" points="0,-41.5 83,-41.5 "/>
<text text-anchor="start" x="8" y="-29.5" font-family="Helvetica,sans-Serif" font-size="10.00" fill="#000000">+ LDA()</text>
<text text-anchor="start" x="8" y="-18.5" font-family="Helvetica,sans-Serif" font-size="10.00" fill="#000000">+ fit()</text>
<text text-anchor="start" x="8" y="-7.5" font-family="Helvetica,sans-Serif" font-size="10.00" fill="#000000">+ transform()</text>
</g>
<!-- Node2 -->
<g id="node2" class="node">
<title>Node2</title>
<polygon fill="none" stroke="#bfbfbf" points="14,-171.5 14,-228.5 69,-228.5 69,-171.5 14,-171.5"/>
<text text-anchor="middle" x="41.5" y="-216.5" font-family="Helvetica,sans-Serif" font-size="10.00" fill="#000000">MatrixD</text>
<polyline fill="none" stroke="#bfbfbf" points="14,-209.5 69,-209.5 "/>
<text text-anchor="middle" x="41.5" y="-197.5" font-family="Helvetica,sans-Serif" font-size="10.00" fill="#000000"> </text>
<polyline fill="none" stroke="#bfbfbf" points="14,-190.5 69,-190.5 "/>
<text text-anchor="middle" x="41.5" y="-178.5" font-family="Helvetica,sans-Serif" font-size="10.00" fill="#000000"> </text>
</g>
<!-- Node2&#45;&gt;Node1 -->
<g id="edge1" class="edge">
<title>Node2&#45;&gt;Node1</title>
<path fill="none" stroke="#404040" d="M41.5,-171.3952C41.5,-149.3577 41.5,-118.2968 41.5,-91.9075"/>
<polygon fill="none" stroke="#404040" points="41.5001,-91.7754 37.5,-85.7755 41.5,-79.7754 45.5,-85.7754 41.5001,-91.7754"/>
<text text-anchor="middle" x="85.5" y="-145" font-family="Helvetica,sans-Serif" font-size="10.00" fill="#000000"> &#45;eigenvalues</text>
<text text-anchor="middle" x="85.5" y="-134" font-family="Helvetica,sans-Serif" font-size="10.00" fill="#000000">&#45;transformedData</text>
<text text-anchor="middle" x="85.5" y="-123" font-family="Helvetica,sans-Serif" font-size="10.00" fill="#000000">&#45;y</text>
<text text-anchor="middle" x="85.5" y="-112" font-family="Helvetica,sans-Serif" font-size="10.00" fill="#000000">&#45;X</text>
<text text-anchor="middle" x="85.5" y="-101" font-family="Helvetica,sans-Serif" font-size="10.00" fill="#000000">&#45;eigenvectors</text>
</g>
</g>
</svg>
