<?xml version="1.0" encoding="UTF-8" standalone="no"?>
<!DOCTYPE svg PUBLIC "-//W3C//DTD SVG 1.1//EN"
 "http://www.w3.org/Graphics/SVG/1.1/DTD/svg11.dtd">
<!-- Generated by graphviz version 2.40.1 (20161225.0304)
 -->
<!-- Title: GridWorld::normalizeToOne Pages: 1 -->
<svg width="743pt" height="192pt"
 viewBox="0.00 0.00 743.00 192.00" xmlns="http://www.w3.org/2000/svg" xmlns:xlink="http://www.w3.org/1999/xlink">
<g id="graph0" class="graph" transform="scale(1 1) rotate(0) translate(4 188)">
<title>GridWorld::normalizeToOne</title>
<!-- Node132 -->
<g id="node1" class="node">
<title>Node132</title>
<polygon fill="#bfbfbf" stroke="#000000" points="0,-88.5 0,-107.5 152,-107.5 152,-88.5 0,-88.5"/>
<text text-anchor="middle" x="76" y="-95.5" font-family="Helvetica,sans-Serif" font-size="10.00" fill="#000000">GridWorld::normalizeToOne</text>
</g>
<!-- Node133 -->
<g id="node2" class="node">
<title>Node133</title>
<g id="a_node2"><a xlink:href="classGridWorld.html#a5b720f7017beff840503f77c25da2586" target="_top" xlink:title="Creates a new policy for a given state giving preference to the actions with maximum value...">
<polygon fill="none" stroke="#000000" points="367.5,-126.5 367.5,-145.5 517.5,-145.5 517.5,-126.5 367.5,-126.5"/>
<text text-anchor="middle" x="442.5" y="-133.5" font-family="Helvetica,sans-Serif" font-size="10.00" fill="#000000">GridWorld::policyIncrement</text>
</a>
</g>
</g>
<!-- Node132&#45;&gt;Node133 -->
<g id="edge1" class="edge">
<title>Node132&#45;&gt;Node133</title>
<path fill="none" stroke="#191970" d="M162.2559,-102.5287C211.2572,-105.589 273.6828,-110.3068 329,-117 349.6278,-119.4959 372.2274,-123.0996 391.7924,-126.4991"/>
<polygon fill="#191970" stroke="#191970" points="162.2062,-99.0192 152.0107,-101.9007 161.7778,-106.0061 162.2062,-99.0192"/>
</g>
<!-- Node136 -->
<g id="node5" class="node">
<title>Node136</title>
<g id="a_node5"><a xlink:href="classGridWorld.html#a483bf6d05d61a8e14f0fab04273d8593" target="_top" xlink:title="Gets the policy for state s ">
<polygon fill="none" stroke="#000000" points="188,-126.5 188,-145.5 329,-145.5 329,-126.5 188,-126.5"/>
<text text-anchor="middle" x="258.5" y="-133.5" font-family="Helvetica,sans-Serif" font-size="10.00" fill="#000000">GridWorld::policyForState</text>
</a>
</g>
</g>
<!-- Node132&#45;&gt;Node136 -->
<g id="edge4" class="edge">
<title>Node132&#45;&gt;Node136</title>
<path fill="none" stroke="#191970" d="M132.0995,-109.681C157.9804,-115.0699 188.3146,-121.3861 212.7787,-126.4799"/>
<polygon fill="#191970" stroke="#191970" points="132.556,-106.201 122.0525,-107.589 131.129,-113.0541 132.556,-106.201"/>
</g>
<!-- Node141 -->
<g id="node10" class="node">
<title>Node141</title>
<g id="a_node10"><a xlink:href="classGridWorld.html#a4b12faf8f8641b38927715622a2852c2" target="_top" xlink:title="Updates the policy matrix according to the action values from the Q matrix. ">
<polygon fill="none" stroke="#000000" points="365,-36 365,-66 520,-66 520,-36 365,-36"/>
<text text-anchor="start" x="373" y="-54" font-family="Helvetica,sans-Serif" font-size="10.00" fill="#000000">GridWorld::getOptimalPolicy</text>
<text text-anchor="middle" x="442.5" y="-43" font-family="Helvetica,sans-Serif" font-size="10.00" fill="#000000">FromQ</text>
</a>
</g>
</g>
<!-- Node132&#45;&gt;Node141 -->
<g id="edge13" class="edge">
<title>Node132&#45;&gt;Node141</title>
<path fill="none" stroke="#191970" d="M160.2582,-87.1947C221.9177,-79.2875 304.9423,-68.6404 364.9673,-60.9428"/>
<polygon fill="#191970" stroke="#191970" points="159.6403,-83.7452 150.1667,-88.4888 160.5307,-90.6883 159.6403,-83.7452"/>
</g>
<!-- Node134 -->
<g id="node3" class="node">
<title>Node134</title>
<g id="a_node3"><a xlink:href="classGridWorld.html#add6d00c0d2eec4d16706a19b0527bba5" target="_top" xlink:title="Policy iteration method. ">
<polygon fill="none" stroke="#000000" points="574.5,-164.5 574.5,-183.5 716.5,-183.5 716.5,-164.5 574.5,-164.5"/>
<text text-anchor="middle" x="645.5" y="-171.5" font-family="Helvetica,sans-Serif" font-size="10.00" fill="#000000">GridWorld::policyIteration</text>
</a>
</g>
</g>
<!-- Node133&#45;&gt;Node134 -->
<g id="edge2" class="edge">
<title>Node133&#45;&gt;Node134</title>
<path fill="none" stroke="#191970" d="M503.4968,-147.4181C532.5425,-152.8552 566.8816,-159.2832 594.5156,-164.4561"/>
<polygon fill="#191970" stroke="#191970" points="503.9367,-143.9398 493.4634,-145.54 502.6487,-150.8202 503.9367,-143.9398"/>
</g>
<!-- Node135 -->
<g id="node4" class="node">
<title>Node135</title>
<g id="a_node4"><a xlink:href="classGridWorld.html#a0d5cada9fc611efc747722223c97e8e5" target="_top" xlink:title="Value iteration method. ">
<polygon fill="none" stroke="#000000" points="575.5,-126.5 575.5,-145.5 715.5,-145.5 715.5,-126.5 575.5,-126.5"/>
<text text-anchor="middle" x="645.5" y="-133.5" font-family="Helvetica,sans-Serif" font-size="10.00" fill="#000000">GridWorld::valueIteration</text>
</a>
</g>
</g>
<!-- Node133&#45;&gt;Node135 -->
<g id="edge3" class="edge">
<title>Node133&#45;&gt;Node135</title>
<path fill="none" stroke="#191970" d="M527.791,-136C543.5744,-136 559.8945,-136 575.1713,-136"/>
<polygon fill="#191970" stroke="#191970" points="527.513,-132.5001 517.513,-136 527.5129,-139.5001 527.513,-132.5001"/>
</g>
<!-- Node136&#45;&gt;Node133 -->
<g id="edge5" class="edge">
<title>Node136&#45;&gt;Node133</title>
<path fill="none" stroke="#191970" d="M339.2276,-136C348.6239,-136 358.1795,-136 367.4943,-136"/>
<polygon fill="#191970" stroke="#191970" points="339.113,-132.5001 329.113,-136 339.1129,-139.5001 339.113,-132.5001"/>
</g>
<!-- Node136&#45;&gt;Node134 -->
<g id="edge12" class="edge">
<title>Node136&#45;&gt;Node134</title>
<path fill="none" stroke="#191970" d="M315.7357,-147.3925C331.6353,-150.2346 348.9434,-153.0299 365,-155 435.9737,-163.7085 517.5761,-168.6721 574.3994,-171.325"/>
<polygon fill="#191970" stroke="#191970" points="315.9841,-143.88 305.518,-145.5262 314.7263,-150.7661 315.9841,-143.88"/>
</g>
<!-- Node137 -->
<g id="node6" class="node">
<title>Node137</title>
<g id="a_node6"><a xlink:href="classGridWorld.html#a9dfe466eee829e7d1b8315b789078be9" target="_top" xlink:title="GridWorld::prettifyPolicy">
<polygon fill="none" stroke="#000000" points="374,-85.5 374,-104.5 511,-104.5 511,-85.5 374,-85.5"/>
<text text-anchor="middle" x="442.5" y="-92.5" font-family="Helvetica,sans-Serif" font-size="10.00" fill="#000000">GridWorld::prettifyPolicy</text>
</a>
</g>
</g>
<!-- Node136&#45;&gt;Node137 -->
<g id="edge6" class="edge">
<title>Node136&#45;&gt;Node137</title>
<path fill="none" stroke="#191970" d="M311.2169,-124.2533C339.2773,-118.0007 373.3406,-110.4105 399.7373,-104.5286"/>
<polygon fill="#191970" stroke="#191970" points="310.1752,-120.8995 301.1758,-126.4907 311.6977,-127.7319 310.1752,-120.8995"/>
</g>
<!-- Node137&#45;&gt;Node134 -->
<g id="edge7" class="edge">
<title>Node137&#45;&gt;Node134</title>
<path fill="none" stroke="#191970" d="M501.0514,-107.92C507.668,-110.4472 514.1321,-113.4466 520,-117 539.9,-129.0509 535.7052,-143.6266 556,-155 562.9284,-158.8828 570.5646,-161.9736 578.3677,-164.4338"/>
<polygon fill="#191970" stroke="#191970" points="501.8947,-104.5083 491.2999,-104.5457 499.6056,-111.1234 501.8947,-104.5083"/>
</g>
<!-- Node137&#45;&gt;Node135 -->
<g id="edge8" class="edge">
<title>Node137&#45;&gt;Node135</title>
<path fill="none" stroke="#191970" d="M499.442,-106.5006C530.628,-112.7993 568.816,-120.5121 598.3216,-126.4714"/>
<polygon fill="#191970" stroke="#191970" points="500.0775,-103.0584 489.5825,-104.5093 498.6917,-109.9198 500.0775,-103.0584"/>
</g>
<!-- Node138 -->
<g id="node7" class="node">
<title>Node138</title>
<g id="a_node7"><a xlink:href="classGridWorld.html#a03586ebfa410ea0617103c70ce5b08cb" target="_top" xlink:title="Monte Carlo Estimating Starts algorithm for finding an optimal policy. ">
<polygon fill="none" stroke="#000000" points="556,-77 556,-107 735,-107 735,-77 556,-77"/>
<text text-anchor="start" x="564" y="-95" font-family="Helvetica,sans-Serif" font-size="10.00" fill="#000000">GridWorld::MonteCarloEstimating</text>
<text text-anchor="middle" x="645.5" y="-84" font-family="Helvetica,sans-Serif" font-size="10.00" fill="#000000">Starts</text>
</a>
</g>
</g>
<!-- Node137&#45;&gt;Node138 -->
<g id="edge9" class="edge">
<title>Node137&#45;&gt;Node138</title>
<path fill="none" stroke="#191970" d="M521.4808,-93.8328C532.7853,-93.6657 544.4824,-93.4929 555.9719,-93.3231"/>
<polygon fill="#191970" stroke="#191970" points="521.1737,-90.3369 511.2265,-93.9843 521.2772,-97.3361 521.1737,-90.3369"/>
</g>
<!-- Node139 -->
<g id="node8" class="node">
<title>Node139</title>
<g id="a_node8"><a xlink:href="classGridWorld.html#ad1c7b6d4e864ef8e8aca9163c2d8cd86" target="_top" xlink:title="Temporal difference method for finding the optimal policy using SARSA. ">
<polygon fill="none" stroke="#000000" points="596.5,-38.5 596.5,-57.5 694.5,-57.5 694.5,-38.5 596.5,-38.5"/>
<text text-anchor="middle" x="645.5" y="-45.5" font-family="Helvetica,sans-Serif" font-size="10.00" fill="#000000">GridWorld::Sarsa</text>
</a>
</g>
</g>
<!-- Node137&#45;&gt;Node139 -->
<g id="edge10" class="edge">
<title>Node137&#45;&gt;Node139</title>
<path fill="none" stroke="#191970" d="M489.7124,-82.9869C510.0693,-77.902 534.1699,-72.0085 556,-67 569.934,-63.8031 585.1325,-60.5057 598.9842,-57.5736"/>
<polygon fill="#191970" stroke="#191970" points="488.5924,-79.6593 479.7441,-85.4867 490.2951,-86.449 488.5924,-79.6593"/>
</g>
<!-- Node140 -->
<g id="node9" class="node">
<title>Node140</title>
<g id="a_node9"><a xlink:href="classGridWorld.html#abdbd7b78344fe0db7dbdd4f55d8ace70" target="_top" xlink:title="Temporal difference method for finding the optimal policy using Q&#45;Learning. ">
<polygon fill="none" stroke="#000000" points="585,-.5 585,-19.5 706,-19.5 706,-.5 585,-.5"/>
<text text-anchor="middle" x="645.5" y="-7.5" font-family="Helvetica,sans-Serif" font-size="10.00" fill="#000000">GridWorld::QLearning</text>
</a>
</g>
</g>
<!-- Node137&#45;&gt;Node140 -->
<g id="edge11" class="edge">
<title>Node137&#45;&gt;Node140</title>
<path fill="none" stroke="#191970" d="M507.7534,-81.6207C512.04,-79.7019 516.1689,-77.5081 520,-75 541.7204,-60.7803 533.9764,-42.7454 556,-29 564.6242,-23.6174 574.5301,-19.7387 584.5377,-16.9482"/>
<polygon fill="#191970" stroke="#191970" points="506.1916,-78.4742 498.1717,-85.3975 508.7586,-84.9866 506.1916,-78.4742"/>
</g>
<!-- Node141&#45;&gt;Node138 -->
<g id="edge14" class="edge">
<title>Node141&#45;&gt;Node138</title>
<path fill="none" stroke="#191970" d="M526.9752,-68.0615C541.6094,-71.0172 556.7297,-74.071 571.072,-76.9677"/>
<polygon fill="#191970" stroke="#191970" points="527.432,-64.5832 516.937,-66.0341 526.0462,-71.4446 527.432,-64.5832"/>
</g>
<!-- Node141&#45;&gt;Node139 -->
<g id="edge15" class="edge">
<title>Node141&#45;&gt;Node139</title>
<path fill="none" stroke="#191970" d="M530.1191,-49.7051C552.8285,-49.3695 576.4827,-49.02 596.4185,-48.7253"/>
<polygon fill="#191970" stroke="#191970" points="530.0617,-46.2055 520.1145,-49.853 530.1652,-53.2047 530.0617,-46.2055"/>
</g>
<!-- Node141&#45;&gt;Node140 -->
<g id="edge16" class="edge">
<title>Node141&#45;&gt;Node140</title>
<path fill="none" stroke="#191970" d="M526.9103,-33.9516C551.2622,-29.0333 576.9654,-23.842 598.1937,-19.5545"/>
<polygon fill="#191970" stroke="#191970" points="526.0462,-30.5554 516.937,-35.9659 527.432,-37.4168 526.0462,-30.5554"/>
</g>
</g>
</svg>
