<?xml version="1.0" encoding="UTF-8" standalone="no"?>
<!DOCTYPE svg PUBLIC "-//W3C//DTD SVG 1.1//EN"
 "http://www.w3.org/Graphics/SVG/1.1/DTD/svg11.dtd">
<!-- Generated by graphviz version 2.40.1 (20161225.0304)
 -->
<!-- Title: GridWorld::prettifyPolicy Pages: 1 -->
<svg width="510pt" height="104pt"
 viewBox="0.00 0.00 510.00 104.00" xmlns="http://www.w3.org/2000/svg" xmlns:xlink="http://www.w3.org/1999/xlink">
<g id="graph0" class="graph" transform="scale(1 1) rotate(0) translate(4 100)">
<title>GridWorld::prettifyPolicy</title>
<!-- Node180 -->
<g id="node1" class="node">
<title>Node180</title>
<polygon fill="#bfbfbf" stroke="#000000" points="0,-38.5 0,-57.5 137,-57.5 137,-38.5 0,-38.5"/>
<text text-anchor="middle" x="68.5" y="-45.5" font-family="Helvetica,sans-Serif" font-size="10.00" fill="#000000">GridWorld::prettifyPolicy</text>
</g>
<!-- Node181 -->
<g id="node2" class="node">
<title>Node181</title>
<g id="a_node2"><a xlink:href="classGridWorld.html#a5241a21b520fc8c9d4c0110de285aec1" target="_top" xlink:title="Transforms row x column coordinates from the grid world into a raster representation. ">
<polygon fill="none" stroke="#000000" points="182,-76.5 182,-95.5 305,-95.5 305,-76.5 182,-76.5"/>
<text text-anchor="middle" x="243.5" y="-83.5" font-family="Helvetica,sans-Serif" font-size="10.00" fill="#000000">GridWorld::fromCoord</text>
</a>
</g>
</g>
<!-- Node180&#45;&gt;Node181 -->
<g id="edge1" class="edge">
<title>Node180&#45;&gt;Node181</title>
<path fill="none" stroke="#191970" d="M112.6599,-57.589C136.0651,-62.6713 165.0053,-68.9554 189.7121,-74.3203"/>
<polygon fill="#191970" stroke="#191970" points="189.1427,-77.7782 199.6577,-76.4799 190.6281,-70.9376 189.1427,-77.7782"/>
</g>
<!-- Node182 -->
<g id="node3" class="node">
<title>Node182</title>
<g id="a_node3"><a xlink:href="classGridWorld.html#a202b7bda8938f3c641c2812dcc9b5ac1" target="_top" xlink:title="Informs whether a state is a goal state in the grid world. ">
<polygon fill="none" stroke="#000000" points="192.5,-38.5 192.5,-57.5 294.5,-57.5 294.5,-38.5 192.5,-38.5"/>
<text text-anchor="middle" x="243.5" y="-45.5" font-family="Helvetica,sans-Serif" font-size="10.00" fill="#000000">GridWorld::isGoal</text>
</a>
</g>
</g>
<!-- Node180&#45;&gt;Node182 -->
<g id="edge2" class="edge">
<title>Node180&#45;&gt;Node182</title>
<path fill="none" stroke="#191970" d="M137.1624,-48C151.9567,-48 167.5053,-48 182.0058,-48"/>
<polygon fill="#191970" stroke="#191970" points="182.3535,-51.5001 192.3534,-48 182.3534,-44.5001 182.3535,-51.5001"/>
</g>
<!-- Node184 -->
<g id="node5" class="node">
<title>Node184</title>
<g id="a_node5"><a xlink:href="classGridWorld.html#a483bf6d05d61a8e14f0fab04273d8593" target="_top" xlink:title="Gets the policy for state s ">
<polygon fill="none" stroke="#000000" points="173,-.5 173,-19.5 314,-19.5 314,-.5 173,-.5"/>
<text text-anchor="middle" x="243.5" y="-7.5" font-family="Helvetica,sans-Serif" font-size="10.00" fill="#000000">GridWorld::policyForState</text>
</a>
</g>
</g>
<!-- Node180&#45;&gt;Node184 -->
<g id="edge4" class="edge">
<title>Node180&#45;&gt;Node184</title>
<path fill="none" stroke="#191970" d="M112.6599,-38.411C136.0651,-33.3287 165.0053,-27.0446 189.7121,-21.6797"/>
<polygon fill="#191970" stroke="#191970" points="190.6281,-25.0624 199.6577,-19.5201 189.1427,-18.2218 190.6281,-25.0624"/>
</g>
<!-- Node183 -->
<g id="node4" class="node">
<title>Node183</title>
<g id="a_node4"><a xlink:href="classGridWorld.html#a03d2aaf35961c3e190e4b7ab12f76e4d" target="_top" xlink:title="Transforms a raster coordinate from the grid world into its corresponding row x column representation...">
<polygon fill="none" stroke="#000000" points="371,-38.5 371,-57.5 481,-57.5 481,-38.5 371,-38.5"/>
<text text-anchor="middle" x="426" y="-45.5" font-family="Helvetica,sans-Serif" font-size="10.00" fill="#000000">GridWorld::toCoord</text>
</a>
</g>
</g>
<!-- Node182&#45;&gt;Node183 -->
<g id="edge3" class="edge">
<title>Node182&#45;&gt;Node183</title>
<path fill="none" stroke="#191970" d="M294.8221,-48C315.3002,-48 339.1201,-48 360.7991,-48"/>
<polygon fill="#191970" stroke="#191970" points="360.9162,-51.5001 370.9162,-48 360.9162,-44.5001 360.9162,-51.5001"/>
</g>
<!-- Node185 -->
<g id="node6" class="node">
<title>Node185</title>
<g id="a_node6"><a xlink:href="classGridWorld.html#adf34e6f50b2369c06afdfc8c1ff70caf" target="_top" xlink:title="Normalizes a matriz so its sum equals 1. ">
<polygon fill="none" stroke="#000000" points="350,-.5 350,-19.5 502,-19.5 502,-.5 350,-.5"/>
<text text-anchor="middle" x="426" y="-7.5" font-family="Helvetica,sans-Serif" font-size="10.00" fill="#000000">GridWorld::normalizeToOne</text>
</a>
</g>
</g>
<!-- Node184&#45;&gt;Node185 -->
<g id="edge5" class="edge">
<title>Node184&#45;&gt;Node185</title>
<path fill="none" stroke="#191970" d="M314.0593,-10C322.4942,-10 331.1781,-10 339.8016,-10"/>
<polygon fill="#191970" stroke="#191970" points="339.8787,-13.5001 349.8787,-10 339.8786,-6.5001 339.8787,-13.5001"/>
</g>
</g>
</svg>
