<?xml version="1.0" encoding="UTF-8" standalone="no"?>
<!DOCTYPE svg PUBLIC "-//W3C//DTD SVG 1.1//EN"
 "http://www.w3.org/Graphics/SVG/1.1/DTD/svg11.dtd">
<!-- Generated by graphviz version 2.40.1 (20161225.0304)
 -->
<!-- Title: ClassifierUtils::f_score Pages: 1 -->
<svg width="654pt" height="118pt"
 viewBox="0.00 0.00 654.00 117.50" xmlns="http://www.w3.org/2000/svg" xmlns:xlink="http://www.w3.org/1999/xlink">
<g id="graph0" class="graph" transform="scale(1 1) rotate(0) translate(4 113.5)">
<title>ClassifierUtils::f_score</title>
<!-- Node27 -->
<g id="node1" class="node">
<title>Node27</title>
<polygon fill="#bfbfbf" stroke="#000000" points="0,-68 0,-98 95,-98 95,-68 0,-68"/>
<text text-anchor="start" x="8" y="-86" font-family="Helvetica,sans-Serif" font-size="10.00" fill="#000000">ClassifierUtils::f</text>
<text text-anchor="middle" x="47.5" y="-75" font-family="Helvetica,sans-Serif" font-size="10.00" fill="#000000">_score</text>
</g>
<!-- Node28 -->
<g id="node2" class="node">
<title>Node28</title>
<g id="a_node2"><a xlink:href="classClassifierUtils.html#ad1ba8941d76b6f251601f60a52321796" target="_top" xlink:title="ClassifierUtils::checkBinary\lLabels">
<polygon fill="none" stroke="#000000" points="302,-79 302,-109 453,-109 453,-79 302,-79"/>
<text text-anchor="start" x="310" y="-97" font-family="Helvetica,sans-Serif" font-size="10.00" fill="#000000">ClassifierUtils::checkBinary</text>
<text text-anchor="middle" x="377.5" y="-86" font-family="Helvetica,sans-Serif" font-size="10.00" fill="#000000">Labels</text>
</a>
</g>
</g>
<!-- Node27&#45;&gt;Node28 -->
<g id="edge1" class="edge">
<title>Node27&#45;&gt;Node28</title>
<path fill="none" stroke="#191970" d="M95.314,-95.8083C106.9087,-98.3776 119.3284,-100.6889 131,-102 184.1194,-107.9673 244.0505,-106.2121 291.5176,-102.8473"/>
<polygon fill="#191970" stroke="#191970" points="292.0457,-106.3177 301.7574,-102.083 291.5246,-99.3371 292.0457,-106.3177"/>
</g>
<!-- Node30 -->
<g id="node4" class="node">
<title>Node30</title>
<g id="a_node4"><a xlink:href="classClassifierUtils.html#a18942f9191e113a018041a5ab1f306a7" target="_top" xlink:title="ClassifierUtils::precision">
<polygon fill="none" stroke="#000000" points="131,-35.5 131,-54.5 266,-54.5 266,-35.5 131,-35.5"/>
<text text-anchor="middle" x="198.5" y="-42.5" font-family="Helvetica,sans-Serif" font-size="10.00" fill="#000000">ClassifierUtils::precision</text>
</a>
</g>
</g>
<!-- Node27&#45;&gt;Node30 -->
<g id="edge3" class="edge">
<title>Node27&#45;&gt;Node30</title>
<path fill="none" stroke="#191970" d="M95.2773,-70.9766C112.9008,-66.5415 132.8646,-61.5175 150.5071,-57.0777"/>
<polygon fill="#191970" stroke="#191970" points="151.7478,-60.3747 160.5912,-54.54 150.0394,-53.5863 151.7478,-60.3747"/>
</g>
<!-- Node34 -->
<g id="node8" class="node">
<title>Node34</title>
<g id="a_node8"><a xlink:href="classClassifierUtils.html#a08212d9c1e83aa241ae83a317c3dd2a0" target="_top" xlink:title="ClassifierUtils::recall">
<polygon fill="none" stroke="#000000" points="139.5,-73.5 139.5,-92.5 257.5,-92.5 257.5,-73.5 139.5,-73.5"/>
<text text-anchor="middle" x="198.5" y="-80.5" font-family="Helvetica,sans-Serif" font-size="10.00" fill="#000000">ClassifierUtils::recall</text>
</a>
</g>
</g>
<!-- Node27&#45;&gt;Node34 -->
<g id="edge9" class="edge">
<title>Node27&#45;&gt;Node34</title>
<path fill="none" stroke="#191970" d="M95.2773,-83C106.1034,-83 117.8125,-83 129.3241,-83"/>
<polygon fill="#191970" stroke="#191970" points="129.3625,-86.5001 139.3625,-83 129.3624,-79.5001 129.3625,-86.5001"/>
</g>
<!-- Node29 -->
<g id="node3" class="node">
<title>Node29</title>
<g id="a_node3"><a xlink:href="classClassifierUtils.html#a5d2e296c795dceb1e033fae541bbc4da" target="_top" xlink:title="ClassifierUtils::checkLabels">
<polygon fill="none" stroke="#000000" points="492,-81.5 492,-100.5 643,-100.5 643,-81.5 492,-81.5"/>
<text text-anchor="middle" x="567.5" y="-88.5" font-family="Helvetica,sans-Serif" font-size="10.00" fill="#000000">ClassifierUtils::checkLabels</text>
</a>
</g>
</g>
<!-- Node28&#45;&gt;Node29 -->
<g id="edge2" class="edge">
<title>Node28&#45;&gt;Node29</title>
<path fill="none" stroke="#191970" d="M453.139,-92.8057C462.4867,-92.6581 472.0956,-92.5064 481.5825,-92.3566"/>
<polygon fill="#191970" stroke="#191970" points="481.8674,-95.8526 491.8109,-92.1951 481.7568,-88.8535 481.8674,-95.8526"/>
</g>
<!-- Node30&#45;&gt;Node28 -->
<g id="edge4" class="edge">
<title>Node30&#45;&gt;Node28</title>
<path fill="none" stroke="#191970" d="M233.4379,-54.564C256.001,-60.7405 286.0453,-68.9649 312.8571,-76.3045"/>
<polygon fill="#191970" stroke="#191970" points="311.9998,-79.6985 322.569,-78.963 313.848,-72.9469 311.9998,-79.6985"/>
</g>
<!-- Node31 -->
<g id="node5" class="node">
<title>Node31</title>
<g id="a_node5"><a xlink:href="classClassifierUtils.html#abc1fc8d0290671468f3313abf500ba6d" target="_top" xlink:title="ClassifierUtils::confusion\lMatrix">
<polygon fill="none" stroke="#000000" points="308.5,-30 308.5,-60 446.5,-60 446.5,-30 308.5,-30"/>
<text text-anchor="start" x="316.5" y="-48" font-family="Helvetica,sans-Serif" font-size="10.00" fill="#000000">ClassifierUtils::confusion</text>
<text text-anchor="middle" x="377.5" y="-37" font-family="Helvetica,sans-Serif" font-size="10.00" fill="#000000">Matrix</text>
</a>
</g>
</g>
<!-- Node30&#45;&gt;Node31 -->
<g id="edge5" class="edge">
<title>Node30&#45;&gt;Node31</title>
<path fill="none" stroke="#191970" d="M266.1722,-45C276.6008,-45 287.4505,-45 298.1066,-45"/>
<polygon fill="#191970" stroke="#191970" points="298.2439,-48.5001 308.2439,-45 298.2439,-41.5001 298.2439,-48.5001"/>
</g>
<!-- Node31&#45;&gt;Node29 -->
<g id="edge6" class="edge">
<title>Node31&#45;&gt;Node29</title>
<path fill="none" stroke="#191970" d="M439.7131,-60.0621C465.1869,-66.2295 494.2457,-73.2647 518.2097,-79.0665"/>
<polygon fill="#191970" stroke="#191970" points="517.5999,-82.52 528.1427,-81.4714 519.2471,-75.7165 517.5999,-82.52"/>
</g>
<!-- Node32 -->
<g id="node6" class="node">
<title>Node32</title>
<g id="a_node6"><a xlink:href="classClassifierUtils.html#a28f096a4fc200737a6b4477965e1e8fa" target="_top" xlink:title="ClassifierUtils::getAllClasses">
<polygon fill="none" stroke="#000000" points="489,-.5 489,-19.5 646,-19.5 646,-.5 489,-.5"/>
<text text-anchor="middle" x="567.5" y="-7.5" font-family="Helvetica,sans-Serif" font-size="10.00" fill="#000000">ClassifierUtils::getAllClasses</text>
</a>
</g>
</g>
<!-- Node31&#45;&gt;Node32 -->
<g id="edge7" class="edge">
<title>Node31&#45;&gt;Node32</title>
<path fill="none" stroke="#191970" d="M446.6318,-32.2652C465.969,-28.7031 486.8541,-24.8558 505.7351,-21.3777"/>
<polygon fill="#191970" stroke="#191970" points="506.4999,-24.7958 515.7003,-19.542 505.2317,-17.9117 506.4999,-24.7958"/>
</g>
<!-- Node33 -->
<g id="node7" class="node">
<title>Node33</title>
<g id="a_node7"><a xlink:href="classClassifierUtils.html#aba0abbd24fbd086684b0cf7f1996d55f" target="_top" xlink:title="ClassifierUtils::findLabel">
<polygon fill="none" stroke="#000000" points="499.5,-38.5 499.5,-57.5 635.5,-57.5 635.5,-38.5 499.5,-38.5"/>
<text text-anchor="middle" x="567.5" y="-45.5" font-family="Helvetica,sans-Serif" font-size="10.00" fill="#000000">ClassifierUtils::findLabel</text>
</a>
</g>
</g>
<!-- Node31&#45;&gt;Node33 -->
<g id="edge8" class="edge">
<title>Node31&#45;&gt;Node33</title>
<path fill="none" stroke="#191970" d="M446.6318,-46.0916C460.4636,-46.31 475.0873,-46.5409 489.2031,-46.7637"/>
<polygon fill="#191970" stroke="#191970" points="489.3191,-50.2659 499.3732,-46.9243 489.4297,-43.2668 489.3191,-50.2659"/>
</g>
<!-- Node34&#45;&gt;Node28 -->
<g id="edge10" class="edge">
<title>Node34&#45;&gt;Node28</title>
<path fill="none" stroke="#191970" d="M257.6074,-86.6323C268.5553,-87.3051 280.1916,-88.0202 291.7447,-88.7301"/>
<polygon fill="#191970" stroke="#191970" points="291.6606,-92.2315 301.8565,-89.3515 292.09,-85.2446 291.6606,-92.2315"/>
</g>
<!-- Node34&#45;&gt;Node31 -->
<g id="edge11" class="edge">
<title>Node34&#45;&gt;Node31</title>
<path fill="none" stroke="#191970" d="M243.6693,-73.411C260.2617,-69.8886 279.5737,-65.7888 298.2788,-61.8179"/>
<polygon fill="#191970" stroke="#191970" points="299.2308,-65.1939 308.2859,-59.6935 297.7771,-58.3465 299.2308,-65.1939"/>
</g>
</g>
</svg>
