<?xml version="1.0" encoding="UTF-8" standalone="no"?>
<!DOCTYPE svg PUBLIC "-//W3C//DTD SVG 1.1//EN"
 "http://www.w3.org/Graphics/SVG/1.1/DTD/svg11.dtd">
<!-- Generated by graphviz version 2.40.1 (20161225.0304)
 -->
<!-- Title: NaiveBayes Pages: 1 -->
<svg width="209pt" height="193pt"
 viewBox="0.00 0.00 209.00 193.00" xmlns="http://www.w3.org/2000/svg" xmlns:xlink="http://www.w3.org/1999/xlink">
<g id="graph0" class="graph" transform="scale(1 1) rotate(0) translate(4 189)">
<title>NaiveBayes</title>
<!-- Node1 -->
<g id="node1" class="node">
<title>Node1</title>
<polygon fill="#bfbfbf" stroke="#000000" points="53,-.5 53,-68.5 147,-68.5 147,-.5 53,-.5"/>
<text text-anchor="middle" x="100" y="-56.5" font-family="Helvetica,sans-Serif" font-size="10.00" fill="#000000">NaiveBayes</text>
<polyline fill="none" stroke="#000000" points="53,-49.5 147,-49.5 "/>
<text text-anchor="middle" x="100" y="-37.5" font-family="Helvetica,sans-Serif" font-size="10.00" fill="#000000"> </text>
<polyline fill="none" stroke="#000000" points="53,-30.5 147,-30.5 "/>
<text text-anchor="start" x="61" y="-18.5" font-family="Helvetica,sans-Serif" font-size="10.00" fill="#000000">+ NaiveBayes()</text>
<text text-anchor="start" x="61" y="-7.5" font-family="Helvetica,sans-Serif" font-size="10.00" fill="#000000">+ predict()</text>
</g>
<!-- Node2 -->
<g id="node2" class="node">
<title>Node2</title>
<polygon fill="none" stroke="#bfbfbf" points="0,-127.5 0,-184.5 98,-184.5 98,-127.5 0,-127.5"/>
<text text-anchor="middle" x="49" y="-172.5" font-family="Helvetica,sans-Serif" font-size="10.00" fill="#000000">vector&lt; string &gt;</text>
<polyline fill="none" stroke="#bfbfbf" points="0,-165.5 98,-165.5 "/>
<text text-anchor="middle" x="49" y="-153.5" font-family="Helvetica,sans-Serif" font-size="10.00" fill="#000000"> </text>
<polyline fill="none" stroke="#bfbfbf" points="0,-146.5 98,-146.5 "/>
<text text-anchor="middle" x="49" y="-134.5" font-family="Helvetica,sans-Serif" font-size="10.00" fill="#000000"> </text>
</g>
<!-- Node2&#45;&gt;Node1 -->
<g id="edge1" class="edge">
<title>Node2&#45;&gt;Node1</title>
<path fill="none" stroke="#404040" d="M44.7959,-127.1951C44.0865,-114.4455 44.8812,-99.5328 50,-87 51.166,-84.1452 52.5668,-81.3559 54.1467,-78.6458"/>
<polygon fill="none" stroke="#404040" points="54.2344,-78.5177 54.3215,-71.3071 61.011,-68.6142 60.9238,-75.8248 54.2344,-78.5177"/>
<text text-anchor="middle" x="90" y="-101" font-family="Helvetica,sans-Serif" font-size="10.00" fill="#000000"> &#45;lookupRows</text>
<text text-anchor="middle" x="90" y="-90" font-family="Helvetica,sans-Serif" font-size="10.00" fill="#000000">&#45;lookupColumns</text>
</g>
<!-- Node3 -->
<g id="node3" class="node">
<title>Node3</title>
<polygon fill="none" stroke="#bfbfbf" points="127,-127.5 127,-184.5 177,-184.5 177,-127.5 127,-127.5"/>
<text text-anchor="middle" x="152" y="-172.5" font-family="Helvetica,sans-Serif" font-size="10.00" fill="#000000">MatrixI</text>
<polyline fill="none" stroke="#bfbfbf" points="127,-165.5 177,-165.5 "/>
<text text-anchor="middle" x="152" y="-153.5" font-family="Helvetica,sans-Serif" font-size="10.00" fill="#000000"> </text>
<polyline fill="none" stroke="#bfbfbf" points="127,-146.5 177,-146.5 "/>
<text text-anchor="middle" x="152" y="-134.5" font-family="Helvetica,sans-Serif" font-size="10.00" fill="#000000"> </text>
</g>
<!-- Node3&#45;&gt;Node1 -->
<g id="edge2" class="edge">
<title>Node3&#45;&gt;Node1</title>
<path fill="none" stroke="#404040" d="M144.3242,-127.3032C140.5825,-114.7117 135.6636,-99.893 130,-87 128.9194,-84.5401 127.7551,-82.0473 126.5345,-79.5528"/>
<polygon fill="none" stroke="#404040" points="126.4319,-79.3548 120.119,-75.8695 120.9083,-68.7016 127.2211,-72.187 126.4319,-79.3548"/>
<text text-anchor="middle" x="169" y="-101" font-family="Helvetica,sans-Serif" font-size="10.00" fill="#000000"> &#45;yFrequency</text>
<text text-anchor="middle" x="169" y="-90" font-family="Helvetica,sans-Serif" font-size="10.00" fill="#000000">&#45;lookupTable</text>
</g>
</g>
</svg>
