<?xml version="1.0" encoding="UTF-8" standalone="no"?>
<!DOCTYPE svg PUBLIC "-//W3C//DTD SVG 1.1//EN"
 "http://www.w3.org/Graphics/SVG/1.1/DTD/svg11.dtd">
<!-- Generated by graphviz version 2.40.1 (20161225.0304)
 -->
<!-- Title: GridWorld::Sarsa Pages: 1 -->
<svg width="676pt" height="332pt"
 viewBox="0.00 0.00 676.00 332.00" xmlns="http://www.w3.org/2000/svg" xmlns:xlink="http://www.w3.org/1999/xlink">
<g id="graph0" class="graph" transform="scale(1 1) rotate(0) translate(4 328)">
<title>GridWorld::Sarsa</title>
<!-- Node207 -->
<g id="node1" class="node">
<title>Node207</title>
<polygon fill="#bfbfbf" stroke="#000000" points="0,-152.5 0,-171.5 98,-171.5 98,-152.5 0,-152.5"/>
<text text-anchor="middle" x="49" y="-159.5" font-family="Helvetica,sans-Serif" font-size="10.00" fill="#000000">GridWorld::Sarsa</text>
</g>
<!-- Node208 -->
<g id="node2" class="node">
<title>Node208</title>
<g id="a_node2"><a xlink:href="classGridWorld.html#af510ea48d57d45874a0dfeb2b7ffd518" target="_top" xlink:title="GridWorld::initialize">
<polygon fill="none" stroke="#000000" points="155,-304.5 155,-323.5 268,-323.5 268,-304.5 155,-304.5"/>
<text text-anchor="middle" x="211.5" y="-311.5" font-family="Helvetica,sans-Serif" font-size="10.00" fill="#000000">GridWorld::initialize</text>
</a>
</g>
</g>
<!-- Node207&#45;&gt;Node208 -->
<g id="edge1" class="edge">
<title>Node207&#45;&gt;Node208</title>
<path fill="none" stroke="#191970" d="M52.3376,-171.8392C61.2934,-196.6854 88.3209,-262.3015 134,-295 137.485,-297.4947 141.2595,-299.6639 145.2027,-301.5498"/>
<polygon fill="#191970" stroke="#191970" points="144.0741,-304.8705 154.6528,-305.4562 146.7483,-298.4014 144.0741,-304.8705"/>
</g>
<!-- Node209 -->
<g id="node3" class="node">
<title>Node209</title>
<g id="a_node3"><a xlink:href="classTimer.html#a3a8b5272198d029779dc9302a54305a8" target="_top" xlink:title="Start the timer. ">
<polygon fill="none" stroke="#000000" points="174.5,-266.5 174.5,-285.5 248.5,-285.5 248.5,-266.5 174.5,-266.5"/>
<text text-anchor="middle" x="211.5" y="-273.5" font-family="Helvetica,sans-Serif" font-size="10.00" fill="#000000">Timer::start</text>
</a>
</g>
</g>
<!-- Node207&#45;&gt;Node209 -->
<g id="edge2" class="edge">
<title>Node207&#45;&gt;Node209</title>
<path fill="none" stroke="#191970" d="M55.5131,-171.6842C68.3598,-190.0513 98.7932,-230.0673 134,-252 143.3362,-257.8162 154.1884,-262.3173 164.7627,-265.7643"/>
<polygon fill="#191970" stroke="#191970" points="163.7601,-269.1176 174.3442,-268.6412 165.7731,-262.4133 163.7601,-269.1176"/>
</g>
<!-- Node210 -->
<g id="node4" class="node">
<title>Node210</title>
<g id="a_node4"><a xlink:href="classGridWorld.html#a32bc48e56c9a7163d2fbf917df9d35c0" target="_top" xlink:title="Selects a random non&#45;goal state. ">
<polygon fill="none" stroke="#000000" points="134,-190.5 134,-209.5 289,-209.5 289,-190.5 134,-190.5"/>
<text text-anchor="middle" x="211.5" y="-197.5" font-family="Helvetica,sans-Serif" font-size="10.00" fill="#000000">GridWorld::getNonGoalState</text>
</a>
</g>
</g>
<!-- Node207&#45;&gt;Node210 -->
<g id="edge3" class="edge">
<title>Node207&#45;&gt;Node210</title>
<path fill="none" stroke="#191970" d="M90.0056,-171.589C111.5458,-176.6261 138.1347,-182.8438 160.9414,-188.1771"/>
<polygon fill="#191970" stroke="#191970" points="160.255,-191.6109 170.7893,-190.4799 161.8489,-184.7948 160.255,-191.6109"/>
</g>
<!-- Node211 -->
<g id="node5" class="node">
<title>Node211</title>
<g id="a_node5"><a xlink:href="classGridWorld.html#a202b7bda8938f3c641c2812dcc9b5ac1" target="_top" xlink:title="Informs whether a state is a goal state in the grid world. ">
<polygon fill="none" stroke="#000000" points="351.5,-190.5 351.5,-209.5 453.5,-209.5 453.5,-190.5 351.5,-190.5"/>
<text text-anchor="middle" x="402.5" y="-197.5" font-family="Helvetica,sans-Serif" font-size="10.00" fill="#000000">GridWorld::isGoal</text>
</a>
</g>
</g>
<!-- Node207&#45;&gt;Node211 -->
<g id="edge7" class="edge">
<title>Node207&#45;&gt;Node211</title>
<path fill="none" stroke="#191970" d="M98.3082,-164.648C146.9147,-167.5538 223.2476,-172.9093 289,-181 305.996,-183.0913 324.3342,-185.9121 341.2106,-188.7394"/>
<polygon fill="#191970" stroke="#191970" points="341.0586,-192.2639 351.5046,-190.4943 342.235,-185.3635 341.0586,-192.2639"/>
</g>
<!-- Node212 -->
<g id="node6" class="node">
<title>Node212</title>
<g id="a_node6"><a xlink:href="classGridWorld.html#a03d2aaf35961c3e190e4b7ab12f76e4d" target="_top" xlink:title="Transforms a raster coordinate from the grid world into its corresponding row x column representation...">
<polygon fill="none" stroke="#000000" points="537,-190.5 537,-209.5 647,-209.5 647,-190.5 537,-190.5"/>
<text text-anchor="middle" x="592" y="-197.5" font-family="Helvetica,sans-Serif" font-size="10.00" fill="#000000">GridWorld::toCoord</text>
</a>
</g>
</g>
<!-- Node207&#45;&gt;Node212 -->
<g id="edge8" class="edge">
<title>Node207&#45;&gt;Node212</title>
<path fill="none" stroke="#191970" d="M58.9363,-171.6268C73.8102,-185.2926 103.4028,-209.6906 134,-219 278.8611,-263.0748 461.3851,-231.1393 545.569,-211.8329"/>
<polygon fill="#191970" stroke="#191970" points="546.3991,-215.2332 555.3387,-209.547 544.8043,-208.4173 546.3991,-215.2332"/>
</g>
<!-- Node213 -->
<g id="node7" class="node">
<title>Node213</title>
<g id="a_node7"><a xlink:href="classGridWorld.html#a87fc3feb5c480cfce865c7005d1eaf50" target="_top" xlink:title="Selects an action for a state s following an e&#45;greedy policy. ">
<polygon fill="none" stroke="#000000" points="155,-.5 155,-19.5 268,-19.5 268,-.5 155,-.5"/>
<text text-anchor="middle" x="211.5" y="-7.5" font-family="Helvetica,sans-Serif" font-size="10.00" fill="#000000">GridWorld::eGreedy</text>
</a>
</g>
</g>
<!-- Node207&#45;&gt;Node213 -->
<g id="edge6" class="edge">
<title>Node207&#45;&gt;Node213</title>
<path fill="none" stroke="#191970" d="M52.7036,-152.3376C62.3243,-128.5272 90.4311,-66.6055 134,-34 139.8147,-29.6485 146.4311,-26.0762 153.2904,-23.1459"/>
<polygon fill="#191970" stroke="#191970" points="154.6497,-26.3734 162.742,-19.5349 152.1514,-19.8343 154.6497,-26.3734"/>
</g>
<!-- Node214 -->
<g id="node8" class="node">
<title>Node214</title>
<g id="a_node8"><a xlink:href="classGridWorld.html#aee5066a1ae4ad067c4ac846c6ed15dea" target="_top" xlink:title="Returns the next state that results from applying an action to a state. ">
<polygon fill="none" stroke="#000000" points="147,-114.5 147,-133.5 276,-133.5 276,-114.5 147,-114.5"/>
<text text-anchor="middle" x="211.5" y="-121.5" font-family="Helvetica,sans-Serif" font-size="10.00" fill="#000000">GridWorld::applyAction</text>
</a>
</g>
</g>
<!-- Node207&#45;&gt;Node214 -->
<g id="edge9" class="edge">
<title>Node207&#45;&gt;Node214</title>
<path fill="none" stroke="#191970" d="M90.0056,-152.411C111.5458,-147.3739 138.1347,-141.1562 160.9414,-135.8229"/>
<polygon fill="#191970" stroke="#191970" points="161.8489,-139.2052 170.7893,-133.5201 160.255,-132.3891 161.8489,-139.2052"/>
</g>
<!-- Node216 -->
<g id="node10" class="node">
<title>Node216</title>
<g id="a_node10"><a xlink:href="classGridWorld.html#a4b12faf8f8641b38927715622a2852c2" target="_top" xlink:title="Updates the policy matrix according to the action values from the Q matrix. ">
<polygon fill="none" stroke="#000000" points="325,-27 325,-57 480,-57 480,-27 325,-27"/>
<text text-anchor="start" x="333" y="-45" font-family="Helvetica,sans-Serif" font-size="10.00" fill="#000000">GridWorld::getOptimalPolicy</text>
<text text-anchor="middle" x="402.5" y="-34" font-family="Helvetica,sans-Serif" font-size="10.00" fill="#000000">FromQ</text>
</a>
</g>
</g>
<!-- Node207&#45;&gt;Node216 -->
<g id="edge12" class="edge">
<title>Node207&#45;&gt;Node216</title>
<path fill="none" stroke="#191970" d="M54.2597,-152.3148C65.7194,-132.3021 95.0674,-86.6233 134,-67 189.6894,-38.9307 260.1226,-33.3039 314.8772,-34.364"/>
<polygon fill="#191970" stroke="#191970" points="314.8204,-37.8636 324.9116,-34.6358 315.0101,-30.8662 314.8204,-37.8636"/>
</g>
<!-- Node218 -->
<g id="node12" class="node">
<title>Node218</title>
<g id="a_node12"><a xlink:href="classGridWorld.html#a9dfe466eee829e7d1b8315b789078be9" target="_top" xlink:title="GridWorld::prettifyPolicy">
<polygon fill="none" stroke="#000000" points="143,-76.5 143,-95.5 280,-95.5 280,-76.5 143,-76.5"/>
<text text-anchor="middle" x="211.5" y="-83.5" font-family="Helvetica,sans-Serif" font-size="10.00" fill="#000000">GridWorld::prettifyPolicy</text>
</a>
</g>
</g>
<!-- Node207&#45;&gt;Node218 -->
<g id="edge14" class="edge">
<title>Node207&#45;&gt;Node218</title>
<path fill="none" stroke="#191970" d="M60.3326,-152.4784C75.9431,-139.8317 105.3902,-117.6245 134,-105 139.6559,-102.5043 145.6949,-100.3013 151.8115,-98.3648"/>
<polygon fill="#191970" stroke="#191970" points="152.8341,-101.7124 161.4435,-95.5375 150.8625,-94.9958 152.8341,-101.7124"/>
</g>
<!-- Node210&#45;&gt;Node211 -->
<g id="edge4" class="edge">
<title>Node210&#45;&gt;Node211</title>
<path fill="none" stroke="#191970" d="M289.187,-200C306.5494,-200 324.7261,-200 341.3107,-200"/>
<polygon fill="#191970" stroke="#191970" points="341.4097,-203.5001 351.4096,-200 341.4096,-196.5001 341.4097,-203.5001"/>
</g>
<!-- Node211&#45;&gt;Node212 -->
<g id="edge5" class="edge">
<title>Node211&#45;&gt;Node212</title>
<path fill="none" stroke="#191970" d="M453.7814,-200C476.2244,-200 502.8216,-200 526.6613,-200"/>
<polygon fill="#191970" stroke="#191970" points="526.6893,-203.5001 536.6893,-200 526.6893,-196.5001 526.6893,-203.5001"/>
</g>
<!-- Node214&#45;&gt;Node212 -->
<g id="edge10" class="edge">
<title>Node214&#45;&gt;Node212</title>
<path fill="none" stroke="#191970" d="M259.3053,-133.5485C329.172,-147.5035 459.0084,-173.4366 534.1608,-188.4474"/>
<polygon fill="#191970" stroke="#191970" points="533.8984,-191.964 544.3902,-190.4906 535.2695,-185.0996 533.8984,-191.964"/>
</g>
<!-- Node215 -->
<g id="node9" class="node">
<title>Node215</title>
<g id="a_node9"><a xlink:href="classGridWorld.html#a5241a21b520fc8c9d4c0110de285aec1" target="_top" xlink:title="Transforms row x column coordinates from the grid world into a raster representation. ">
<polygon fill="none" stroke="#000000" points="341,-114.5 341,-133.5 464,-133.5 464,-114.5 341,-114.5"/>
<text text-anchor="middle" x="402.5" y="-121.5" font-family="Helvetica,sans-Serif" font-size="10.00" fill="#000000">GridWorld::fromCoord</text>
</a>
</g>
</g>
<!-- Node214&#45;&gt;Node215 -->
<g id="edge11" class="edge">
<title>Node214&#45;&gt;Node215</title>
<path fill="none" stroke="#191970" d="M276.1639,-124C293.7059,-124 312.8028,-124 330.7121,-124"/>
<polygon fill="#191970" stroke="#191970" points="330.8092,-127.5001 340.8092,-124 330.8092,-120.5001 330.8092,-127.5001"/>
</g>
<!-- Node217 -->
<g id="node11" class="node">
<title>Node217</title>
<g id="a_node11"><a xlink:href="classGridWorld.html#adf34e6f50b2369c06afdfc8c1ff70caf" target="_top" xlink:title="Normalizes a matriz so its sum equals 1. ">
<polygon fill="none" stroke="#000000" points="516,-54.5 516,-73.5 668,-73.5 668,-54.5 516,-54.5"/>
<text text-anchor="middle" x="592" y="-61.5" font-family="Helvetica,sans-Serif" font-size="10.00" fill="#000000">GridWorld::normalizeToOne</text>
</a>
</g>
</g>
<!-- Node216&#45;&gt;Node217 -->
<g id="edge13" class="edge">
<title>Node216&#45;&gt;Node217</title>
<path fill="none" stroke="#191970" d="M480.1237,-51.0117C488.5722,-51.9926 497.2087,-52.9952 505.7522,-53.9871"/>
<polygon fill="#191970" stroke="#191970" points="505.385,-57.4679 515.722,-55.1445 506.1923,-50.5146 505.385,-57.4679"/>
</g>
<!-- Node218&#45;&gt;Node211 -->
<g id="edge16" class="edge">
<title>Node218&#45;&gt;Node211</title>
<path fill="none" stroke="#191970" d="M267.2151,-95.533C274.811,-98.0004 282.2925,-101.1021 289,-105 309.1147,-116.689 307.5601,-127.6025 325,-143 342.2695,-158.2471 363.4275,-173.611 379.2706,-184.5397"/>
<polygon fill="#191970" stroke="#191970" points="377.6797,-187.6908 387.915,-190.4274 381.6203,-181.9053 377.6797,-187.6908"/>
</g>
<!-- Node218&#45;&gt;Node215 -->
<g id="edge15" class="edge">
<title>Node218&#45;&gt;Node215</title>
<path fill="none" stroke="#191970" d="M259.6974,-95.589C285.4696,-100.7165 317.3906,-107.0672 344.5124,-112.4632"/>
<polygon fill="#191970" stroke="#191970" points="344.1585,-115.9613 354.6492,-114.4799 345.5244,-109.0959 344.1585,-115.9613"/>
</g>
<!-- Node219 -->
<g id="node13" class="node">
<title>Node219</title>
<g id="a_node13"><a xlink:href="classGridWorld.html#a483bf6d05d61a8e14f0fab04273d8593" target="_top" xlink:title="Gets the policy for state s ">
<polygon fill="none" stroke="#000000" points="332,-76.5 332,-95.5 473,-95.5 473,-76.5 332,-76.5"/>
<text text-anchor="middle" x="402.5" y="-83.5" font-family="Helvetica,sans-Serif" font-size="10.00" fill="#000000">GridWorld::policyForState</text>
</a>
</g>
</g>
<!-- Node218&#45;&gt;Node219 -->
<g id="edge17" class="edge">
<title>Node218&#45;&gt;Node219</title>
<path fill="none" stroke="#191970" d="M280.1855,-86C293.697,-86 307.9878,-86 321.8506,-86"/>
<polygon fill="#191970" stroke="#191970" points="321.852,-89.5001 331.8519,-86 321.8519,-82.5001 321.852,-89.5001"/>
</g>
<!-- Node219&#45;&gt;Node217 -->
<g id="edge18" class="edge">
<title>Node219&#45;&gt;Node217</title>
<path fill="none" stroke="#191970" d="M473.0628,-77.808C483.7781,-76.564 494.9358,-75.2687 505.9359,-73.9916"/>
<polygon fill="#191970" stroke="#191970" points="506.447,-77.4559 515.9766,-72.8259 505.6397,-70.5026 506.447,-77.4559"/>
</g>
</g>
</svg>
