<?xml version="1.0" encoding="UTF-8" standalone="no"?>
<!DOCTYPE svg PUBLIC "-//W3C//DTD SVG 1.1//EN"
 "http://www.w3.org/Graphics/SVG/1.1/DTD/svg11.dtd">
<!-- Generated by graphviz version 2.40.1 (20161225.0304)
 -->
<!-- Title: Metrics::minkowski Pages: 1 -->
<svg width="504pt" height="104pt"
 viewBox="0.00 0.00 504.00 104.00" xmlns="http://www.w3.org/2000/svg" xmlns:xlink="http://www.w3.org/1999/xlink">
<g id="graph0" class="graph" transform="scale(1 1) rotate(0) translate(4 100)">
<title>Metrics::minkowski</title>
<!-- Node19 -->
<g id="node1" class="node">
<title>Node19</title>
<polygon fill="#bfbfbf" stroke="#000000" points="0,-38.5 0,-57.5 111,-57.5 111,-38.5 0,-38.5"/>
<text text-anchor="middle" x="55.5" y="-45.5" font-family="Helvetica,sans-Serif" font-size="10.00" fill="#000000">Metrics::minkowski</text>
</g>
<!-- Node20 -->
<g id="node2" class="node">
<title>Node20</title>
<g id="a_node2"><a xlink:href="classKMeans.html#a833e7824ae04358e7ea0d97e61e87040" target="_top" xlink:title="Assigns elements of a data set to clusters. ">
<polygon fill="none" stroke="#000000" points="294,-76.5 294,-95.5 389,-95.5 389,-76.5 294,-76.5"/>
<text text-anchor="middle" x="341.5" y="-83.5" font-family="Helvetica,sans-Serif" font-size="10.00" fill="#000000">KMeans::predict</text>
</a>
</g>
</g>
<!-- Node19&#45;&gt;Node20 -->
<g id="edge1" class="edge">
<title>Node19&#45;&gt;Node20</title>
<path fill="none" stroke="#191970" d="M106.5847,-59.6182C119.7061,-62.324 133.8351,-64.9961 147,-67 196.8095,-74.5819 254.2796,-79.761 293.7624,-82.7736"/>
<polygon fill="#191970" stroke="#191970" points="107.2863,-56.1893 96.7796,-57.553 105.8436,-63.039 107.2863,-56.1893"/>
</g>
<!-- Node22 -->
<g id="node4" class="node">
<title>Node22</title>
<g id="a_node4"><a xlink:href="classMetrics.html#a886c6a038b62c72c66096b1215dee6b1" target="_top" xlink:title="Calculates the Euclidean distances between elements in a matrix. ">
<polygon fill="none" stroke="#000000" points="150,-38.5 150,-57.5 255,-57.5 255,-38.5 150,-38.5"/>
<text text-anchor="middle" x="202.5" y="-45.5" font-family="Helvetica,sans-Serif" font-size="10.00" fill="#000000">Metrics::euclidean</text>
</a>
</g>
</g>
<!-- Node19&#45;&gt;Node22 -->
<g id="edge3" class="edge">
<title>Node19&#45;&gt;Node22</title>
<path fill="none" stroke="#191970" d="M121.3114,-48C130.8367,-48 140.5363,-48 149.7605,-48"/>
<polygon fill="#191970" stroke="#191970" points="121.0744,-44.5001 111.0744,-48 121.0744,-51.5001 121.0744,-44.5001"/>
</g>
<!-- Node24 -->
<g id="node6" class="node">
<title>Node24</title>
<g id="a_node6"><a xlink:href="classMetrics.html#aea9d7f8412a590586d97d4544eac60a7" target="_top" xlink:title="Calculates the Manhattan distances between elements in a matrix. ">
<polygon fill="none" stroke="#000000" points="147,-.5 147,-19.5 258,-19.5 258,-.5 147,-.5"/>
<text text-anchor="middle" x="202.5" y="-7.5" font-family="Helvetica,sans-Serif" font-size="10.00" fill="#000000">Metrics::manhattan</text>
</a>
</g>
</g>
<!-- Node19&#45;&gt;Node24 -->
<g id="edge6" class="edge">
<title>Node19&#45;&gt;Node24</title>
<path fill="none" stroke="#191970" d="M102.3548,-35.8879C122.8276,-30.5956 146.4903,-24.4787 165.6724,-19.5201"/>
<polygon fill="#191970" stroke="#191970" points="101.4001,-32.5195 92.5943,-38.411 103.152,-39.2968 101.4001,-32.5195"/>
</g>
<!-- Node21 -->
<g id="node3" class="node">
<title>Node21</title>
<g id="a_node3"><a xlink:href="classKMeans.html#aa1583b7f07ebb766f20e52c63a2f8d45" target="_top" xlink:title="Find the k centroids that best fit the data. ">
<polygon fill="none" stroke="#000000" points="425,-57.5 425,-76.5 496,-76.5 496,-57.5 425,-57.5"/>
<text text-anchor="middle" x="460.5" y="-64.5" font-family="Helvetica,sans-Serif" font-size="10.00" fill="#000000">KMeans::fit</text>
</a>
</g>
</g>
<!-- Node20&#45;&gt;Node21 -->
<g id="edge2" class="edge">
<title>Node20&#45;&gt;Node21</title>
<path fill="none" stroke="#191970" d="M399.3656,-76.761C408.0677,-75.3715 416.8165,-73.9747 424.8666,-72.6894"/>
<polygon fill="#191970" stroke="#191970" points="398.5392,-73.3485 389.2162,-78.3815 399.643,-80.2609 398.5392,-73.3485"/>
</g>
<!-- Node23 -->
<g id="node5" class="node">
<title>Node23</title>
<g id="a_node5"><a xlink:href="classKMeans.html#afa3dcc65e5f8a708fc9d7d28fe23baf7" target="_top" xlink:title="KMeans::SSE">
<polygon fill="none" stroke="#000000" points="302,-38.5 302,-57.5 381,-57.5 381,-38.5 302,-38.5"/>
<text text-anchor="middle" x="341.5" y="-45.5" font-family="Helvetica,sans-Serif" font-size="10.00" fill="#000000">KMeans::SSE</text>
</a>
</g>
</g>
<!-- Node22&#45;&gt;Node23 -->
<g id="edge4" class="edge">
<title>Node22&#45;&gt;Node23</title>
<path fill="none" stroke="#191970" d="M265.3787,-48C277.7964,-48 290.4987,-48 301.8803,-48"/>
<polygon fill="#191970" stroke="#191970" points="265.05,-44.5001 255.0499,-48 265.0499,-51.5001 265.05,-44.5001"/>
</g>
<!-- Node23&#45;&gt;Node21 -->
<g id="edge5" class="edge">
<title>Node23&#45;&gt;Node21</title>
<path fill="none" stroke="#191970" d="M391.2419,-55.942C402.4549,-57.7323 414.1432,-59.5985 424.6549,-61.2768"/>
<polygon fill="#191970" stroke="#191970" points="391.5521,-52.4473 381.1253,-54.3267 390.4483,-59.3597 391.5521,-52.4473"/>
</g>
</g>
</svg>
