<?xml version="1.0" encoding="UTF-8" standalone="no"?>
<!DOCTYPE svg PUBLIC "-//W3C//DTD SVG 1.1//EN"
 "http://www.w3.org/Graphics/SVG/1.1/DTD/svg11.dtd">
<!-- Generated by graphviz version 2.40.1 (20161225.0304)
 -->
<!-- Title: GridWorld::iterativePolicyEvaluation Pages: 1 -->
<svg width="793pt" height="123pt"
 viewBox="0.00 0.00 793.00 123.05" xmlns="http://www.w3.org/2000/svg" xmlns:xlink="http://www.w3.org/1999/xlink">
<g id="graph0" class="graph" transform="scale(1 1) rotate(0) translate(4 119.0544)">
<title>GridWorld::iterativePolicyEvaluation</title>
<!-- Node109 -->
<g id="node1" class="node">
<title>Node109</title>
<polygon fill="#bfbfbf" stroke="#000000" points="0,-84.5544 0,-114.5544 142,-114.5544 142,-84.5544 0,-84.5544"/>
<text text-anchor="start" x="8" y="-102.5544" font-family="Helvetica,sans-Serif" font-size="10.00" fill="#000000">GridWorld::iterativePolicy</text>
<text text-anchor="middle" x="71" y="-91.5544" font-family="Helvetica,sans-Serif" font-size="10.00" fill="#000000">Evaluation</text>
</g>
<!-- Node110 -->
<g id="node2" class="node">
<title>Node110</title>
<g id="a_node2"><a xlink:href="classGridWorld.html#a5241a21b520fc8c9d4c0110de285aec1" target="_top" xlink:title="Transforms row x column coordinates from the grid world into a raster representation. ">
<polygon fill="none" stroke="#000000" points="662,-90.0544 662,-109.0544 785,-109.0544 785,-90.0544 662,-90.0544"/>
<text text-anchor="middle" x="723.5" y="-97.0544" font-family="Helvetica,sans-Serif" font-size="10.00" fill="#000000">GridWorld::fromCoord</text>
</a>
</g>
</g>
<!-- Node109&#45;&gt;Node110 -->
<g id="edge1" class="edge">
<title>Node109&#45;&gt;Node110</title>
<path fill="none" stroke="#191970" d="M142.429,-102.665C248.1292,-106.7669 452.4193,-112.7775 626,-106.5544 634.35,-106.2551 643.0946,-105.8119 651.773,-105.2914"/>
<polygon fill="#191970" stroke="#191970" points="652.1445,-108.775 661.9028,-104.6488 651.7013,-101.789 652.1445,-108.775"/>
</g>
<!-- Node111 -->
<g id="node3" class="node">
<title>Node111</title>
<g id="a_node3"><a xlink:href="classGridWorld.html#afb39acf3fcb5c3f62adea9668a035445" target="_top" xlink:title="Gets the q value of action a on state s ">
<polygon fill="none" stroke="#000000" points="178,-71.0544 178,-90.0544 307,-90.0544 307,-71.0544 178,-71.0544"/>
<text text-anchor="middle" x="242.5" y="-78.0544" font-family="Helvetica,sans-Serif" font-size="10.00" fill="#000000">GridWorld::actionValue</text>
</a>
</g>
</g>
<!-- Node109&#45;&gt;Node111 -->
<g id="edge2" class="edge">
<title>Node109&#45;&gt;Node111</title>
<path fill="none" stroke="#191970" d="M142.2415,-91.6618C150.6163,-90.734 159.1812,-89.7851 167.6041,-88.8519"/>
<polygon fill="#191970" stroke="#191970" points="168.2316,-92.3039 177.7854,-87.724 167.4608,-85.3465 168.2316,-92.3039"/>
</g>
<!-- Node111&#45;&gt;Node110 -->
<g id="edge4" class="edge">
<title>Node111&#45;&gt;Node110</title>
<path fill="none" stroke="#191970" d="M307.3698,-83.1168C397.0907,-86.6609 558.5157,-93.0374 651.7457,-96.72"/>
<polygon fill="#191970" stroke="#191970" points="651.8053,-100.225 661.9356,-97.1226 652.0816,-93.2305 651.8053,-100.225"/>
</g>
<!-- Node112 -->
<g id="node4" class="node">
<title>Node112</title>
<g id="a_node4"><a xlink:href="classGridWorld.html#a03d2aaf35961c3e190e4b7ab12f76e4d" target="_top" xlink:title="Transforms a raster coordinate from the grid world into its corresponding row x column representation...">
<polygon fill="none" stroke="#000000" points="668.5,-14.0544 668.5,-33.0544 778.5,-33.0544 778.5,-14.0544 668.5,-14.0544"/>
<text text-anchor="middle" x="723.5" y="-21.0544" font-family="Helvetica,sans-Serif" font-size="10.00" fill="#000000">GridWorld::toCoord</text>
</a>
</g>
</g>
<!-- Node111&#45;&gt;Node112 -->
<g id="edge3" class="edge">
<title>Node111&#45;&gt;Node112</title>
<path fill="none" stroke="#191970" d="M265.3787,-71.007C285.5733,-62.7964 315.9274,-50.9796 343,-42.5544 464.1743,-4.844 499.6805,7.639 626,-4.5544 641.771,-6.0768 658.78,-8.9536 674.107,-12.0166"/>
<polygon fill="#191970" stroke="#191970" points="673.4045,-15.4453 683.9063,-14.044 674.8228,-8.5905 673.4045,-15.4453"/>
</g>
<!-- Node113 -->
<g id="node5" class="node">
<title>Node113</title>
<g id="a_node5"><a xlink:href="classGridWorld.html#aaf8d964cddf2d838737d0707481ad792" target="_top" xlink:title="Returns the transition probability to nextState, given currentState and action ">
<polygon fill="none" stroke="#000000" points="343,-52.0544 343,-71.0544 461,-71.0544 461,-52.0544 343,-52.0544"/>
<text text-anchor="middle" x="402" y="-59.0544" font-family="Helvetica,sans-Serif" font-size="10.00" fill="#000000">GridWorld::transition</text>
</a>
</g>
</g>
<!-- Node111&#45;&gt;Node113 -->
<g id="edge5" class="edge">
<title>Node111&#45;&gt;Node113</title>
<path fill="none" stroke="#191970" d="M307.3748,-72.8264C315.7138,-71.833 324.2777,-70.8129 332.6843,-69.8115"/>
<polygon fill="#191970" stroke="#191970" points="333.319,-73.2607 342.8347,-68.6023 332.4909,-66.3098 333.319,-73.2607"/>
</g>
<!-- Node114 -->
<g id="node6" class="node">
<title>Node114</title>
<g id="a_node6"><a xlink:href="classGridWorld.html#a202b7bda8938f3c641c2812dcc9b5ac1" target="_top" xlink:title="Informs whether a state is a goal state in the grid world. ">
<polygon fill="none" stroke="#000000" points="510.5,-14.0544 510.5,-33.0544 612.5,-33.0544 612.5,-14.0544 510.5,-14.0544"/>
<text text-anchor="middle" x="561.5" y="-21.0544" font-family="Helvetica,sans-Serif" font-size="10.00" fill="#000000">GridWorld::isGoal</text>
</a>
</g>
</g>
<!-- Node113&#45;&gt;Node114 -->
<g id="edge6" class="edge">
<title>Node113&#45;&gt;Node114</title>
<path fill="none" stroke="#191970" d="M442.2486,-51.9654C463.2963,-46.9509 489.2552,-40.7663 511.5734,-35.4491"/>
<polygon fill="#191970" stroke="#191970" points="512.6243,-38.7968 521.5408,-33.0745 511.0019,-31.9874 512.6243,-38.7968"/>
</g>
<!-- Node115 -->
<g id="node7" class="node">
<title>Node115</title>
<g id="a_node7"><a xlink:href="classGridWorld.html#aee5066a1ae4ad067c4ac846c6ed15dea" target="_top" xlink:title="Returns the next state that results from applying an action to a state. ">
<polygon fill="none" stroke="#000000" points="497,-52.0544 497,-71.0544 626,-71.0544 626,-52.0544 497,-52.0544"/>
<text text-anchor="middle" x="561.5" y="-59.0544" font-family="Helvetica,sans-Serif" font-size="10.00" fill="#000000">GridWorld::applyAction</text>
</a>
</g>
</g>
<!-- Node113&#45;&gt;Node115 -->
<g id="edge8" class="edge">
<title>Node113&#45;&gt;Node115</title>
<path fill="none" stroke="#191970" d="M461.3919,-61.5544C469.7314,-61.5544 478.3891,-61.5544 486.9661,-61.5544"/>
<polygon fill="#191970" stroke="#191970" points="486.9737,-65.0545 496.9737,-61.5544 486.9737,-58.0545 486.9737,-65.0545"/>
</g>
<!-- Node114&#45;&gt;Node112 -->
<g id="edge7" class="edge">
<title>Node114&#45;&gt;Node112</title>
<path fill="none" stroke="#191970" d="M612.7578,-23.5544C627.1433,-23.5544 642.9821,-23.5544 658.0717,-23.5544"/>
<polygon fill="#191970" stroke="#191970" points="658.3716,-27.0545 668.3716,-23.5544 658.3716,-20.0545 658.3716,-27.0545"/>
</g>
<!-- Node115&#45;&gt;Node110 -->
<g id="edge10" class="edge">
<title>Node115&#45;&gt;Node110</title>
<path fill="none" stroke="#191970" d="M602.3794,-71.1434C623.8534,-76.1805 650.3605,-82.3982 673.097,-87.7315"/>
<polygon fill="#191970" stroke="#191970" points="672.3795,-91.1581 682.9145,-90.0344 673.9781,-84.3431 672.3795,-91.1581"/>
</g>
<!-- Node115&#45;&gt;Node112 -->
<g id="edge9" class="edge">
<title>Node115&#45;&gt;Node112</title>
<path fill="none" stroke="#191970" d="M602.3794,-51.9654C623.8534,-46.9283 650.3605,-40.7106 673.097,-35.3773"/>
<polygon fill="#191970" stroke="#191970" points="673.9781,-38.7657 682.9145,-33.0745 672.3795,-31.9507 673.9781,-38.7657"/>
</g>
</g>
</svg>
