<?xml version="1.0" encoding="UTF-8" standalone="no"?>
<!DOCTYPE svg PUBLIC "-//W3C//DTD SVG 1.1//EN"
 "http://www.w3.org/Graphics/SVG/1.1/DTD/svg11.dtd">
<!-- Generated by graphviz version 2.40.1 (20161225.0304)
 -->
<!-- Title: GridWorld::valueIteration Pages: 1 -->
<svg width="1185pt" height="296pt"
 viewBox="0.00 0.00 1185.00 296.00" xmlns="http://www.w3.org/2000/svg" xmlns:xlink="http://www.w3.org/1999/xlink">
<g id="graph0" class="graph" transform="scale(1 1) rotate(0) translate(4 292)">
<title>GridWorld::valueIteration</title>
<!-- Node249 -->
<g id="node1" class="node">
<title>Node249</title>
<polygon fill="#bfbfbf" stroke="#000000" points="0,-135.5 0,-154.5 140,-154.5 140,-135.5 0,-135.5"/>
<text text-anchor="middle" x="70" y="-142.5" font-family="Helvetica,sans-Serif" font-size="10.00" fill="#000000">GridWorld::valueIteration</text>
</g>
<!-- Node250 -->
<g id="node2" class="node">
<title>Node250</title>
<g id="a_node2"><a xlink:href="classGridWorld.html#af510ea48d57d45874a0dfeb2b7ffd518" target="_top" xlink:title="GridWorld::initialize">
<polygon fill="none" stroke="#000000" points="194.5,-268.5 194.5,-287.5 307.5,-287.5 307.5,-268.5 194.5,-268.5"/>
<text text-anchor="middle" x="251" y="-275.5" font-family="Helvetica,sans-Serif" font-size="10.00" fill="#000000">GridWorld::initialize</text>
</a>
</g>
</g>
<!-- Node249&#45;&gt;Node250 -->
<g id="edge1" class="edge">
<title>Node249&#45;&gt;Node250</title>
<path fill="none" stroke="#191970" d="M76.7832,-154.6913C92.0617,-175.8186 131.3428,-226.3415 176,-254 183.1842,-258.4496 191.2717,-262.1496 199.4073,-265.2026"/>
<polygon fill="#191970" stroke="#191970" points="198.3339,-268.5348 208.9287,-268.4956 200.622,-261.9193 198.3339,-268.5348"/>
</g>
<!-- Node251 -->
<g id="node3" class="node">
<title>Node251</title>
<g id="a_node3"><a xlink:href="classGridWorld.html#a5241a21b520fc8c9d4c0110de285aec1" target="_top" xlink:title="Transforms row x column coordinates from the grid world into a raster representation. ">
<polygon fill="none" stroke="#000000" points="1054,-173.5 1054,-192.5 1177,-192.5 1177,-173.5 1054,-173.5"/>
<text text-anchor="middle" x="1115.5" y="-180.5" font-family="Helvetica,sans-Serif" font-size="10.00" fill="#000000">GridWorld::fromCoord</text>
</a>
</g>
</g>
<!-- Node249&#45;&gt;Node251 -->
<g id="edge2" class="edge">
<title>Node249&#45;&gt;Node251</title>
<path fill="none" stroke="#191970" d="M91.3897,-154.6319C147.0414,-178.7837 301.4222,-240 436.5,-240 436.5,-240 436.5,-240 794,-240 895.756,-240 1012.8846,-211.9743 1073.796,-195.226"/>
<polygon fill="#191970" stroke="#191970" points="1074.7403,-198.5963 1083.4338,-192.5405 1072.8613,-191.8532 1074.7403,-198.5963"/>
</g>
<!-- Node252 -->
<g id="node4" class="node">
<title>Node252</title>
<g id="a_node4"><a xlink:href="classGridWorld.html#a202b7bda8938f3c641c2812dcc9b5ac1" target="_top" xlink:title="Informs whether a state is a goal state in the grid world. ">
<polygon fill="none" stroke="#000000" points="902.5,-40.5 902.5,-59.5 1004.5,-59.5 1004.5,-40.5 902.5,-40.5"/>
<text text-anchor="middle" x="953.5" y="-47.5" font-family="Helvetica,sans-Serif" font-size="10.00" fill="#000000">GridWorld::isGoal</text>
</a>
</g>
</g>
<!-- Node249&#45;&gt;Node252 -->
<g id="edge3" class="edge">
<title>Node249&#45;&gt;Node252</title>
<path fill="none" stroke="#191970" d="M79.59,-135.4151C97.147,-118.4203 136.3127,-83.01 176,-64 283.5223,-12.4973 317.2793,0 436.5,0 436.5,0 436.5,0 623,0 724.6309,0 841.8832,-23.4 905.8204,-38.1839"/>
<polygon fill="#191970" stroke="#191970" points="905.0789,-41.6048 915.6136,-40.4777 906.6753,-34.7893 905.0789,-41.6048"/>
</g>
<!-- Node254 -->
<g id="node6" class="node">
<title>Node254</title>
<g id="a_node6"><a xlink:href="classGridWorld.html#ab2473dfcba808923e74ef5e41c815293" target="_top" xlink:title="Gets the q values of all actions for a given state. ">
<polygon fill="none" stroke="#000000" points="362,-29 362,-59 511,-59 511,-29 362,-29"/>
<text text-anchor="start" x="370" y="-47" font-family="Helvetica,sans-Serif" font-size="10.00" fill="#000000">GridWorld::actionValuesFor</text>
<text text-anchor="middle" x="436.5" y="-36" font-family="Helvetica,sans-Serif" font-size="10.00" fill="#000000">State</text>
</a>
</g>
</g>
<!-- Node249&#45;&gt;Node254 -->
<g id="edge5" class="edge">
<title>Node249&#45;&gt;Node254</title>
<path fill="none" stroke="#191970" d="M94.1734,-135.4988C115.5005,-127.3178 147.5319,-115.5186 176,-107 235.5709,-89.1745 303.9349,-72.7917 355.6784,-61.2029"/>
<polygon fill="#191970" stroke="#191970" points="356.4687,-64.6127 365.4689,-59.0229 354.9472,-57.7801 356.4687,-64.6127"/>
</g>
<!-- Node258 -->
<g id="node10" class="node">
<title>Node258</title>
<g id="a_node10"><a xlink:href="classGridWorld.html#a5b720f7017beff840503f77c25da2586" target="_top" xlink:title="Creates a new policy for a given state giving preference to the actions with maximum value...">
<polygon fill="none" stroke="#000000" points="176,-116.5 176,-135.5 326,-135.5 326,-116.5 176,-116.5"/>
<text text-anchor="middle" x="251" y="-123.5" font-family="Helvetica,sans-Serif" font-size="10.00" fill="#000000">GridWorld::policyIncrement</text>
</a>
</g>
</g>
<!-- Node249&#45;&gt;Node258 -->
<g id="edge14" class="edge">
<title>Node249&#45;&gt;Node258</title>
<path fill="none" stroke="#191970" d="M140.2384,-137.6269C148.5948,-136.7497 157.1943,-135.847 165.7314,-134.9508"/>
<polygon fill="#191970" stroke="#191970" points="166.1264,-138.4287 175.7063,-133.9038 165.3955,-131.467 166.1264,-138.4287"/>
</g>
<!-- Node261 -->
<g id="node13" class="node">
<title>Node261</title>
<g id="a_node13"><a xlink:href="classGridWorld.html#a9dfe466eee829e7d1b8315b789078be9" target="_top" xlink:title="GridWorld::prettifyPolicy">
<polygon fill="none" stroke="#000000" points="182.5,-154.5 182.5,-173.5 319.5,-173.5 319.5,-154.5 182.5,-154.5"/>
<text text-anchor="middle" x="251" y="-161.5" font-family="Helvetica,sans-Serif" font-size="10.00" fill="#000000">GridWorld::prettifyPolicy</text>
</a>
</g>
</g>
<!-- Node249&#45;&gt;Node261 -->
<g id="edge19" class="edge">
<title>Node249&#45;&gt;Node261</title>
<path fill="none" stroke="#191970" d="M140.2384,-152.3731C150.7057,-153.4719 161.5542,-154.6107 172.184,-155.7265"/>
<polygon fill="#191970" stroke="#191970" points="171.9781,-159.224 182.2889,-156.7872 172.7089,-152.2623 171.9781,-159.224"/>
</g>
<!-- Node253 -->
<g id="node5" class="node">
<title>Node253</title>
<g id="a_node5"><a xlink:href="classGridWorld.html#a03d2aaf35961c3e190e4b7ab12f76e4d" target="_top" xlink:title="Transforms a raster coordinate from the grid world into its corresponding row x column representation...">
<polygon fill="none" stroke="#000000" points="1060.5,-78.5 1060.5,-97.5 1170.5,-97.5 1170.5,-78.5 1060.5,-78.5"/>
<text text-anchor="middle" x="1115.5" y="-85.5" font-family="Helvetica,sans-Serif" font-size="10.00" fill="#000000">GridWorld::toCoord</text>
</a>
</g>
</g>
<!-- Node252&#45;&gt;Node253 -->
<g id="edge4" class="edge">
<title>Node252&#45;&gt;Node253</title>
<path fill="none" stroke="#191970" d="M994.3794,-59.589C1015.8534,-64.6261 1042.3605,-70.8438 1065.097,-76.1771"/>
<polygon fill="#191970" stroke="#191970" points="1064.3795,-79.6037 1074.9145,-78.4799 1065.9781,-72.7887 1064.3795,-79.6037"/>
</g>
<!-- Node255 -->
<g id="node7" class="node">
<title>Node255</title>
<g id="a_node7"><a xlink:href="classGridWorld.html#afb39acf3fcb5c3f62adea9668a035445" target="_top" xlink:title="Gets the q value of action a on state s ">
<polygon fill="none" stroke="#000000" points="558.5,-97.5 558.5,-116.5 687.5,-116.5 687.5,-97.5 558.5,-97.5"/>
<text text-anchor="middle" x="623" y="-104.5" font-family="Helvetica,sans-Serif" font-size="10.00" fill="#000000">GridWorld::actionValue</text>
</a>
</g>
</g>
<!-- Node254&#45;&gt;Node255 -->
<g id="edge6" class="edge">
<title>Node254&#45;&gt;Node255</title>
<path fill="none" stroke="#191970" d="M481.1714,-59.0901C512.8308,-69.7847 554.8551,-83.9806 584.9254,-94.1384"/>
<polygon fill="#191970" stroke="#191970" points="584.0385,-97.533 594.6327,-97.4175 586.2788,-90.9011 584.0385,-97.533"/>
</g>
<!-- Node255&#45;&gt;Node251 -->
<g id="edge8" class="edge">
<title>Node255&#45;&gt;Node251</title>
<path fill="none" stroke="#191970" d="M684.8768,-116.5485C776.3258,-130.6604 947.1526,-157.0215 1043.891,-171.9497"/>
<polygon fill="#191970" stroke="#191970" points="1043.4595,-175.4244 1053.8763,-173.4906 1044.5271,-168.5063 1043.4595,-175.4244"/>
</g>
<!-- Node255&#45;&gt;Node253 -->
<g id="edge7" class="edge">
<title>Node255&#45;&gt;Node253</title>
<path fill="none" stroke="#191970" d="M687.9585,-108.25C734.0384,-108.8312 797.3332,-109.012 853,-107 920.2092,-104.5708 996.9087,-98.6542 1049.9683,-94.0633"/>
<polygon fill="#191970" stroke="#191970" points="1050.598,-97.5217 1060.2553,-93.1642 1049.9885,-90.5483 1050.598,-97.5217"/>
</g>
<!-- Node256 -->
<g id="node8" class="node">
<title>Node256</title>
<g id="a_node8"><a xlink:href="classGridWorld.html#aaf8d964cddf2d838737d0707481ad792" target="_top" xlink:title="Returns the transition probability to nextState, given currentState and action ">
<polygon fill="none" stroke="#000000" points="735,-78.5 735,-97.5 853,-97.5 853,-78.5 735,-78.5"/>
<text text-anchor="middle" x="794" y="-85.5" font-family="Helvetica,sans-Serif" font-size="10.00" fill="#000000">GridWorld::transition</text>
</a>
</g>
</g>
<!-- Node255&#45;&gt;Node256 -->
<g id="edge9" class="edge">
<title>Node255&#45;&gt;Node256</title>
<path fill="none" stroke="#191970" d="M687.6478,-99.8169C699.7656,-98.4705 712.4787,-97.0579 724.7301,-95.6967"/>
<polygon fill="#191970" stroke="#191970" points="725.3373,-99.1508 734.8896,-94.5678 724.5642,-92.1936 725.3373,-99.1508"/>
</g>
<!-- Node256&#45;&gt;Node252 -->
<g id="edge10" class="edge">
<title>Node256&#45;&gt;Node252</title>
<path fill="none" stroke="#191970" d="M834.2486,-78.411C855.2963,-73.3965 881.2552,-67.2119 903.5734,-61.8947"/>
<polygon fill="#191970" stroke="#191970" points="904.6243,-65.2424 913.5408,-59.5201 903.0019,-58.433 904.6243,-65.2424"/>
</g>
<!-- Node257 -->
<g id="node9" class="node">
<title>Node257</title>
<g id="a_node9"><a xlink:href="classGridWorld.html#aee5066a1ae4ad067c4ac846c6ed15dea" target="_top" xlink:title="Returns the next state that results from applying an action to a state. ">
<polygon fill="none" stroke="#000000" points="889,-116.5 889,-135.5 1018,-135.5 1018,-116.5 889,-116.5"/>
<text text-anchor="middle" x="953.5" y="-123.5" font-family="Helvetica,sans-Serif" font-size="10.00" fill="#000000">GridWorld::applyAction</text>
</a>
</g>
</g>
<!-- Node256&#45;&gt;Node257 -->
<g id="edge11" class="edge">
<title>Node256&#45;&gt;Node257</title>
<path fill="none" stroke="#191970" d="M834.2486,-97.589C855.2963,-102.6035 881.2552,-108.7881 903.5734,-114.1053"/>
<polygon fill="#191970" stroke="#191970" points="903.0019,-117.567 913.5408,-116.4799 904.6243,-110.7576 903.0019,-117.567"/>
</g>
<!-- Node257&#45;&gt;Node251 -->
<g id="edge13" class="edge">
<title>Node257&#45;&gt;Node251</title>
<path fill="none" stroke="#191970" d="M980.6152,-135.5405C1007.4823,-144.9938 1048.8248,-159.5402 1078.6579,-170.037"/>
<polygon fill="#191970" stroke="#191970" points="1077.7016,-173.4108 1088.2964,-173.4284 1080.0249,-166.8076 1077.7016,-173.4108"/>
</g>
<!-- Node257&#45;&gt;Node253 -->
<g id="edge12" class="edge">
<title>Node257&#45;&gt;Node253</title>
<path fill="none" stroke="#191970" d="M994.3794,-116.411C1015.8534,-111.3739 1042.3605,-105.1562 1065.097,-99.8229"/>
<polygon fill="#191970" stroke="#191970" points="1065.9781,-103.2113 1074.9145,-97.5201 1064.3795,-96.3963 1065.9781,-103.2113"/>
</g>
<!-- Node258&#45;&gt;Node254 -->
<g id="edge15" class="edge">
<title>Node258&#45;&gt;Node254</title>
<path fill="none" stroke="#191970" d="M270.5008,-116.4647C292.5524,-105.7759 329.6084,-88.0962 362,-74 370.5441,-70.2818 379.7042,-66.4605 388.5764,-62.8432"/>
<polygon fill="#191970" stroke="#191970" points="390.0897,-66.0067 398.0481,-59.0128 387.4653,-59.5173 390.0897,-66.0067"/>
</g>
<!-- Node259 -->
<g id="node11" class="node">
<title>Node259</title>
<g id="a_node11"><a xlink:href="classGridWorld.html#a483bf6d05d61a8e14f0fab04273d8593" target="_top" xlink:title="Gets the policy for state s ">
<polygon fill="none" stroke="#000000" points="366,-154.5 366,-173.5 507,-173.5 507,-154.5 366,-154.5"/>
<text text-anchor="middle" x="436.5" y="-161.5" font-family="Helvetica,sans-Serif" font-size="10.00" fill="#000000">GridWorld::policyForState</text>
</a>
</g>
</g>
<!-- Node258&#45;&gt;Node259 -->
<g id="edge16" class="edge">
<title>Node258&#45;&gt;Node259</title>
<path fill="none" stroke="#191970" d="M297.8095,-135.589C322.8395,-140.7165 353.8414,-147.0672 380.1822,-152.4632"/>
<polygon fill="#191970" stroke="#191970" points="379.5281,-155.9018 390.0271,-154.4799 380.933,-149.0442 379.5281,-155.9018"/>
</g>
<!-- Node260 -->
<g id="node12" class="node">
<title>Node260</title>
<g id="a_node12"><a xlink:href="classGridWorld.html#adf34e6f50b2369c06afdfc8c1ff70caf" target="_top" xlink:title="Normalizes a matriz so its sum equals 1. ">
<polygon fill="none" stroke="#000000" points="547,-135.5 547,-154.5 699,-154.5 699,-135.5 547,-135.5"/>
<text text-anchor="middle" x="623" y="-142.5" font-family="Helvetica,sans-Serif" font-size="10.00" fill="#000000">GridWorld::normalizeToOne</text>
</a>
</g>
</g>
<!-- Node258&#45;&gt;Node260 -->
<g id="edge18" class="edge">
<title>Node258&#45;&gt;Node260</title>
<path fill="none" stroke="#191970" d="M326.2798,-129.8449C387.2404,-132.9585 473.1488,-137.3463 536.8496,-140.5998"/>
<polygon fill="#191970" stroke="#191970" points="536.7097,-144.0972 546.8753,-141.1119 537.0669,-137.1063 536.7097,-144.0972"/>
</g>
<!-- Node259&#45;&gt;Node260 -->
<g id="edge17" class="edge">
<title>Node259&#45;&gt;Node260</title>
<path fill="none" stroke="#191970" d="M507.0077,-156.8169C516.6539,-155.8342 526.646,-154.8162 536.5357,-153.8087"/>
<polygon fill="#191970" stroke="#191970" points="537.1923,-157.26 546.786,-152.7644 536.4828,-150.2961 537.1923,-157.26"/>
</g>
<!-- Node261&#45;&gt;Node251 -->
<g id="edge20" class="edge">
<title>Node261&#45;&gt;Node251</title>
<path fill="none" stroke="#191970" d="M300.5792,-173.5427C319.7119,-176.9474 341.8158,-180.5437 362,-183 477.4552,-197.0502 506.693,-202 623,-202 623,-202 623,-202 794,-202 879.9799,-202 978.6689,-195.1445 1043.7762,-189.6695"/>
<polygon fill="#191970" stroke="#191970" points="1044.2636,-193.1407 1053.9301,-188.8039 1043.6689,-186.166 1044.2636,-193.1407"/>
</g>
<!-- Node261&#45;&gt;Node252 -->
<g id="edge21" class="edge">
<title>Node261&#45;&gt;Node252</title>
<path fill="none" stroke="#191970" d="M288.7778,-154.4634C300.6899,-151.4472 313.8973,-148.0938 326,-145 424.2765,-119.8781 447.1405,-105.8177 547,-88 629.6754,-73.2484 651.3874,-76.86 735,-69 787.9956,-64.0181 848.2671,-58.8115 892.0656,-55.1112"/>
<polygon fill="#191970" stroke="#191970" points="892.5989,-58.5787 902.2696,-54.2512 892.011,-51.6035 892.5989,-58.5787"/>
</g>
<!-- Node261&#45;&gt;Node259 -->
<g id="edge22" class="edge">
<title>Node261&#45;&gt;Node259</title>
<path fill="none" stroke="#191970" d="M319.5463,-164C331.3184,-164 343.6497,-164 355.707,-164"/>
<polygon fill="#191970" stroke="#191970" points="355.7523,-167.5001 365.7523,-164 355.7522,-160.5001 355.7523,-167.5001"/>
</g>
</g>
</svg>
