<?xml version="1.0" encoding="UTF-8" standalone="no"?>
<!DOCTYPE svg PUBLIC "-//W3C//DTD SVG 1.1//EN"
 "http://www.w3.org/Graphics/SVG/1.1/DTD/svg11.dtd">
<!-- Generated by graphviz version 2.40.1 (20161225.0304)
 -->
<!-- Title: ClassifierUtils::recall Pages: 1 -->
<svg width="506pt" height="118pt"
 viewBox="0.00 0.00 506.00 117.50" xmlns="http://www.w3.org/2000/svg" xmlns:xlink="http://www.w3.org/1999/xlink">
<g id="graph0" class="graph" transform="scale(1 1) rotate(0) translate(4 113.5)">
<title>ClassifierUtils::recall</title>
<!-- Node56 -->
<g id="node1" class="node">
<title>Node56</title>
<polygon fill="#bfbfbf" stroke="#000000" points="0,-59.5 0,-78.5 118,-78.5 118,-59.5 0,-59.5"/>
<text text-anchor="middle" x="59" y="-66.5" font-family="Helvetica,sans-Serif" font-size="10.00" fill="#000000">ClassifierUtils::recall</text>
</g>
<!-- Node57 -->
<g id="node2" class="node">
<title>Node57</title>
<g id="a_node2"><a xlink:href="classClassifierUtils.html#ad1ba8941d76b6f251601f60a52321796" target="_top" xlink:title="ClassifierUtils::checkBinary\lLabels">
<polygon fill="none" stroke="#000000" points="154,-79 154,-109 305,-109 305,-79 154,-79"/>
<text text-anchor="start" x="162" y="-97" font-family="Helvetica,sans-Serif" font-size="10.00" fill="#000000">ClassifierUtils::checkBinary</text>
<text text-anchor="middle" x="229.5" y="-86" font-family="Helvetica,sans-Serif" font-size="10.00" fill="#000000">Labels</text>
</a>
</g>
</g>
<!-- Node56&#45;&gt;Node57 -->
<g id="edge1" class="edge">
<title>Node56&#45;&gt;Node57</title>
<path fill="none" stroke="#191970" d="M118.1541,-77.6736C126.4497,-78.89 135.1101,-80.1598 143.7771,-81.4307"/>
<polygon fill="#191970" stroke="#191970" points="143.5308,-84.9319 153.9328,-82.9198 144.5464,-78.006 143.5308,-84.9319"/>
</g>
<!-- Node59 -->
<g id="node4" class="node">
<title>Node59</title>
<g id="a_node4"><a xlink:href="classClassifierUtils.html#abc1fc8d0290671468f3313abf500ba6d" target="_top" xlink:title="ClassifierUtils::confusion\lMatrix">
<polygon fill="none" stroke="#000000" points="160.5,-30 160.5,-60 298.5,-60 298.5,-30 160.5,-30"/>
<text text-anchor="start" x="168.5" y="-48" font-family="Helvetica,sans-Serif" font-size="10.00" fill="#000000">ClassifierUtils::confusion</text>
<text text-anchor="middle" x="229.5" y="-37" font-family="Helvetica,sans-Serif" font-size="10.00" fill="#000000">Matrix</text>
</a>
</g>
</g>
<!-- Node56&#45;&gt;Node59 -->
<g id="edge3" class="edge">
<title>Node56&#45;&gt;Node59</title>
<path fill="none" stroke="#191970" d="M118.1541,-60.6733C128.6108,-59.2014 139.6471,-57.6479 150.5455,-56.1138"/>
<polygon fill="#191970" stroke="#191970" points="151.0803,-59.5731 160.4948,-54.7133 150.1045,-52.6415 151.0803,-59.5731"/>
</g>
<!-- Node58 -->
<g id="node3" class="node">
<title>Node58</title>
<g id="a_node3"><a xlink:href="classClassifierUtils.html#a5d2e296c795dceb1e033fae541bbc4da" target="_top" xlink:title="ClassifierUtils::checkLabels">
<polygon fill="none" stroke="#000000" points="344,-79.5 344,-98.5 495,-98.5 495,-79.5 344,-79.5"/>
<text text-anchor="middle" x="419.5" y="-86.5" font-family="Helvetica,sans-Serif" font-size="10.00" fill="#000000">ClassifierUtils::checkLabels</text>
</a>
</g>
</g>
<!-- Node57&#45;&gt;Node58 -->
<g id="edge2" class="edge">
<title>Node57&#45;&gt;Node58</title>
<path fill="none" stroke="#191970" d="M305.139,-92.0095C314.4867,-91.7635 324.0956,-91.5106 333.5825,-91.261"/>
<polygon fill="#191970" stroke="#191970" points="333.9065,-94.7538 343.8109,-90.9918 333.7222,-87.7562 333.9065,-94.7538"/>
</g>
<!-- Node59&#45;&gt;Node58 -->
<g id="edge4" class="edge">
<title>Node59&#45;&gt;Node58</title>
<path fill="none" stroke="#191970" d="M294.3558,-60.0192C318.6099,-65.636 345.7885,-71.93 368.6047,-77.2137"/>
<polygon fill="#191970" stroke="#191970" points="367.8918,-80.6412 378.4236,-79.4876 369.4711,-73.8217 367.8918,-80.6412"/>
</g>
<!-- Node60 -->
<g id="node5" class="node">
<title>Node60</title>
<g id="a_node5"><a xlink:href="classClassifierUtils.html#a28f096a4fc200737a6b4477965e1e8fa" target="_top" xlink:title="ClassifierUtils::getAllClasses">
<polygon fill="none" stroke="#000000" points="341,-38.5 341,-57.5 498,-57.5 498,-38.5 341,-38.5"/>
<text text-anchor="middle" x="419.5" y="-45.5" font-family="Helvetica,sans-Serif" font-size="10.00" fill="#000000">ClassifierUtils::getAllClasses</text>
</a>
</g>
</g>
<!-- Node59&#45;&gt;Node60 -->
<g id="edge5" class="edge">
<title>Node59&#45;&gt;Node60</title>
<path fill="none" stroke="#191970" d="M298.6318,-46.0916C309.0044,-46.2553 319.8224,-46.4261 330.5375,-46.5953"/>
<polygon fill="#191970" stroke="#191970" points="330.7073,-50.0984 340.7613,-46.7568 330.8179,-43.0992 330.7073,-50.0984"/>
</g>
<!-- Node61 -->
<g id="node6" class="node">
<title>Node61</title>
<g id="a_node6"><a xlink:href="classClassifierUtils.html#aba0abbd24fbd086684b0cf7f1996d55f" target="_top" xlink:title="ClassifierUtils::findLabel">
<polygon fill="none" stroke="#000000" points="351.5,-.5 351.5,-19.5 487.5,-19.5 487.5,-.5 351.5,-.5"/>
<text text-anchor="middle" x="419.5" y="-7.5" font-family="Helvetica,sans-Serif" font-size="10.00" fill="#000000">ClassifierUtils::findLabel</text>
</a>
</g>
</g>
<!-- Node59&#45;&gt;Node61 -->
<g id="edge6" class="edge">
<title>Node59&#45;&gt;Node61</title>
<path fill="none" stroke="#191970" d="M298.6318,-32.2652C317.969,-28.7031 338.8541,-24.8558 357.7351,-21.3777"/>
<polygon fill="#191970" stroke="#191970" points="358.4999,-24.7958 367.7003,-19.542 357.2317,-17.9117 358.4999,-24.7958"/>
</g>
</g>
</svg>
