<?xml version="1.0" encoding="UTF-8" standalone="no"?>
<!DOCTYPE svg PUBLIC "-//W3C//DTD SVG 1.1//EN"
 "http://www.w3.org/Graphics/SVG/1.1/DTD/svg11.dtd">
<!-- Generated by graphviz version 2.40.1 (20161225.0304)
 -->
<!-- Title: GridWorld::policyIteration Pages: 1 -->
<svg width="1187pt" height="346pt"
 viewBox="0.00 0.00 1187.00 346.00" xmlns="http://www.w3.org/2000/svg" xmlns:xlink="http://www.w3.org/1999/xlink">
<g id="graph0" class="graph" transform="scale(1 1) rotate(0) translate(4 342)">
<title>GridWorld::policyIteration</title>
<!-- Node165 -->
<g id="node1" class="node">
<title>Node165</title>
<polygon fill="#bfbfbf" stroke="#000000" points="0,-154.5 0,-173.5 142,-173.5 142,-154.5 0,-154.5"/>
<text text-anchor="middle" x="71" y="-161.5" font-family="Helvetica,sans-Serif" font-size="10.00" fill="#000000">GridWorld::policyIteration</text>
</g>
<!-- Node166 -->
<g id="node2" class="node">
<title>Node166</title>
<g id="a_node2"><a xlink:href="classGridWorld.html#af510ea48d57d45874a0dfeb2b7ffd518" target="_top" xlink:title="GridWorld::initialize">
<polygon fill="none" stroke="#000000" points="196.5,-318.5 196.5,-337.5 309.5,-337.5 309.5,-318.5 196.5,-318.5"/>
<text text-anchor="middle" x="253" y="-325.5" font-family="Helvetica,sans-Serif" font-size="10.00" fill="#000000">GridWorld::initialize</text>
</a>
</g>
</g>
<!-- Node165&#45;&gt;Node166 -->
<g id="edge1" class="edge">
<title>Node165&#45;&gt;Node166</title>
<path fill="none" stroke="#191970" d="M75.7559,-173.7807C88.5942,-199.1651 126.4903,-267.6945 178,-304 184.0692,-308.2777 190.9389,-311.8206 197.9964,-314.7479"/>
<polygon fill="#191970" stroke="#191970" points="197.0865,-318.1443 207.679,-318.3693 199.5387,-311.5879 197.0865,-318.1443"/>
</g>
<!-- Node167 -->
<g id="node3" class="node">
<title>Node167</title>
<g id="a_node3"><a xlink:href="classGridWorld.html#a5ee28286d5b619b0cf046b83f7d8ee7c" target="_top" xlink:title="Iterative policy evaluation implemented as decribed in Sutton and Barto, 2017. ">
<polygon fill="none" stroke="#000000" points="367.5,-231 367.5,-261 509.5,-261 509.5,-231 367.5,-231"/>
<text text-anchor="start" x="375.5" y="-249" font-family="Helvetica,sans-Serif" font-size="10.00" fill="#000000">GridWorld::iterativePolicy</text>
<text text-anchor="middle" x="438.5" y="-238" font-family="Helvetica,sans-Serif" font-size="10.00" fill="#000000">Evaluation</text>
</a>
</g>
</g>
<!-- Node165&#45;&gt;Node167 -->
<g id="edge2" class="edge">
<title>Node165&#45;&gt;Node167</title>
<path fill="none" stroke="#191970" d="M113.8762,-173.5669C174.3986,-187.0713 285.8788,-211.9458 361.0999,-228.7298"/>
<polygon fill="#191970" stroke="#191970" points="360.4823,-232.178 371.0046,-230.9398 362.0068,-225.346 360.4823,-232.178"/>
</g>
<!-- Node168 -->
<g id="node4" class="node">
<title>Node168</title>
<g id="a_node4"><a xlink:href="classGridWorld.html#a5241a21b520fc8c9d4c0110de285aec1" target="_top" xlink:title="Transforms row x column coordinates from the grid world into a raster representation. ">
<polygon fill="none" stroke="#000000" points="1056,-198.5 1056,-217.5 1179,-217.5 1179,-198.5 1056,-198.5"/>
<text text-anchor="middle" x="1117.5" y="-205.5" font-family="Helvetica,sans-Serif" font-size="10.00" fill="#000000">GridWorld::fromCoord</text>
</a>
</g>
</g>
<!-- Node165&#45;&gt;Node168 -->
<g id="edge13" class="edge">
<title>Node165&#45;&gt;Node168</title>
<path fill="none" stroke="#191970" d="M86.8119,-173.6778C136.5729,-203.1823 295.1732,-290 438.5,-290 438.5,-290 438.5,-290 796,-290 905.4955,-290 1029.6421,-244.7896 1086.3122,-221.5087"/>
<polygon fill="#191970" stroke="#191970" points="1087.8878,-224.6439 1095.7723,-217.5669 1085.1954,-218.1824 1087.8878,-224.6439"/>
</g>
<!-- Node172 -->
<g id="node8" class="node">
<title>Node172</title>
<g id="a_node8"><a xlink:href="classGridWorld.html#a202b7bda8938f3c641c2812dcc9b5ac1" target="_top" xlink:title="Informs whether a state is a goal state in the grid world. ">
<polygon fill="none" stroke="#000000" points="904.5,-46.5 904.5,-65.5 1006.5,-65.5 1006.5,-46.5 904.5,-46.5"/>
<text text-anchor="middle" x="955.5" y="-53.5" font-family="Helvetica,sans-Serif" font-size="10.00" fill="#000000">GridWorld::isGoal</text>
</a>
</g>
</g>
<!-- Node165&#45;&gt;Node172 -->
<g id="edge14" class="edge">
<title>Node165&#45;&gt;Node172</title>
<path fill="none" stroke="#191970" d="M78.7174,-154.2374C94.911,-134.4363 134.5492,-89.4464 178,-66 283.1095,-9.282 319.0641,0 438.5,0 438.5,0 438.5,0 625,0 728.9151,0 848.6585,-27.2442 911.5947,-43.7271"/>
<polygon fill="#191970" stroke="#191970" points="911.0018,-47.1908 921.565,-46.3733 912.7975,-40.425 911.0018,-47.1908"/>
</g>
<!-- Node174 -->
<g id="node10" class="node">
<title>Node174</title>
<g id="a_node10"><a xlink:href="classGridWorld.html#a483bf6d05d61a8e14f0fab04273d8593" target="_top" xlink:title="Gets the policy for state s ">
<polygon fill="none" stroke="#000000" points="368,-116.5 368,-135.5 509,-135.5 509,-116.5 368,-116.5"/>
<text text-anchor="middle" x="438.5" y="-123.5" font-family="Helvetica,sans-Serif" font-size="10.00" fill="#000000">GridWorld::policyForState</text>
</a>
</g>
</g>
<!-- Node165&#45;&gt;Node174 -->
<g id="edge15" class="edge">
<title>Node165&#45;&gt;Node174</title>
<path fill="none" stroke="#191970" d="M118.5126,-154.4809C137.0148,-151.0585 158.4361,-147.4439 178,-145 238.0066,-137.5042 306.1868,-132.6619 357.7407,-129.7428"/>
<polygon fill="#191970" stroke="#191970" points="358.0313,-133.2321 367.8224,-129.1843 357.6441,-126.2428 358.0313,-133.2321"/>
</g>
<!-- Node176 -->
<g id="node12" class="node">
<title>Node176</title>
<g id="a_node12"><a xlink:href="classGridWorld.html#a5b720f7017beff840503f77c25da2586" target="_top" xlink:title="Creates a new policy for a given state giving preference to the actions with maximum value...">
<polygon fill="none" stroke="#000000" points="178,-75.5 178,-94.5 328,-94.5 328,-75.5 178,-75.5"/>
<text text-anchor="middle" x="253" y="-82.5" font-family="Helvetica,sans-Serif" font-size="10.00" fill="#000000">GridWorld::policyIncrement</text>
</a>
</g>
</g>
<!-- Node165&#45;&gt;Node176 -->
<g id="edge17" class="edge">
<title>Node165&#45;&gt;Node176</title>
<path fill="none" stroke="#191970" d="M89.2811,-154.3735C110.3667,-143.4451 146.2169,-125.3989 178,-112 189.7558,-107.0441 202.7707,-102.1562 214.6134,-97.93"/>
<polygon fill="#191970" stroke="#191970" points="215.9589,-101.1671 224.2322,-94.5487 213.6374,-94.5632 215.9589,-101.1671"/>
</g>
<!-- Node178 -->
<g id="node14" class="node">
<title>Node178</title>
<g id="a_node14"><a xlink:href="classGridWorld.html#a9dfe466eee829e7d1b8315b789078be9" target="_top" xlink:title="GridWorld::prettifyPolicy">
<polygon fill="none" stroke="#000000" points="184.5,-154.5 184.5,-173.5 321.5,-173.5 321.5,-154.5 184.5,-154.5"/>
<text text-anchor="middle" x="253" y="-161.5" font-family="Helvetica,sans-Serif" font-size="10.00" fill="#000000">GridWorld::prettifyPolicy</text>
</a>
</g>
</g>
<!-- Node165&#45;&gt;Node178 -->
<g id="edge22" class="edge">
<title>Node165&#45;&gt;Node178</title>
<path fill="none" stroke="#191970" d="M142.1479,-164C152.6497,-164 163.5224,-164 174.1688,-164"/>
<polygon fill="#191970" stroke="#191970" points="174.2874,-167.5001 184.2873,-164 174.2873,-160.5001 174.2874,-167.5001"/>
</g>
<!-- Node167&#45;&gt;Node168 -->
<g id="edge3" class="edge">
<title>Node167&#45;&gt;Node168</title>
<path fill="none" stroke="#191970" d="M509.8203,-245.3812C619.631,-243.904 836.6307,-238.9052 1020,-222 1029.0663,-221.1642 1038.5788,-220.0704 1047.9597,-218.8622"/>
<polygon fill="#191970" stroke="#191970" points="1048.6114,-222.3063 1058.0599,-217.5131 1047.6845,-215.368 1048.6114,-222.3063"/>
</g>
<!-- Node169 -->
<g id="node5" class="node">
<title>Node169</title>
<g id="a_node5"><a xlink:href="classGridWorld.html#afb39acf3fcb5c3f62adea9668a035445" target="_top" xlink:title="Gets the q value of action a on state s ">
<polygon fill="none" stroke="#000000" points="560.5,-122.5 560.5,-141.5 689.5,-141.5 689.5,-122.5 560.5,-122.5"/>
<text text-anchor="middle" x="625" y="-129.5" font-family="Helvetica,sans-Serif" font-size="10.00" fill="#000000">GridWorld::actionValue</text>
</a>
</g>
</g>
<!-- Node167&#45;&gt;Node169 -->
<g id="edge4" class="edge">
<title>Node167&#45;&gt;Node169</title>
<path fill="none" stroke="#191970" d="M463.2658,-230.8617C499.1029,-208.9559 565.0157,-168.666 600.63,-146.8964"/>
<polygon fill="#191970" stroke="#191970" points="602.7018,-149.7321 609.4087,-141.5304 599.051,-143.7595 602.7018,-149.7321"/>
</g>
<!-- Node169&#45;&gt;Node168 -->
<g id="edge6" class="edge">
<title>Node169&#45;&gt;Node168</title>
<path fill="none" stroke="#191970" d="M679.9376,-141.5377C698.0922,-144.6313 718.401,-148.0296 737,-151 844.472,-168.1641 969.275,-186.5694 1045.8126,-197.6831"/>
<polygon fill="#191970" stroke="#191970" points="1045.4251,-201.1634 1055.824,-199.1351 1046.43,-194.2359 1045.4251,-201.1634"/>
</g>
<!-- Node170 -->
<g id="node6" class="node">
<title>Node170</title>
<g id="a_node6"><a xlink:href="classGridWorld.html#a03d2aaf35961c3e190e4b7ab12f76e4d" target="_top" xlink:title="Transforms a raster coordinate from the grid world into its corresponding row x column representation...">
<polygon fill="none" stroke="#000000" points="1062.5,-84.5 1062.5,-103.5 1172.5,-103.5 1172.5,-84.5 1062.5,-84.5"/>
<text text-anchor="middle" x="1117.5" y="-91.5" font-family="Helvetica,sans-Serif" font-size="10.00" fill="#000000">GridWorld::toCoord</text>
</a>
</g>
</g>
<!-- Node169&#45;&gt;Node170 -->
<g id="edge5" class="edge">
<title>Node169&#45;&gt;Node170</title>
<path fill="none" stroke="#191970" d="M673.6145,-122.466C693.2295,-118.9563 716.1204,-115.2843 737,-113 847.0491,-100.9605 975.8494,-96.5422 1051.8376,-94.926"/>
<polygon fill="#191970" stroke="#191970" points="1052.2749,-98.4179 1062.2019,-94.716 1052.1331,-91.4194 1052.2749,-98.4179"/>
</g>
<!-- Node171 -->
<g id="node7" class="node">
<title>Node171</title>
<g id="a_node7"><a xlink:href="classGridWorld.html#aaf8d964cddf2d838737d0707481ad792" target="_top" xlink:title="Returns the transition probability to nextState, given currentState and action ">
<polygon fill="none" stroke="#000000" points="737,-122.5 737,-141.5 855,-141.5 855,-122.5 737,-122.5"/>
<text text-anchor="middle" x="796" y="-129.5" font-family="Helvetica,sans-Serif" font-size="10.00" fill="#000000">GridWorld::transition</text>
</a>
</g>
</g>
<!-- Node169&#45;&gt;Node171 -->
<g id="edge7" class="edge">
<title>Node169&#45;&gt;Node171</title>
<path fill="none" stroke="#191970" d="M689.6478,-132C701.7656,-132 714.4787,-132 726.7301,-132"/>
<polygon fill="#191970" stroke="#191970" points="726.8896,-135.5001 736.8896,-132 726.8896,-128.5001 726.8896,-135.5001"/>
</g>
<!-- Node171&#45;&gt;Node172 -->
<g id="edge8" class="edge">
<title>Node171&#45;&gt;Node172</title>
<path fill="none" stroke="#191970" d="M816.2008,-122.3745C844.005,-109.1261 894.2457,-85.187 926.184,-69.9687"/>
<polygon fill="#191970" stroke="#191970" points="927.9412,-73.0085 935.4632,-65.5473 924.9301,-66.6892 927.9412,-73.0085"/>
</g>
<!-- Node173 -->
<g id="node9" class="node">
<title>Node173</title>
<g id="a_node9"><a xlink:href="classGridWorld.html#aee5066a1ae4ad067c4ac846c6ed15dea" target="_top" xlink:title="Returns the next state that results from applying an action to a state. ">
<polygon fill="none" stroke="#000000" points="891,-122.5 891,-141.5 1020,-141.5 1020,-122.5 891,-122.5"/>
<text text-anchor="middle" x="955.5" y="-129.5" font-family="Helvetica,sans-Serif" font-size="10.00" fill="#000000">GridWorld::applyAction</text>
</a>
</g>
</g>
<!-- Node171&#45;&gt;Node173 -->
<g id="edge10" class="edge">
<title>Node171&#45;&gt;Node173</title>
<path fill="none" stroke="#191970" d="M855.3919,-132C863.7314,-132 872.3891,-132 880.9661,-132"/>
<polygon fill="#191970" stroke="#191970" points="880.9737,-135.5001 890.9737,-132 880.9737,-128.5001 880.9737,-135.5001"/>
</g>
<!-- Node172&#45;&gt;Node170 -->
<g id="edge9" class="edge">
<title>Node172&#45;&gt;Node170</title>
<path fill="none" stroke="#191970" d="M996.3794,-65.589C1017.8534,-70.6261 1044.3605,-76.8438 1067.097,-82.1771"/>
<polygon fill="#191970" stroke="#191970" points="1066.3795,-85.6037 1076.9145,-84.4799 1067.9781,-78.7887 1066.3795,-85.6037"/>
</g>
<!-- Node173&#45;&gt;Node168 -->
<g id="edge12" class="edge">
<title>Node173&#45;&gt;Node168</title>
<path fill="none" stroke="#191970" d="M983.7684,-141.5922C995.1624,-145.6971 1008.3429,-150.751 1020,-156 1045.2548,-167.3718 1073.0344,-182.4559 1092.4586,-193.4483"/>
<polygon fill="#191970" stroke="#191970" points="1090.8556,-196.5633 1101.2753,-198.4816 1094.3261,-190.4841 1090.8556,-196.5633"/>
</g>
<!-- Node173&#45;&gt;Node170 -->
<g id="edge11" class="edge">
<title>Node173&#45;&gt;Node170</title>
<path fill="none" stroke="#191970" d="M996.3794,-122.411C1017.8534,-117.3739 1044.3605,-111.1562 1067.097,-105.8229"/>
<polygon fill="#191970" stroke="#191970" points="1067.9781,-109.2113 1076.9145,-103.5201 1066.3795,-102.3963 1067.9781,-109.2113"/>
</g>
<!-- Node175 -->
<g id="node11" class="node">
<title>Node175</title>
<g id="a_node11"><a xlink:href="classGridWorld.html#adf34e6f50b2369c06afdfc8c1ff70caf" target="_top" xlink:title="Normalizes a matriz so its sum equals 1. ">
<polygon fill="none" stroke="#000000" points="549,-33.5 549,-52.5 701,-52.5 701,-33.5 549,-33.5"/>
<text text-anchor="middle" x="625" y="-40.5" font-family="Helvetica,sans-Serif" font-size="10.00" fill="#000000">GridWorld::normalizeToOne</text>
</a>
</g>
</g>
<!-- Node174&#45;&gt;Node175 -->
<g id="edge16" class="edge">
<title>Node174&#45;&gt;Node175</title>
<path fill="none" stroke="#191970" d="M486.5505,-116.3865C495.6043,-113.6689 504.7974,-110.2548 513,-106 531.4881,-96.41 531.2681,-86.9251 549,-76 561.2965,-68.4238 575.6384,-61.7142 588.5297,-56.3568"/>
<polygon fill="#191970" stroke="#191970" points="590.0737,-59.5084 598.0471,-52.5316 587.4632,-53.0134 590.0737,-59.5084"/>
</g>
<!-- Node176&#45;&gt;Node174 -->
<g id="edge20" class="edge">
<title>Node176&#45;&gt;Node174</title>
<path fill="none" stroke="#191970" d="M296.0237,-94.5093C322.6186,-100.3874 356.9577,-107.9772 385.2602,-114.2327"/>
<polygon fill="#191970" stroke="#191970" points="384.869,-117.7307 395.3887,-116.4714 386.3798,-110.8956 384.869,-117.7307"/>
</g>
<!-- Node176&#45;&gt;Node175 -->
<g id="edge21" class="edge">
<title>Node176&#45;&gt;Node175</title>
<path fill="none" stroke="#191970" d="M284.2475,-75.393C306.3089,-69.0369 336.6861,-61.1377 364,-57 421.9399,-48.2229 487.8417,-44.7385 538.9282,-43.4404"/>
<polygon fill="#191970" stroke="#191970" points="539.0248,-46.9392 548.9413,-43.209 538.863,-39.9411 539.0248,-46.9392"/>
</g>
<!-- Node177 -->
<g id="node13" class="node">
<title>Node177</title>
<g id="a_node13"><a xlink:href="classGridWorld.html#ab2473dfcba808923e74ef5e41c815293" target="_top" xlink:title="Gets the q values of all actions for a given state. ">
<polygon fill="none" stroke="#000000" points="364,-67 364,-97 513,-97 513,-67 364,-67"/>
<text text-anchor="start" x="372" y="-85" font-family="Helvetica,sans-Serif" font-size="10.00" fill="#000000">GridWorld::actionValuesFor</text>
<text text-anchor="middle" x="438.5" y="-74" font-family="Helvetica,sans-Serif" font-size="10.00" fill="#000000">State</text>
</a>
</g>
</g>
<!-- Node176&#45;&gt;Node177 -->
<g id="edge18" class="edge">
<title>Node176&#45;&gt;Node177</title>
<path fill="none" stroke="#191970" d="M328.1825,-83.7841C336.5363,-83.649 345.0873,-83.5107 353.5512,-83.3738"/>
<polygon fill="#191970" stroke="#191970" points="353.8707,-86.8692 363.8128,-83.2079 353.7574,-79.8701 353.8707,-86.8692"/>
</g>
<!-- Node177&#45;&gt;Node169 -->
<g id="edge19" class="edge">
<title>Node177&#45;&gt;Node169</title>
<path fill="none" stroke="#191970" d="M494.4561,-97.0016C521.641,-104.2898 553.8887,-112.9353 579.5314,-119.81"/>
<polygon fill="#191970" stroke="#191970" points="578.8013,-123.2378 589.3666,-122.4468 580.614,-116.4766 578.8013,-123.2378"/>
</g>
<!-- Node178&#45;&gt;Node168 -->
<g id="edge23" class="edge">
<title>Node178&#45;&gt;Node168</title>
<path fill="none" stroke="#191970" d="M321.6686,-169.2099C335.6709,-170.1989 350.3068,-171.1796 364,-172 614.3634,-187.0007 911.8251,-199.7046 1045.8051,-205.1532"/>
<polygon fill="#191970" stroke="#191970" points="1045.8062,-208.656 1055.9398,-205.5642 1046.0899,-201.6618 1045.8062,-208.656"/>
</g>
<!-- Node178&#45;&gt;Node172 -->
<g id="edge24" class="edge">
<title>Node178&#45;&gt;Node172</title>
<path fill="none" stroke="#191970" d="M321.7671,-170.7236C375.8649,-173.2914 452.0282,-170.7637 513,-145 532.7191,-136.6677 529.5682,-121.982 549,-113 662.6773,-60.4549 811.8388,-53.1901 894.1996,-53.8"/>
<polygon fill="#191970" stroke="#191970" points="894.3527,-57.3019 904.3927,-53.9186 894.4341,-50.3024 894.3527,-57.3019"/>
</g>
<!-- Node178&#45;&gt;Node174 -->
<g id="edge25" class="edge">
<title>Node178&#45;&gt;Node174</title>
<path fill="none" stroke="#191970" d="M299.8095,-154.411C324.8395,-149.2835 355.8414,-142.9328 382.1822,-137.5368"/>
<polygon fill="#191970" stroke="#191970" points="382.933,-140.9558 392.0271,-135.5201 381.5281,-134.0982 382.933,-140.9558"/>
</g>
</g>
</svg>
