<?xml version="1.0" encoding="UTF-8" standalone="no"?>
<!DOCTYPE svg PUBLIC "-//W3C//DTD SVG 1.1//EN"
 "http://www.w3.org/Graphics/SVG/1.1/DTD/svg11.dtd">
<!-- Generated by graphviz version 2.40.1 (20161225.0304)
 -->
<!-- Title: MLP::fit Pages: 1 -->
<svg width="351pt" height="104pt"
 viewBox="0.00 0.00 351.00 104.00" xmlns="http://www.w3.org/2000/svg" xmlns:xlink="http://www.w3.org/1999/xlink">
<g id="graph0" class="graph" transform="scale(1 1) rotate(0) translate(4 100)">
<title>MLP::fit</title>
<!-- Node7 -->
<g id="node1" class="node">
<title>Node7</title>
<polygon fill="#bfbfbf" stroke="#000000" points="0,-38.5 0,-57.5 53,-57.5 53,-38.5 0,-38.5"/>
<text text-anchor="middle" x="26.5" y="-45.5" font-family="Helvetica,sans-Serif" font-size="10.00" fill="#000000">MLP::fit</text>
</g>
<!-- Node8 -->
<g id="node2" class="node">
<title>Node8</title>
<g id="a_node2"><a xlink:href="classTimer.html#a3a8b5272198d029779dc9302a54305a8" target="_top" xlink:title="Start the timer. ">
<polygon fill="none" stroke="#000000" points="108.5,-76.5 108.5,-95.5 182.5,-95.5 182.5,-76.5 108.5,-76.5"/>
<text text-anchor="middle" x="145.5" y="-83.5" font-family="Helvetica,sans-Serif" font-size="10.00" fill="#000000">Timer::start</text>
</a>
</g>
</g>
<!-- Node7&#45;&gt;Node8 -->
<g id="edge1" class="edge">
<title>Node7&#45;&gt;Node8</title>
<path fill="none" stroke="#191970" d="M53.2059,-56.5279C68.6724,-61.4668 88.4381,-67.7786 105.7071,-73.293"/>
<polygon fill="#191970" stroke="#191970" points="104.9441,-76.7234 115.5349,-76.4313 107.0735,-70.0552 104.9441,-76.7234"/>
</g>
<!-- Node9 -->
<g id="node3" class="node">
<title>Node9</title>
<g id="a_node3"><a xlink:href="classTimer.html#a39c1c8047b50133aea46341f898da32f" target="_top" xlink:title="Checks if the time interval passed in the constructor has passed. ">
<polygon fill="none" stroke="#000000" points="100,-38.5 100,-57.5 191,-57.5 191,-38.5 100,-38.5"/>
<text text-anchor="middle" x="145.5" y="-45.5" font-family="Helvetica,sans-Serif" font-size="10.00" fill="#000000">Timer::activate</text>
</a>
</g>
</g>
<!-- Node7&#45;&gt;Node9 -->
<g id="edge2" class="edge">
<title>Node7&#45;&gt;Node9</title>
<path fill="none" stroke="#191970" d="M53.2059,-48C64.0201,-48 76.9362,-48 89.631,-48"/>
<polygon fill="#191970" stroke="#191970" points="89.7202,-51.5001 99.7202,-48 89.7202,-44.5001 89.7202,-51.5001"/>
</g>
<!-- Node11 -->
<g id="node5" class="node">
<title>Node11</title>
<g id="a_node5"><a xlink:href="classTimer.html#a7f5fac9e0cce578f93a6925c31d58c75" target="_top" xlink:title="Timer::runningTime">
<polygon fill="none" stroke="#000000" points="89,-.5 89,-19.5 202,-19.5 202,-.5 89,-.5"/>
<text text-anchor="middle" x="145.5" y="-7.5" font-family="Helvetica,sans-Serif" font-size="10.00" fill="#000000">Timer::runningTime</text>
</a>
</g>
</g>
<!-- Node7&#45;&gt;Node11 -->
<g id="edge4" class="edge">
<title>Node7&#45;&gt;Node11</title>
<path fill="none" stroke="#191970" d="M53.2059,-39.4721C68.6724,-34.5332 88.4381,-28.2214 105.7071,-22.707"/>
<polygon fill="#191970" stroke="#191970" points="107.0735,-25.9448 115.5349,-19.5687 104.9441,-19.2766 107.0735,-25.9448"/>
</g>
<!-- Node10 -->
<g id="node4" class="node">
<title>Node10</title>
<g id="a_node4"><a xlink:href="classTimer.html#a449648647fc58458d12282335ae86ad9" target="_top" xlink:title="Formats seconds as HH:MM:SS.mmm. ">
<polygon fill="none" stroke="#000000" points="238,-19.5 238,-38.5 343,-38.5 343,-19.5 238,-19.5"/>
<text text-anchor="middle" x="290.5" y="-26.5" font-family="Helvetica,sans-Serif" font-size="10.00" fill="#000000">Timer::prettyTime</text>
</a>
</g>
</g>
<!-- Node9&#45;&gt;Node10 -->
<g id="edge3" class="edge">
<title>Node9&#45;&gt;Node10</title>
<path fill="none" stroke="#191970" d="M191.3789,-41.9883C202.9169,-40.4764 215.4994,-38.8277 227.708,-37.2279"/>
<polygon fill="#191970" stroke="#191970" points="228.3836,-40.6694 237.8441,-35.8997 227.4741,-33.7287 228.3836,-40.6694"/>
</g>
<!-- Node11&#45;&gt;Node10 -->
<g id="edge5" class="edge">
<title>Node11&#45;&gt;Node10</title>
<path fill="none" stroke="#191970" d="M202.3917,-17.4548C210.627,-18.5339 219.1444,-19.65 227.4911,-20.7437"/>
<polygon fill="#191970" stroke="#191970" points="227.187,-24.2337 237.557,-22.0626 228.0966,-17.293 227.187,-24.2337"/>
</g>
</g>
</svg>
