<?xml version="1.0" encoding="UTF-8" standalone="no"?>
<!DOCTYPE svg PUBLIC "-//W3C//DTD SVG 1.1//EN"
 "http://www.w3.org/Graphics/SVG/1.1/DTD/svg11.dtd">
<!-- Generated by graphviz version 2.40.1 (20161225.0304)
 -->
<!-- Title: GridWorld::QLearning Pages: 1 -->
<svg width="699pt" height="370pt"
 viewBox="0.00 0.00 699.00 370.00" xmlns="http://www.w3.org/2000/svg" xmlns:xlink="http://www.w3.org/1999/xlink">
<g id="graph0" class="graph" transform="scale(1 1) rotate(0) translate(4 366)">
<title>GridWorld::QLearning</title>
<!-- Node192 -->
<g id="node1" class="node">
<title>Node192</title>
<polygon fill="#bfbfbf" stroke="#000000" points="0,-171.5 0,-190.5 121,-190.5 121,-171.5 0,-171.5"/>
<text text-anchor="middle" x="60.5" y="-178.5" font-family="Helvetica,sans-Serif" font-size="10.00" fill="#000000">GridWorld::QLearning</text>
</g>
<!-- Node193 -->
<g id="node2" class="node">
<title>Node193</title>
<g id="a_node2"><a xlink:href="classGridWorld.html#af510ea48d57d45874a0dfeb2b7ffd518" target="_top" xlink:title="GridWorld::initialize">
<polygon fill="none" stroke="#000000" points="178,-342.5 178,-361.5 291,-361.5 291,-342.5 178,-342.5"/>
<text text-anchor="middle" x="234.5" y="-349.5" font-family="Helvetica,sans-Serif" font-size="10.00" fill="#000000">GridWorld::initialize</text>
</a>
</g>
</g>
<!-- Node192&#45;&gt;Node193 -->
<g id="edge1" class="edge">
<title>Node192&#45;&gt;Node193</title>
<path fill="none" stroke="#191970" d="M63.6979,-190.6357C73.1964,-217.6971 103.9358,-294.8942 157,-333 160.4812,-335.4999 164.2529,-337.6731 168.194,-339.562"/>
<polygon fill="#191970" stroke="#191970" points="167.0621,-342.8814 177.6404,-343.4735 169.7402,-336.4139 167.0621,-342.8814"/>
</g>
<!-- Node194 -->
<g id="node3" class="node">
<title>Node194</title>
<g id="a_node3"><a xlink:href="classTimer.html#a3a8b5272198d029779dc9302a54305a8" target="_top" xlink:title="Start the timer. ">
<polygon fill="none" stroke="#000000" points="197.5,-304.5 197.5,-323.5 271.5,-323.5 271.5,-304.5 197.5,-304.5"/>
<text text-anchor="middle" x="234.5" y="-311.5" font-family="Helvetica,sans-Serif" font-size="10.00" fill="#000000">Timer::start</text>
</a>
</g>
</g>
<!-- Node192&#45;&gt;Node194 -->
<g id="edge2" class="edge">
<title>Node192&#45;&gt;Node194</title>
<path fill="none" stroke="#191970" d="M66.4372,-190.748C79.8715,-211.9882 114.7441,-262.7223 157,-290 166.2414,-295.9657 177.0566,-300.525 187.6253,-303.9809"/>
<polygon fill="#191970" stroke="#191970" points="186.6259,-307.3352 197.2098,-306.8532 188.6354,-300.6298 186.6259,-307.3352"/>
</g>
<!-- Node195 -->
<g id="node4" class="node">
<title>Node195</title>
<g id="a_node4"><a xlink:href="classGridWorld.html#a32bc48e56c9a7163d2fbf917df9d35c0" target="_top" xlink:title="Selects a random non&#45;goal state. ">
<polygon fill="none" stroke="#000000" points="157,-190.5 157,-209.5 312,-209.5 312,-190.5 157,-190.5"/>
<text text-anchor="middle" x="234.5" y="-197.5" font-family="Helvetica,sans-Serif" font-size="10.00" fill="#000000">GridWorld::getNonGoalState</text>
</a>
</g>
</g>
<!-- Node192&#45;&gt;Node195 -->
<g id="edge3" class="edge">
<title>Node192&#45;&gt;Node195</title>
<path fill="none" stroke="#191970" d="M121.3568,-187.6453C129.598,-188.5452 138.1844,-189.4828 146.78,-190.4214"/>
<polygon fill="#191970" stroke="#191970" points="146.534,-193.9152 156.8548,-191.5215 147.2939,-186.9566 146.534,-193.9152"/>
</g>
<!-- Node196 -->
<g id="node5" class="node">
<title>Node196</title>
<g id="a_node5"><a xlink:href="classGridWorld.html#a202b7bda8938f3c641c2812dcc9b5ac1" target="_top" xlink:title="Informs whether a state is a goal state in the grid world. ">
<polygon fill="none" stroke="#000000" points="374.5,-228.5 374.5,-247.5 476.5,-247.5 476.5,-228.5 374.5,-228.5"/>
<text text-anchor="middle" x="425.5" y="-235.5" font-family="Helvetica,sans-Serif" font-size="10.00" fill="#000000">GridWorld::isGoal</text>
</a>
</g>
</g>
<!-- Node192&#45;&gt;Node196 -->
<g id="edge6" class="edge">
<title>Node192&#45;&gt;Node196</title>
<path fill="none" stroke="#191970" d="M79.5387,-190.5069C98.6157,-199.5455 129.0793,-212.6716 157,-219 226.7896,-234.8183 309.1579,-238.5109 364.0856,-238.9243"/>
<polygon fill="#191970" stroke="#191970" points="364.339,-242.4253 374.353,-238.9658 364.3673,-235.4253 364.339,-242.4253"/>
</g>
<!-- Node197 -->
<g id="node6" class="node">
<title>Node197</title>
<g id="a_node6"><a xlink:href="classGridWorld.html#a03d2aaf35961c3e190e4b7ab12f76e4d" target="_top" xlink:title="Transforms a raster coordinate from the grid world into its corresponding row x column representation...">
<polygon fill="none" stroke="#000000" points="560,-228.5 560,-247.5 670,-247.5 670,-228.5 560,-228.5"/>
<text text-anchor="middle" x="615" y="-235.5" font-family="Helvetica,sans-Serif" font-size="10.00" fill="#000000">GridWorld::toCoord</text>
</a>
</g>
</g>
<!-- Node192&#45;&gt;Node197 -->
<g id="edge7" class="edge">
<title>Node192&#45;&gt;Node197</title>
<path fill="none" stroke="#191970" d="M71.7295,-190.7244C88.8142,-204.8736 122.9587,-230.6798 157,-242 296.7174,-288.4621 473.9337,-265.6181 561.3041,-249.4199"/>
<polygon fill="#191970" stroke="#191970" points="562.0797,-252.8353 571.2516,-247.5319 560.7743,-245.9581 562.0797,-252.8353"/>
</g>
<!-- Node198 -->
<g id="node7" class="node">
<title>Node198</title>
<g id="a_node7"><a xlink:href="classGridWorld.html#a87fc3feb5c480cfce865c7005d1eaf50" target="_top" xlink:title="Selects an action for a state s following an e&#45;greedy policy. ">
<polygon fill="none" stroke="#000000" points="178,-38.5 178,-57.5 291,-57.5 291,-38.5 178,-38.5"/>
<text text-anchor="middle" x="234.5" y="-45.5" font-family="Helvetica,sans-Serif" font-size="10.00" fill="#000000">GridWorld::eGreedy</text>
</a>
</g>
</g>
<!-- Node192&#45;&gt;Node198 -->
<g id="edge8" class="edge">
<title>Node192&#45;&gt;Node198</title>
<path fill="none" stroke="#191970" d="M66.4372,-171.252C79.8715,-150.0118 114.7441,-99.2777 157,-72 163.8987,-67.5466 171.6744,-63.8769 179.5699,-60.865"/>
<polygon fill="#191970" stroke="#191970" points="180.9162,-64.1024 189.2092,-57.5087 178.6144,-57.4916 180.9162,-64.1024"/>
</g>
<!-- Node199 -->
<g id="node8" class="node">
<title>Node199</title>
<g id="a_node8"><a xlink:href="classGridWorld.html#aee5066a1ae4ad067c4ac846c6ed15dea" target="_top" xlink:title="Returns the next state that results from applying an action to a state. ">
<polygon fill="none" stroke="#000000" points="170,-152.5 170,-171.5 299,-171.5 299,-152.5 170,-152.5"/>
<text text-anchor="middle" x="234.5" y="-159.5" font-family="Helvetica,sans-Serif" font-size="10.00" fill="#000000">GridWorld::applyAction</text>
</a>
</g>
</g>
<!-- Node192&#45;&gt;Node199 -->
<g id="edge9" class="edge">
<title>Node192&#45;&gt;Node199</title>
<path fill="none" stroke="#191970" d="M121.3568,-174.3547C133.7294,-173.0037 146.8797,-171.5677 159.6719,-170.1709"/>
<polygon fill="#191970" stroke="#191970" points="160.2715,-173.6263 169.8325,-169.0614 159.5116,-166.6677 160.2715,-173.6263"/>
</g>
<!-- Node201 -->
<g id="node10" class="node">
<title>Node201</title>
<g id="a_node10"><a xlink:href="classGridWorld.html#abd4f590c478999d61664d1d1e71d9894" target="_top" xlink:title="Gets the best action value for state s. ">
<polygon fill="none" stroke="#000000" points="164.5,-.5 164.5,-19.5 304.5,-19.5 304.5,-.5 164.5,-.5"/>
<text text-anchor="middle" x="234.5" y="-7.5" font-family="Helvetica,sans-Serif" font-size="10.00" fill="#000000">GridWorld::bestQForState</text>
</a>
</g>
</g>
<!-- Node192&#45;&gt;Node201 -->
<g id="edge12" class="edge">
<title>Node192&#45;&gt;Node201</title>
<path fill="none" stroke="#191970" d="M63.6979,-171.3643C73.1964,-144.3029 103.9358,-67.1058 157,-29 159.7006,-27.0607 162.576,-25.318 165.5697,-23.7521"/>
<polygon fill="#191970" stroke="#191970" points="167.1735,-26.8683 174.849,-19.565 164.2944,-20.4877 167.1735,-26.8683"/>
</g>
<!-- Node202 -->
<g id="node11" class="node">
<title>Node202</title>
<g id="a_node11"><a xlink:href="classGridWorld.html#a4b12faf8f8641b38927715622a2852c2" target="_top" xlink:title="Updates the policy matrix according to the action values from the Q matrix. ">
<polygon fill="none" stroke="#000000" points="348,-65 348,-95 503,-95 503,-65 348,-65"/>
<text text-anchor="start" x="356" y="-83" font-family="Helvetica,sans-Serif" font-size="10.00" fill="#000000">GridWorld::getOptimalPolicy</text>
<text text-anchor="middle" x="425.5" y="-72" font-family="Helvetica,sans-Serif" font-size="10.00" fill="#000000">FromQ</text>
</a>
</g>
</g>
<!-- Node192&#45;&gt;Node202 -->
<g id="edge13" class="edge">
<title>Node192&#45;&gt;Node202</title>
<path fill="none" stroke="#191970" d="M68.9319,-171.4468C84.4417,-154.6129 119.3718,-120.0282 157,-105 214.2845,-82.1214 283.7272,-76.1707 337.6385,-75.7835"/>
<polygon fill="#191970" stroke="#191970" points="337.8641,-79.2834 347.8611,-75.7749 337.8581,-72.2834 337.8641,-79.2834"/>
</g>
<!-- Node204 -->
<g id="node13" class="node">
<title>Node204</title>
<g id="a_node13"><a xlink:href="classGridWorld.html#a9dfe466eee829e7d1b8315b789078be9" target="_top" xlink:title="GridWorld::prettifyPolicy">
<polygon fill="none" stroke="#000000" points="166,-114.5 166,-133.5 303,-133.5 303,-114.5 166,-114.5"/>
<text text-anchor="middle" x="234.5" y="-121.5" font-family="Helvetica,sans-Serif" font-size="10.00" fill="#000000">GridWorld::prettifyPolicy</text>
</a>
</g>
</g>
<!-- Node192&#45;&gt;Node204 -->
<g id="edge15" class="edge">
<title>Node192&#45;&gt;Node204</title>
<path fill="none" stroke="#191970" d="M82.4248,-171.3862C101.788,-163.133 130.9175,-151.2911 157,-143 164.7904,-140.5236 173.107,-138.1793 181.2933,-136.0379"/>
<polygon fill="#191970" stroke="#191970" points="182.3385,-139.3837 191.1701,-133.5311 180.6164,-132.5988 182.3385,-139.3837"/>
</g>
<!-- Node195&#45;&gt;Node196 -->
<g id="edge4" class="edge">
<title>Node195&#45;&gt;Node196</title>
<path fill="none" stroke="#191970" d="M282.6974,-209.589C308.4696,-214.7165 340.3906,-221.0672 367.5124,-226.4632"/>
<polygon fill="#191970" stroke="#191970" points="367.1585,-229.9613 377.6492,-228.4799 368.5244,-223.0959 367.1585,-229.9613"/>
</g>
<!-- Node196&#45;&gt;Node197 -->
<g id="edge5" class="edge">
<title>Node196&#45;&gt;Node197</title>
<path fill="none" stroke="#191970" d="M476.7814,-238C499.2244,-238 525.8216,-238 549.6613,-238"/>
<polygon fill="#191970" stroke="#191970" points="549.6893,-241.5001 559.6893,-238 549.6893,-234.5001 549.6893,-241.5001"/>
</g>
<!-- Node199&#45;&gt;Node197 -->
<g id="edge10" class="edge">
<title>Node199&#45;&gt;Node197</title>
<path fill="none" stroke="#191970" d="M282.3053,-171.5485C352.172,-185.5035 482.0084,-211.4366 557.1608,-226.4474"/>
<polygon fill="#191970" stroke="#191970" points="556.8984,-229.964 567.3902,-228.4906 558.2695,-223.0996 556.8984,-229.964"/>
</g>
<!-- Node200 -->
<g id="node9" class="node">
<title>Node200</title>
<g id="a_node9"><a xlink:href="classGridWorld.html#a5241a21b520fc8c9d4c0110de285aec1" target="_top" xlink:title="Transforms row x column coordinates from the grid world into a raster representation. ">
<polygon fill="none" stroke="#000000" points="364,-152.5 364,-171.5 487,-171.5 487,-152.5 364,-152.5"/>
<text text-anchor="middle" x="425.5" y="-159.5" font-family="Helvetica,sans-Serif" font-size="10.00" fill="#000000">GridWorld::fromCoord</text>
</a>
</g>
</g>
<!-- Node199&#45;&gt;Node200 -->
<g id="edge11" class="edge">
<title>Node199&#45;&gt;Node200</title>
<path fill="none" stroke="#191970" d="M299.1639,-162C316.7059,-162 335.8028,-162 353.7121,-162"/>
<polygon fill="#191970" stroke="#191970" points="353.8092,-165.5001 363.8092,-162 353.8092,-158.5001 353.8092,-165.5001"/>
</g>
<!-- Node203 -->
<g id="node12" class="node">
<title>Node203</title>
<g id="a_node12"><a xlink:href="classGridWorld.html#adf34e6f50b2369c06afdfc8c1ff70caf" target="_top" xlink:title="Normalizes a matriz so its sum equals 1. ">
<polygon fill="none" stroke="#000000" points="539,-92.5 539,-111.5 691,-111.5 691,-92.5 539,-92.5"/>
<text text-anchor="middle" x="615" y="-99.5" font-family="Helvetica,sans-Serif" font-size="10.00" fill="#000000">GridWorld::normalizeToOne</text>
</a>
</g>
</g>
<!-- Node202&#45;&gt;Node203 -->
<g id="edge14" class="edge">
<title>Node202&#45;&gt;Node203</title>
<path fill="none" stroke="#191970" d="M503.1237,-89.0117C511.5722,-89.9926 520.2087,-90.9952 528.7522,-91.9871"/>
<polygon fill="#191970" stroke="#191970" points="528.385,-95.4679 538.722,-93.1445 529.1923,-88.5146 528.385,-95.4679"/>
</g>
<!-- Node204&#45;&gt;Node196 -->
<g id="edge17" class="edge">
<title>Node204&#45;&gt;Node196</title>
<path fill="none" stroke="#191970" d="M290.2151,-133.533C297.811,-136.0004 305.2925,-139.1021 312,-143 332.1147,-154.689 330.5601,-165.6025 348,-181 365.2695,-196.2471 386.4275,-211.611 402.2706,-222.5397"/>
<polygon fill="#191970" stroke="#191970" points="400.6797,-225.6908 410.915,-228.4274 404.6203,-219.9053 400.6797,-225.6908"/>
</g>
<!-- Node204&#45;&gt;Node200 -->
<g id="edge16" class="edge">
<title>Node204&#45;&gt;Node200</title>
<path fill="none" stroke="#191970" d="M282.6974,-133.589C308.4696,-138.7165 340.3906,-145.0672 367.5124,-150.4632"/>
<polygon fill="#191970" stroke="#191970" points="367.1585,-153.9613 377.6492,-152.4799 368.5244,-147.0959 367.1585,-153.9613"/>
</g>
<!-- Node205 -->
<g id="node14" class="node">
<title>Node205</title>
<g id="a_node14"><a xlink:href="classGridWorld.html#a483bf6d05d61a8e14f0fab04273d8593" target="_top" xlink:title="Gets the policy for state s ">
<polygon fill="none" stroke="#000000" points="355,-114.5 355,-133.5 496,-133.5 496,-114.5 355,-114.5"/>
<text text-anchor="middle" x="425.5" y="-121.5" font-family="Helvetica,sans-Serif" font-size="10.00" fill="#000000">GridWorld::policyForState</text>
</a>
</g>
</g>
<!-- Node204&#45;&gt;Node205 -->
<g id="edge18" class="edge">
<title>Node204&#45;&gt;Node205</title>
<path fill="none" stroke="#191970" d="M303.1855,-124C316.697,-124 330.9878,-124 344.8506,-124"/>
<polygon fill="#191970" stroke="#191970" points="344.852,-127.5001 354.8519,-124 344.8519,-120.5001 344.852,-127.5001"/>
</g>
<!-- Node205&#45;&gt;Node203 -->
<g id="edge19" class="edge">
<title>Node205&#45;&gt;Node203</title>
<path fill="none" stroke="#191970" d="M496.0628,-115.808C506.7781,-114.564 517.9358,-113.2687 528.9359,-111.9916"/>
<polygon fill="#191970" stroke="#191970" points="529.447,-115.4559 538.9766,-110.8259 528.6397,-108.5026 529.447,-115.4559"/>
</g>
</g>
</svg>
