<?xml version="1.0" encoding="UTF-8" standalone="no"?>
<!DOCTYPE svg PUBLIC "-//W3C//DTD SVG 1.1//EN"
 "http://www.w3.org/Graphics/SVG/1.1/DTD/svg11.dtd">
<!-- Generated by graphviz version 2.40.1 (20161225.0304)
 -->
<!-- Title: GridWorld Pages: 1 -->
<svg width="504pt" height="534pt"
 viewBox="0.00 0.00 504.00 534.00" xmlns="http://www.w3.org/2000/svg" xmlns:xlink="http://www.w3.org/1999/xlink">
<g id="graph0" class="graph" transform="scale(1 1) rotate(0) translate(4 530)">
<title>GridWorld</title>
<!-- Node1 -->
<g id="node1" class="node">
<title>Node1</title>
<polygon fill="#bfbfbf" stroke="#000000" points="139.5,-.5 139.5,-376.5 311.5,-376.5 311.5,-.5 139.5,-.5"/>
<text text-anchor="middle" x="225.5" y="-364.5" font-family="Helvetica,sans-Serif" font-size="10.00" fill="#000000">GridWorld</text>
<polyline fill="none" stroke="#000000" points="139.5,-357.5 311.5,-357.5 "/>
<text text-anchor="middle" x="225.5" y="-345.5" font-family="Helvetica,sans-Serif" font-size="10.00" fill="#000000"> </text>
<polyline fill="none" stroke="#000000" points="139.5,-338.5 311.5,-338.5 "/>
<text text-anchor="start" x="147.5" y="-326.5" font-family="Helvetica,sans-Serif" font-size="10.00" fill="#000000">+ policyIteration()</text>
<text text-anchor="start" x="147.5" y="-315.5" font-family="Helvetica,sans-Serif" font-size="10.00" fill="#000000">+ valueIteration()</text>
<text text-anchor="start" x="147.5" y="-304.5" font-family="Helvetica,sans-Serif" font-size="10.00" fill="#000000">+ MonteCarloEstimatingStarts()</text>
<text text-anchor="start" x="147.5" y="-293.5" font-family="Helvetica,sans-Serif" font-size="10.00" fill="#000000">+ Sarsa()</text>
<text text-anchor="start" x="147.5" y="-282.5" font-family="Helvetica,sans-Serif" font-size="10.00" fill="#000000">+ QLearning()</text>
<text text-anchor="start" x="147.5" y="-271.5" font-family="Helvetica,sans-Serif" font-size="10.00" fill="#000000">+ getV()</text>
<text text-anchor="start" x="147.5" y="-260.5" font-family="Helvetica,sans-Serif" font-size="10.00" fill="#000000">+ getQ()</text>
<text text-anchor="start" x="147.5" y="-249.5" font-family="Helvetica,sans-Serif" font-size="10.00" fill="#000000">+ getRewards()</text>
<text text-anchor="start" x="147.5" y="-238.5" font-family="Helvetica,sans-Serif" font-size="10.00" fill="#000000">+ getPolicy()</text>
<text text-anchor="start" x="147.5" y="-227.5" font-family="Helvetica,sans-Serif" font-size="10.00" fill="#000000">+ getGamma()</text>
<text text-anchor="start" x="147.5" y="-216.5" font-family="Helvetica,sans-Serif" font-size="10.00" fill="#000000">+ getNStates()</text>
<text text-anchor="start" x="147.5" y="-205.5" font-family="Helvetica,sans-Serif" font-size="10.00" fill="#000000">+ getGoals()</text>
<text text-anchor="start" x="147.5" y="-194.5" font-family="Helvetica,sans-Serif" font-size="10.00" fill="#000000">+ getActions()</text>
<text text-anchor="start" x="147.5" y="-183.5" font-family="Helvetica,sans-Serif" font-size="10.00" fill="#000000">&#45; initialize()</text>
<text text-anchor="start" x="147.5" y="-172.5" font-family="Helvetica,sans-Serif" font-size="10.00" fill="#000000">&#45; fromCoord()</text>
<text text-anchor="start" x="147.5" y="-161.5" font-family="Helvetica,sans-Serif" font-size="10.00" fill="#000000">&#45; toCoord()</text>
<text text-anchor="start" x="147.5" y="-150.5" font-family="Helvetica,sans-Serif" font-size="10.00" fill="#000000">&#45; actionValue()</text>
<text text-anchor="start" x="147.5" y="-139.5" font-family="Helvetica,sans-Serif" font-size="10.00" fill="#000000">&#45; normalizeToOne()</text>
<text text-anchor="start" x="147.5" y="-128.5" font-family="Helvetica,sans-Serif" font-size="10.00" fill="#000000">&#45; actionValuesForState()</text>
<text text-anchor="start" x="147.5" y="-117.5" font-family="Helvetica,sans-Serif" font-size="10.00" fill="#000000">&#45; policyIncrement()</text>
<text text-anchor="start" x="147.5" y="-106.5" font-family="Helvetica,sans-Serif" font-size="10.00" fill="#000000">&#45; prettifyPolicy()</text>
<text text-anchor="start" x="147.5" y="-95.5" font-family="Helvetica,sans-Serif" font-size="10.00" fill="#000000">&#45; iterativePolicyEvaluation()</text>
<text text-anchor="start" x="147.5" y="-84.5" font-family="Helvetica,sans-Serif" font-size="10.00" fill="#000000">&#45; isGoal()</text>
<text text-anchor="start" x="147.5" y="-73.5" font-family="Helvetica,sans-Serif" font-size="10.00" fill="#000000">&#45; transition()</text>
<text text-anchor="start" x="147.5" y="-62.5" font-family="Helvetica,sans-Serif" font-size="10.00" fill="#000000">&#45; applyAction()</text>
<text text-anchor="start" x="147.5" y="-51.5" font-family="Helvetica,sans-Serif" font-size="10.00" fill="#000000">&#45; policyForState()</text>
<text text-anchor="start" x="147.5" y="-40.5" font-family="Helvetica,sans-Serif" font-size="10.00" fill="#000000">&#45; getNonGoalState()</text>
<text text-anchor="start" x="147.5" y="-29.5" font-family="Helvetica,sans-Serif" font-size="10.00" fill="#000000">&#45; eGreedy()</text>
<text text-anchor="start" x="147.5" y="-18.5" font-family="Helvetica,sans-Serif" font-size="10.00" fill="#000000">&#45; bestQForState()</text>
<text text-anchor="start" x="147.5" y="-7.5" font-family="Helvetica,sans-Serif" font-size="10.00" fill="#000000">&#45; getOptimalPolicyFromQ()</text>
</g>
<!-- Node2 -->
<g id="node2" class="node">
<title>Node2</title>
<polygon fill="none" stroke="#bfbfbf" points="0,-463 0,-520 85,-520 85,-463 0,-463"/>
<text text-anchor="middle" x="42.5" y="-508" font-family="Helvetica,sans-Serif" font-size="10.00" fill="#000000">unsigned long</text>
<polyline fill="none" stroke="#bfbfbf" points="0,-501 85,-501 "/>
<text text-anchor="middle" x="42.5" y="-489" font-family="Helvetica,sans-Serif" font-size="10.00" fill="#000000"> </text>
<polyline fill="none" stroke="#bfbfbf" points="0,-482 85,-482 "/>
<text text-anchor="middle" x="42.5" y="-470" font-family="Helvetica,sans-Serif" font-size="10.00" fill="#000000"> </text>
</g>
<!-- Node2&#45;&gt;Node1 -->
<g id="edge1" class="edge">
<title>Node2&#45;&gt;Node1</title>
<path fill="none" stroke="#404040" d="M59.3528,-462.7228C70.6432,-443.5046 85.8788,-417.6877 99.5,-395 110.3527,-376.9236 121.7945,-357.9955 133.177,-339.2449"/>
<polygon fill="none" stroke="#404040" points="133.2598,-339.1085 132.9565,-331.9038 139.4903,-328.8527 139.7936,-336.0575 133.2598,-339.1085"/>
<text text-anchor="middle" x="121.5" y="-414.5" font-family="Helvetica,sans-Serif" font-size="10.00" fill="#000000"> &#45;nStates</text>
</g>
<!-- Node3 -->
<g id="node3" class="node">
<title>Node3</title>
<polygon fill="none" stroke="#bfbfbf" points="103.5,-463 103.5,-520 153.5,-520 153.5,-463 103.5,-463"/>
<text text-anchor="middle" x="128.5" y="-508" font-family="Helvetica,sans-Serif" font-size="10.00" fill="#000000">double</text>
<polyline fill="none" stroke="#bfbfbf" points="103.5,-501 153.5,-501 "/>
<text text-anchor="middle" x="128.5" y="-489" font-family="Helvetica,sans-Serif" font-size="10.00" fill="#000000"> </text>
<polyline fill="none" stroke="#bfbfbf" points="103.5,-482 153.5,-482 "/>
<text text-anchor="middle" x="128.5" y="-470" font-family="Helvetica,sans-Serif" font-size="10.00" fill="#000000"> </text>
</g>
<!-- Node3&#45;&gt;Node1 -->
<g id="edge2" class="edge">
<title>Node3&#45;&gt;Node1</title>
<path fill="none" stroke="#404040" d="M137.6255,-462.9945C143.6418,-444.2015 152.1151,-417.7332 161.4477,-388.581"/>
<polygon fill="none" stroke="#404040" points="161.5471,-388.2702 159.5669,-381.3363 165.2058,-376.8416 167.186,-383.7755 161.5471,-388.2702"/>
<text text-anchor="middle" x="180" y="-414.5" font-family="Helvetica,sans-Serif" font-size="10.00" fill="#000000"> &#45;gamma</text>
</g>
<!-- Node4 -->
<g id="node4" class="node">
<title>Node4</title>
<polygon fill="none" stroke="#bfbfbf" points="171.5,-457.5 171.5,-525.5 279.5,-525.5 279.5,-457.5 171.5,-457.5"/>
<text text-anchor="start" x="179.5" y="-513.5" font-family="Helvetica,sans-Serif" font-size="10.00" fill="#000000">vector&lt; pair&lt; size</text>
<text text-anchor="middle" x="225.5" y="-502.5" font-family="Helvetica,sans-Serif" font-size="10.00" fill="#000000">_t, size_t &gt; &gt;</text>
<polyline fill="none" stroke="#bfbfbf" points="171.5,-495.5 279.5,-495.5 "/>
<text text-anchor="middle" x="225.5" y="-483.5" font-family="Helvetica,sans-Serif" font-size="10.00" fill="#000000"> </text>
<polyline fill="none" stroke="#bfbfbf" points="171.5,-476.5 279.5,-476.5 "/>
<text text-anchor="middle" x="225.5" y="-464.5" font-family="Helvetica,sans-Serif" font-size="10.00" fill="#000000"> </text>
</g>
<!-- Node4&#45;&gt;Node1 -->
<g id="edge3" class="edge">
<title>Node4&#45;&gt;Node1</title>
<path fill="none" stroke="#404040" d="M225.5,-457.331C225.5,-439.145 225.5,-415.1469 225.5,-388.9625"/>
<polygon fill="none" stroke="#404040" points="225.5001,-388.7909 221.5,-382.791 225.5,-376.7909 229.5,-382.7909 225.5001,-388.7909"/>
<text text-anchor="middle" x="242.5" y="-414.5" font-family="Helvetica,sans-Serif" font-size="10.00" fill="#000000"> &#45;goals</text>
</g>
<!-- Node5 -->
<g id="node5" class="node">
<title>Node5</title>
<polygon fill="none" stroke="#bfbfbf" points="298,-463 298,-520 423,-520 423,-463 298,-463"/>
<text text-anchor="middle" x="360.5" y="-508" font-family="Helvetica,sans-Serif" font-size="10.00" fill="#000000">vector&lt; ActionType &gt;</text>
<polyline fill="none" stroke="#bfbfbf" points="298,-501 423,-501 "/>
<text text-anchor="middle" x="360.5" y="-489" font-family="Helvetica,sans-Serif" font-size="10.00" fill="#000000"> </text>
<polyline fill="none" stroke="#bfbfbf" points="298,-482 423,-482 "/>
<text text-anchor="middle" x="360.5" y="-470" font-family="Helvetica,sans-Serif" font-size="10.00" fill="#000000"> </text>
</g>
<!-- Node5&#45;&gt;Node1 -->
<g id="edge4" class="edge">
<title>Node5&#45;&gt;Node1</title>
<path fill="none" stroke="#404040" d="M347.7995,-462.9945C339.3523,-444.0351 327.4246,-417.2642 314.2999,-387.8065"/>
<polygon fill="none" stroke="#404040" points="314.2983,-387.8028 308.2027,-383.9501 309.4146,-376.8416 315.5102,-380.6943 314.2983,-387.8028"/>
<text text-anchor="middle" x="356" y="-414.5" font-family="Helvetica,sans-Serif" font-size="10.00" fill="#000000"> &#45;actions</text>
</g>
<!-- Node6 -->
<g id="node6" class="node">
<title>Node6</title>
<polygon fill="none" stroke="#bfbfbf" points="441,-463 441,-520 496,-520 496,-463 441,-463"/>
<text text-anchor="middle" x="468.5" y="-508" font-family="Helvetica,sans-Serif" font-size="10.00" fill="#000000">MatrixD</text>
<polyline fill="none" stroke="#bfbfbf" points="441,-501 496,-501 "/>
<text text-anchor="middle" x="468.5" y="-489" font-family="Helvetica,sans-Serif" font-size="10.00" fill="#000000"> </text>
<polyline fill="none" stroke="#bfbfbf" points="441,-482 496,-482 "/>
<text text-anchor="middle" x="468.5" y="-470" font-family="Helvetica,sans-Serif" font-size="10.00" fill="#000000"> </text>
</g>
<!-- Node6&#45;&gt;Node1 -->
<g id="edge5" class="edge">
<title>Node6&#45;&gt;Node1</title>
<path fill="none" stroke="#404040" d="M445.6391,-462.9945C416.7646,-426.9904 365.2975,-362.8155 319.3853,-305.5669"/>
<polygon fill="none" stroke="#404040" points="319.2817,-305.4376 312.4074,-303.2595 311.774,-296.0762 318.6483,-298.2544 319.2817,-305.4376"/>
<text text-anchor="middle" x="444.5" y="-431" font-family="Helvetica,sans-Serif" font-size="10.00" fill="#000000"> &#45;rewards</text>
<text text-anchor="middle" x="444.5" y="-420" font-family="Helvetica,sans-Serif" font-size="10.00" fill="#000000">&#45;Q</text>
<text text-anchor="middle" x="444.5" y="-409" font-family="Helvetica,sans-Serif" font-size="10.00" fill="#000000">&#45;V</text>
<text text-anchor="middle" x="444.5" y="-398" font-family="Helvetica,sans-Serif" font-size="10.00" fill="#000000">&#45;policy</text>
</g>
</g>
</svg>
