<?xml version="1.0" encoding="UTF-8" standalone="no"?>
<!DOCTYPE svg PUBLIC "-//W3C//DTD SVG 1.1//EN"
 "http://www.w3.org/Graphics/SVG/1.1/DTD/svg11.dtd">
<!-- Generated by graphviz version 2.40.1 (20161225.0304)
 -->
<!-- Title: ClassifierUtils::confusionMatrix Pages: 1 -->
<svg width="339pt" height="104pt"
 viewBox="0.00 0.00 339.00 104.00" xmlns="http://www.w3.org/2000/svg" xmlns:xlink="http://www.w3.org/1999/xlink">
<g id="graph0" class="graph" transform="scale(1 1) rotate(0) translate(4 100)">
<title>ClassifierUtils::confusionMatrix</title>
<!-- Node19 -->
<g id="node1" class="node">
<title>Node19</title>
<polygon fill="#bfbfbf" stroke="#000000" points="0,-33 0,-63 138,-63 138,-33 0,-33"/>
<text text-anchor="start" x="8" y="-51" font-family="Helvetica,sans-Serif" font-size="10.00" fill="#000000">ClassifierUtils::confusion</text>
<text text-anchor="middle" x="69" y="-40" font-family="Helvetica,sans-Serif" font-size="10.00" fill="#000000">Matrix</text>
</g>
<!-- Node20 -->
<g id="node2" class="node">
<title>Node20</title>
<g id="a_node2"><a xlink:href="classClassifierUtils.html#a5d2e296c795dceb1e033fae541bbc4da" target="_top" xlink:title="ClassifierUtils::checkLabels">
<polygon fill="none" stroke="#000000" points="177,-76.5 177,-95.5 328,-95.5 328,-76.5 177,-76.5"/>
<text text-anchor="middle" x="252.5" y="-83.5" font-family="Helvetica,sans-Serif" font-size="10.00" fill="#000000">ClassifierUtils::checkLabels</text>
</a>
</g>
</g>
<!-- Node19&#45;&gt;Node20 -->
<g id="edge1" class="edge">
<title>Node19&#45;&gt;Node20</title>
<path fill="none" stroke="#191970" d="M138.112,-62.312C157.3992,-66.3061 178.11,-70.595 196.537,-74.4109"/>
<polygon fill="#191970" stroke="#191970" points="196.0137,-77.8768 206.5157,-76.4774 197.4332,-71.0222 196.0137,-77.8768"/>
</g>
<!-- Node21 -->
<g id="node3" class="node">
<title>Node21</title>
<g id="a_node3"><a xlink:href="classClassifierUtils.html#a28f096a4fc200737a6b4477965e1e8fa" target="_top" xlink:title="ClassifierUtils::getAllClasses">
<polygon fill="none" stroke="#000000" points="174,-38.5 174,-57.5 331,-57.5 331,-38.5 174,-38.5"/>
<text text-anchor="middle" x="252.5" y="-45.5" font-family="Helvetica,sans-Serif" font-size="10.00" fill="#000000">ClassifierUtils::getAllClasses</text>
</a>
</g>
</g>
<!-- Node19&#45;&gt;Node21 -->
<g id="edge2" class="edge">
<title>Node19&#45;&gt;Node21</title>
<path fill="none" stroke="#191970" d="M138.112,-48C146.5095,-48 155.1768,-48 163.808,-48"/>
<polygon fill="#191970" stroke="#191970" points="163.9054,-51.5001 173.9054,-48 163.9053,-44.5001 163.9054,-51.5001"/>
</g>
<!-- Node22 -->
<g id="node4" class="node">
<title>Node22</title>
<g id="a_node4"><a xlink:href="classClassifierUtils.html#aba0abbd24fbd086684b0cf7f1996d55f" target="_top" xlink:title="ClassifierUtils::findLabel">
<polygon fill="none" stroke="#000000" points="184.5,-.5 184.5,-19.5 320.5,-19.5 320.5,-.5 184.5,-.5"/>
<text text-anchor="middle" x="252.5" y="-7.5" font-family="Helvetica,sans-Serif" font-size="10.00" fill="#000000">ClassifierUtils::findLabel</text>
</a>
</g>
</g>
<!-- Node19&#45;&gt;Node22 -->
<g id="edge3" class="edge">
<title>Node19&#45;&gt;Node22</title>
<path fill="none" stroke="#191970" d="M138.112,-33.688C157.3992,-29.6939 178.11,-25.405 196.537,-21.5891"/>
<polygon fill="#191970" stroke="#191970" points="197.4332,-24.9778 206.5157,-19.5226 196.0137,-18.1232 197.4332,-24.9778"/>
</g>
</g>
</svg>
