<?xml version="1.0" encoding="UTF-8" standalone="no"?>
<!DOCTYPE svg PUBLIC "-//W3C//DTD SVG 1.1//EN"
 "http://www.w3.org/Graphics/SVG/1.1/DTD/svg11.dtd">
<!-- Generated by graphviz version 2.40.1 (20161225.0304)
 -->
<!-- Title: include/GridWorld.hpp Pages: 1 -->
<svg width="2421pt" height="162pt"
 viewBox="0.00 0.00 2420.50 162.00" xmlns="http://www.w3.org/2000/svg" xmlns:xlink="http://www.w3.org/1999/xlink">
<g id="graph0" class="graph" transform="scale(1 1) rotate(0) translate(4 158)">
<title>include/GridWorld.hpp</title>
<!-- Node0 -->
<g id="node1" class="node">
<title>Node0</title>
<polygon fill="#bfbfbf" stroke="#000000" points="1018,-134.5 1018,-153.5 1143,-153.5 1143,-134.5 1018,-134.5"/>
<text text-anchor="middle" x="1080.5" y="-141.5" font-family="Helvetica,sans-Serif" font-size="10.00" fill="#000000">include/GridWorld.hpp</text>
</g>
<!-- Node1 -->
<g id="node2" class="node">
<title>Node1</title>
<polygon fill="none" stroke="#bfbfbf" points="0,-67.5 0,-86.5 151,-86.5 151,-67.5 0,-67.5"/>
<text text-anchor="middle" x="75.5" y="-74.5" font-family="Helvetica,sans-Serif" font-size="10.00" fill="#000000">../include/matrix/Matrix.hpp</text>
</g>
<!-- Node0&#45;&gt;Node1 -->
<g id="edge1" class="edge">
<title>Node0&#45;&gt;Node1</title>
<path fill="none" stroke="#191970" d="M1017.7619,-142.4618C838.3971,-137.8108 325.6771,-122.6805 159.5,-98 145.6369,-95.9411 130.7299,-92.5964 117.3782,-89.1757"/>
<polygon fill="#191970" stroke="#191970" points="118.0769,-85.7401 107.5142,-86.565 116.2858,-92.5071 118.0769,-85.7401"/>
</g>
<!-- Node2 -->
<g id="node3" class="node">
<title>Node2</title>
<polygon fill="none" stroke="#bfbfbf" points="169,-67.5 169,-86.5 216,-86.5 216,-67.5 169,-67.5"/>
<text text-anchor="middle" x="192.5" y="-74.5" font-family="Helvetica,sans-Serif" font-size="10.00" fill="#000000">vector</text>
</g>
<!-- Node0&#45;&gt;Node2 -->
<g id="edge2" class="edge">
<title>Node0&#45;&gt;Node2</title>
<path fill="none" stroke="#191970" d="M1017.6927,-142.5138C832.8665,-137.8768 299.1327,-122.5026 224.5,-98 220.3094,-96.6242 216.1407,-94.5501 212.2642,-92.2323"/>
<polygon fill="#191970" stroke="#191970" points="214.1288,-89.2685 203.8766,-86.5957 210.2244,-95.0785 214.1288,-89.2685"/>
</g>
<!-- Node3 -->
<g id="node4" class="node">
<title>Node3</title>
<polygon fill="none" stroke="#bfbfbf" points="234,-67.5 234,-86.5 299,-86.5 299,-67.5 234,-67.5"/>
<text text-anchor="middle" x="266.5" y="-74.5" font-family="Helvetica,sans-Serif" font-size="10.00" fill="#000000">functional</text>
</g>
<!-- Node0&#45;&gt;Node3 -->
<g id="edge3" class="edge">
<title>Node0&#45;&gt;Node3</title>
<path fill="none" stroke="#191970" d="M1017.9748,-143.5844C858.6921,-141.9981 440.8443,-134.3874 307.5,-98 301.81,-96.4473 295.9956,-94.0463 290.6008,-91.4147"/>
<polygon fill="#191970" stroke="#191970" points="291.9345,-88.1601 281.4608,-86.5622 288.652,-94.3428 291.9345,-88.1601"/>
</g>
<!-- Node4 -->
<g id="node5" class="node">
<title>Node4</title>
<polygon fill="none" stroke="#bfbfbf" points="317,-67.5 317,-86.5 382,-86.5 382,-67.5 317,-67.5"/>
<text text-anchor="middle" x="349.5" y="-74.5" font-family="Helvetica,sans-Serif" font-size="10.00" fill="#000000">stdexcept</text>
</g>
<!-- Node0&#45;&gt;Node4 -->
<g id="edge4" class="edge">
<title>Node0&#45;&gt;Node4</title>
<path fill="none" stroke="#191970" d="M1017.8788,-142.9751C871.1245,-140.0652 508.5685,-129.79 391.5,-98 385.5527,-96.385 379.4556,-93.8927 373.8156,-91.182"/>
<polygon fill="#191970" stroke="#191970" points="375.3503,-88.0352 364.8629,-86.5303 372.1228,-94.2468 375.3503,-88.0352"/>
</g>
<!-- Node5 -->
<g id="node6" class="node">
<title>Node5</title>
<polygon fill="none" stroke="#bfbfbf" points="400.5,-67.5 400.5,-86.5 464.5,-86.5 464.5,-67.5 400.5,-67.5"/>
<text text-anchor="middle" x="432.5" y="-74.5" font-family="Helvetica,sans-Serif" font-size="10.00" fill="#000000">algorithm</text>
</g>
<!-- Node0&#45;&gt;Node5 -->
<g id="edge5" class="edge">
<title>Node0&#45;&gt;Node5</title>
<path fill="none" stroke="#191970" d="M1017.7764,-141.9926C884.9234,-137.2874 579.1129,-123.9335 478.5,-98 472.0285,-96.3319 465.3383,-93.799 459.1316,-91.063"/>
<polygon fill="#191970" stroke="#191970" points="460.4141,-87.7981 449.8772,-86.6917 457.4243,-94.1275 460.4141,-87.7981"/>
</g>
<!-- Node6 -->
<g id="node7" class="node">
<title>Node6</title>
<polygon fill="none" stroke="#bfbfbf" points="430.5,-.5 430.5,-19.5 490.5,-19.5 490.5,-.5 430.5,-.5"/>
<text text-anchor="middle" x="460.5" y="-7.5" font-family="Helvetica,sans-Serif" font-size="10.00" fill="#000000">iostream</text>
</g>
<!-- Node0&#45;&gt;Node6 -->
<g id="edge6" class="edge">
<title>Node0&#45;&gt;Node6</title>
<path fill="none" stroke="#191970" d="M1017.9973,-141.719C881.9303,-136.339 567.6695,-121.5132 525.5,-98 497.7004,-82.4993 478.4434,-49.5838 468.4572,-28.6952"/>
<polygon fill="#191970" stroke="#191970" points="471.621,-27.1972 464.3029,-19.5359 465.2461,-30.0887 471.621,-27.1972"/>
</g>
<!-- Node7 -->
<g id="node8" class="node">
<title>Node7</title>
<polygon fill="none" stroke="#bfbfbf" points="680.5,-67.5 680.5,-86.5 736.5,-86.5 736.5,-67.5 680.5,-67.5"/>
<text text-anchor="middle" x="708.5" y="-74.5" font-family="Helvetica,sans-Serif" font-size="10.00" fill="#000000">iomanip</text>
</g>
<!-- Node0&#45;&gt;Node7 -->
<g id="edge7" class="edge">
<title>Node0&#45;&gt;Node7</title>
<path fill="none" stroke="#191970" d="M1017.7056,-138.1253C935.3142,-129.94 795.45,-114.2684 746.5,-98 741.6584,-96.3909 736.7205,-94.1646 732.0757,-91.76"/>
<polygon fill="#191970" stroke="#191970" points="733.5122,-88.5528 723.078,-86.7143 730.0883,-94.6583 733.5122,-88.5528"/>
</g>
<!-- Node8 -->
<g id="node9" class="node">
<title>Node8</title>
<polygon fill="none" stroke="#bfbfbf" points="755,-67.5 755,-86.5 802,-86.5 802,-67.5 755,-67.5"/>
<text text-anchor="middle" x="778.5" y="-74.5" font-family="Helvetica,sans-Serif" font-size="10.00" fill="#000000">cmath</text>
</g>
<!-- Node0&#45;&gt;Node8 -->
<g id="edge8" class="edge">
<title>Node0&#45;&gt;Node8</title>
<path fill="none" stroke="#191970" d="M1017.75,-140.3189C962.0106,-135.4184 879.1358,-124.0816 811.5,-98 807.437,-96.4332 803.3389,-94.3337 799.4782,-92.0667"/>
<polygon fill="#191970" stroke="#191970" points="801.3355,-89.0999 791.0291,-86.6448 797.555,-94.9913 801.3355,-89.0999"/>
</g>
<!-- Node9 -->
<g id="node10" class="node">
<title>Node9</title>
<polygon fill="none" stroke="#bfbfbf" points="820.5,-67.5 820.5,-86.5 852.5,-86.5 852.5,-67.5 820.5,-67.5"/>
<text text-anchor="middle" x="836.5" y="-74.5" font-family="Helvetica,sans-Serif" font-size="10.00" fill="#000000">set</text>
</g>
<!-- Node0&#45;&gt;Node9 -->
<g id="edge9" class="edge">
<title>Node0&#45;&gt;Node9</title>
<path fill="none" stroke="#191970" d="M1017.8693,-138.6655C972.8885,-132.9891 911.7589,-121.4123 862.5,-98 859.657,-96.6487 856.8514,-94.9271 854.1949,-93.0528"/>
<polygon fill="#191970" stroke="#191970" points="856.357,-90.3004 846.3535,-86.8105 851.9973,-95.777 856.357,-90.3004"/>
</g>
<!-- Node10 -->
<g id="node11" class="node">
<title>Node10</title>
<polygon fill="none" stroke="#bfbfbf" points="871,-67.5 871,-86.5 930,-86.5 930,-67.5 871,-67.5"/>
<text text-anchor="middle" x="900.5" y="-74.5" font-family="Helvetica,sans-Serif" font-size="10.00" fill="#000000">complex</text>
</g>
<!-- Node0&#45;&gt;Node10 -->
<g id="edge10" class="edge">
<title>Node0&#45;&gt;Node10</title>
<path fill="none" stroke="#191970" d="M1045.3857,-134.4416C1016.465,-126.1214 974.6492,-113.0538 939.5,-98 934.967,-96.0586 930.2579,-93.7722 925.7454,-91.4354"/>
<polygon fill="#191970" stroke="#191970" points="927.3425,-88.3202 916.8781,-86.6624 924.0246,-94.484 927.3425,-88.3202"/>
</g>
<!-- Node11 -->
<g id="node12" class="node">
<title>Node11</title>
<polygon fill="none" stroke="#bfbfbf" points="948,-56.5 948,-97.5 1095,-97.5 1095,-56.5 948,-56.5"/>
<text text-anchor="start" x="956" y="-85.5" font-family="Helvetica,sans-Serif" font-size="10.00" fill="#000000">/home/dodo/Code/machine</text>
<text text-anchor="start" x="956" y="-74.5" font-family="Helvetica,sans-Serif" font-size="10.00" fill="#000000">_learning/include/matrix</text>
<text text-anchor="middle" x="1021.5" y="-63.5" font-family="Helvetica,sans-Serif" font-size="10.00" fill="#000000">/include/nr3/nr3.h</text>
</g>
<!-- Node0&#45;&gt;Node11 -->
<g id="edge11" class="edge">
<title>Node0&#45;&gt;Node11</title>
<path fill="none" stroke="#191970" d="M1072.0467,-134.4005C1065.3435,-126.7884 1055.615,-115.7408 1046.4791,-105.3661"/>
<polygon fill="#191970" stroke="#191970" points="1048.9038,-102.8236 1039.6683,-97.6318 1043.6504,-107.4498 1048.9038,-102.8236"/>
</g>
<!-- Node12 -->
<g id="node13" class="node">
<title>Node12</title>
<polygon fill="none" stroke="#bfbfbf" points="1113,-67.5 1113,-86.5 1168,-86.5 1168,-67.5 1113,-67.5"/>
<text text-anchor="middle" x="1140.5" y="-74.5" font-family="Helvetica,sans-Serif" font-size="10.00" fill="#000000">fstream</text>
</g>
<!-- Node0&#45;&gt;Node12 -->
<g id="edge12" class="edge">
<title>Node0&#45;&gt;Node12</title>
<path fill="none" stroke="#191970" d="M1089.0965,-134.4005C1098.453,-123.9525 1113.6052,-107.0325 1125.0401,-94.2635"/>
<polygon fill="#191970" stroke="#191970" points="1127.8555,-96.3661 1131.9194,-86.5817 1122.6408,-91.6963 1127.8555,-96.3661"/>
</g>
<!-- Node13 -->
<g id="node14" class="node">
<title>Node13</title>
<polygon fill="none" stroke="#bfbfbf" points="1186.5,-67.5 1186.5,-86.5 1230.5,-86.5 1230.5,-67.5 1186.5,-67.5"/>
<text text-anchor="middle" x="1208.5" y="-74.5" font-family="Helvetica,sans-Serif" font-size="10.00" fill="#000000">limits</text>
</g>
<!-- Node0&#45;&gt;Node13 -->
<g id="edge13" class="edge">
<title>Node0&#45;&gt;Node13</title>
<path fill="none" stroke="#191970" d="M1103.3406,-134.3516C1123.3182,-125.6362 1152.9025,-112.0547 1177.5,-98 1180.5849,-96.2373 1183.7656,-94.2701 1186.8606,-92.266"/>
<polygon fill="#191970" stroke="#191970" points="1188.8567,-95.1415 1195.2054,-86.6594 1184.9529,-89.3311 1188.8567,-95.1415"/>
</g>
<!-- Node14 -->
<g id="node15" class="node">
<title>Node14</title>
<polygon fill="none" stroke="#bfbfbf" points="1249,-67.5 1249,-86.5 1302,-86.5 1302,-67.5 1249,-67.5"/>
<text text-anchor="middle" x="1275.5" y="-74.5" font-family="Helvetica,sans-Serif" font-size="10.00" fill="#000000">stdlib.h</text>
</g>
<!-- Node0&#45;&gt;Node14 -->
<g id="edge14" class="edge">
<title>Node0&#45;&gt;Node14</title>
<path fill="none" stroke="#191970" d="M1124.0116,-134.4852C1156.5431,-126.642 1201.7291,-114.1855 1239.5,-98 1243.7295,-96.1876 1248.0791,-93.9798 1252.2283,-91.6848"/>
<polygon fill="#191970" stroke="#191970" points="1253.9956,-94.7059 1260.8667,-86.6412 1250.4661,-88.6608 1253.9956,-94.7059"/>
</g>
<!-- Node15 -->
<g id="node16" class="node">
<title>Node15</title>
<polygon fill="none" stroke="#bfbfbf" points="1320.5,-67.5 1320.5,-86.5 1370.5,-86.5 1370.5,-67.5 1320.5,-67.5"/>
<text text-anchor="middle" x="1345.5" y="-74.5" font-family="Helvetica,sans-Serif" font-size="10.00" fill="#000000">stdio.h</text>
</g>
<!-- Node0&#45;&gt;Node15 -->
<g id="edge15" class="edge">
<title>Node0&#45;&gt;Node15</title>
<path fill="none" stroke="#191970" d="M1143.4883,-137.607C1190.9258,-131.3404 1256.8968,-119.4888 1311.5,-98 1315.6399,-96.3708 1319.8391,-94.2401 1323.8082,-91.9615"/>
<polygon fill="#191970" stroke="#191970" points="1325.8748,-94.7978 1332.5154,-86.5423 1322.176,-88.8548 1325.8748,-94.7978"/>
</g>
<!-- Node16 -->
<g id="node17" class="node">
<title>Node16</title>
<polygon fill="none" stroke="#bfbfbf" points="1388.5,-67.5 1388.5,-86.5 1436.5,-86.5 1436.5,-67.5 1388.5,-67.5"/>
<text text-anchor="middle" x="1412.5" y="-74.5" font-family="Helvetica,sans-Serif" font-size="10.00" fill="#000000">time.h</text>
</g>
<!-- Node0&#45;&gt;Node16 -->
<g id="edge16" class="edge">
<title>Node0&#45;&gt;Node16</title>
<path fill="none" stroke="#191970" d="M1143.2719,-137.418C1217.8311,-129.0649 1337.4072,-113.8289 1379.5,-98 1383.576,-96.4672 1387.6805,-94.3847 1391.5436,-92.124"/>
<polygon fill="#191970" stroke="#191970" points="1393.4676,-95.0481 1399.9922,-86.7006 1389.6861,-89.1574 1393.4676,-95.0481"/>
</g>
<!-- Node17 -->
<g id="node18" class="node">
<title>Node17</title>
<polygon fill="none" stroke="#bfbfbf" points="1455,-67.5 1455,-86.5 1502,-86.5 1502,-67.5 1455,-67.5"/>
<text text-anchor="middle" x="1478.5" y="-74.5" font-family="Helvetica,sans-Serif" font-size="10.00" fill="#000000">fcntl.h</text>
</g>
<!-- Node0&#45;&gt;Node17 -->
<g id="edge17" class="edge">
<title>Node0&#45;&gt;Node17</title>
<path fill="none" stroke="#191970" d="M1143.2377,-139.4291C1232.5022,-132.3592 1391.35,-117.5241 1445.5,-98 1449.6684,-96.4971 1453.8557,-94.396 1457.7815,-92.0994"/>
<polygon fill="#191970" stroke="#191970" points="1459.8337,-94.9405 1466.3352,-86.575 1456.036,-89.0602 1459.8337,-94.9405"/>
</g>
<!-- Node18 -->
<g id="node19" class="node">
<title>Node18</title>
<polygon fill="none" stroke="#bfbfbf" points="1520,-67.5 1520,-86.5 1573,-86.5 1573,-67.5 1520,-67.5"/>
<text text-anchor="middle" x="1546.5" y="-74.5" font-family="Helvetica,sans-Serif" font-size="10.00" fill="#000000">string.h</text>
</g>
<!-- Node0&#45;&gt;Node18 -->
<g id="edge18" class="edge">
<title>Node0&#45;&gt;Node18</title>
<path fill="none" stroke="#191970" d="M1143.0146,-140.6489C1245.5625,-134.5973 1444.7868,-120.358 1511.5,-98 1516.0059,-96.4899 1520.5529,-94.3299 1524.8102,-91.9641"/>
<polygon fill="#191970" stroke="#191970" points="1526.8321,-94.8303 1533.5392,-86.6287 1523.1814,-88.8576 1526.8321,-94.8303"/>
</g>
<!-- Node19 -->
<g id="node20" class="node">
<title>Node19</title>
<polygon fill="none" stroke="#bfbfbf" points="1591,-67.5 1591,-86.5 1644,-86.5 1644,-67.5 1591,-67.5"/>
<text text-anchor="middle" x="1617.5" y="-74.5" font-family="Helvetica,sans-Serif" font-size="10.00" fill="#000000">ctype.h</text>
</g>
<!-- Node0&#45;&gt;Node19 -->
<g id="edge19" class="edge">
<title>Node0&#45;&gt;Node19</title>
<path fill="none" stroke="#191970" d="M1143.0583,-141.7438C1258.9313,-136.9926 1502.4322,-124.1697 1582.5,-98 1587.017,-96.5236 1591.5694,-94.3797 1595.8285,-92.0192"/>
<polygon fill="#191970" stroke="#191970" points="1597.8517,-94.8845 1604.5565,-86.681 1594.1994,-88.9128 1597.8517,-94.8845"/>
</g>
<!-- Node20 -->
<g id="node21" class="node">
<title>Node20</title>
<polygon fill="none" stroke="#bfbfbf" points="1662,-56.5 1662,-97.5 1813,-97.5 1813,-56.5 1662,-56.5"/>
<text text-anchor="start" x="1670" y="-85.5" font-family="Helvetica,sans-Serif" font-size="10.00" fill="#000000">/home/dodo/Code/machine</text>
<text text-anchor="start" x="1670" y="-74.5" font-family="Helvetica,sans-Serif" font-size="10.00" fill="#000000">_learning/include/matrix</text>
<text text-anchor="middle" x="1737.5" y="-63.5" font-family="Helvetica,sans-Serif" font-size="10.00" fill="#000000">/include/nr3/eigen_unsym.h</text>
</g>
<!-- Node0&#45;&gt;Node20 -->
<g id="edge20" class="edge">
<title>Node0&#45;&gt;Node20</title>
<path fill="none" stroke="#191970" d="M1143.2283,-142.344C1247.2097,-138.8591 1461.8647,-128.5325 1651.4588,-98.2144"/>
<polygon fill="#191970" stroke="#191970" points="1652.3004,-101.6238 1661.611,-96.5678 1651.1796,-94.7141 1652.3004,-101.6238"/>
</g>
<!-- Node21 -->
<g id="node22" class="node">
<title>Node21</title>
<polygon fill="none" stroke="#bfbfbf" points="1831,-56.5 1831,-97.5 2020,-97.5 2020,-56.5 1831,-56.5"/>
<text text-anchor="start" x="1839" y="-85.5" font-family="Helvetica,sans-Serif" font-size="10.00" fill="#000000">/home/dodo/Code/machine</text>
<text text-anchor="start" x="1839" y="-74.5" font-family="Helvetica,sans-Serif" font-size="10.00" fill="#000000">_learning/include/matrix</text>
<text text-anchor="middle" x="1925.5" y="-63.5" font-family="Helvetica,sans-Serif" font-size="10.00" fill="#000000">/include/csv_reader/CSVReader.hpp</text>
</g>
<!-- Node0&#45;&gt;Node21 -->
<g id="edge21" class="edge">
<title>Node0&#45;&gt;Node21</title>
<path fill="none" stroke="#191970" d="M1143.324,-143.0513C1269.846,-140.5015 1564.452,-131.3366 1820.494,-98.1795"/>
<polygon fill="#191970" stroke="#191970" points="1821.2743,-101.6072 1830.7348,-96.8377 1820.3648,-94.6666 1821.2743,-101.6072"/>
</g>
<!-- Node22 -->
<g id="node23" class="node">
<title>Node22</title>
<polygon fill="none" stroke="#bfbfbf" points="2038.5,-67.5 2038.5,-86.5 2084.5,-86.5 2084.5,-67.5 2038.5,-67.5"/>
<text text-anchor="middle" x="2061.5" y="-74.5" font-family="Helvetica,sans-Serif" font-size="10.00" fill="#000000">cstdio</text>
</g>
<!-- Node0&#45;&gt;Node22 -->
<g id="edge22" class="edge">
<title>Node0&#45;&gt;Node22</title>
<path fill="none" stroke="#191970" d="M1143.012,-142.8768C1340.9364,-139.0561 1945.7297,-125.259 2029.5,-98 2033.6942,-96.6352 2037.8646,-94.5664 2041.7417,-92.2504"/>
<polygon fill="#191970" stroke="#191970" points="2043.7821,-95.0962 2050.129,-86.6128 2039.877,-89.2866 2043.7821,-95.0962"/>
</g>
<!-- Node23 -->
<g id="node24" class="node">
<title>Node23</title>
<polygon fill="none" stroke="#bfbfbf" points="508.5,-.5 508.5,-19.5 552.5,-19.5 552.5,-.5 508.5,-.5"/>
<text text-anchor="middle" x="530.5" y="-7.5" font-family="Helvetica,sans-Serif" font-size="10.00" fill="#000000">string</text>
</g>
<!-- Node0&#45;&gt;Node23 -->
<g id="edge23" class="edge">
<title>Node0&#45;&gt;Node23</title>
<path fill="none" stroke="#191970" d="M1017.8848,-142.6877C884.9873,-139.3212 583.9967,-128.3955 549.5,-98 530.4033,-81.1736 527.9137,-50.1462 528.6305,-29.7932"/>
<polygon fill="#191970" stroke="#191970" points="532.1279,-29.9451 529.2735,-19.742 525.1421,-29.4981 532.1279,-29.9451"/>
</g>
<!-- Node24 -->
<g id="node25" class="node">
<title>Node24</title>
<polygon fill="none" stroke="#bfbfbf" points="2102.5,-67.5 2102.5,-86.5 2158.5,-86.5 2158.5,-67.5 2102.5,-67.5"/>
<text text-anchor="middle" x="2130.5" y="-74.5" font-family="Helvetica,sans-Serif" font-size="10.00" fill="#000000">sstream</text>
</g>
<!-- Node0&#45;&gt;Node24 -->
<g id="edge24" class="edge">
<title>Node0&#45;&gt;Node24</title>
<path fill="none" stroke="#191970" d="M1143.1313,-142.8562C1349.8702,-138.8453 2002.5798,-124.2237 2093.5,-98 2098.4722,-96.5659 2103.4942,-94.3438 2108.1662,-91.8725"/>
<polygon fill="#191970" stroke="#191970" points="2110.2742,-94.6942 2117.1368,-86.6223 2106.7384,-88.6528 2110.2742,-94.6942"/>
</g>
<!-- Node25 -->
<g id="node26" class="node">
<title>Node25</title>
<polygon fill="none" stroke="#bfbfbf" points="2177,-62 2177,-92 2340,-92 2340,-62 2177,-62"/>
<text text-anchor="start" x="2185" y="-80" font-family="Helvetica,sans-Serif" font-size="10.00" fill="#000000">../include/mersenne</text>
<text text-anchor="middle" x="2258.5" y="-69" font-family="Helvetica,sans-Serif" font-size="10.00" fill="#000000">_twister/MersenneTwister.hpp</text>
</g>
<!-- Node0&#45;&gt;Node25 -->
<g id="edge25" class="edge">
<title>Node0&#45;&gt;Node25</title>
<path fill="none" stroke="#191970" d="M1143.2035,-142.8675C1343.6567,-139.0075 1967.4545,-125.0789 2167.5,-98 2175.0692,-96.9754 2182.9342,-95.6168 2190.7299,-94.0817"/>
<polygon fill="#191970" stroke="#191970" points="2191.4548,-97.5059 2200.5397,-92.0549 2190.0384,-90.6507 2191.4548,-97.5059"/>
</g>
<!-- Node26 -->
<g id="node27" class="node">
<title>Node26</title>
<polygon fill="none" stroke="#bfbfbf" points="2358.5,-67.5 2358.5,-86.5 2412.5,-86.5 2412.5,-67.5 2358.5,-67.5"/>
<text text-anchor="middle" x="2385.5" y="-74.5" font-family="Helvetica,sans-Serif" font-size="10.00" fill="#000000">random</text>
</g>
<!-- Node0&#45;&gt;Node26 -->
<g id="edge26" class="edge">
<title>Node0&#45;&gt;Node26</title>
<path fill="none" stroke="#191970" d="M1143.0391,-143.519C1382.4652,-141.4338 2233.2416,-131.7019 2349.5,-98 2354.369,-96.5885 2359.2694,-94.3767 2363.8192,-91.9084"/>
<polygon fill="#191970" stroke="#191970" points="2365.782,-94.8121 2372.5438,-86.6556 2362.1714,-88.8151 2365.782,-94.8121"/>
</g>
<!-- Node27 -->
<g id="node28" class="node">
<title>Node27</title>
<polygon fill="none" stroke="#bfbfbf" points="638.5,-.5 638.5,-19.5 688.5,-19.5 688.5,-.5 638.5,-.5"/>
<text text-anchor="middle" x="663.5" y="-7.5" font-family="Helvetica,sans-Serif" font-size="10.00" fill="#000000">chrono</text>
</g>
<!-- Node0&#45;&gt;Node27 -->
<g id="edge27" class="edge">
<title>Node0&#45;&gt;Node27</title>
<path fill="none" stroke="#191970" d="M1017.6963,-141.2404C909.0367,-135.845 695.2424,-122.2546 671.5,-98 654.0249,-80.1479 655.5448,-49.3998 658.965,-29.3857"/>
<polygon fill="#191970" stroke="#191970" points="662.4084,-30.0154 660.9521,-19.5212 655.5462,-28.6331 662.4084,-30.0154"/>
</g>
<!-- Node28 -->
<g id="node29" class="node">
<title>Node28</title>
<g id="a_node29"><a xlink:href="Timer_8hpp.html" target="_top" xlink:title="Timer.hpp">
<polygon fill="none" stroke="#000000" points="558.5,-67.5 558.5,-86.5 624.5,-86.5 624.5,-67.5 558.5,-67.5"/>
<text text-anchor="middle" x="591.5" y="-74.5" font-family="Helvetica,sans-Serif" font-size="10.00" fill="#000000">Timer.hpp</text>
</a>
</g>
</g>
<!-- Node0&#45;&gt;Node28 -->
<g id="edge28" class="edge">
<title>Node0&#45;&gt;Node28</title>
<path fill="none" stroke="#191970" d="M1017.92,-139.934C913.5399,-132.7426 708.4545,-116.7554 638.5,-98 631.9287,-96.2382 625.1095,-93.6672 618.771,-90.9242"/>
<polygon fill="#191970" stroke="#191970" points="619.8576,-87.5711 609.3107,-86.5635 616.9272,-93.9283 619.8576,-87.5711"/>
</g>
<!-- Node28&#45;&gt;Node6 -->
<g id="edge29" class="edge">
<title>Node28&#45;&gt;Node6</title>
<path fill="none" stroke="#191970" d="M572.7309,-67.4005C550.6489,-56.1067 513.7811,-37.2506 488.3614,-24.2497"/>
<polygon fill="#191970" stroke="#191970" points="489.7312,-21.0191 479.2343,-19.5817 486.5437,-27.2513 489.7312,-21.0191"/>
</g>
<!-- Node28&#45;&gt;Node23 -->
<g id="edge30" class="edge">
<title>Node28&#45;&gt;Node23</title>
<path fill="none" stroke="#191970" d="M582.7602,-67.4005C573.2478,-56.9525 557.843,-40.0325 546.2175,-27.2635"/>
<polygon fill="#191970" stroke="#191970" points="548.5439,-24.6198 539.2236,-19.5817 543.3678,-29.3324 548.5439,-24.6198"/>
</g>
<!-- Node28&#45;&gt;Node27 -->
<g id="edge31" class="edge">
<title>Node28&#45;&gt;Node27</title>
<path fill="none" stroke="#191970" d="M601.8158,-67.4005C613.2575,-56.7535 631.9215,-39.3856 645.7273,-26.5385"/>
<polygon fill="#191970" stroke="#191970" points="648.2669,-28.9562 653.2033,-19.5817 643.4983,-23.8317 648.2669,-28.9562"/>
</g>
<!-- Node29 -->
<g id="node30" class="node">
<title>Node29</title>
<polygon fill="none" stroke="#bfbfbf" points="570.5,-.5 570.5,-19.5 620.5,-19.5 620.5,-.5 570.5,-.5"/>
<text text-anchor="middle" x="595.5" y="-7.5" font-family="Helvetica,sans-Serif" font-size="10.00" fill="#000000">climits</text>
</g>
<!-- Node28&#45;&gt;Node29 -->
<g id="edge32" class="edge">
<title>Node28&#45;&gt;Node29</title>
<path fill="none" stroke="#191970" d="M592.0731,-67.4005C592.6553,-57.649 593.574,-42.2597 594.3138,-29.8695"/>
<polygon fill="#191970" stroke="#191970" points="597.8257,-29.7725 594.928,-19.5817 590.8381,-29.3553 597.8257,-29.7725"/>
</g>
</g>
</svg>
