<?xml version="1.0" encoding="UTF-8" standalone="no"?>
<!DOCTYPE svg PUBLIC "-//W3C//DTD SVG 1.1//EN"
 "http://www.w3.org/Graphics/SVG/1.1/DTD/svg11.dtd">
<!-- Generated by graphviz version 2.40.1 (20161225.0304)
 -->
<!-- Title: include/KMeans.hpp Pages: 1 -->
<svg width="334pt" height="151pt"
 viewBox="0.00 0.00 334.00 151.00" xmlns="http://www.w3.org/2000/svg" xmlns:xlink="http://www.w3.org/1999/xlink">
<g id="graph0" class="graph" transform="scale(1 1) rotate(0) translate(4 147)">
<title>include/KMeans.hpp</title>
<!-- Node0 -->
<g id="node1" class="node">
<title>Node0</title>
<polygon fill="#bfbfbf" stroke="#000000" points="51.5,-123.5 51.5,-142.5 165.5,-142.5 165.5,-123.5 51.5,-123.5"/>
<text text-anchor="middle" x="108.5" y="-130.5" font-family="Helvetica,sans-Serif" font-size="10.00" fill="#000000">include/KMeans.hpp</text>
</g>
<!-- Node1 -->
<g id="node2" class="node">
<title>Node1</title>
<polygon fill="none" stroke="#bfbfbf" points="0,-.5 0,-19.5 151,-19.5 151,-.5 0,-.5"/>
<text text-anchor="middle" x="75.5" y="-7.5" font-family="Helvetica,sans-Serif" font-size="10.00" fill="#000000">../include/matrix/Matrix.hpp</text>
</g>
<!-- Node0&#45;&gt;Node1 -->
<g id="edge1" class="edge">
<title>Node0&#45;&gt;Node1</title>
<path fill="none" stroke="#191970" d="M93.8148,-123.2577C82.8846,-115.0536 68.8102,-102.2342 62.5,-87 54.7117,-68.1974 60.5276,-44.9692 66.6709,-28.9711"/>
<polygon fill="#191970" stroke="#191970" points="69.9531,-30.1954 70.6156,-19.6213 63.5036,-27.4743 69.9531,-30.1954"/>
</g>
<!-- Node2 -->
<g id="node3" class="node">
<title>Node2</title>
<g id="a_node3"><a xlink:href="Metrics_8hpp.html" target="_top" xlink:title="Metrics.hpp">
<polygon fill="none" stroke="#000000" points="72,-62 72,-81 145,-81 145,-62 72,-62"/>
<text text-anchor="middle" x="108.5" y="-69" font-family="Helvetica,sans-Serif" font-size="10.00" fill="#000000">Metrics.hpp</text>
</a>
</g>
</g>
<!-- Node0&#45;&gt;Node2 -->
<g id="edge2" class="edge">
<title>Node0&#45;&gt;Node2</title>
<path fill="none" stroke="#191970" d="M108.5,-123.3906C108.5,-114.8657 108.5,-102.1392 108.5,-91.4235"/>
<polygon fill="#191970" stroke="#191970" points="112.0001,-91.2448 108.5,-81.2449 105.0001,-91.2449 112.0001,-91.2448"/>
</g>
<!-- Node3 -->
<g id="node4" class="node">
<title>Node3</title>
<polygon fill="none" stroke="#bfbfbf" points="163,-56.5 163,-86.5 326,-86.5 326,-56.5 163,-56.5"/>
<text text-anchor="start" x="171" y="-74.5" font-family="Helvetica,sans-Serif" font-size="10.00" fill="#000000">../include/mersenne</text>
<text text-anchor="middle" x="244.5" y="-63.5" font-family="Helvetica,sans-Serif" font-size="10.00" fill="#000000">_twister/MersenneTwister.hpp</text>
</g>
<!-- Node0&#45;&gt;Node3 -->
<g id="edge4" class="edge">
<title>Node0&#45;&gt;Node3</title>
<path fill="none" stroke="#191970" d="M129.75,-123.3906C149.0081,-114.682 177.9622,-101.5888 201.9671,-90.7336"/>
<polygon fill="#191970" stroke="#191970" points="203.5611,-93.8541 211.2307,-86.5446 200.6768,-87.4759 203.5611,-93.8541"/>
</g>
<!-- Node2&#45;&gt;Node1 -->
<g id="edge3" class="edge">
<title>Node2&#45;&gt;Node1</title>
<path fill="none" stroke="#191970" d="M103.3438,-61.8906C98.5768,-53.0068 91.3615,-39.5601 85.4703,-28.5811"/>
<polygon fill="#191970" stroke="#191970" points="88.5412,-26.9016 80.7289,-19.7449 82.3731,-30.2114 88.5412,-26.9016"/>
</g>
</g>
</svg>
