<?xml version="1.0" encoding="UTF-8" standalone="no"?>
<!DOCTYPE svg PUBLIC "-//W3C//DTD SVG 1.1//EN"
 "http://www.w3.org/Graphics/SVG/1.1/DTD/svg11.dtd">
<!-- Generated by graphviz version 2.40.1 (20161225.0304)
 -->
<!-- Title: include/KNN.hpp Pages: 1 -->
<svg width="400pt" height="84pt"
 viewBox="0.00 0.00 399.50 84.00" xmlns="http://www.w3.org/2000/svg" xmlns:xlink="http://www.w3.org/1999/xlink">
<g id="graph0" class="graph" transform="scale(1 1) rotate(0) translate(4 80)">
<title>include/KNN.hpp</title>
<!-- Node0 -->
<g id="node1" class="node">
<title>Node0</title>
<polygon fill="#bfbfbf" stroke="#000000" points="148.5,-56.5 148.5,-75.5 246.5,-75.5 246.5,-56.5 148.5,-56.5"/>
<text text-anchor="middle" x="197.5" y="-63.5" font-family="Helvetica,sans-Serif" font-size="10.00" fill="#000000">include/KNN.hpp</text>
</g>
<!-- Node1 -->
<g id="node2" class="node">
<title>Node1</title>
<polygon fill="none" stroke="#bfbfbf" points="0,-.5 0,-19.5 45,-19.5 45,-.5 0,-.5"/>
<text text-anchor="middle" x="22.5" y="-7.5" font-family="Helvetica,sans-Serif" font-size="10.00" fill="#000000">utility</text>
</g>
<!-- Node0&#45;&gt;Node1 -->
<g id="edge1" class="edge">
<title>Node0&#45;&gt;Node1</title>
<path fill="none" stroke="#191970" d="M167.4297,-56.4216C140.2842,-47.7688 98.9928,-34.5921 54.9252,-20.4524"/>
<polygon fill="#191970" stroke="#191970" points="55.7757,-17.0496 45.1845,-17.3258 53.6363,-23.7147 55.7757,-17.0496"/>
</g>
<!-- Node2 -->
<g id="node3" class="node">
<title>Node2</title>
<polygon fill="none" stroke="#bfbfbf" points="63,-.5 63,-19.5 110,-19.5 110,-.5 63,-.5"/>
<text text-anchor="middle" x="86.5" y="-7.5" font-family="Helvetica,sans-Serif" font-size="10.00" fill="#000000">vector</text>
</g>
<!-- Node0&#45;&gt;Node2 -->
<g id="edge2" class="edge">
<title>Node0&#45;&gt;Node2</title>
<path fill="none" stroke="#191970" d="M178.4184,-56.3733C160.7598,-47.4644 134.2947,-34.1127 114.2902,-24.0203"/>
<polygon fill="#191970" stroke="#191970" points="115.8372,-20.8806 105.3326,-19.5011 112.6842,-27.1303 115.8372,-20.8806"/>
</g>
<!-- Node3 -->
<g id="node4" class="node">
<title>Node3</title>
<polygon fill="none" stroke="#bfbfbf" points="128.5,-.5 128.5,-19.5 192.5,-19.5 192.5,-.5 128.5,-.5"/>
<text text-anchor="middle" x="160.5" y="-7.5" font-family="Helvetica,sans-Serif" font-size="10.00" fill="#000000">algorithm</text>
</g>
<!-- Node0&#45;&gt;Node3 -->
<g id="edge3" class="edge">
<title>Node0&#45;&gt;Node3</title>
<path fill="none" stroke="#191970" d="M191.0551,-56.2455C185.9618,-48.5367 178.7092,-37.5598 172.548,-28.2348"/>
<polygon fill="#191970" stroke="#191970" points="175.3038,-26.0566 166.8711,-19.6427 169.4635,-29.9155 175.3038,-26.0566"/>
</g>
<!-- Node4 -->
<g id="node5" class="node">
<title>Node4</title>
<polygon fill="none" stroke="#bfbfbf" points="211,-.5 211,-19.5 258,-19.5 258,-.5 211,-.5"/>
<text text-anchor="middle" x="234.5" y="-7.5" font-family="Helvetica,sans-Serif" font-size="10.00" fill="#000000">cmath</text>
</g>
<!-- Node0&#45;&gt;Node4 -->
<g id="edge4" class="edge">
<title>Node0&#45;&gt;Node4</title>
<path fill="none" stroke="#191970" d="M203.9449,-56.2455C209.0382,-48.5367 216.2908,-37.5598 222.452,-28.2348"/>
<polygon fill="#191970" stroke="#191970" points="225.5365,-29.9155 228.1289,-19.6427 219.6962,-26.0566 225.5365,-29.9155"/>
</g>
<!-- Node5 -->
<g id="node6" class="node">
<title>Node5</title>
<polygon fill="none" stroke="#bfbfbf" points="276,-.5 276,-19.5 323,-19.5 323,-.5 276,-.5"/>
<text text-anchor="middle" x="299.5" y="-7.5" font-family="Helvetica,sans-Serif" font-size="10.00" fill="#000000">omp.h</text>
</g>
<!-- Node0&#45;&gt;Node5 -->
<g id="edge5" class="edge">
<title>Node0&#45;&gt;Node5</title>
<path fill="none" stroke="#191970" d="M215.267,-56.2455C231.2095,-47.4928 254.8259,-34.527 272.9989,-24.5496"/>
<polygon fill="#191970" stroke="#191970" points="274.8552,-27.5233 281.9366,-19.6427 271.4863,-21.3873 274.8552,-27.5233"/>
</g>
<!-- Node6 -->
<g id="node7" class="node">
<title>Node6</title>
<polygon fill="none" stroke="#bfbfbf" points="341.5,-.5 341.5,-19.5 391.5,-19.5 391.5,-.5 341.5,-.5"/>
<text text-anchor="middle" x="366.5" y="-7.5" font-family="Helvetica,sans-Serif" font-size="10.00" fill="#000000">chrono</text>
</g>
<!-- Node0&#45;&gt;Node6 -->
<g id="edge6" class="edge">
<title>Node0&#45;&gt;Node6</title>
<path fill="none" stroke="#191970" d="M226.5521,-56.3733C255.7613,-46.6945 300.7964,-31.7716 331.8502,-21.4816"/>
<polygon fill="#191970" stroke="#191970" points="333.012,-24.7838 341.4035,-18.316 330.8102,-18.1391 333.012,-24.7838"/>
</g>
</g>
</svg>
