<?xml version="1.0" encoding="UTF-8" standalone="no"?>
<!DOCTYPE svg PUBLIC "-//W3C//DTD SVG 1.1//EN"
 "http://www.w3.org/Graphics/SVG/1.1/DTD/svg11.dtd">
<!-- Generated by graphviz version 2.40.1 (20161225.0304)
 -->
<!-- Title: include/LDA.hpp Pages: 1 -->
<svg width="222pt" height="84pt"
 viewBox="0.00 0.00 222.00 84.00" xmlns="http://www.w3.org/2000/svg" xmlns:xlink="http://www.w3.org/1999/xlink">
<g id="graph0" class="graph" transform="scale(1 1) rotate(0) translate(4 80)">
<title>include/LDA.hpp</title>
<!-- Node0 -->
<g id="node1" class="node">
<title>Node0</title>
<polygon fill="#bfbfbf" stroke="#000000" points="33,-56.5 33,-75.5 128,-75.5 128,-56.5 33,-56.5"/>
<text text-anchor="middle" x="80.5" y="-63.5" font-family="Helvetica,sans-Serif" font-size="10.00" fill="#000000">include/LDA.hpp</text>
</g>
<!-- Node1 -->
<g id="node2" class="node">
<title>Node1</title>
<polygon fill="none" stroke="#bfbfbf" points="0,-.5 0,-19.5 45,-19.5 45,-.5 0,-.5"/>
<text text-anchor="middle" x="22.5" y="-7.5" font-family="Helvetica,sans-Serif" font-size="10.00" fill="#000000">utility</text>
</g>
<!-- Node0&#45;&gt;Node1 -->
<g id="edge1" class="edge">
<title>Node0&#45;&gt;Node1</title>
<path fill="none" stroke="#191970" d="M70.3972,-56.2455C61.9972,-48.1352 49.8506,-36.4075 39.8916,-26.7919"/>
<polygon fill="#191970" stroke="#191970" points="42.1122,-24.0707 32.4871,-19.6427 37.25,-29.1066 42.1122,-24.0707"/>
</g>
<!-- Node2 -->
<g id="node3" class="node">
<title>Node2</title>
<polygon fill="none" stroke="#bfbfbf" points="63,-.5 63,-19.5 214,-19.5 214,-.5 63,-.5"/>
<text text-anchor="middle" x="138.5" y="-7.5" font-family="Helvetica,sans-Serif" font-size="10.00" fill="#000000">../include/matrix/Matrix.hpp</text>
</g>
<!-- Node0&#45;&gt;Node2 -->
<g id="edge2" class="edge">
<title>Node0&#45;&gt;Node2</title>
<path fill="none" stroke="#191970" d="M90.6028,-56.2455C99.0028,-48.1352 111.1494,-36.4075 121.1084,-26.7919"/>
<polygon fill="#191970" stroke="#191970" points="123.75,-29.1066 128.5129,-19.6427 118.8878,-24.0707 123.75,-29.1066"/>
</g>
</g>
</svg>
