<?xml version="1.0" encoding="UTF-8" standalone="no"?>
<!DOCTYPE svg PUBLIC "-//W3C//DTD SVG 1.1//EN"
 "http://www.w3.org/Graphics/SVG/1.1/DTD/svg11.dtd">
<!-- Generated by graphviz version 2.40.1 (20161225.0304)
 -->
<!-- Title: include/MLP.hpp Pages: 1 -->
<svg width="566pt" height="151pt"
 viewBox="0.00 0.00 566.00 151.00" xmlns="http://www.w3.org/2000/svg" xmlns:xlink="http://www.w3.org/1999/xlink">
<g id="graph0" class="graph" transform="scale(1 1) rotate(0) translate(4 147)">
<title>include/MLP.hpp</title>
<!-- Node0 -->
<g id="node1" class="node">
<title>Node0</title>
<polygon fill="#bfbfbf" stroke="#000000" points="96,-123.5 96,-142.5 191,-142.5 191,-123.5 96,-123.5"/>
<text text-anchor="middle" x="143.5" y="-130.5" font-family="Helvetica,sans-Serif" font-size="10.00" fill="#000000">include/MLP.hpp</text>
</g>
<!-- Node1 -->
<g id="node2" class="node">
<title>Node1</title>
<polygon fill="none" stroke="#bfbfbf" points="0,-62 0,-81 47,-81 47,-62 0,-62"/>
<text text-anchor="middle" x="23.5" y="-69" font-family="Helvetica,sans-Serif" font-size="10.00" fill="#000000">vector</text>
</g>
<!-- Node0&#45;&gt;Node1 -->
<g id="edge1" class="edge">
<title>Node0&#45;&gt;Node1</title>
<path fill="none" stroke="#191970" d="M124.75,-123.3906C105.024,-113.2811 73.7688,-97.2628 51.2,-85.6962"/>
<polygon fill="#191970" stroke="#191970" points="52.614,-82.4881 42.1183,-81.0419 49.4213,-88.7176 52.614,-82.4881"/>
</g>
<!-- Node2 -->
<g id="node3" class="node">
<title>Node2</title>
<polygon fill="none" stroke="#bfbfbf" points="32.5,-.5 32.5,-19.5 82.5,-19.5 82.5,-.5 32.5,-.5"/>
<text text-anchor="middle" x="57.5" y="-7.5" font-family="Helvetica,sans-Serif" font-size="10.00" fill="#000000">chrono</text>
</g>
<!-- Node0&#45;&gt;Node2 -->
<g id="edge2" class="edge">
<title>Node0&#45;&gt;Node2</title>
<path fill="none" stroke="#191970" d="M136.7517,-123.3484C122.3709,-102.7804 88.5157,-54.3596 70.0497,-27.9489"/>
<polygon fill="#191970" stroke="#191970" points="72.8155,-25.7967 64.2169,-19.6068 67.0787,-29.8078 72.8155,-25.7967"/>
</g>
<!-- Node3 -->
<g id="node4" class="node">
<title>Node3</title>
<polygon fill="none" stroke="#bfbfbf" points="100.5,-.5 100.5,-19.5 160.5,-19.5 160.5,-.5 100.5,-.5"/>
<text text-anchor="middle" x="130.5" y="-7.5" font-family="Helvetica,sans-Serif" font-size="10.00" fill="#000000">iostream</text>
</g>
<!-- Node0&#45;&gt;Node3 -->
<g id="edge3" class="edge">
<title>Node0&#45;&gt;Node3</title>
<path fill="none" stroke="#191970" d="M140.5381,-123.2405C137.8855,-114.0041 134.1649,-99.7009 132.5,-87 129.9545,-67.5816 129.6669,-45.1806 129.8869,-29.5648"/>
<polygon fill="#191970" stroke="#191970" points="133.3867,-29.609 130.1118,-19.533 126.3884,-29.452 133.3867,-29.609"/>
</g>
<!-- Node4 -->
<g id="node5" class="node">
<title>Node4</title>
<polygon fill="none" stroke="#bfbfbf" points="226,-62 226,-81 377,-81 377,-62 226,-62"/>
<text text-anchor="middle" x="301.5" y="-69" font-family="Helvetica,sans-Serif" font-size="10.00" fill="#000000">../include/matrix/Matrix.hpp</text>
</g>
<!-- Node0&#45;&gt;Node4 -->
<g id="edge4" class="edge">
<title>Node0&#45;&gt;Node4</title>
<path fill="none" stroke="#191970" d="M168.1875,-123.3906C194.8557,-113.0103 237.5282,-96.4004 267.3911,-84.7766"/>
<polygon fill="#191970" stroke="#191970" points="268.9365,-87.9309 276.9859,-81.0419 266.3973,-81.4076 268.9365,-87.9309"/>
</g>
<!-- Node5 -->
<g id="node6" class="node">
<title>Node5</title>
<polygon fill="none" stroke="#bfbfbf" points="395,-56.5 395,-86.5 558,-86.5 558,-56.5 395,-56.5"/>
<text text-anchor="start" x="403" y="-74.5" font-family="Helvetica,sans-Serif" font-size="10.00" fill="#000000">../include/mersenne</text>
<text text-anchor="middle" x="476.5" y="-63.5" font-family="Helvetica,sans-Serif" font-size="10.00" fill="#000000">_twister/MersenneTwister.hpp</text>
</g>
<!-- Node0&#45;&gt;Node5 -->
<g id="edge5" class="edge">
<title>Node0&#45;&gt;Node5</title>
<path fill="none" stroke="#191970" d="M191.2108,-124.1885C241.6545,-114.8724 322.4516,-99.9504 385.2048,-88.3608"/>
<polygon fill="#191970" stroke="#191970" points="385.9159,-91.7888 395.1139,-86.5308 384.6446,-84.9052 385.9159,-91.7888"/>
</g>
<!-- Node6 -->
<g id="node7" class="node">
<title>Node6</title>
<g id="a_node7"><a xlink:href="Timer_8hpp.html" target="_top" xlink:title="Timer.hpp">
<polygon fill="none" stroke="#000000" points="141.5,-62 141.5,-81 207.5,-81 207.5,-62 141.5,-62"/>
<text text-anchor="middle" x="174.5" y="-69" font-family="Helvetica,sans-Serif" font-size="10.00" fill="#000000">Timer.hpp</text>
</a>
</g>
</g>
<!-- Node0&#45;&gt;Node6 -->
<g id="edge6" class="edge">
<title>Node0&#45;&gt;Node6</title>
<path fill="none" stroke="#191970" d="M148.3438,-123.3906C152.7766,-114.5965 159.4631,-101.3312 164.9659,-90.4145"/>
<polygon fill="#191970" stroke="#191970" points="168.2122,-91.75 169.588,-81.2449 161.9614,-88.5992 168.2122,-91.75"/>
</g>
<!-- Node6&#45;&gt;Node2 -->
<g id="edge9" class="edge">
<title>Node6&#45;&gt;Node2</title>
<path fill="none" stroke="#191970" d="M156.2188,-61.8906C136.9859,-51.7811 106.5121,-35.7628 84.5075,-24.1962"/>
<polygon fill="#191970" stroke="#191970" points="86.133,-21.0967 75.6529,-19.5419 82.876,-27.2928 86.133,-21.0967"/>
</g>
<!-- Node6&#45;&gt;Node3 -->
<g id="edge7" class="edge">
<title>Node6&#45;&gt;Node3</title>
<path fill="none" stroke="#191970" d="M167.625,-61.8906C161.1407,-52.8273 151.2586,-39.0149 143.3199,-27.9188"/>
<polygon fill="#191970" stroke="#191970" points="146.1371,-25.8412 137.4719,-19.7449 140.4441,-29.9143 146.1371,-25.8412"/>
</g>
<!-- Node7 -->
<g id="node8" class="node">
<title>Node7</title>
<polygon fill="none" stroke="#bfbfbf" points="178.5,-.5 178.5,-19.5 222.5,-19.5 222.5,-.5 178.5,-.5"/>
<text text-anchor="middle" x="200.5" y="-7.5" font-family="Helvetica,sans-Serif" font-size="10.00" fill="#000000">string</text>
</g>
<!-- Node6&#45;&gt;Node7 -->
<g id="edge8" class="edge">
<title>Node6&#45;&gt;Node7</title>
<path fill="none" stroke="#191970" d="M178.5625,-61.8906C182.2424,-53.1862 187.7742,-40.1015 192.362,-29.2494"/>
<polygon fill="#191970" stroke="#191970" points="195.71,-30.3185 196.3802,-19.7449 189.2625,-27.5927 195.71,-30.3185"/>
</g>
<!-- Node8 -->
<g id="node9" class="node">
<title>Node8</title>
<polygon fill="none" stroke="#bfbfbf" points="240.5,-.5 240.5,-19.5 290.5,-19.5 290.5,-.5 240.5,-.5"/>
<text text-anchor="middle" x="265.5" y="-7.5" font-family="Helvetica,sans-Serif" font-size="10.00" fill="#000000">climits</text>
</g>
<!-- Node6&#45;&gt;Node8 -->
<g id="edge10" class="edge">
<title>Node6&#45;&gt;Node8</title>
<path fill="none" stroke="#191970" d="M188.7188,-61.8906C203.1434,-52.1421 225.6976,-36.8994 242.636,-25.4521"/>
<polygon fill="#191970" stroke="#191970" points="245.0556,-28.0412 251.3811,-19.5419 241.1359,-22.2415 245.0556,-28.0412"/>
</g>
</g>
</svg>
