<?xml version="1.0" encoding="UTF-8" standalone="no"?>
<!DOCTYPE svg PUBLIC "-//W3C//DTD SVG 1.1//EN"
 "http://www.w3.org/Graphics/SVG/1.1/DTD/svg11.dtd">
<!-- Generated by graphviz version 2.40.1 (20161225.0304)
 -->
<!-- Title: include/NaiveBayes.hpp Pages: 1 -->
<svg width="278pt" height="84pt"
 viewBox="0.00 0.00 277.50 84.00" xmlns="http://www.w3.org/2000/svg" xmlns:xlink="http://www.w3.org/1999/xlink">
<g id="graph0" class="graph" transform="scale(1 1) rotate(0) translate(4 80)">
<title>include/NaiveBayes.hpp</title>
<!-- Node0 -->
<g id="node1" class="node">
<title>Node0</title>
<polygon fill="#bfbfbf" stroke="#000000" points="14,-56.5 14,-75.5 148,-75.5 148,-56.5 14,-56.5"/>
<text text-anchor="middle" x="81" y="-63.5" font-family="Helvetica,sans-Serif" font-size="10.00" fill="#000000">include/NaiveBayes.hpp</text>
</g>
<!-- Node1 -->
<g id="node2" class="node">
<title>Node1</title>
<polygon fill="none" stroke="#bfbfbf" points="0,-.5 0,-19.5 44,-19.5 44,-.5 0,-.5"/>
<text text-anchor="middle" x="22" y="-7.5" font-family="Helvetica,sans-Serif" font-size="10.00" fill="#000000">string</text>
</g>
<!-- Node0&#45;&gt;Node1 -->
<g id="edge1" class="edge">
<title>Node0&#45;&gt;Node1</title>
<path fill="none" stroke="#191970" d="M70.723,-56.2455C62.1782,-48.1352 49.8222,-36.4075 39.6915,-26.7919"/>
<polygon fill="#191970" stroke="#191970" points="41.8218,-23.9884 32.1592,-19.6427 37.0028,-29.0655 41.8218,-23.9884"/>
</g>
<!-- Node2 -->
<g id="node3" class="node">
<title>Node2</title>
<polygon fill="none" stroke="#bfbfbf" points="62,-.5 62,-19.5 100,-19.5 100,-.5 62,-.5"/>
<text text-anchor="middle" x="81" y="-7.5" font-family="Helvetica,sans-Serif" font-size="10.00" fill="#000000">map</text>
</g>
<!-- Node0&#45;&gt;Node2 -->
<g id="edge2" class="edge">
<title>Node0&#45;&gt;Node2</title>
<path fill="none" stroke="#191970" d="M81,-56.2455C81,-48.9382 81,-38.6944 81,-29.7046"/>
<polygon fill="#191970" stroke="#191970" points="84.5001,-29.6426 81,-19.6427 77.5001,-29.6427 84.5001,-29.6426"/>
</g>
<!-- Node3 -->
<g id="node4" class="node">
<title>Node3</title>
<polygon fill="none" stroke="#bfbfbf" points="118.5,-.5 118.5,-19.5 269.5,-19.5 269.5,-.5 118.5,-.5"/>
<text text-anchor="middle" x="194" y="-7.5" font-family="Helvetica,sans-Serif" font-size="10.00" fill="#000000">../include/matrix/Matrix.hpp</text>
</g>
<!-- Node0&#45;&gt;Node3 -->
<g id="edge3" class="edge">
<title>Node0&#45;&gt;Node3</title>
<path fill="none" stroke="#191970" d="M100.4254,-56.3733C118.4021,-47.4644 145.3441,-34.1127 165.709,-24.0203"/>
<polygon fill="#191970" stroke="#191970" points="167.4222,-27.0776 174.8281,-19.5011 164.3139,-20.8055 167.4222,-27.0776"/>
</g>
</g>
</svg>
