<?xml version="1.0" encoding="UTF-8" standalone="no"?>
<!DOCTYPE svg PUBLIC "-//W3C//DTD SVG 1.1//EN"
 "http://www.w3.org/Graphics/SVG/1.1/DTD/svg11.dtd">
<!-- Generated by graphviz version 2.40.1 (20161225.0304)
 -->
<!-- Title: include/Timer.hpp Pages: 1 -->
<svg width="246pt" height="84pt"
 viewBox="0.00 0.00 246.00 84.00" xmlns="http://www.w3.org/2000/svg" xmlns:xlink="http://www.w3.org/1999/xlink">
<g id="graph0" class="graph" transform="scale(1 1) rotate(0) translate(4 80)">
<title>include/Timer.hpp</title>
<!-- Node5 -->
<g id="node1" class="node">
<title>Node5</title>
<polygon fill="#bfbfbf" stroke="#000000" points="74.5,-56.5 74.5,-75.5 178.5,-75.5 178.5,-56.5 74.5,-56.5"/>
<text text-anchor="middle" x="126.5" y="-63.5" font-family="Helvetica,sans-Serif" font-size="10.00" fill="#000000">include/Timer.hpp</text>
</g>
<!-- Node6 -->
<g id="node2" class="node">
<title>Node6</title>
<g id="a_node2"><a xlink:href="GridWorld_8hpp.html" target="_top" xlink:title="include/GridWorld.hpp">
<polygon fill="none" stroke="#000000" points="0,-.5 0,-19.5 125,-19.5 125,-.5 0,-.5"/>
<text text-anchor="middle" x="62.5" y="-7.5" font-family="Helvetica,sans-Serif" font-size="10.00" fill="#000000">include/GridWorld.hpp</text>
</a>
</g>
</g>
<!-- Node5&#45;&gt;Node6 -->
<g id="edge1" class="edge">
<title>Node5&#45;&gt;Node6</title>
<path fill="none" stroke="#191970" d="M107.8086,-49.645C96.6781,-39.9058 82.9337,-27.8795 73.5202,-19.6427"/>
<polygon fill="#191970" stroke="#191970" points="105.5215,-52.2945 115.3521,-56.2455 110.131,-47.0264 105.5215,-52.2945"/>
</g>
<!-- Node7 -->
<g id="node3" class="node">
<title>Node7</title>
<g id="a_node3"><a xlink:href="MLP_8hpp.html" target="_top" xlink:title="include/MLP.hpp">
<polygon fill="none" stroke="#000000" points="143,-.5 143,-19.5 238,-19.5 238,-.5 143,-.5"/>
<text text-anchor="middle" x="190.5" y="-7.5" font-family="Helvetica,sans-Serif" font-size="10.00" fill="#000000">include/MLP.hpp</text>
</a>
</g>
</g>
<!-- Node5&#45;&gt;Node7 -->
<g id="edge2" class="edge">
<title>Node5&#45;&gt;Node7</title>
<path fill="none" stroke="#191970" d="M145.1914,-49.645C156.3219,-39.9058 170.0663,-27.8795 179.4798,-19.6427"/>
<polygon fill="#191970" stroke="#191970" points="142.869,-47.0264 137.6479,-56.2455 147.4785,-52.2945 142.869,-47.0264"/>
</g>
</g>
</svg>
