<?xml version="1.0" encoding="UTF-8" standalone="no"?>
<!DOCTYPE svg PUBLIC "-//W3C//DTD SVG 1.1//EN"
 "http://www.w3.org/Graphics/SVG/1.1/DTD/svg11.dtd">
<!-- Generated by graphviz version 2.40.1 (20161225.0304)
 -->
<!-- Title: include/Timer.hpp Pages: 1 -->
<svg width="266pt" height="84pt"
 viewBox="0.00 0.00 266.00 84.00" xmlns="http://www.w3.org/2000/svg" xmlns:xlink="http://www.w3.org/1999/xlink">
<g id="graph0" class="graph" transform="scale(1 1) rotate(0) translate(4 80)">
<title>include/Timer.hpp</title>
<!-- Node0 -->
<g id="node1" class="node">
<title>Node0</title>
<polygon fill="#bfbfbf" stroke="#000000" points="80,-56.5 80,-75.5 184,-75.5 184,-56.5 80,-56.5"/>
<text text-anchor="middle" x="132" y="-63.5" font-family="Helvetica,sans-Serif" font-size="10.00" fill="#000000">include/Timer.hpp</text>
</g>
<!-- Node1 -->
<g id="node2" class="node">
<title>Node1</title>
<polygon fill="none" stroke="#bfbfbf" points="0,-.5 0,-19.5 60,-19.5 60,-.5 0,-.5"/>
<text text-anchor="middle" x="30" y="-7.5" font-family="Helvetica,sans-Serif" font-size="10.00" fill="#000000">iostream</text>
</g>
<!-- Node0&#45;&gt;Node1 -->
<g id="edge1" class="edge">
<title>Node0&#45;&gt;Node1</title>
<path fill="none" stroke="#191970" d="M114.233,-56.2455C98.2905,-47.4928 74.6741,-34.527 56.5011,-24.5496"/>
<polygon fill="#191970" stroke="#191970" points="58.0137,-21.3873 47.5634,-19.6427 54.6448,-27.5233 58.0137,-21.3873"/>
</g>
<!-- Node2 -->
<g id="node3" class="node">
<title>Node2</title>
<polygon fill="none" stroke="#bfbfbf" points="78,-.5 78,-19.5 122,-19.5 122,-.5 78,-.5"/>
<text text-anchor="middle" x="100" y="-7.5" font-family="Helvetica,sans-Serif" font-size="10.00" fill="#000000">string</text>
</g>
<!-- Node0&#45;&gt;Node2 -->
<g id="edge2" class="edge">
<title>Node0&#45;&gt;Node2</title>
<path fill="none" stroke="#191970" d="M126.426,-56.2455C122.0669,-48.617 115.8789,-37.7881 110.5867,-28.5267"/>
<polygon fill="#191970" stroke="#191970" points="113.5104,-26.5886 105.5101,-19.6427 107.4327,-30.0616 113.5104,-26.5886"/>
</g>
<!-- Node3 -->
<g id="node4" class="node">
<title>Node3</title>
<polygon fill="none" stroke="#bfbfbf" points="140,-.5 140,-19.5 190,-19.5 190,-.5 140,-.5"/>
<text text-anchor="middle" x="165" y="-7.5" font-family="Helvetica,sans-Serif" font-size="10.00" fill="#000000">chrono</text>
</g>
<!-- Node0&#45;&gt;Node3 -->
<g id="edge3" class="edge">
<title>Node0&#45;&gt;Node3</title>
<path fill="none" stroke="#191970" d="M137.7482,-56.2455C142.2435,-48.617 148.6248,-37.7881 154.0825,-28.5267"/>
<polygon fill="#191970" stroke="#191970" points="157.2561,-30.035 159.3177,-19.6427 151.2253,-26.4811 157.2561,-30.035"/>
</g>
<!-- Node4 -->
<g id="node5" class="node">
<title>Node4</title>
<polygon fill="none" stroke="#bfbfbf" points="208,-.5 208,-19.5 258,-19.5 258,-.5 208,-.5"/>
<text text-anchor="middle" x="233" y="-7.5" font-family="Helvetica,sans-Serif" font-size="10.00" fill="#000000">climits</text>
</g>
<!-- Node0&#45;&gt;Node4 -->
<g id="edge4" class="edge">
<title>Node0&#45;&gt;Node4</title>
<path fill="none" stroke="#191970" d="M149.5929,-56.2455C165.379,-47.4928 188.7639,-34.527 206.7587,-24.5496"/>
<polygon fill="#191970" stroke="#191970" points="208.5603,-27.5528 215.6087,-19.6427 205.1659,-21.4308 208.5603,-27.5528"/>
</g>
</g>
</svg>
